<?xml version="1.0" encoding="utf-8"?>
<!-- Generator: Adobe Illustrator 27.9.3, SVG Export Plug-In . SVG Version: 9.03 Build 53313)  -->
<svg version="1.1" id="レイヤー_1" xmlns="http://www.w3.org/2000/svg" xmlns:xlink="http://www.w3.org/1999/xlink" x="0px"
	 y="0px" viewBox="0 0 513.09 675.82" style="enable-background:new 0 0 513.09 675.82;" xml:space="preserve">
<style type="text/css">
	.st0{fill:none;}
	.st1{clip-path:url(#SVGID_00000096751974888514940140000016056356441630303114_);fill:#F5FAF6;}
	
		.st2{clip-path:url(#SVGID_00000096751974888514940140000016056356441630303114_);fill:#1EAA39;stroke:#F8D6E5;stroke-width:9;stroke-miterlimit:10;}
	
		.st3{clip-path:url(#SVGID_00000096751974888514940140000016056356441630303114_);fill:#231815;stroke:#231815;stroke-miterlimit:10;}
	
		.st4{clip-path:url(#SVGID_00000096751974888514940140000016056356441630303114_);fill:#EF96BD;stroke:#231815;stroke-miterlimit:10;}
	.st5{fill:none;stroke:#230000;stroke-width:3;stroke-linecap:round;stroke-linejoin:round;stroke-miterlimit:10;}
	.st6{fill:#FDD500;}
	.st7{clip-path:url(#SVGID_00000147941736267133010900000004652077311362262162_);}
	.st8{fill:#BAE2F8;}
	.st9{fill:#FFFFFF;stroke:#231815;stroke-linecap:round;stroke-linejoin:round;stroke-miterlimit:10;}
	.st10{fill:none;stroke:#EF96BD;stroke-miterlimit:10;}
	.st11{fill:#FFF362;stroke:#0076C2;stroke-width:2;stroke-miterlimit:10;}
	.st12{fill:#FFFFFF;stroke:#0076C2;stroke-miterlimit:10;}
	.st13{fill:#F09DC1;stroke:#0076C2;stroke-miterlimit:10;}
	.st14{fill:#C6E7F9;stroke:#0076C2;stroke-miterlimit:10;}
	.st15{fill:#A7D081;stroke:#0076C2;stroke-miterlimit:10;}
	.st16{fill:#130C0F;}
	.st17{fill:#FDFFFD;}
	.st18{fill:#231815;}
	.st19{fill:#FFFFFF;}
	.st20{fill:none;stroke:#231815;stroke-width:3;stroke-linecap:round;stroke-linejoin:round;}
	.st21{fill:#466A6A;stroke:#231815;stroke-width:2;stroke-miterlimit:10;}
	.st22{fill:#F7C095;stroke:#231815;stroke-width:2;stroke-miterlimit:10;}
	
		.st23{clip-path:url(#SVGID_00000054232600116727765630000012400807715097281666_);fill:#FDDE8E;stroke:#231815;stroke-width:2;stroke-miterlimit:10;}
	.st24{fill:#231815;stroke:#FFFFFF;stroke-miterlimit:10;}
	.st25{fill:#FFFBDA;stroke:#231815;stroke-width:2;stroke-miterlimit:10;}
	.st26{fill:#F29900;stroke:#230000;stroke-width:2;stroke-miterlimit:10;}
	.st27{fill:none;stroke:#FFFFFF;stroke-width:2;}
	.st28{fill:#1EAA39;stroke:#231815;stroke-miterlimit:10;}
</style>
<rect class="st0" width="513.09" height="675.82"/>
<g>
	<g>
		<defs>
			<rect id="SVGID_1_" y="8.55" width="513.09" height="504.35"/>
		</defs>
		<clipPath id="SVGID_00000105385254662344718490000004929829539626738874_">
			<use xlink:href="#SVGID_1_"  style="overflow:visible;"/>
		</clipPath>
		
			<rect y="8.55" style="clip-path:url(#SVGID_00000105385254662344718490000004929829539626738874_);fill:#F5FAF6;" width="513.09" height="504.35"/>
		
			<rect x="38.22" y="116.57" style="clip-path:url(#SVGID_00000105385254662344718490000004929829539626738874_);fill:#1EAA39;stroke:#F8D6E5;stroke-width:9;stroke-miterlimit:10;" width="436.65" height="361.83"/>
		
			<polygon style="clip-path:url(#SVGID_00000105385254662344718490000004929829539626738874_);fill:#231815;stroke:#231815;stroke-miterlimit:10;" points="
			426.78,272.35 487.3,261.32 485.52,272.35 515.03,268.17 515.03,302.16 460.77,302.16 463.45,292.32 430.66,293.81 		"/>
		
			<polygon style="clip-path:url(#SVGID_00000105385254662344718490000004929829539626738874_);fill:#EF96BD;stroke:#231815;stroke-miterlimit:10;" points="
			426.78,270.35 487.3,259.32 485.52,270.35 515.03,266.17 515.03,300.16 460.77,300.16 463.45,290.32 430.66,291.81 		"/>
		
			<polygon style="clip-path:url(#SVGID_00000105385254662344718490000004929829539626738874_);fill:#231815;stroke:#231815;stroke-miterlimit:10;" points="
			339.85,443.92 366.78,491.87 356.93,493.56 369.05,517.3 340.32,527.18 324.54,481.32 333.63,480.73 322.84,453.44 		"/>
		
			<polygon style="clip-path:url(#SVGID_00000105385254662344718490000004929829539626738874_);fill:#EF96BD;stroke:#231815;stroke-miterlimit:10;" points="
			341.54,443.34 368.47,491.29 358.62,492.98 370.74,516.71 342.01,526.6 326.23,480.74 335.32,480.14 324.53,452.86 		"/>
		
			<polygon style="clip-path:url(#SVGID_00000105385254662344718490000004929829539626738874_);fill:#231815;stroke:#231815;stroke-miterlimit:10;" points="
			87.4,268.24 26.88,257.2 28.67,268.24 -0.85,264.06 -0.85,298.05 53.41,298.05 50.73,288.21 83.52,289.7 		"/>
		
			<polygon style="clip-path:url(#SVGID_00000105385254662344718490000004929829539626738874_);fill:#EF96BD;stroke:#231815;stroke-miterlimit:10;" points="
			87.4,266.24 26.88,255.2 28.67,266.24 -0.85,262.06 -0.85,296.05 53.41,296.05 50.73,286.21 83.52,287.7 		"/>
		
			<polygon style="clip-path:url(#SVGID_00000105385254662344718490000004929829539626738874_);fill:#231815;stroke:#231815;stroke-miterlimit:10;" points="
			172.24,443.92 145.32,491.87 155.16,493.56 143.05,517.3 171.78,527.18 187.56,481.32 178.46,480.73 189.26,453.44 		"/>
		
			<polygon style="clip-path:url(#SVGID_00000105385254662344718490000004929829539626738874_);fill:#EF96BD;stroke:#231815;stroke-miterlimit:10;" points="
			170.55,443.34 143.63,491.29 153.47,492.98 141.36,516.71 170.09,526.6 185.87,480.74 176.77,480.14 187.57,452.86 		"/>
	</g>
	<g>
		<g>
			<path class="st5" d="M328.55,31.58c0,0.7-0.11,1.22-0.34,1.56c-0.2,0.36-0.59,0.74-1.15,1.15c-1.92,1.35-4.78,3.46-8.6,6.33
				c0,2.19,0.18,5.54,0.54,10.05c0.32,4.51,0.47,6.98,0.47,7.41h-4.97c0-0.81-0.15-2.99-0.44-6.53c-0.29-3.56-0.44-6.23-0.44-7.99
				l-7.48,6.02l-3.25-3.76c5.71-4.42,9.26-7.17,10.66-8.26c4.02-3.05,7.69-5.62,11.03-7.72c0.47-0.32,1-0.47,1.59-0.47
				c0.63,0,1.17,0.23,1.62,0.68C328.31,30.46,328.55,30.97,328.55,31.58z"/>
			<path class="st5" d="M337.25,32.73c0-0.14-0.29,1.64-0.88,5.31c-1.06,6.09-1.59,11.92-1.59,17.5l-4.91,0.07
				c0-5.64,0.48-11.6,1.46-17.87c0.56-3.61,1.06-5.78,1.49-6.5c0.56-0.95,1.27-1.42,2.13-1.42
				C336.48,29.82,337.25,30.79,337.25,32.73z M357.89,53.61c-2.05,1.87-4.17,2.81-6.36,2.81c-4.94,0-7.41-2.83-7.41-8.49
				c0-2.23,0.33-4.86,0.98-7.88c0.65-3.16,1.42-5.66,2.3-7.51c0.74-1.47,1.64-2.2,2.67-2.2c0.63,0,1.15,0.2,1.56,0.61
				c0.43,0.41,0.64,0.93,0.64,1.56c0,0.27-0.49,1.96-1.46,5.08c-0.97,3.09-1.46,5.47-1.46,7.14c0,0.29-0.03,0.85-0.1,1.66
				c-0.07,0.79-0.1,1.39-0.1,1.79c0,2.32,0.77,3.49,2.3,3.49c1.15,0,2.47-0.62,3.96-1.86L357.89,53.61z"/>
			<path class="st5" d="M386.32,38.28c0,2.19-0.85,4.57-2.54,7.14c-0.93,1.47-2.53,3.51-4.81,6.12l3.96,1.56l-1.9,4.23
				c-3.43-0.97-8.97-2.88-16.62-5.72c-1.35-0.52-2.03-1.26-2.03-2.23c0-0.79,0.25-1.4,0.74-1.83c0.5-0.45,1.13-0.68,1.9-0.68
				c0.38,0,1.84,0.45,4.37,1.35c1.51,0.54,3.03,1.06,4.57,1.56c1.51-1.51,2.96-3.17,4.33-4.97c1.96-2.53,2.94-4.3,2.94-5.31
				c0-1.6-0.88-2.67-2.64-3.21c-1.06-0.36-2.59-0.54-4.6-0.54c-2.17,0-4.42,0.44-6.77,1.32c-1.2,0.45-3.27,1.42-6.23,2.91l-1.79-4.3
				c5.53-3.2,10.7-4.81,15.53-4.81c3.09,0,5.62,0.47,7.58,1.42C384.99,33.55,386.32,35.55,386.32,38.28z"/>
			<path class="st5" d="M414.34,43.79c0,1.62-0.99,2.44-2.98,2.44l-6.53-0.03c-0.54,2.55-1.05,4.49-1.52,5.82
				c-0.68,1.81-1.58,3.6-2.71,5.38l-4.47-1.86c1.8-3.07,3.07-6.18,3.79-9.34l-12.28,0.2v-4.74l23.18-0.1
				C413.17,41.56,414.34,42.3,414.34,43.79z M412.07,34.11c0,1.56-0.88,2.33-2.64,2.33l-2.17-0.17c-6.95-0.7-12.85-1.05-17.7-1.05
				c0-2.41,0.03-3.98,0.1-4.7c6.09,0,12.09,0.3,18,0.91c1.29,0.14,2.23,0.32,2.84,0.54C411.55,32.43,412.07,33.14,412.07,34.11z"/>
			<path class="st5" d="M436.13,38.65c0,0.86-0.36,1.53-1.08,2.03c-1.44,0.93-3.62,2.3-6.53,4.13v0.71c0-0.16,0.14,3.89,0.41,12.15
				l-4.5,0.07l-0.41-9.92l-5.62,3.86l-2.71-3.69c8.1-6.11,13.71-9.92,16.82-11.4c0.43-0.2,0.86-0.3,1.29-0.3
				c0.68,0,1.23,0.24,1.66,0.71C435.91,37.4,436.13,37.95,436.13,38.65z"/>
			<path class="st5" d="M445.1,48.97l-4.3,1.62c-0.54-1.11-1.16-2.72-1.86-4.84c-0.72-2.37-1.08-4.06-1.08-5.08
				c0-1.71,0.68-2.57,2.03-2.57c1.33,0,2.13,0.61,2.4,1.83C442.72,41.72,443.66,44.73,445.1,48.97z M453.83,45.89l-4.3,1.96
				c-0.54-1.11-1.11-2.53-1.69-4.26c-0.61-1.96-0.91-3.44-0.91-4.43c0-1.56,0.77-2.33,2.3-2.33c1.04,0,1.71,0.5,2.03,1.49
				C452.28,41.58,453.13,44.11,453.83,45.89z M463.41,40.81c0,2.28-1,5.35-3.01,9.2c-1.81,3.47-3.62,6.18-5.45,8.12l-3.96-2.77
				c3.79-4.24,6.37-9.26,7.75-15.06c0.36-1.53,1.09-2.3,2.2-2.3C462.59,38.01,463.41,38.94,463.41,40.81z"/>
			<path class="st5" d="M492.28,40.54c0,2.03-0.97,4.88-2.91,8.56c-1.71,3.25-3.51,5.9-5.38,7.95c-0.36,0.45-0.93,0.68-1.69,0.68
				c-0.72,0-1.35-0.25-1.9-0.74c-0.52-0.45-0.78-1.03-0.78-1.73c0-0.38,0.09-0.7,0.27-0.95c2.1-2.86,3.56-4.99,4.4-6.36
				c1.94-3.16,2.91-5.46,2.91-6.9c0-1.71-1.68-2.57-5.04-2.57c-3.18,0-6.11,1.12-8.8,3.35l-3.99,7.14l-4.26-2.37
				c2.1-3.95,5.12-9.28,9.07-16.01c0.65-1.04,1.4-1.56,2.23-1.56c1.62,0,2.44,0.84,2.44,2.5c0,0.47-0.52,1.55-1.56,3.21
				c1.58-0.77,3.37-1.15,5.38-1.15c2.48,0,4.6,0.53,6.36,1.59C491.19,36.44,492.28,38.22,492.28,40.54z"/>
		</g>
		<g>
			<path class="st6" d="M328.55,31.58c0,0.7-0.11,1.22-0.34,1.56c-0.2,0.36-0.59,0.74-1.15,1.15c-1.92,1.35-4.78,3.46-8.6,6.33
				c0,2.19,0.18,5.54,0.54,10.05c0.32,4.51,0.47,6.98,0.47,7.41h-4.97c0-0.81-0.15-2.99-0.44-6.53c-0.29-3.56-0.44-6.23-0.44-7.99
				l-7.48,6.02l-3.25-3.76c5.71-4.42,9.26-7.17,10.66-8.26c4.02-3.05,7.69-5.62,11.03-7.72c0.47-0.32,1-0.47,1.59-0.47
				c0.63,0,1.17,0.23,1.62,0.68C328.31,30.46,328.55,30.97,328.55,31.58z"/>
			<path class="st6" d="M337.25,32.73c0-0.14-0.29,1.64-0.88,5.31c-1.06,6.09-1.59,11.92-1.59,17.5l-4.91,0.07
				c0-5.64,0.48-11.6,1.46-17.87c0.56-3.61,1.06-5.78,1.49-6.5c0.56-0.95,1.27-1.42,2.13-1.42
				C336.48,29.82,337.25,30.79,337.25,32.73z M357.89,53.61c-2.05,1.87-4.17,2.81-6.36,2.81c-4.94,0-7.41-2.83-7.41-8.49
				c0-2.23,0.33-4.86,0.98-7.88c0.65-3.16,1.42-5.66,2.3-7.51c0.74-1.47,1.64-2.2,2.67-2.2c0.63,0,1.15,0.2,1.56,0.61
				c0.43,0.41,0.64,0.93,0.64,1.56c0,0.27-0.49,1.96-1.46,5.08c-0.97,3.09-1.46,5.47-1.46,7.14c0,0.29-0.03,0.85-0.1,1.66
				c-0.07,0.79-0.1,1.39-0.1,1.79c0,2.32,0.77,3.49,2.3,3.49c1.15,0,2.47-0.62,3.96-1.86L357.89,53.61z"/>
			<path class="st6" d="M386.32,38.28c0,2.19-0.85,4.57-2.54,7.14c-0.93,1.47-2.53,3.51-4.81,6.12l3.96,1.56l-1.9,4.23
				c-3.43-0.97-8.97-2.88-16.62-5.72c-1.35-0.52-2.03-1.26-2.03-2.23c0-0.79,0.25-1.4,0.74-1.83c0.5-0.45,1.13-0.68,1.9-0.68
				c0.38,0,1.84,0.45,4.37,1.35c1.51,0.54,3.03,1.06,4.57,1.56c1.51-1.51,2.96-3.17,4.33-4.97c1.96-2.53,2.94-4.3,2.94-5.31
				c0-1.6-0.88-2.67-2.64-3.21c-1.06-0.36-2.59-0.54-4.6-0.54c-2.17,0-4.42,0.44-6.77,1.32c-1.2,0.45-3.27,1.42-6.23,2.91l-1.79-4.3
				c5.53-3.2,10.7-4.81,15.53-4.81c3.09,0,5.62,0.47,7.58,1.42C384.99,33.55,386.32,35.55,386.32,38.28z"/>
			<path class="st6" d="M414.34,43.79c0,1.62-0.99,2.44-2.98,2.44l-6.53-0.03c-0.54,2.55-1.05,4.49-1.52,5.82
				c-0.68,1.81-1.58,3.6-2.71,5.38l-4.47-1.86c1.8-3.07,3.07-6.18,3.79-9.34l-12.28,0.2v-4.74l23.18-0.1
				C413.17,41.56,414.34,42.3,414.34,43.79z M412.07,34.11c0,1.56-0.88,2.33-2.64,2.33l-2.17-0.17c-6.95-0.7-12.85-1.05-17.7-1.05
				c0-2.41,0.03-3.98,0.1-4.7c6.09,0,12.09,0.3,18,0.91c1.29,0.14,2.23,0.32,2.84,0.54C411.55,32.43,412.07,33.14,412.07,34.11z"/>
			<path class="st6" d="M436.13,38.65c0,0.86-0.36,1.53-1.08,2.03c-1.44,0.93-3.62,2.3-6.53,4.13v0.71c0-0.16,0.14,3.89,0.41,12.15
				l-4.5,0.07l-0.41-9.92l-5.62,3.86l-2.71-3.69c8.1-6.11,13.71-9.92,16.82-11.4c0.43-0.2,0.86-0.3,1.29-0.3
				c0.68,0,1.23,0.24,1.66,0.71C435.91,37.4,436.13,37.95,436.13,38.65z"/>
			<path class="st6" d="M445.1,48.97l-4.3,1.62c-0.54-1.11-1.16-2.72-1.86-4.84c-0.72-2.37-1.08-4.06-1.08-5.08
				c0-1.71,0.68-2.57,2.03-2.57c1.33,0,2.13,0.61,2.4,1.83C442.72,41.72,443.66,44.73,445.1,48.97z M453.83,45.89l-4.3,1.96
				c-0.54-1.11-1.11-2.53-1.69-4.26c-0.61-1.96-0.91-3.44-0.91-4.43c0-1.56,0.77-2.33,2.3-2.33c1.04,0,1.71,0.5,2.03,1.49
				C452.28,41.58,453.13,44.11,453.83,45.89z M463.41,40.81c0,2.28-1,5.35-3.01,9.2c-1.81,3.47-3.62,6.18-5.45,8.12l-3.96-2.77
				c3.79-4.24,6.37-9.26,7.75-15.06c0.36-1.53,1.09-2.3,2.2-2.3C462.59,38.01,463.41,38.94,463.41,40.81z"/>
			<path class="st6" d="M492.28,40.54c0,2.03-0.97,4.88-2.91,8.56c-1.71,3.25-3.51,5.9-5.38,7.95c-0.36,0.45-0.93,0.68-1.69,0.68
				c-0.72,0-1.35-0.25-1.9-0.74c-0.52-0.45-0.78-1.03-0.78-1.73c0-0.38,0.09-0.7,0.27-0.95c2.1-2.86,3.56-4.99,4.4-6.36
				c1.94-3.16,2.91-5.46,2.91-6.9c0-1.71-1.68-2.57-5.04-2.57c-3.18,0-6.11,1.12-8.8,3.35l-3.99,7.14l-4.26-2.37
				c2.1-3.95,5.12-9.28,9.07-16.01c0.65-1.04,1.4-1.56,2.23-1.56c1.62,0,2.44,0.84,2.44,2.5c0,0.47-0.52,1.55-1.56,3.21
				c1.58-0.77,3.37-1.15,5.38-1.15c2.48,0,4.6,0.53,6.36,1.59C491.19,36.44,492.28,38.22,492.28,40.54z"/>
		</g>
	</g>
	<g>
		<defs>
			<path id="SVGID_00000066476113247395305730000010412024655636729534_" d="M493.09,666.41H20c-6.6,0-12-5.4-12-12V531.9
				c0-6.6,5.4-12,12-12h473.09c6.6,0,12,5.4,12,12v122.52C505.09,661.01,499.69,666.41,493.09,666.41z"/>
		</defs>
		<use xlink:href="#SVGID_00000066476113247395305730000010412024655636729534_"  style="overflow:visible;fill:#A7DBF6;"/>
		<clipPath id="SVGID_00000043441351211295469900000015977613452455099311_">
			<use xlink:href="#SVGID_00000066476113247395305730000010412024655636729534_"  style="overflow:visible;"/>
		</clipPath>
		<g style="clip-path:url(#SVGID_00000043441351211295469900000015977613452455099311_);">
			<g>
				<polygon class="st8" points="28.76,771.6 50.68,782.07 42.19,778.02 258.42,674.73 474.65,778.02 488.08,771.6 258.42,661.89 
									"/>
				<path class="st8" d="M49.17,785.23L49.17,785.23l-15.1-7.21h0l-13.44-6.42l237.78-113.59L496.2,771.6l-21.55,10.3L258.42,678.61
					l-208.1,99.41l1.87,0.89L49.17,785.23z M258.42,670.85l216.23,103.29l5.31-2.54L258.42,665.77L36.88,771.6l5.32,2.54
					L258.42,670.85z"/>
			</g>
			<g>
				<polygon class="st8" points="59.16,786.13 72.6,792.54 258.42,703.78 444.24,792.54 457.67,786.13 258.42,690.94 				"/>
				<path class="st8" d="M444.24,796.42l-185.82-88.77L72.6,796.42l-21.55-10.3l207.37-99.06l207.38,99.06L444.24,796.42z
					 M67.28,786.13l5.32,2.54l185.82-88.77l185.82,88.77l5.31-2.54l-191.14-91.31L67.28,786.13z"/>
			</g>
			<g>
				<polygon class="st8" points="9.61,483.76 -34.23,504.7 151.59,593.47 -34.23,682.24 -12.31,692.71 -20.8,688.66 178.46,593.47 
					-20.8,498.29 -3.83,490.18 212.4,593.47 -3.83,696.76 9.61,703.18 239.27,593.47 				"/>
				<path class="st8" d="M9.61,707.06l-21.55-10.3l216.23-103.29L-3.83,494.06l-8.85,4.23l199.26,95.18l-199.26,95.18l1.87,0.9
					l-3.02,6.32l-28.53-13.63l185.82-88.77L-42.35,504.7l51.96-24.82l237.78,113.59L9.61,707.06z M4.29,696.76l5.32,2.54
					l221.54-105.83L9.61,487.64l-5.32,2.54l216.23,103.29L4.29,696.76z M-26.11,682.24l5.31,2.54l191.14-91.31L-20.8,502.17
					l-5.31,2.54l185.82,88.77L-26.11,682.24z"/>
			</g>
			<g>
				<polygon class="st8" points="-112.54,483.76 -156.38,504.7 29.44,593.47 -156.38,682.24 -134.46,692.71 -142.94,688.66 
					56.31,593.47 -142.94,498.29 -125.97,490.18 90.25,593.47 -125.97,696.76 -112.54,703.18 117.12,593.47 				"/>
				<path class="st8" d="M-112.54,707.06l-21.55-10.3L82.13,593.47l-208.11-99.41l-8.85,4.23l199.26,95.18l-199.26,95.18l1.87,0.9
					l-3.02,6.32l-28.53-13.63l185.82-88.77L-164.5,504.7l51.96-24.82l237.78,113.59L-112.54,707.06z M-117.85,696.76l5.32,2.54
					L109,593.47l-221.54-105.83l-5.32,2.54L98.37,593.47L-117.85,696.76z M-148.26,682.24l5.31,2.54l191.14-91.31l-191.14-91.31
					l-5.31,2.54l185.82,88.77L-148.26,682.24z"/>
			</g>
			<g>
				<polygon class="st8" points="59.16,726.86 72.6,733.27 258.42,644.51 444.24,733.27 457.67,726.86 258.42,631.67 				"/>
				<path class="st8" d="M444.24,737.15l-185.82-88.77L72.6,737.15l-21.56-10.3l207.37-99.06l207.38,99.06L444.24,737.15z
					 M67.28,726.86l5.31,2.54l185.82-88.77l185.82,88.77l5.31-2.54l-191.14-91.31L67.28,726.86z"/>
			</g>
			<g>
				<polygon class="st8" points="28.76,712.33 50.68,722.8 42.19,718.75 258.42,615.46 474.65,718.75 488.08,712.33 258.42,602.62 
									"/>
				<path class="st8" d="M49.17,725.96l-28.53-13.63l237.78-113.59L496.2,712.33l-21.55,10.3L258.42,619.34L50.31,718.75l1.87,0.9
					L49.17,725.96z M36.88,712.33l5.32,2.54l216.23-103.29l216.23,103.29l5.31-2.54L258.42,606.5L36.88,712.33z"/>
			</g>
			<g>
				<polygon class="st8" points="487.15,475.06 473.72,468.64 257.49,571.93 41.26,468.64 27.83,475.06 257.49,584.77 				"/>
				<path class="st8" d="M257.49,588.65L19.71,475.06l21.55-10.3l216.23,103.29l216.23-103.29l21.55,10.3L257.49,588.65z
					 M35.95,475.06l221.54,105.83l221.54-105.83l-5.31-2.54L257.49,575.81L41.26,472.52L35.95,475.06z"/>
			</g>
			<g>
				<polygon class="st8" points="456.75,460.53 465.23,464.59 443.31,454.11 257.49,542.88 71.67,454.11 58.23,460.53 
					257.49,555.72 				"/>
				<path class="st8" d="M257.49,559.6L50.11,460.53l21.55-10.3L257.49,539l185.82-88.77l23.43,11.19l-3.02,6.32l-6.98-3.33
					L257.49,559.6z M66.35,460.53l191.14,91.31l191.14-91.31l-5.31-2.54l-185.82,88.77L71.67,457.99L66.35,460.53z"/>
			</g>
			<g>
				<polygon class="st8" points="456.75,403.58 465.23,407.63 443.31,397.16 257.49,485.93 71.67,397.16 58.23,403.58 
					257.49,498.76 				"/>
				<path class="st8" d="M257.49,502.64L50.11,403.58l21.55-10.3l185.82,88.77l185.82-88.77l23.43,11.19l-3.02,6.32l-6.98-3.33
					L257.49,502.64z M66.35,403.58l191.14,91.31l191.14-91.31l-5.31-2.54l-185.82,88.77L71.67,401.04L66.35,403.58z"/>
			</g>
			<g>
				<polygon class="st8" points="487.15,418.1 473.72,411.69 257.49,514.98 41.26,411.68 27.83,418.1 257.49,527.81 				"/>
				<path class="st8" d="M257.49,531.69L19.71,418.1l21.55-10.3L257.49,511.1l216.23-103.29l21.55,10.3L257.49,531.69z M35.95,418.1
					l221.54,105.83L479.03,418.1l-5.31-2.54L257.49,518.86L41.26,415.56L35.95,418.1z"/>
			</g>
			<g>
				<polygon class="st8" points="550.14,505.15 506.3,484.21 276.64,593.92 506.3,703.63 519.74,697.21 303.51,593.92 
					519.74,490.62 536.71,498.73 337.45,593.92 536.71,689.1 550.14,682.68 364.32,593.92 				"/>
				<path class="st8" d="M506.3,707.5L268.52,593.92L506.3,480.33l38.53,18.4h0l13.44,6.42l-185.82,88.77l185.82,88.77l-21.55,10.3
					l-207.38-99.06l199.26-95.19l-8.85-4.23l-208.11,99.41l216.23,103.29L506.3,707.5z M284.76,593.92L506.3,699.75l5.31-2.54
					L295.39,593.92l216.23-103.29l-5.32-2.54L284.76,593.92z M345.57,593.92l191.14,91.31l5.31-2.54L356.2,593.92l185.82-88.77
					l-5.31-2.54L345.57,593.92z"/>
			</g>
			<g>
				<polygon class="st8" points="673.46,505.15 629.62,484.21 399.96,593.92 629.62,703.63 643.06,697.21 426.83,593.92 
					643.06,490.62 660.03,498.73 460.77,593.92 660.03,689.1 673.46,682.68 487.64,593.92 				"/>
				<path class="st8" d="M629.62,707.5L391.84,593.92l237.78-113.59l38.53,18.4h0l13.44,6.42l-185.82,88.77l185.82,88.77
					l-21.55,10.3l-207.38-99.06l199.25-95.19l-8.85-4.23l-208.11,99.41l216.23,103.29L629.62,707.5z M408.08,593.92l221.54,105.83
					l5.31-2.54L418.71,593.92l216.23-103.29l-5.32-2.54L408.08,593.92z M468.89,593.92l191.13,91.31l5.31-2.54l-185.82-88.77
					l185.82-88.77l-5.31-2.54L468.89,593.92z"/>
			</g>
			<g>
				<polygon class="st8" points="59.16,786.13 59.16,786.13 50.68,782.07 				"/>
				
					<rect x="51.42" y="779.4" transform="matrix(0.4311 -0.9023 0.9023 0.4311 -676.2632 495.6576)" class="st8" width="7" height="9.4"/>
			</g>
			<g>
				<polygon class="st8" points="-3.83,696.76 -3.83,696.76 -12.31,692.71 				"/>
				
					<rect x="-11.57" y="690.03" transform="matrix(0.4311 -0.9023 0.9023 0.4311 -631.4672 387.9766)" class="st8" width="7" height="9.4"/>
			</g>
			<g>
				<polygon class="st8" points="-125.97,696.76 -125.97,696.76 -134.46,692.71 				"/>
				
					<rect x="-133.72" y="690.03" transform="matrix(0.4311 -0.9023 0.9023 0.4311 -700.9597 277.7627)" class="st8" width="7" height="9.4"/>
			</g>
			<g>
				<polygon class="st8" points="59.16,726.86 59.16,726.86 50.68,722.8 				"/>
				
					<rect x="51.42" y="720.13" transform="matrix(0.4311 -0.9023 0.9023 0.4311 -622.7813 461.936)" class="st8" width="7" height="9.4"/>
			</g>
			<g>
				<polygon class="st8" points="473.72,468.64 465.23,464.59 473.72,468.64 				"/>
				
					<rect x="465.97" y="461.91" transform="matrix(0.4311 -0.9023 0.9023 0.4311 -153.9353 689.0867)" class="st8" width="7" height="9.4"/>
			</g>
			<g>
				<polygon class="st8" points="473.72,411.68 465.23,407.63 473.72,411.69 				"/>
				
					<rect x="465.97" y="404.96" transform="matrix(0.431 -0.9024 0.9024 0.431 -102.5208 656.7369)" class="st8" width="7" height="9.4"/>
			</g>
		</g>
	</g>
	<path class="st9" d="M255.4,573.08"/>
	<path class="st9" d="M264.36,573.08"/>
	<path class="st10" d="M493.09,666.41H20c-6.6,0-12-5.4-12-12V531.9c0-6.6,5.4-12,12-12h473.09c6.6,0,12,5.4,12,12v122.52
		C505.09,661.01,499.69,666.41,493.09,666.41z"/>
	<path class="st11" d="M199.66,658.8h-58.99c-4.4,0-8-3.6-8-8V533.25c0-4.4,3.6-8,8-8h58.99c4.4,0,8,3.6,8,8V650.8
		C207.66,655.2,204.06,658.8,199.66,658.8z"/>
	<path class="st11" d="M288.55,658.8h-58.99c-4.4,0-8-3.6-8-8V533.25c0-4.4,3.6-8,8-8h58.99c4.4,0,8,3.6,8,8V650.8
		C296.55,655.2,292.95,658.8,288.55,658.8z"/>
	<path class="st11" d="M377.44,658.8h-58.99c-4.4,0-8-3.6-8-8V533.25c0-4.4,3.6-8,8-8h58.99c4.4,0,8,3.6,8,8V650.8
		C385.44,655.2,381.84,658.8,377.44,658.8z"/>
	<path class="st12" d="M199.66,658.8h-58.99c-4.4,0-8-3.6-8-8v-0.15c0-4.4,3.6-8,8-8h58.99c4.4,0,8,3.6,8,8v0.15
		C207.66,655.2,204.06,658.8,199.66,658.8z"/>
	<path class="st12" d="M288.55,658.8h-58.99c-4.4,0-8-3.6-8-8v-0.15c0-4.4,3.6-8,8-8h58.99c4.4,0,8,3.6,8,8v0.15
		C296.55,655.2,292.95,658.8,288.55,658.8z"/>
	<path class="st12" d="M377.44,658.8h-58.99c-4.4,0-8-3.6-8-8v-0.15c0-4.4,3.6-8,8-8h58.99c4.4,0,8,3.6,8,8v0.15
		C385.44,655.2,381.84,658.8,377.44,658.8z"/>
	<path class="st13" d="M196.8,632.97h-53.27c-2.2,0-4-1.8-4-4v-43.14c0-2.2,1.8-4,4-4h53.27c2.2,0,4,1.8,4,4v43.14
		C200.8,631.17,199,632.97,196.8,632.97z"/>
	<circle class="st13" cx="169.69" cy="554.57" r="22.13"/>
	<path class="st14" d="M285.69,632.97h-53.27c-2.2,0-4-1.8-4-4v-43.14c0-2.2,1.8-4,4-4h53.27c2.2,0,4,1.8,4,4v43.14
		C289.69,631.17,287.89,632.97,285.69,632.97z"/>
	<circle class="st14" cx="258.58" cy="554.57" r="22.13"/>
	<path class="st15" d="M374.58,632.97h-53.27c-2.2,0-4-1.8-4-4v-43.14c0-2.2,1.8-4,4-4h53.27c2.2,0,4,1.8,4,4v43.14
		C378.58,631.17,376.78,632.97,374.58,632.97z"/>
	<circle class="st15" cx="347.47" cy="554.57" r="22.13"/>
	<g>
		<path class="st16" d="M173.33,538.14c1.66-0.02,3.3,0.05,4.88,0.66c3.15,1.22,4.76,3.62,5.22,6.86c0.15,1.06,0.4,1.79,1.54,2.3
			c3.03,1.37,3.78,4.23,4.06,7.19c0.44,4.73-1.41,7.24-6.79,10.07c-0.39,0.21-0.83,0.33-1.25,0.46c-1.41,0.43-2.63,0.87-3.25,2.54
			c-0.57,1.53-2.07,2.48-3.67,2.91c-5.14,1.38-10.24,1.54-15.13-0.95c-2.98-1.52-5.01-4.35-3.99-7.61c0.15-0.47-0.09-0.85-0.26-1.27
			c-1.19-2.86-1.98-5.84-2.32-8.9c-0.52-4.69,1.77-8.63,6.37-10.73C163.35,539.56,168.2,538.2,173.33,538.14z M174.56,563.72
			c0.5-0.1,0.89-0.2,1.28-0.26c3.15-0.47,6.01-1.56,8.4-3.75c0.73-0.67,1.17-1.47,1.29-2.42c0.2-1.67-0.03-3.28-0.73-4.83
			c-0.31-0.69-0.82-1.16-1.47-1.48c-2.64-1.31-7.53,0.42-8.68,3.13c-0.53,1.24-0.58,2.59,0.26,3.71c0.78,1.03,2.01,1.02,3.19,0.92
			c0.49-0.04,0.97-0.15,1.46-0.19c0.47-0.04,0.77,0.22,0.88,0.66c0.11,0.46-0.17,0.76-0.55,0.95c-2.6,1.28-5.99-0.05-7.12-2.76
			c-0.09-0.22-0.02-0.51-0.39-0.61c-1.36-0.38-2.31,0.04-2.87,1.38c-0.18,0.44-0.23,0.94-0.34,1.42c-0.11,0.44-0.38,0.7-0.85,0.69
			c-0.47-0.01-0.92-0.31-0.82-0.7c0.36-1.38-0.68-1.21-1.42-1.46c-0.84-0.28-1.61-0.47-2.49,0c-0.81,0.43-1.69,0.13-2.42-0.33
			c-1.83-1.16-2.71-2.91-2.81-5.04c-0.03-0.52,0.07-1.14,0.82-1.16c0.79-0.02,0.9,0.51,0.92,1.17c0.04,1.37,0.69,2.46,1.7,3.36
			c0.4,0.36,0.89,0.46,1.38,0.31c0.61-0.18,0.38-0.74,0.38-1.14c-0.01-2.11-0.38-4.16-0.99-6.18c-0.17-0.56-0.35-1.23,0.4-1.48
			c0.8-0.27,1.06,0.33,1.27,0.99c0.65,2.1,1.04,4.25,1.02,6.45c-0.01,0.87,0.45,1.19,1.15,1.36c1.21,0.31,2.08-0.31,2.32-1.73
			c0.43-2.48,0.04-4.89-0.8-7.23c-0.23-0.64-0.64-1.35,0.25-1.7c0.87-0.34,1.13,0.41,1.39,1.05c0.88,2.24,1.09,4.58,1.03,6.96
			c-0.01,0.55-0.25,1.23,0.67,1.31c0.75,0.06,1.4,0.08,1.59-0.92c0.11-0.59,0.36-1.25,0.76-1.68c0.86-0.91,0.8-1.94,0.66-3
			c-0.19-1.37-0.44-2.73-1.08-3.98c-0.29-0.56-0.5-1.13,0.18-1.51c0.8-0.45,1.12,0.23,1.4,0.78c0.72,1.41,1.05,2.93,1.19,4.49
			c0.06,0.63,0.17,0.89,0.89,0.57c0.85-0.38,1.76-0.62,2.66-0.87c0.39-0.11,0.6-0.23,0.68-0.66c0.66-3.37-1.62-6.4-5.06-6.67
			c-5.07-0.39-9.83,0.98-14.39,2.94c-4.22,1.81-5.48,4.36-4.63,8.89c0.54,2.87,0.97,5.84,3.02,8.16c0.45,0.51-0.05,0.69-0.25,0.97
			c-0.98,1.35-0.91,2.42,0.36,3.51c0.57,0.49,1.19,0.98,1.87,1.26c3.91,1.62,7.93,1.58,11.91,0.37
			C175.11,567.13,175.53,565.84,174.56,563.72z"/>
		<path class="st17" d="M174.56,563.72c0.97,2.11,0.54,3.41-1.57,4.05c-3.98,1.21-8,1.25-11.91-0.37c-0.68-0.28-1.31-0.77-1.87-1.26
			c-1.26-1.09-1.34-2.16-0.36-3.51c0.21-0.28,0.71-0.46,0.25-0.97c-2.05-2.33-2.48-5.29-3.02-8.16c-0.85-4.53,0.41-7.08,4.63-8.89
			c4.57-1.96,9.32-3.32,14.39-2.94c3.44,0.26,5.72,3.3,5.06,6.67c-0.09,0.44-0.29,0.56-0.68,0.66c-0.9,0.24-1.81,0.49-2.66,0.87
			c-0.72,0.32-0.83,0.06-0.89-0.57c-0.14-1.56-0.47-3.08-1.19-4.49c-0.28-0.55-0.6-1.22-1.4-0.78c-0.68,0.38-0.47,0.95-0.18,1.51
			c0.65,1.25,0.9,2.61,1.08,3.98c0.14,1.06,0.2,2.1-0.66,3c-0.4,0.43-0.65,1.09-0.76,1.68c-0.19,1-0.85,0.99-1.59,0.92
			c-0.92-0.08-0.69-0.76-0.67-1.31c0.05-2.38-0.15-4.72-1.03-6.96c-0.25-0.64-0.52-1.4-1.39-1.05c-0.89,0.35-0.48,1.06-0.25,1.7
			c0.84,2.34,1.23,4.75,0.8,7.23c-0.25,1.42-1.11,2.03-2.32,1.73c-0.69-0.17-1.16-0.49-1.15-1.36c0.03-2.2-0.36-4.35-1.02-6.45
			c-0.2-0.66-0.47-1.26-1.27-0.99c-0.75,0.25-0.57,0.92-0.4,1.48c0.61,2.02,0.98,4.07,0.99,6.18c0,0.4,0.24,0.96-0.38,1.14
			c-0.49,0.14-0.98,0.05-1.38-0.31c-1-0.9-1.66-1.99-1.7-3.36c-0.02-0.66-0.13-1.19-0.92-1.17c-0.75,0.02-0.84,0.64-0.82,1.16
			c0.1,2.13,0.99,3.87,2.81,5.04c0.73,0.46,1.61,0.76,2.42,0.33c0.88-0.47,1.65-0.28,2.49,0c0.75,0.24,1.78,0.07,1.42,1.46
			c-0.1,0.39,0.35,0.69,0.82,0.7c0.47,0.01,0.74-0.25,0.85-0.69c0.12-0.47,0.16-0.97,0.34-1.42c0.56-1.34,1.51-1.76,2.87-1.38
			c0.37,0.1,0.3,0.39,0.39,0.61c1.12,2.71,4.52,4.04,7.12,2.76c0.39-0.19,0.66-0.49,0.55-0.95c-0.1-0.44-0.41-0.7-0.88-0.66
			c-0.49,0.04-0.97,0.15-1.46,0.19c-1.18,0.1-2.41,0.11-3.19-0.92c-0.85-1.12-0.79-2.46-0.26-3.71c1.15-2.7,6.04-4.44,8.68-3.13
			c0.65,0.33,1.16,0.79,1.47,1.48c0.7,1.55,0.93,3.16,0.73,4.83c-0.12,0.95-0.56,1.75-1.29,2.42c-2.39,2.19-5.25,3.28-8.4,3.75
			C175.45,563.53,175.06,563.62,174.56,563.72z M167.94,565.31c0.66-0.08,1.51-0.16,2.34-0.31c0.63-0.11,1.32-0.3,1.14-1.16
			c-0.19-0.88-0.87-0.66-1.51-0.55c-2.15,0.36-4.27,0.37-6.26-0.72c-0.54-0.3-1.13-0.54-1.52,0.13c-0.46,0.77,0.18,1.14,0.73,1.44
			C164.38,564.95,166.04,565.24,167.94,565.31z"/>
		<path class="st16" d="M167.94,565.31c-1.9-0.07-3.56-0.36-5.08-1.18c-0.55-0.3-1.19-0.67-0.73-1.44c0.39-0.66,0.98-0.42,1.52-0.13
			c1.99,1.08,4.11,1.08,6.26,0.72c0.64-0.11,1.32-0.33,1.51,0.55c0.19,0.86-0.5,1.05-1.14,1.16
			C169.44,565.15,168.6,565.23,167.94,565.31z"/>
	</g>
	<g>
		<path class="st16" d="M259.16,573.56c-1.84,0.04-3.65-0.12-5.43-0.6c-2.34-0.62-3.8-2.17-4.06-4.57
			c-0.08-0.72-0.32-1.28-0.76-1.81c-2.95-3.6-3.38-7.6-1.85-11.89c0.27-0.75,0.3-1.44,0.09-2.2c-0.76-2.8-1.64-5.57-2.19-8.41
			c-0.5-2.61,0.31-4.92,2.65-6.42c2.44-1.57,5.04-1.74,7.56-0.27c0.97,0.57,1.49,0.74,2.48-0.06c2.33-1.89,5.49-1.83,8.12-0.12
			c2.44,1.59,3.41,4.1,2.69,7.17c-0.35,1.51-0.81,2.99-1.28,4.46c-0.16,0.49-0.23,0.85,0.36,1.01c4.48,1.2,5.78,5.93,4.9,10.22
			c-0.58,2.84-1.68,5.47-3.79,7.56c-0.28,0.28-0.39,0.56-0.41,0.94c-0.09,1.86-1.19,3.03-2.68,3.96c-1.47,0.92-3.13,0.8-4.73,1.01
			C260.28,573.62,259.72,573.56,259.16,573.56z M253.99,566.1c-0.24,0.33-0.43,0.58-0.59,0.84c-0.77,1.21-0.52,2.21,0.85,2.63
			c3.11,0.97,6.28,0.96,9.42,0.13c1.25-0.33,1.56-1.24,0.98-2.42c-0.25-0.5-0.19-0.68,0.29-1c3.22-2.14,4.33-5.4,4.4-9.04
			c0.05-2.46-0.93-3.62-3.26-4.38c-1.15-0.38-2.34-0.62-3.56-0.93c0.97-2.77,2.03-5.46,2.7-8.29c0.37-1.57-0.03-2.76-1.21-3.58
			c-2.36-1.65-5.1-0.63-5.67,2.19c-0.57,2.83-0.99,5.69-1.48,8.53c1.73,0.03,2.37,0.3,3.15,1.28c1.12,1.4,1.38,4.49-0.62,6.05
			c-1.01,0.78-0.87,1.79-0.56,2.81c0.25,0.83,0.98,0.82,1.66,0.83c0.79,0.02,0.68-0.59,0.77-1.09c0.32-1.77,0.92-3.45,1.74-5.04
			c0.26-0.51,0.58-1.06,1.27-0.73c0.75,0.35,0.51,0.93,0.22,1.5c-0.76,1.49-1.31,3.06-1.63,4.71c-0.13,0.65,0.12,0.88,0.66,0.99
			c0.53,0.1,0.99,0.02,1.43-0.38c0.8-0.73,1.28-1.61,1.54-2.63c0.12-0.46,0.43-0.64,0.89-0.59c0.5,0.05,0.68,0.39,0.71,0.82
			c0.14,2.07-2.62,4.96-4.54,4.42c-1.65-0.46-3.28-0.05-4.92-0.57c0.04,0.28,0.04,0.44,0.08,0.59c0.22,0.68,0.39,1.45-0.51,1.67
			c-0.89,0.22-0.91-0.58-1.07-1.21c-0.37-1.47-1.02-2.76-2.45-3.5c-0.49-0.25-1.11-0.43-1.05-1.13c0.06-0.72,0.73-0.72,1.24-0.91
			c1.3-0.48,2.62-0.96,3.61-2c0.85-0.89,0.96-2.56,0.24-3.52c-0.81-1.08-1.75-0.61-2.67-0.2c-1.34,0.6-2.62,1.39-4.01,1.82
			c-1.61,0.5-2.15,1.57-2.42,3.09C249.03,561.29,250.86,564.95,253.99,566.1z M256.5,550.89c-0.32-0.49-0.44-1.04-0.53-1.63
			c-0.36-2.39-0.76-4.78-1.17-7.17c-0.19-1.13-0.91-1.92-1.98-2.16c-3.28-0.72-5.28,1.46-4.49,4.28c0.79,2.82,1.56,5.65,2.28,8.49
			c0.2,0.79,0.52,0.73,1.11,0.43C253.28,552.37,254.87,551.65,256.5,550.89z"/>
		<path class="st17" d="M253.99,566.1c-3.13-1.15-4.96-4.81-4.35-8.26c0.27-1.51,0.8-2.58,2.42-3.09c1.39-0.43,2.67-1.22,4.01-1.82
			c0.91-0.41,1.86-0.88,2.67,0.2c0.72,0.96,0.61,2.64-0.24,3.52c-1,1.04-2.31,1.52-3.61,2c-0.51,0.19-1.18,0.19-1.24,0.91
			c-0.06,0.7,0.56,0.88,1.05,1.13c1.43,0.74,2.08,2.03,2.45,3.5c0.16,0.63,0.17,1.43,1.07,1.21c0.9-0.22,0.73-0.99,0.51-1.67
			c-0.05-0.15-0.05-0.31-0.08-0.59c1.64,0.53,3.27,0.11,4.92,0.57c1.92,0.54,4.68-2.34,4.54-4.42c-0.03-0.43-0.21-0.77-0.71-0.82
			c-0.46-0.04-0.77,0.13-0.89,0.59c-0.26,1.03-0.74,1.91-1.54,2.63c-0.44,0.4-0.9,0.48-1.43,0.38c-0.53-0.1-0.78-0.33-0.66-0.99
			c0.32-1.65,0.87-3.22,1.63-4.71c0.29-0.57,0.53-1.15-0.22-1.5c-0.69-0.33-1,0.21-1.27,0.73c-0.82,1.6-1.43,3.27-1.74,5.04
			c-0.09,0.49,0.02,1.1-0.77,1.09c-0.69-0.01-1.42-0.01-1.66-0.83c-0.31-1.02-0.45-2.03,0.56-2.81c2-1.55,1.74-4.65,0.62-6.05
			c-0.78-0.98-1.43-1.25-3.15-1.28c0.49-2.85,0.91-5.7,1.48-8.53c0.57-2.82,3.31-3.84,5.67-2.19c1.18,0.82,1.58,2.01,1.21,3.58
			c-0.67,2.82-1.73,5.52-2.7,8.29c1.22,0.31,2.41,0.55,3.56,0.93c2.33,0.76,3.31,1.92,3.26,4.38c-0.08,3.64-1.18,6.9-4.4,9.04
			c-0.48,0.32-0.54,0.49-0.29,1c0.58,1.19,0.27,2.09-0.98,2.42c-3.13,0.83-6.31,0.84-9.42-0.13c-1.37-0.43-1.61-1.43-0.85-2.63
			C253.56,566.68,253.75,566.43,253.99,566.1z M259.37,567.84c0.76,0.02,1.5-0.05,2.25-0.18c0.55-0.09,0.93-0.29,0.86-0.9
			c-0.08-0.65-0.52-0.82-1.12-0.74c-1.71,0.24-3.4,0.26-5.07-0.27c-0.53-0.17-0.99-0.06-1.18,0.48c-0.22,0.63,0.16,0.96,0.73,1.13
			C257,567.71,258.17,567.88,259.37,567.84z"/>
		<path class="st17" d="M256.5,550.89c-1.63,0.76-3.22,1.48-4.78,2.25c-0.6,0.29-0.91,0.36-1.11-0.43
			c-0.72-2.84-1.49-5.67-2.28-8.49c-0.79-2.83,1.21-5.01,4.49-4.28c1.07,0.24,1.79,1.03,1.98,2.16c0.41,2.39,0.81,4.77,1.17,7.17
			C256.06,549.85,256.19,550.4,256.5,550.89z"/>
		<path class="st16" d="M259.37,567.84c-1.2,0.04-2.37-0.13-3.52-0.48c-0.57-0.17-0.95-0.51-0.73-1.13
			c0.19-0.54,0.65-0.65,1.18-0.48c1.66,0.53,3.36,0.51,5.07,0.27c0.6-0.08,1.04,0.09,1.12,0.74c0.07,0.6-0.31,0.81-0.86,0.9
			C260.88,567.79,260.13,567.86,259.37,567.84z"/>
	</g>
	<path class="st16" d="M337,546.24c-0.12-1.39-0.29-2.66-0.32-3.93c-0.1-4.64,4.63-7.73,8.81-5.73c0.78,0.37,1.32,0.35,2.07-0.01
		c2.51-1.19,5.08-0.74,7.1,1.22c0.49,0.48,0.92,0.63,1.62,0.57c3.67-0.29,6.42,2.39,6.24,6.1c-0.04,0.84,0.15,1.19,0.93,1.56
		c3.21,1.51,4.05,5.9,1.8,9.06c-0.49,0.68-1.05,1.32-1.62,1.94c-1.5,1.61-2.72,3.38-3.44,5.47c-0.1,0.29-0.19,0.6-0.35,0.86
		c-1.25,1.99-2.45,3.94-2.92,6.36c-0.35,1.79-2.02,2.78-3.77,3.22c-3.41,0.85-6.86,0.87-10.27,0c-2.62-0.66-4.2-2.66-4.41-5.35
		c-0.03-0.44-0.06-0.83-0.34-1.24c-2.47-3.46-4.94-6.9-8.07-9.84c-2.43-2.28-2.38-6.12-0.13-8.4
		C331.83,546.16,334.2,545.57,337,546.24z M350.87,552.52c-0.44-0.83-0.24-1.28-0.12-1.74c0.7-2.65,1.41-5.3,2.08-7.96
		c0.4-1.61-0.45-3.01-1.98-3.37c-1.48-0.35-2.88,0.57-3.23,2.18c-0.22,0.99-0.39,2-0.5,3.01c-0.23,2.26-0.4,4.53-0.6,6.86
		c-0.66-0.39-0.45-0.94-0.47-1.39c-0.11-2.53-0.17-5.06-0.28-7.59c-0.08-1.86-1.32-3.13-2.96-3.1c-1.72,0.04-2.76,1.28-2.65,3.25
		c0.16,2.93,1,5.76,1.48,8.64c0.15,0.88,0.72,2.04-0.25,2.56c-1.09,0.59-1.67-0.64-2.32-1.3c-0.84-0.85-1.54-1.84-2.52-2.55
		c-1.3-0.93-3.07-0.7-4.2,0.54c-0.93,1.02-0.83,2.5,0.28,3.72c0.42,0.46,0.86,0.89,1.32,1.32c2.17,2.05,4.13,4.26,5.58,6.91
		c0.6,1.1,1.45,2.03,2.54,2.68c0.56,0.33,0.61,0.66,0.25,1.14c-1.04,1.4,0.11,2.95,1.45,3.27c2.81,0.65,5.64,0.71,8.43-0.03
		c1.58-0.42,2.07-1.36,1.61-2.9c-0.18-0.61-0.13-1.01,0.36-1.49c1.04-1.02,2.09-2.08,2.59-3.5c1.06-3.03,2.9-5.56,5.08-7.86
		c0.49-0.52,0.89-1.08,1.06-1.81c0.26-1.12,0.23-2.13-0.87-2.8c-0.96-0.59-2.26-0.34-3.11,0.63c-1.08,1.24-2.09,2.53-3.15,3.79
		c-0.23,0.27-0.34,0.74-0.95,0.62c0.08-0.73,0.46-1.33,0.75-1.96c1.07-2.33,2.46-4.51,3.3-6.94c0.59-1.69,0.04-2.96-1.31-3.4
		c-1.44-0.47-2.94,0.28-3.51,1.76c-0.37,0.95-0.71,1.91-1.05,2.87C352.31,548.44,351.65,550.33,350.87,552.52z"/>
	<path class="st17" d="M350.87,552.52c0.77-2.19,1.44-4.08,2.11-5.97c0.34-0.96,0.69-1.92,1.05-2.87c0.57-1.48,2.08-2.23,3.51-1.76
		c1.35,0.44,1.89,1.71,1.31,3.4c-0.84,2.43-2.23,4.62-3.3,6.94c-0.29,0.63-0.66,1.23-0.75,1.96c0.61,0.12,0.73-0.34,0.95-0.62
		c1.06-1.26,2.07-2.55,3.15-3.79c0.84-0.97,2.15-1.21,3.11-0.63c1.1,0.67,1.13,1.68,0.87,2.8c-0.17,0.73-0.57,1.29-1.06,1.81
		c-2.18,2.31-4.01,4.83-5.08,7.86c-0.5,1.42-1.55,2.48-2.59,3.5c-0.48,0.48-0.54,0.88-0.36,1.49c0.46,1.54-0.03,2.48-1.61,2.9
		c-2.8,0.74-5.62,0.68-8.43,0.03c-1.34-0.31-2.49-1.87-1.45-3.27c0.36-0.48,0.31-0.81-0.25-1.14c-1.09-0.64-1.94-1.58-2.54-2.68
		c-1.44-2.65-3.41-4.86-5.58-6.91c-0.45-0.43-0.9-0.86-1.32-1.32c-1.11-1.22-1.21-2.7-0.28-3.72c1.13-1.24,2.9-1.47,4.2-0.54
		c0.99,0.71,1.68,1.7,2.52,2.55c0.65,0.66,1.23,1.89,2.32,1.3c0.97-0.52,0.39-1.68,0.25-2.56c-0.49-2.88-1.32-5.7-1.48-8.64
		c-0.11-1.97,0.93-3.21,2.65-3.25c1.64-0.04,2.88,1.24,2.96,3.1c0.11,2.53,0.16,5.06,0.28,7.59c0.02,0.44-0.19,1,0.47,1.39
		c0.2-2.33,0.37-4.6,0.6-6.86c0.1-1.01,0.28-2.02,0.5-3.01c0.36-1.61,1.75-2.53,3.23-2.18c1.53,0.36,2.38,1.76,1.98,3.37
		c-0.67,2.66-1.38,5.31-2.08,7.96C350.63,551.24,350.43,551.69,350.87,552.52z M346.02,552.7c-0.27,0-0.53,0-0.8,0
		c-0.69,0.01-1.49,0.01-1.5,0.91c-0.01,0.97,0.84,0.82,1.5,0.81c2.94-0.06,5.71,0.65,8.31,2.01c0.59,0.31,1.19,0.63,1.58-0.15
		c0.39-0.77-0.24-1.11-0.81-1.4C351.7,553.53,348.95,552.77,346.02,552.7z M347.32,561.94c-0.06-1.67-2.78-4.75-4.48-5.1
		c-0.48-0.1-0.8,0.1-0.98,0.47c-0.26,0.54,0.02,0.93,0.49,1.21c1.52,0.89,2.87,1.91,3.27,3.78c0.1,0.45,0.47,0.77,1,0.63
		C347.12,562.8,347.34,562.44,347.32,561.94z M348.53,567.23c0-0.03,0-0.07,0-0.1c0.84,0,1.68,0,2.52,0c0.64,0,1.19-0.16,1.14-0.94
		c-0.05-0.72-0.61-0.74-1.18-0.74c-1.9,0-3.8,0.14-5.69-0.21c-0.56-0.1-1.1-0.01-1.19,0.71c-0.08,0.69,0.36,0.95,0.96,1
		C346.24,567.06,347.38,567.14,348.53,567.23z"/>
	<path class="st16" d="M346.02,552.7c2.93,0.07,5.68,0.83,8.28,2.17c0.57,0.29,1.2,0.63,0.81,1.4c-0.39,0.78-0.99,0.46-1.58,0.15
		c-2.6-1.35-5.36-2.06-8.31-2.01c-0.66,0.01-1.51,0.16-1.5-0.81c0.01-0.89,0.81-0.9,1.5-0.91
		C345.49,552.7,345.76,552.7,346.02,552.7z"/>
	<path class="st16" d="M347.32,561.94c0.01,0.5-0.21,0.86-0.69,0.99c-0.53,0.15-0.91-0.18-1-0.63c-0.4-1.88-1.75-2.9-3.27-3.78
		c-0.48-0.28-0.75-0.67-0.49-1.21c0.18-0.37,0.5-0.57,0.98-0.47C344.54,557.19,347.26,560.27,347.32,561.94z"/>
	<path class="st16" d="M348.53,567.23c-1.14-0.09-2.29-0.17-3.43-0.27c-0.59-0.05-1.04-0.31-0.96-1c0.08-0.72,0.62-0.81,1.19-0.71
		c1.89,0.35,3.79,0.21,5.69,0.21c0.57,0,1.13,0.01,1.18,0.74c0.05,0.78-0.49,0.94-1.14,0.94c-0.84,0-1.68,0-2.52,0
		C348.53,567.16,348.53,567.2,348.53,567.23z"/>
	<g>
		<path class="st18" d="M185.29,618.72c1.37,1.37,1.6,2.53,1.6,3.37c0,2.3-2.3,4.74-4.48,4.74c-0.93,0-2.3-0.31-3.54-1.51
			l-1.73-1.64c-2.04,0.71-3.59,1.24-6.96,1.24c-5.54,0-9.53-2.66-11.39-4.52l-2.48-2.48c-3.94-3.94-4.65-9.39-4.65-13.03
			c0-10.95,6.6-17.37,16.53-17.37c5.5,0,9.48,2.61,11.34,4.48l2.48,2.48c3.81,3.81,4.65,8.95,4.65,12.85
			c0,3.59-0.71,7.18-2.44,10.32L185.29,618.72z M170.4,599.67c-5.58,0-5.58,6.07-5.58,7.89c0,0.62,0,3.1,0.89,4.83
			c0.18,0.09,0.4,0.13,0.62,0.22c-0.18-0.58-0.22-0.8-0.22-1.06c0-2.39,2.17-4.87,4.79-4.87c0.67,0,1.29,0.18,2.44,0.84
			c0.09-0.93,0.18-1.95,0.18-2.97c0-0.84-0.04-2.7-0.89-4.48C171.87,599.75,171.11,599.67,170.4,599.67z"/>
	</g>
	<g>
		<path class="st18" d="M252.49,592.09c0.44-2.48,2.66-4.56,6.11-4.56c1.64,0,3.15,0.8,3.85,1.51l2.48,2.48
			c0.89,0.89,1.46,2.26,1.64,3.23l0.49-3.32c0.13-1.02,1.02-3.9,5.14-3.9c1.51,0,3.06,0.71,3.9,1.55l2.48,2.48
			c0.89,0.89,1.33,2.08,1.33,3.24c0,0.62-0.09,1.06-0.18,1.59l-4.39,23.22c-0.84,4.52-4.79,5.32-6.47,5.32
			c-2.13,0-3.81-1.33-4.3-1.82l-2.48-2.48c-0.75-0.75-1.42-1.91-1.59-2.97l-0.75-4.25l-1.24,6.74c-0.49,2.7-3.01,4.79-6.2,4.79
			c-1.6,0-3.37-0.89-4.43-1.95l-2.48-2.48c-1.06-1.06-1.51-2.08-1.73-3.37l-4.39-23.22c-0.13-0.67-0.18-1.11-0.18-1.55
			c0-2.84,2.35-4.83,5.54-4.83c1.24,0,2.66,0.44,3.5,1.29l2.48,2.48c1.11,1.11,1.29,2.39,1.42,3.23L252.49,592.09z"/>
	</g>
	<g>
		<path class="st18" d="M358.77,603.88c0.89,0.89,1.2,2.13,1.2,3.46c0,4.56-3.63,4.7-4.79,4.74c1.11,0.18,2.17,0.35,3.06,1.24
			l2.48,2.48c1.06,1.06,1.33,2.44,1.33,3.54c0,2.26-1.06,4.79-4.88,4.79H342.5c-2.44,0-4.03-0.53-5.23-1.73l-2.48-2.48
			c-0.71-0.71-1.77-1.99-1.77-5.27v-19.32c0-5.23,2.88-7,7-7h13.83c1.24,0,2.61,0.31,3.54,1.24l2.48,2.48
			c0.98,0.98,1.29,2.3,1.29,3.54c0,2.04-0.93,4.79-4.83,4.79h-1.55c0.44,0.18,0.84,0.35,1.51,1.02L358.77,603.88z"/>
	</g>
	<g>
		<path class="st19" d="M181.44,617.39l-2.08-1.95c3.06-3.81,3.06-9.39,3.06-10.55c0-11.3-7.27-15.6-14.49-15.6
			c-4.87,0-14.49,2.22-14.49,15.95c0,10.37,6.56,15.42,14.49,15.42c3.81,0,6.16-1.15,7.05-1.6l2.61,2.44
			c0.31,0.31,1.15,1.06,2.26,1.06c1.33,0,2.79-1.68,2.79-2.97C182.63,618.68,181.92,617.83,181.44,617.39z M174.21,610.66
			l-1.24-1.15c-0.62-0.58-1.37-1.06-2.22-1.06c-1.42,0-2.88,1.68-2.88,3.01c0,0.89,0.8,1.73,1.24,2.17l0.75,0.71
			c-0.4,0.09-1.02,0.22-1.95,0.22c-7.36,0-7.36-8.02-7.36-9.57s0-9.57,7.36-9.57c7.31,0,7.36,8.02,7.36,9.57
			C175.28,606.98,175.06,608.97,174.21,610.66z"/>
	</g>
	<path class="st19" d="M266.09,609.72c-0.04,0.27-0.13,0.53-0.35,0.53s-0.31-0.31-0.35-0.53l-3.06-17.28
		c-0.4-2.35-2.26-3.15-4.08-3.15c-2.53,0-3.81,1.86-4.03,3.1l-3.06,17.33c-0.04,0.22-0.13,0.53-0.35,0.53
		c-0.27,0-0.31-0.31-0.35-0.53l-2.75-18.04c-0.13-0.93-0.93-2.39-3.01-2.39c-2.13,0-3.81,1.11-3.81,3.01c0,0.53,0.09,0.93,0.13,1.24
		l4.39,23.26c0.44,2.3,2.53,3.86,4.56,3.86c2.13,0,3.99-1.33,4.34-3.32l3.68-20.52c0.04-0.13,0.13-0.27,0.31-0.27
		c0.13,0,0.22,0.13,0.27,0.27l3.68,20.52c0.22,1.11,1.55,3.32,4.39,3.32c1.59,0,3.99-1.06,4.52-3.86l4.39-23.26
		c0.09-0.35,0.13-0.89,0.13-1.29c0-1.86-1.82-2.97-3.59-2.97c-1.64,0-2.97,0.62-3.24,2.39L266.09,609.72z"/>
	<path class="st19" d="M341.75,601.93v-4.79c0-0.62,0.4-1.02,1.02-1.02h11.08c1.99,0,3.06-0.89,3.06-3.06
		c0-2.97-2.26-2.97-3.06-2.97h-13.83c-3.46,0-5.23,1.29-5.23,5.23v19.32c0,3.77,1.55,5.23,5.23,5.23h14.67c1.64,0,3.1-0.53,3.1-3.01
		c0-2.08-1.06-3.01-3.1-3.01h-11.92c-0.62,0-1.02-0.35-1.02-1.02v-5.01h10.95c2.66,0,3.01-1.55,3.01-2.97
		c0-1.99-0.97-2.92-3.01-2.92H341.75z"/>
	<g>
		<path class="st18" d="M154.93,644.99c0.65,0.45,1.04,1.2,1.04,1.5c0,0.06,0,0.48-0.76,0.6l0.96,0.71
			c0.37,0.29,0.39,0.66,0.39,0.87c0,1.23-0.96,3.65-3,5.38c-3.13,2.7-8.25,3.12-8.42,3.12c-0.39,0-0.69-0.11-0.94-0.3l-1.88-1.44
			c-0.35-0.27-0.45-0.61-0.45-0.92c0-0.75,0.39-0.78,2.06-1.08c3.92-0.72,5.64-1.95,6.86-3.91h-2.63c-1.04,1-2.7,2.34-3.82,2.34
			c-0.14,0-0.57,0-1-0.33l-1.86-1.42c-0.27-0.21-0.51-0.48-0.51-0.83c0-0.43,0.14-0.51,1.33-1.21c1.39-0.83,2.33-1.96,3.15-3.15
			c0.25-0.34,0.53-0.72,1.39-0.72c0.55,0,1.12,0.15,1.39,0.38l1.84,1.42h2.76c0.18,0,0.25,0,0.37,0.02
			c-0.1-0.15-0.47-0.81-0.55-0.93c-0.08-0.1-0.33-0.52-0.33-0.61c0-0.38,0.47-0.54,0.82-0.54c0.2,0,0.31,0.04,0.43,0.13
			L154.93,644.99z M146.27,648.08c-0.8,0.78-2.51,2.17-3.53,2.33l1.04,0.79c0.14,0.1,0.31,0.18,0.55,0.18
			c0.84,0,2.51-1.35,3.53-2.34h3.17c0.12-0.25,0.27-0.64,0.27-0.78c0-0.08-0.04-0.18-0.25-0.18H146.27z M144.53,656.47
			c0.2,0.15,0.33,0.22,0.61,0.22c0.06,0,4.98-0.39,7.95-2.95c1.92-1.65,2.84-3.96,2.84-5.07c0-0.25-0.04-0.39-0.22-0.52l-1.04-0.81
			c-0.06,1.17-1.08,4.29-4.41,6.3c-2.39,1.44-5.96,2.04-6.7,2.08L144.53,656.47z M149.19,646l-0.76-0.6c-0.1,0.2-0.2,0.34-0.35,0.6
			H149.19z M154.33,645.08c0.2,0.38,0.22,0.56,0.22,0.63c0,0.29-0.33,0.41-0.45,0.45l0.43,0.33c0.16,0.12,0.23,0.2,0.47,0.2
			c0.1,0,0.43-0.03,0.43-0.29c0-0.22-0.41-0.83-0.65-0.99L154.33,645.08z M155.89,645.53c-0.06-0.04-1-1.47-1-1.67
			c0-0.38,0.47-0.54,0.8-0.54c0.22,0,0.35,0.06,0.45,0.13l1.35,0.93c0.65,0.45,1.02,1.2,1.02,1.5c0,0.38-0.45,0.6-0.94,0.6
			c-0.39,0-0.55-0.1-0.82-0.31L155.89,645.53z M156.89,644.48c0.2,0.38,0.22,0.55,0.22,0.63c0,0.29-0.33,0.39-0.45,0.43l0.41,0.35
			c0.16,0.12,0.25,0.19,0.49,0.19c0.1,0,0.43-0.03,0.43-0.28c0-0.23-0.41-0.83-0.65-0.99L156.89,644.48z"/>
		<path class="st18" d="M195.04,648.83c0.86,0,1.06,0.15,1.41,0.42l1.67,1.26c0.16,0.11,0.43,0.36,0.43,0.92
			c0,1.17-1.08,1.19-1.63,1.19H185.2c-0.65,0-0.98-0.08-1.25-0.29l-1.84-1.42c-0.35-0.29-0.41-0.66-0.41-0.88
			c0-1.17,1.08-1.19,1.63-1.19H195.04z M183.34,651.17l1,0.77c0.18,0.13,0.29,0.19,0.86,0.19h11.72c0.65,0,1-0.04,1-0.73
			c0-0.33-0.14-0.45-0.31-0.58l-0.94-0.72c-0.08,0.87-0.65,1.08-1.63,1.08H183.34z"/>
	</g>
	<g>
		<path class="st18" d="M327.78,646.43c0.29,0.22,0.31,0.46,0.31,0.71c0,0.55-0.51,4.78-2.57,7.92c-0.96,1.47-1.47,1.74-2.19,1.74
			c-0.47,0-0.94-0.25-1.18-0.43l-1.88-1.44c-0.37-0.29-0.47-0.51-0.47-0.79c0-0.32,0.12-0.51,0.43-0.87
			c2.23-2.56,2.65-5.16,3.06-7.62c0.06-0.38,0.2-0.98,1.27-0.98c0.41,0,1.02,0.09,1.33,0.33L327.78,646.43z M326.22,645.91
			c-0.27,2.62-1.19,5.61-2.57,7.71c-1.04,1.58-1.51,1.65-1.94,1.72l0.9,0.67c0.16,0.12,0.45,0.3,0.74,0.3
			c0.33,0,0.67-0.06,1.61-1.47c2.04-3.09,2.53-7.38,2.53-7.74c0-0.13-0.02-0.24-0.14-0.33L326.22,645.91z M336.38,645.23
			c0.43,0.33,0.55,0.74,0.55,1.04c0,0.81-0.86,1.46-1.88,1.46c-0.78,0-1.29-0.38-1.8-0.77c0.08,0.36,0.33,1.92,0.41,2.24
			c0.71,3.04,2.02,4.57,2.76,5.4c0.31,0.33,0.45,0.54,0.45,0.88c0,0.66-0.69,1.32-1.78,1.32c-0.39,0-0.75-0.13-1.06-0.36l-1.82-1.38
			c-2.06-1.54-3.76-7.11-3.76-9.36c0-0.74,0.65-1.04,1.67-1.04c0.31,0,0.65,0.08,0.9,0.25l0.76,0.57c-0.02-0.08-0.04-0.17-0.04-0.3
			c0-0.79,0.84-1.46,1.9-1.46c0.39,0,0.9,0.09,1.37,0.45L336.38,645.23z M331.43,645.91c0.39,2.37,0.82,4.81,3,7.35
			c0.31,0.36,0.43,0.55,0.43,0.88c0,0.63-0.84,1.1-1.39,1.19l0.94,0.73c0.31,0.24,0.55,0.25,0.71,0.25c0.67,0,1.14-0.4,1.14-0.84
			c0-0.19-0.06-0.33-0.35-0.63c-2.35-2.47-2.88-5.59-3.12-6.88c-0.08-0.45-0.2-1.17-0.31-1.26L331.43,645.91z M332.86,645.19
			c0,0.33,0.35,0.6,0.78,0.6c0.41,0,0.76-0.25,0.76-0.6c0-0.33-0.35-0.58-0.76-0.58C333.21,644.6,332.86,644.86,332.86,645.19z
			 M335.56,645.16c-0.08,0.95-0.88,1.47-1.96,1.5l0.41,0.32c0.37,0.28,0.61,0.33,0.96,0.33c0.98,0,1.41-0.57,1.41-1.05
			c0-0.46-0.31-0.71-0.41-0.78L335.56,645.16z"/>
		<path class="st18" d="M374.35,648.83c0.86,0,1.06,0.15,1.41,0.42l1.67,1.26c0.16,0.11,0.43,0.36,0.43,0.92
			c0,1.17-1.08,1.19-1.63,1.19h-11.72c-0.65,0-0.98-0.08-1.25-0.29l-1.84-1.42c-0.35-0.29-0.41-0.66-0.41-0.88
			c0-1.17,1.08-1.19,1.63-1.19H374.35z M362.65,651.17l1,0.77c0.18,0.13,0.29,0.19,0.86,0.19h11.72c0.65,0,1-0.04,1-0.73
			c0-0.33-0.14-0.45-0.31-0.58l-0.94-0.72c-0.08,0.87-0.65,1.08-1.63,1.08H362.65z"/>
	</g>
	<g>
		<path class="st18" d="M231.6,655.39c-0.25-0.18-0.51-0.57-0.51-1.02c0-0.66,0.45-0.75,1.84-1.02c0.57-0.1,2.17-0.4,3.1-1.32h-2.64
			c-0.37,0-0.73-0.04-0.98-0.24l-1.88-1.44c-0.33-0.25-0.37-0.64-0.37-0.81c0-1.05,1-1.05,1.35-1.05h1.78l-1.74-1.35
			c-0.29-0.24-0.37-0.56-0.37-0.83c0-0.9,0.57-0.93,2.08-0.96c1.57-0.04,4.55-0.2,6.76-0.54c0.35-0.06,1.8-0.29,2.04-0.29
			c0.27,0,0.61,0.01,0.92,0.25l1.88,1.44c0.23,0.18,0.43,0.49,0.43,0.88c0,0.84-0.43,0.96-3.33,1.26l-0.43,0.04v0.08h2.17
			c0.39,0,0.74,0.04,0.98,0.22l1.88,1.44c0.35,0.27,0.37,0.66,0.37,0.83c0,1.05-1.02,1.05-1.35,1.05h-4.11
			c-0.16,1.06-0.43,2.94-3.29,4.15c-1.61,0.69-3.33,0.88-3.62,0.88c-0.37,0-0.78-0.04-1.06-0.25L231.6,655.39z M231.72,650.59
			l1.04,0.79c0.18,0.13,0.35,0.17,0.63,0.17h2.98c0.16-0.36,0.22-0.62,0.25-0.96H231.72z M236.68,648.49v-1.25
			c-1.67,0.12-2.33,0.15-3.9,0.17l1.41,1.08H236.68z M239.58,650.59c-0.2,1.56-0.88,3.15-3.29,4.16c-1.14,0.46-2.51,0.81-3.47,0.88
			l1.12,0.85c0.14,0.11,0.43,0.11,0.49,0.11c0.55,0,3.06-0.33,4.7-1.51c1.31-0.95,1.63-2.16,1.74-3.53h4.7c0.25,0,0.73,0,0.73-0.51
			c0-0.15-0.02-0.42-0.18-0.54l-1.08-0.83c-0.12,0.66-0.53,0.92-1.35,0.92H239.58z M240.89,648.49v-0.5l0.98-0.09
			c0.37-0.03,1.33-0.15,2.1-0.27c0.47-0.07,0.69-0.19,0.69-0.52c0-0.24-0.12-0.45-0.25-0.55l-1-0.77c-0.08,0.75-0.37,0.84-3.76,1.19
			v1.51H240.89z"/>
		<path class="st18" d="M253.24,648.59c-0.22-0.17-0.47-0.34-0.47-0.82c0-0.99,1.08-0.99,1.31-0.99h7.56c0.9,0,1.27,0.17,1.59,0.41
			l1.8,1.38c0.49,0.38,0.53,0.81,0.53,1.21v5.44c0,1.29-0.9,1.56-2.04,1.56h-7.66c-0.37,0-0.73-0.08-1-0.27l-1.88-1.42
			c-0.31-0.22-0.35-0.55-0.35-0.75c0-0.25,0.1-1,1.35-1h1.41l-2.08-1.58c-0.37-0.27-0.35-0.67-0.35-0.75c0-0.33,0.1-0.97,1.27-0.97
			h0.9L253.24,648.59z M263.68,653.78c0,1.29-0.9,1.56-2.04,1.56h-7.43l1,0.76c0.18,0.14,0.27,0.2,0.65,0.2h7.66
			c1.14,0,1.41-0.31,1.41-1.08v-5.44c0-0.25,0-0.62-0.33-0.87l-0.92-0.71V653.78z M260.94,650.03v-0.97c0-0.18-0.14-0.3-0.39-0.3
			h-6.21l1.67,1.28H260.94z M260.55,653.33c0.24,0,0.39-0.11,0.39-0.3v-1.05h-6.43l1.76,1.35H260.55z"/>
		<path class="st18" d="M282.01,645.95l2.19-0.1c0.63-0.03,0.92,0.09,1.17,0.28l1.82,1.38c0.33,0.24,0.43,0.57,0.43,0.88
			c0,0.12,0,0.93-1.37,1l-3.8,0.19l0.02,0.32l2.67-0.12c0.35-0.01,0.78-0.01,1.17,0.29l1.86,1.42c0.27,0.21,0.39,0.58,0.39,0.86
			c0,0.12,0,0.94-1.39,1l-4.39,0.21l0.2,2.44c0.04,0.53,0.06,1.25-1.59,1.25c-0.78,0-1.02-0.21-1.31-0.42l-1.72-1.3
			c-0.18-0.13-0.29-0.32-0.33-0.83l-0.08-0.92l-2.8,0.12c-0.59,0.03-0.9-0.08-1.16-0.27l-1.88-1.44c-0.39-0.3-0.39-0.75-0.39-0.83
			c0-0.43,0.24-0.99,1.37-1.04l4.57-0.21l-0.04-0.3l-2.06,0.11c-0.43,0.01-0.82-0.02-1.16-0.27l-1.88-1.44
			c-0.29-0.23-0.39-0.54-0.39-0.79c0-0.87,0.84-1.04,1.37-1.07l3.82-0.18l-0.06-0.83c-0.04-0.6,0.08-1.21,1.57-1.21
			c0.31,0,0.84,0.03,1.14,0.25L282.01,645.95z M277.84,652.27l-4.49,0.21l1,0.77c0.2,0.15,0.29,0.21,0.76,0.19l2.8-0.12
			L277.84,652.27z M277.5,648.31l-3.74,0.18l0.96,0.73c0.27,0.21,0.33,0.27,0.8,0.24l2.06-0.1L277.5,648.31z M280.91,652.13
			l0.2,2.45c0.04,0.55,0.04,1.2-1.49,1.25l0.84,0.63c0.25,0.19,0.43,0.33,1.04,0.33c0.92,0,0.9-0.35,0.86-0.74l-0.24-2.92l5.02-0.24
			c0.24-0.01,0.8-0.03,0.8-0.54c0-0.15-0.06-0.39-0.22-0.51l-1.06-0.81c-0.14,0.84-1.08,0.88-1.37,0.9L280.91,652.13z M280.4,646.04
			l0.96-0.06l-1.04-0.75L280.4,646.04z M280.58,648.16l0.16,1.83l1.12-0.04l-0.06-0.79l4.43-0.23c0.25-0.01,0.78-0.03,0.78-0.54
			c0-0.33-0.16-0.45-0.29-0.55l-0.98-0.74c-0.14,0.8-0.98,0.86-1.35,0.87L280.58,648.16z"/>
	</g>
	<g>
		<g>
			<path class="st20" d="M16.93,44.59c-2.58-3.97-4.51-6.6-7.01-9.83l6.56-3.32c3.41,3.46,4.36,4.57,7.55,8.07L16.93,44.59z
				 M43.17,42.74c-7.39,8.49-21.69,16.75-28.02,18.92l-4.97-9.14c6.1-1.57,18.01-5.49,31.17-19.52L43.17,42.74z M20.61,33.97
				c-2.54-5.31-3.79-7.71-6.52-12.5l7.51-0.92c2.46,2.81,4.7,5.58,6.94,8.77L20.61,33.97z M32.06,32.87l-1.59-10.38l5.23,1.02
				l-0.53-3.23l5.19,0.83l2.2,9l-5.42,2.35l-0.53-3.14L32.06,32.87z"/>
			<path class="st20" d="M63.78,70.4l-7.62,2.12L53.01,56l-4.28,1.75l-4.28-7.71l7.01-2.12l-1.55-8.17l7.05,0.42l1.33,5.77
				l10.69-3.18l6.86,6.37c-2.35,3.97-3.64,6-6.33,10.34l-7.02-2.54c1.9-2.91,2.09-3.18,4.06-6.37l-6.64,2.68L63.78,70.4z"/>
			<path class="st20" d="M87.75,33.35c-3.53-5.68-7.05-9.6-10.16-12.64l7.58-2.91c2.73,2.49,5.65,5.31,8.72,8.58L87.75,33.35z
				 M109.63,40.55C99.58,49.08,90.86,54.9,84.79,58.22l-6.9-8.26c11.45-4.8,22.14-11.81,32.08-20.21L109.63,40.55z"/>
			<path class="st20" d="M145.01,40.5c-2.88,11.95-6.26,19.33-9.48,25.19l-10.58-3.51c7.62-6.88,11.19-18.41,12.32-22.61l-7.28,0.83
				l-1.18-2.03c-1.59,3.88-1.82,4.38-3.3,7.75l-8.08-0.46c3.68-7.48,6.22-13.75,9.18-23.39l7.36,3.04
				c-0.91,2.45-1.06,2.81-2.46,6.51l17.82-2.72l3.15,8.72l-10.84,1.25L145.01,40.5z"/>
			<path class="st20" d="M165.41,33.35c-3.53-5.68-7.05-9.6-10.16-12.64l7.58-2.91c2.73,2.49,5.65,5.31,8.72,8.58L165.41,33.35z
				 M187.29,40.55c-10.05,8.54-18.77,14.35-24.84,17.67l-6.9-8.26c11.45-4.8,22.14-11.81,32.08-20.21L187.29,40.55z"/>
			<path class="st20" d="M209.22,50.52l10.73-1.94l2.58,8.49l-12.1,1.8l1.71,11.72l-8.42,1.75l-1.48-12.55l-10.39,1.38l-4.25-7.34
				c4.7-1.06,5.61-1.29,13.54-3.37l-0.57-4.85l-9.02,1.25l-3.6-7.66l11.68-1.75l-0.91-7.71l7.55,0.6l0.87,5.95l9.44-1.43l3.11,8.26
				c-4.66,1.29-5.31,1.48-11.07,3.23L209.22,50.52z"/>
			<path class="st20" d="M233.08,37.18c-3.53-5.68-7.05-9.6-10.16-12.64l7.58-2.91c2.73,2.49,5.65,5.31,8.72,8.58L233.08,37.18z
				 M254.96,44.38c-10.05,8.54-18.77,14.35-24.84,17.67l-6.9-8.26c11.45-4.8,22.14-11.81,32.08-20.21L254.96,44.38z"/>
			<path class="st20" d="M289.98,30.24c-4.28,12.37-9.82,22.52-15.55,28.61l-9.86-4.57c9.82-6.83,15.47-19.47,17.41-24.04
				l-9.29,3.05l-1.63-2.31c-2.92,5.49-3.22,6.09-4.66,8.63l-7.85-1.71c4.66-8.12,7.7-14.3,11.11-22.29l7.05,3.69
				c-0.76,1.66-0.87,1.94-2.16,4.61l6.71-1.85l-0.68-5.03l6.1,2.21l-0.95-3.74l5.73,0.37l2.2,8.81l-5.12,1.94l-0.99-3.88l-1.37,1.85
				L289.98,30.24z"/>
		</g>
		<g>
			<path class="st19" d="M16.93,44.59c-2.58-3.97-4.51-6.6-7.01-9.83l6.56-3.32c3.41,3.46,4.36,4.57,7.55,8.07L16.93,44.59z
				 M43.17,42.74c-7.39,8.49-21.69,16.75-28.02,18.92l-4.97-9.14c6.1-1.57,18.01-5.49,31.17-19.52L43.17,42.74z M20.61,33.97
				c-2.54-5.31-3.79-7.71-6.52-12.5l7.51-0.92c2.46,2.81,4.7,5.58,6.94,8.77L20.61,33.97z M32.06,32.87l-1.59-10.38l5.23,1.02
				l-0.53-3.23l5.19,0.83l2.2,9l-5.42,2.35l-0.53-3.14L32.06,32.87z"/>
			<path class="st19" d="M63.78,70.4l-7.62,2.12L53.01,56l-4.28,1.75l-4.28-7.71l7.01-2.12l-1.55-8.17l7.05,0.42l1.33,5.77
				l10.69-3.18l6.86,6.37c-2.35,3.97-3.64,6-6.33,10.34l-7.02-2.54c1.9-2.91,2.09-3.18,4.06-6.37l-6.64,2.68L63.78,70.4z"/>
			<path class="st19" d="M87.75,33.35c-3.53-5.68-7.05-9.6-10.16-12.64l7.58-2.91c2.73,2.49,5.65,5.31,8.72,8.58L87.75,33.35z
				 M109.63,40.55C99.58,49.08,90.86,54.9,84.79,58.22l-6.9-8.26c11.45-4.8,22.14-11.81,32.08-20.21L109.63,40.55z"/>
			<path class="st19" d="M145.01,40.5c-2.88,11.95-6.26,19.33-9.48,25.19l-10.58-3.51c7.62-6.88,11.19-18.41,12.32-22.61l-7.28,0.83
				l-1.18-2.03c-1.59,3.88-1.82,4.38-3.3,7.75l-8.08-0.46c3.68-7.48,6.22-13.75,9.18-23.39l7.36,3.04
				c-0.91,2.45-1.06,2.81-2.46,6.51l17.82-2.72l3.15,8.72l-10.84,1.25L145.01,40.5z"/>
			<path class="st19" d="M165.41,33.35c-3.53-5.68-7.05-9.6-10.16-12.64l7.58-2.91c2.73,2.49,5.65,5.31,8.72,8.58L165.41,33.35z
				 M187.29,40.55c-10.05,8.54-18.77,14.35-24.84,17.67l-6.9-8.26c11.45-4.8,22.14-11.81,32.08-20.21L187.29,40.55z"/>
			<path class="st19" d="M209.22,50.52l10.73-1.94l2.58,8.49l-12.1,1.8l1.71,11.72l-8.42,1.75l-1.48-12.55l-10.39,1.38l-4.25-7.34
				c4.7-1.06,5.61-1.29,13.54-3.37l-0.57-4.85l-9.02,1.25l-3.6-7.66l11.68-1.75l-0.91-7.71l7.55,0.6l0.87,5.95l9.44-1.43l3.11,8.26
				c-4.66,1.29-5.31,1.48-11.07,3.23L209.22,50.52z"/>
			<path class="st19" d="M233.08,37.18c-3.53-5.68-7.05-9.6-10.16-12.64l7.58-2.91c2.73,2.49,5.65,5.31,8.72,8.58L233.08,37.18z
				 M254.96,44.38c-10.05,8.54-18.77,14.35-24.84,17.67l-6.9-8.26c11.45-4.8,22.14-11.81,32.08-20.21L254.96,44.38z"/>
			<path class="st19" d="M289.98,30.24c-4.28,12.37-9.82,22.52-15.55,28.61l-9.86-4.57c9.82-6.83,15.47-19.47,17.41-24.04
				l-9.29,3.05l-1.63-2.31c-2.92,5.49-3.22,6.09-4.66,8.63l-7.85-1.71c4.66-8.12,7.7-14.3,11.11-22.29l7.05,3.69
				c-0.76,1.66-0.87,1.94-2.16,4.61l6.71-1.85l-0.68-5.03l6.1,2.21l-0.95-3.74l5.73,0.37l2.2,8.81l-5.12,1.94l-0.99-3.88l-1.37,1.85
				L289.98,30.24z"/>
		</g>
	</g>
	<path class="st21" d="M487.12,320.57l10.4,5.69c0,0,17.17,22.49-24.31,101.5c-19.92,37.95-50.28,69.88-58.82,70.52
		c-8.54,0.63-9.49-6.54-9.49-6.54"/>
	<g>
		<path class="st22" d="M429.01,330.02c0,0,13.52,0.99,19.84,5.41c0,0,14.55-33.52,38.26-14.86s-32.89,117.32-32.89,117.32
			s-37.31,56.6-52.81,53.76s-40.96-28.57-39.3-49.86"/>
	</g>
	<path class="st21" d="M27.96,320.57l-10.4,5.69c0,0-17.17,22.49,24.31,101.5c19.92,37.95,50.28,69.88,58.82,70.52
		c8.54,0.63,9.49-6.54,9.49-6.54"/>
	<path class="st22" d="M86.07,330.02c0,0-13.52,0.99-19.84,5.41c0,0-14.55-33.52-38.26-14.86s32.89,117.32,32.89,117.32
		s37.31,56.6,52.81,53.76s40.96-28.57,39.3-49.86"/>
	<g>
		<defs>
			<path id="SVGID_00000127036731296965663140000015492778033574311603_" d="M256.14,174.39c-70.74,0-128.09,57.35-128.09,128.09
				s57.35,128.09,128.09,128.09c70.74,0,128.09-57.35,128.09-128.09S326.88,174.39,256.14,174.39z M256.14,470.39
				c-92.73,0-167.91-75.17-167.91-167.91s75.17-167.91,167.91-167.91s167.91,75.17,167.91,167.91S348.87,470.39,256.14,470.39z"/>
		</defs>
		<use xlink:href="#SVGID_00000127036731296965663140000015492778033574311603_"  style="overflow:visible;fill:#008F8D;"/>
		<clipPath id="SVGID_00000168079673588248363730000012833237003178479274_">
			<use xlink:href="#SVGID_00000127036731296965663140000015492778033574311603_"  style="overflow:visible;"/>
		</clipPath>
		
			<polygon style="clip-path:url(#SVGID_00000168079673588248363730000012833237003178479274_);fill:#FDDE8E;stroke:#231815;stroke-width:2;stroke-miterlimit:10;" points="
			394.61,173.06 119.75,431.9 74.44,349.85 439.92,255.12 		"/>
		
			<polyline style="clip-path:url(#SVGID_00000168079673588248363730000012833237003178479274_);fill:#FDDE8E;stroke:#231815;stroke-width:2;stroke-miterlimit:10;" points="
			207.34,484.56 307.02,120.4 207.3,120.41 307.06,484.55 207.34,484.56 307.02,120.4 		"/>
		
			<polyline style="clip-path:url(#SVGID_00000168079673588248363730000012833237003178479274_);fill:#FDDE8E;stroke:#231815;stroke-width:2;stroke-miterlimit:10;" points="
			437.28,354.45 388.48,438.12 125.88,166.85 75.8,250.14 438.56,354.82 		"/>
		
			<use xlink:href="#SVGID_00000127036731296965663140000015492778033574311603_"  style="overflow:visible;fill:none;stroke:#231815;stroke-width:2;stroke-miterlimit:10;"/>
	</g>
	<g>
		<path class="st24" d="M256.14,174.39c-70.74,0-128.09,57.35-128.09,128.09s57.35,128.09,128.09,128.09
			c70.74,0,128.09-57.35,128.09-128.09S326.88,174.39,256.14,174.39z M256.14,425.36c-67.86,0-122.88-55.01-122.88-122.88
			S188.27,179.6,256.14,179.6s122.88,55.01,122.88,122.88S324,425.36,256.14,425.36z"/>
	</g>
	<path class="st25" d="M364.95,165.37c0,0-0.83-8.92,1.38-16.51s-1.58-10.55-5.06-14.29c-3.48-3.73-9.49-15.12,0-23.02
		c9.49-7.91,22.77,0.95,27.19,11.07c4.43,10.12,12.96,7.59,16.76,0s13.02-23.22,22.45-23.4c9.8-0.19,14.86,8.22,14.55,12.65
		s-5.38,13.91-8.85,18.97c-3.48,5.06-8.54,12.02-4.43,14.55s9.51,0.63,13.29-5.06c3.78-5.69,12.63-16.13,21.8-16.44
		c9.17-0.32,15.18,3.79,16.13,15.18s-12.02,16.13-19.61,20.24c-7.59,4.11-9.17,8.85-8.85,10.12c0.32,1.26,4.99,5.69,15.77,1.58
		c10.79-4.11,21.54-10.81,28.18,1.71c6.64,12.52-6.01,19.79-13.91,21.69c-7.91,1.9-12.96,1.26-16.44,1.58
		c-3.48,0.32-4.43,6.96,0,8.22c4.43,1.26,12.65,6.32,14.23,10.12c1.58,3.79,6.32,12.65-0.63,18.97c-6.96,6.32-16.13,5.06-30.67-2.21
		c0,0-23.98,8.37-30.96,2.92"/>
	<path class="st25" d="M150.14,165.37c0,0,0.83-8.92-1.38-16.51c-2.21-7.59,1.58-10.55,5.06-14.29s9.49-15.12,0-23.02
		s-22.77,0.95-27.19,11.07c-4.43,10.12-12.96,7.59-16.76,0S96.84,99.4,87.41,99.22c-9.8-0.19-14.86,8.22-14.55,12.65
		s5.38,13.91,8.85,18.97c3.48,5.06,8.54,12.02,4.43,14.55c-4.11,2.53-9.51,0.63-13.29-5.06c-3.78-5.69-12.63-16.13-21.8-16.44
		c-9.17-0.32-15.18,3.79-16.13,15.18c-0.95,11.38,12.02,16.13,19.61,20.24s9.17,8.85,8.85,10.12c-0.32,1.26-4.99,5.69-15.77,1.58
		c-10.79-4.11-21.54-10.81-28.18,1.71s6.01,19.79,13.91,21.69c7.91,1.9,12.96,1.26,16.44,1.58c3.48,0.32,4.43,6.96,0,8.22
		c-4.43,1.26-12.65,6.32-14.23,10.12c-1.58,3.79-6.32,12.65,0.63,18.97c6.96,6.32,16.13,5.06,30.67-2.21c0,0,23.98,8.37,30.96,2.92"
		/>
	<g>
		<g>
			<path class="st26" d="M217.35,133.05l-12.29-49.58l17.8,13.37l7.09-24.15l11.52,21.17l17.31-31.6l17.31,31.6l11.52-21.17
				l7.09,24.15l17.8-13.37l-12.29,49.58"/>
			<circle class="st26" cx="205.06" cy="83.46" r="3.84"/>
			<circle class="st26" cx="312.51" cy="83.46" r="3.84"/>
			<circle class="st26" cx="287.62" cy="73.08" r="3.84"/>
			<circle class="st26" cx="229.95" cy="72.68" r="3.84"/>
			<circle class="st26" cx="258.79" cy="62.25" r="3.84"/>
		</g>
	</g>
	<g>
		<path class="st24" d="M256.14,127.45c-14.17,0-27.94,1.68-41.13,4.86c-76.82,18.5-133.9,87.67-133.9,170.17
			c0,96.67,78.37,175.03,175.03,175.03s175.03-78.37,175.03-175.03S352.81,127.45,256.14,127.45z M256.14,470.39
			c-92.73,0-167.91-75.17-167.91-167.91s75.17-167.91,167.91-167.91s167.91,75.17,167.91,167.91S348.87,470.39,256.14,470.39z"/>
	</g>
	<g>
		<g>
			<g>
				<path class="st27" d="M248.39,149.32c0.26,0.14,0.48,0.28,0.84,0.57l4.31,3.55c1.79,1.46,2.56,3.77,2.87,6.82
					c0.63,6.19-0.37,9.75-11.44,10.87c-7.78,0.79-9.85-0.6-10.75-1.33l-4.18-3.44c-0.85-0.69-2.34-1.98-2.84-6.87l3.01-0.31
					l-2.47-2.01l-1.21-16.33l22.6-2.3l4.31,3.51l0.68,6.68L248.39,149.32z M229.64,156.99l2.43,2.02l1.43-0.14l0.36,0.33l3.01-0.31
					c0.25-0.4,0.57-0.84,1.48-1.26c0.9-0.46,2.38-0.86,4.99-1.12c0.77-0.08,1.55-0.16,2.33-0.15c-0.44-1.93-1.66-2.55-6.22-2.08
					c-5.62,0.57-5.73,1.53-5.85,2.32L229.64,156.99z M252.7,147.57l-0.49-4.8l-2.87-2.34l0.4,3.91l-16.81,1.71l0.31,5.03
					c0.87-0.71,2.43-2.02,7.96-2.58c1.75-0.18,2.53-0.18,3.53-0.11L252.7,147.57z M235.07,168.77c2.02,1.65,6.47,1.36,9.28,1.07
					c9.97-1.02,11.39-3.3,10.77-9.32c-0.33-3.22-1.04-5-2.39-6.09l-1.3-1.06c0.5,1.72,0.69,3.51,0.72,3.88
					c0.68,6.72-1.93,9.37-11.17,10.31c-1.99,0.2-5.26,0.41-7.18,0.2L235.07,168.77z M234.96,160.39l1.78,1.71
					c0.98-0.06,2.33-0.15,3.35-0.26c5.5-0.56,5.96-1.22,5.74-4.2c-0.29-0.01-1.03,0.02-2.29,0.15c-5.42,0.55-5.56,1.55-5.65,2.3
					L234.96,160.39z"/>
				<path class="st27" d="M287.44,147.46c1.39,1.78,1.99,4.25,1.01,12.17c-1.33,10.77-3.61,13.54-13.4,12.33
					c-7.11-0.88-9.13-1.91-10.41-3.51l-3.39-4.3c-1.64-2.1-2.14-4.72-1.17-12.56c1.39-11.25,3.94-13.5,14.13-12.23
					c6.46,0.8,8.49,2.04,9.88,3.82L287.44,147.46z M285.44,147.01c0.21,2.29-0.14,6.17-0.44,8.57c-1.4,11.33-4.3,13.12-13.69,11.96
					c-2.31-0.29-5.5-0.89-6.73-1.29l1.06,1.41c0.96,1.27,2.66,2.14,9.65,3.01c8.94,1.1,10.61-1.12,11.88-11.36
					c0.95-7.72,0.21-9.71-0.78-11.03L285.44,147.01z M268.39,157.11c1.05-8.49,1.49-10.37,10.76-8.65
					c-0.12-2.65-1.87-2.87-5.97-3.38c-5.4-0.67-5.85-0.39-6.89,7.69c-0.88,7.15-0.3,7.76,1.77,8.39
					C268.16,159.02,268.33,157.6,268.39,157.11z M273.07,149.28c-1.68,0.25-2.42,0.57-3.32,7.88c-0.17,1.38-0.34,3.05-0.4,4.28
					c0.52,0.1,1.21,0.23,2.35,0.37c5.44,0.67,6.06,0.34,6.94-6.77c0.17-1.34,0.46-4.69,0.48-5.22
					C275.72,149.23,274.04,149.15,273.07,149.28z"/>
				<path class="st27" d="M327.83,191.36l-5.51-3.22l-1.41-5.37l9.08-15.55l-1.52-0.89l-1.41-5.37l2.93-5.02l10.43,6.09l1.41,5.37
					L327.83,191.36z M322.53,183.71l0.94,3.58l3.89,2.27l13.04-22.34l-0.94-3.58l-13.04,22.34L322.53,183.71z M331.96,163.82
					l-3.32-1.94l0.94,3.58l1.06,0.62L331.96,163.82z"/>
				<path class="st27" d="M383.48,214.52c6.38-3.6,9.46-3.55,14.87,6.04c2.63,4.67,3.35,7.93,2.89,9.55l-1.49,5.35
					c-0.53,1.9-1.87,3.68-4.83,5.35c-2.46,1.39-4.71,1.9-6.59,1.32c-1.94-0.6-3.37-1.72-4.6-3.42l-2.97-4.01l4,7.1l-1.49,5.35
					l-5.03,2.83L366,228.27l1.49-5.35l4.81-2.71c2.14-1.21,6.03-3.4,9.71-0.45L383.48,214.52z M379.73,244.63l-11.32-20.07l-1,3.57
					l11.32,20.07l3.42-1.93l1-3.57L379.73,244.63z M380.13,226.41c-1.08-1.5-1.95-2.29-3.73-1.28l-0.75,0.42l9.16,12.41
					c2.97,4.01,6.44,3.42,9.43,1.73c1.82-1.03,3.64-2.38,4.26-4.61l0.37-1.34c-0.35,0.29-1.11,0.95-2.5,1.74
					c-2.17,1.23-4.41,1.92-6.57,1.26c-1.99-0.62-3.35-1.68-4.58-3.38L380.13,226.41z M385.25,223.67c3.08-1.45,4.66-0.98,7.37,3.83
					c0.08,0.14,0.6,1.07,1.16,2.22c1.4-1.02,1.92-2.02-0.6-6.48c-2.87-5.1-3.6-4.97-6.65-3.3l-2.15-3.81l-1.31,4.68
					c0.25,0.28,0.41,0.47,0.67,0.85L385.25,223.67z M389.09,228.97c1.3,1.81,1.97,2.08,3.54,1.44c-0.39-0.86-0.63-1.29-1.08-2.07
					c-2.45-4.35-3.34-4.6-5.55-3.59L389.09,228.97z"/>
				<path class="st27" d="M410.26,316.42l-21.98-12.53l-0.03-7.57l3.91-3.94l18.04,10.82l-0.04-11.58l3.91-3.94l5.81-0.02l0.09,24.8
					l-3.91,3.94L410.26,316.42z M392.18,294.26l-2.61,2.63l0.02,6.22l21,12l4.91-0.02l2.61-2.63l-3.93,0.01l-21.98-12.52
					L392.18,294.26z M414.15,305.56l-0.06-16.04l-2.61,2.63l0.04,11.87L414.15,305.56z"/>
				<path class="st27" d="M377.63,386.01l-5.37,1.42l-5.03-2.92l2.14-3.68l-4.46-2.59l3.17-5.45l5.37-1.42l1.06,0.62l5.94-10.23
					l5.37-1.42l5.31,3.08l7.59,19.7l-4.44,7.65l-5.37,1.42l-11.11-6.46L377.63,386.01z M372.61,383.09l2.14-3.68l-4.46-2.59
					l2.24-3.86l-3.58,0.95l-2.24,3.86l4.46,2.59l-2.14,3.68l3.4,1.97l3.58-0.95L372.61,383.09z M377.91,373.96l6.99-12.03
					l-3.58,0.95l-5.67,9.77L377.91,373.96z M379.77,382.33l-1.32,2.27l10.62,6.17l3.58-0.95L379.77,382.33z M384.91,373.48
					l-1.97,3.4l4.67,2.71L384.91,373.48z M389.38,380.62l3.79,2.2l-5.56-13.97l-1.79,3.08L389.38,380.62z"/>
				<path class="st27" d="M345.86,428.59c3.69,6.33,3.68,9.41-5.83,14.95c-4.63,2.7-7.88,3.46-9.51,3.03l-5.37-1.42
					c-1.9-0.5-3.71-1.82-5.42-4.75c-1.42-2.44-1.97-4.68-1.41-6.57c0.57-1.94,1.67-3.39,3.35-4.65l3.97-3.02l-7.04,4.1l-5.37-1.42
					l-2.9-4.99l21.54-12.54l5.37,1.42l2.78,4.77c1.24,2.12,3.48,5.98,0.58,9.7L345.86,428.59z M315.7,425.27l19.91-11.59l-3.58-0.95
					l-19.91,11.59l1.98,3.39l3.58,0.95L315.7,425.27z M333.92,425.41c1.49-1.1,2.26-1.98,1.23-3.75l-0.43-0.74l-12.28,9.33
					c-3.97,3.02-3.33,6.48-1.6,9.45c1.05,1.8,2.43,3.6,4.67,4.19l1.34,0.35c-0.3-0.35-0.97-1.09-1.77-2.47
					c-1.26-2.16-1.99-4.38-1.35-6.55c0.59-2,1.64-3.37,3.32-4.63L333.92,425.41z M331.49,434.4c-1.79,1.32-2.05,2-1.39,3.55
					c0.86-0.4,1.28-0.65,2.06-1.1c4.31-2.51,4.55-3.41,3.51-5.6L331.49,434.4z M336.74,430.49c1.5,3.06,1.05,4.64-3.73,7.43
					c-0.14,0.08-1.06,0.62-2.2,1.19c1.04,1.38,2.05,1.89,6.47-0.69c5.06-2.95,4.92-3.67,3.2-6.7l3.79-2.2l-4.7-1.24
					c-0.28,0.26-0.47,0.42-0.84,0.68L336.74,430.49z"/>
				<path class="st27" d="M264.07,434.51l6.35-0.67l4.32,3.49l1.9,17.91l1.75-0.19l4.32,3.49l0.61,5.78l-12.01,1.28l-4.32-3.49
					L264.07,434.51z M272.87,437.53l-2.88-2.33l-4.48,0.48l2.73,25.72l2.88,2.33L268.39,438L272.87,437.53z M277.06,459.14
					l3.83-0.41l-2.88-2.33l-1.22,0.13L277.06,459.14z"/>
				<path class="st27" d="M232.64,448.72c-1.54-1.8-1.81-4.24-1.63-6.57c0.72-9.3,6.35-8.87,12.88-8.36
					c6.57,0.51,8.53,1.77,9.69,3.13l2.98,3.47c1.92,2.24,2.65,4.52,1.99,13.04c-0.88,11.3-3.06,13.6-13.84,12.76
					c-2.73-0.21-6.93-0.58-9.08-3.08l-3.61-4.22c-1.81-2.11-1.56-4.76-1.45-6.19l5.88,0.45c-0.15-0.13-0.15-0.18-0.34-0.4
					L232.64,448.72z M236.71,454.5l-4.94-0.38c0.04,1.07,0.09,2.59,1.22,3.91l1.17,1.36c-0.08-1.03-0.04-1.6,0.04-2.62l4.65,0.36
					L236.71,454.5z M252.58,437.74c-1.51-1.76-4.95-2.35-9.32-2.69c-6-0.46-10.33-0.8-10.96,7.36c-0.05,0.69-0.2,3.68,1.34,5.48
					l1.02,1.19c-0.16-1.16-0.06-2.43-0.03-2.79c0.68-8.86,6.23-8.84,11.53-8.43c0.65,0.05,4.37,0.34,7.54,1.2L252.58,437.74z
					 M240.44,457.25l-0.01,0.08c0.73,0.1,1.1,0.17,2.61,0.28c3.67,0.28,4.23,0,4.52-1.62c-0.41,0.05-1.4,0.1-3.08-0.03
					c-3.18-0.25-4.62-0.73-6.06-1.21L240.44,457.25z M245.23,460.58c5.59,0.43,6.5-0.73,6.99-5.99c-0.83,0.59-1.43,1-3.38,1.3
					c-0.43,2.96-1.74,3.4-8.37,2.6C240.51,459.43,241.31,460.27,245.23,460.58z M240.86,447.55c0.08,1.65,0.82,2.73,5.3,3.08
					c5.51,0.43,6.36-0.45,6.58-3.31c0.2-2.61-1.25-2.97-2.42-3.27C249.96,446.66,248.73,448.7,240.86,447.55z M240.92,446.24
					c7.28,0.93,7.83-0.42,8.11-2.41C241.87,442.99,241.28,443.64,240.92,446.24z"/>
				<path class="st27" d="M182.34,412.21l5.45,3.32l1.31,5.4l-9.38,15.37l1.5,0.92l1.31,5.4l-3.03,4.96l-10.31-6.28l-1.31-5.4
					L182.34,412.21z M187.49,419.96l-0.87-3.6l-3.84-2.34l-13.47,22.08l0.87,3.6l13.47-22.08L187.49,419.96z M177.67,439.67l3.28,2
					l-0.87-3.6l-1.05-0.64L177.67,439.67z"/>
				<path class="st27" d="M129.19,391.01c-6.37,3.62-9.45,3.59-14.9-5.98c-2.65-4.66-3.38-7.92-2.94-9.54l1.47-5.36
					c0.52-1.9,1.85-3.69,4.81-5.37c2.45-1.4,4.7-1.92,6.58-1.35c1.94,0.59,3.37,1.71,4.62,3.4l2.98,4l-4.03-7.08l1.47-5.36
					l5.02-2.86l12.33,21.66l-1.47,5.36l-4.8,2.73c-2.13,1.21-6.01,3.42-9.71,0.49L129.19,391.01z M132.48,379.1
					c1.09,1.5,1.96,2.28,3.73,1.27l0.75-0.43l-9.21-12.37c-2.98-4-6.45-3.39-9.44-1.69c-1.81,1.03-3.63,2.4-4.24,4.63l-0.37,1.34
					c0.35-0.29,1.1-0.96,2.49-1.75c2.17-1.24,4.4-1.94,6.57-1.29c1.99,0.61,3.35,1.67,4.6,3.36L132.48,379.1z M127.37,381.87
					c-3.07,1.47-4.66,1-7.39-3.8c-0.08-0.14-0.61-1.07-1.17-2.21c-1.39,1.03-1.91,2.03,0.62,6.47c2.9,5.09,3.62,4.96,6.67,3.27
					l2.17,3.81l1.29-4.69c-0.25-0.28-0.41-0.47-0.67-0.84L127.37,381.87z M123.51,376.57c-1.31-1.8-1.98-2.08-3.54-1.42
					c0.39,0.86,0.64,1.28,1.08,2.07c2.47,4.34,3.36,4.58,5.56,3.57L123.51,376.57z M132.8,360.88l11.4,20.03l0.98-3.57l-11.4-20.03
					l-3.41,1.94l-0.98,3.57L132.8,360.88z"/>
				<path class="st27" d="M102.31,285.58l21.73,12.95l-0.12,7.57l-3.99,3.87L102.1,298.8l-0.19,11.58l-3.99,3.87l-5.81-0.09
					l0.4-24.8l3.99-3.87L102.31,285.58z M119.96,308.09l2.66-2.58l0.1-6.22l-20.76-12.41l-4.91-0.08l-2.66,2.58l3.93,0.06
					l21.73,12.95L119.96,308.09z M98.21,296.36l-0.26,16.04l2.66-2.58l0.19-11.87L98.21,296.36z"/>
				<path class="st27" d="M133.32,220.92l5.35-1.51l5.07,2.84l-2.08,3.71l4.5,2.52l-3.08,5.5l-5.35,1.51l-1.07-0.6l-5.78,10.32
					l-5.35,1.51l-5.36-3l-7.9-19.57l4.32-7.71l5.35-1.51l11.21,6.28L133.32,220.92z M121.66,226.5l-3.82-2.14l5.78,13.89l1.74-3.11
					L121.66,226.5z M131.24,224.64l1.28-2.29l-10.71-6l-3.57,1.01L131.24,224.64z M126.24,233.57l1.92-3.43l-4.71-2.64
					L126.24,233.57z M133.23,232.98l-6.8,12.14l3.57-1.01l5.52-9.86L133.23,232.98z M138.39,223.76l-2.08,3.71l4.5,2.52l-2.18,3.89
					l3.57-1.01l2.18-3.89l-4.5-2.52l2.08-3.71l-3.43-1.92l-3.57,1.01L138.39,223.76z"/>
				<path class="st27" d="M166.59,176.26c-3.68-6.34-3.67-9.42,5.85-14.94c4.64-2.69,7.89-3.44,9.51-3.01l5.37,1.43
					c1.9,0.5,3.71,1.82,5.41,4.76c1.42,2.44,1.96,4.68,1.4,6.57c-0.58,1.94-1.68,3.39-3.36,4.65l-3.97,3.02l7.04-4.09l5.37,1.42
					l2.9,4.99l-21.55,12.51l-5.37-1.43l-2.77-4.78c-1.23-2.12-3.47-5.98-0.57-9.7L166.59,176.26z M175.71,174.37
					c-1.49-3.06-1.04-4.65,3.74-7.42c0.14-0.08,1.06-0.62,2.2-1.18c-1.04-1.38-2.04-1.89-6.47,0.68c-5.06,2.94-4.92,3.66-3.21,6.69
					l-3.79,2.2l4.7,1.25c0.28-0.26,0.47-0.42,0.84-0.68L175.71,174.37z M180.97,170.47c1.79-1.32,2.06-2,1.39-3.55
					c-0.85,0.4-1.28,0.65-2.06,1.1c-4.32,2.51-4.56,3.4-3.52,5.59L180.97,170.47z M196.74,179.62l-19.93,11.56l3.58,0.95
					l19.93-11.56l-1.97-3.4l-3.58-0.95L196.74,179.62z M178.52,179.46c-1.49,1.1-2.26,1.97-1.23,3.74l0.43,0.74l12.29-9.31
					c3.97-3.02,3.34-6.48,1.61-9.45c-1.05-1.81-2.42-3.61-4.66-4.2l-1.34-0.36c0.3,0.35,0.97,1.09,1.77,2.47
					c1.25,2.16,1.98,4.39,1.34,6.55c-0.59,2-1.64,3.37-3.32,4.63L178.52,179.46z"/>
			</g>
		</g>
		<g>
			<g>
				<path class="st18" d="M248.39,149.32c0.26,0.14,0.48,0.28,0.84,0.57l4.31,3.55c1.79,1.46,2.56,3.77,2.87,6.82
					c0.63,6.19-0.37,9.75-11.44,10.87c-7.78,0.79-9.85-0.6-10.75-1.33l-4.18-3.44c-0.85-0.69-2.34-1.98-2.84-6.87l3.01-0.31
					l-2.47-2.01l-1.21-16.33l22.6-2.3l4.31,3.51l0.68,6.68L248.39,149.32z M229.64,156.99l2.43,2.02l1.43-0.14l0.36,0.33l3.01-0.31
					c0.25-0.4,0.57-0.84,1.48-1.26c0.9-0.46,2.38-0.86,4.99-1.12c0.77-0.08,1.55-0.16,2.33-0.15c-0.44-1.93-1.66-2.55-6.22-2.08
					c-5.62,0.57-5.73,1.53-5.85,2.32L229.64,156.99z M252.7,147.57l-0.49-4.8l-2.87-2.34l0.4,3.91l-16.81,1.71l0.31,5.03
					c0.87-0.71,2.43-2.02,7.96-2.58c1.75-0.18,2.53-0.18,3.53-0.11L252.7,147.57z M235.07,168.77c2.02,1.65,6.47,1.36,9.28,1.07
					c9.97-1.02,11.39-3.3,10.77-9.32c-0.33-3.22-1.04-5-2.39-6.09l-1.3-1.06c0.5,1.72,0.69,3.51,0.72,3.88
					c0.68,6.72-1.93,9.37-11.17,10.31c-1.99,0.2-5.26,0.41-7.18,0.2L235.07,168.77z M234.96,160.39l1.78,1.71
					c0.98-0.06,2.33-0.15,3.35-0.26c5.5-0.56,5.96-1.22,5.74-4.2c-0.29-0.01-1.03,0.02-2.29,0.15c-5.42,0.55-5.56,1.55-5.65,2.3
					L234.96,160.39z"/>
				<path class="st18" d="M287.44,147.46c1.39,1.78,1.99,4.25,1.01,12.17c-1.33,10.77-3.61,13.54-13.4,12.33
					c-7.11-0.88-9.13-1.91-10.41-3.51l-3.39-4.3c-1.64-2.1-2.14-4.72-1.17-12.56c1.39-11.25,3.94-13.5,14.13-12.23
					c6.46,0.8,8.49,2.04,9.88,3.82L287.44,147.46z M285.44,147.01c0.21,2.29-0.14,6.17-0.44,8.57c-1.4,11.33-4.3,13.12-13.69,11.96
					c-2.31-0.29-5.5-0.89-6.73-1.29l1.06,1.41c0.96,1.27,2.66,2.14,9.65,3.01c8.94,1.1,10.61-1.12,11.88-11.36
					c0.95-7.72,0.21-9.71-0.78-11.03L285.44,147.01z M268.39,157.11c1.05-8.49,1.49-10.37,10.76-8.65
					c-0.12-2.65-1.87-2.87-5.97-3.38c-5.4-0.67-5.85-0.39-6.89,7.69c-0.88,7.15-0.3,7.76,1.77,8.39
					C268.16,159.02,268.33,157.6,268.39,157.11z M273.07,149.28c-1.68,0.25-2.42,0.57-3.32,7.88c-0.17,1.38-0.34,3.05-0.4,4.28
					c0.52,0.1,1.21,0.23,2.35,0.37c5.44,0.67,6.06,0.34,6.94-6.77c0.17-1.34,0.46-4.69,0.48-5.22
					C275.72,149.23,274.04,149.15,273.07,149.28z"/>
				<path class="st18" d="M327.83,191.36l-5.51-3.22l-1.41-5.37l9.08-15.55l-1.52-0.89l-1.41-5.37l2.93-5.02l10.43,6.09l1.41,5.37
					L327.83,191.36z M322.53,183.71l0.94,3.58l3.89,2.27l13.04-22.34l-0.94-3.58l-13.04,22.34L322.53,183.71z M331.96,163.82
					l-3.32-1.94l0.94,3.58l1.06,0.62L331.96,163.82z"/>
				<path class="st18" d="M383.48,214.52c6.38-3.6,9.46-3.55,14.87,6.04c2.63,4.67,3.35,7.93,2.89,9.55l-1.49,5.35
					c-0.53,1.9-1.87,3.68-4.83,5.35c-2.46,1.39-4.71,1.9-6.59,1.32c-1.94-0.6-3.37-1.72-4.6-3.42l-2.97-4.01l4,7.1l-1.49,5.35
					l-5.03,2.83L366,228.27l1.49-5.35l4.81-2.71c2.14-1.21,6.03-3.4,9.71-0.45L383.48,214.52z M379.73,244.63l-11.32-20.07l-1,3.57
					l11.32,20.07l3.42-1.93l1-3.57L379.73,244.63z M380.13,226.41c-1.08-1.5-1.95-2.29-3.73-1.28l-0.75,0.42l9.16,12.41
					c2.97,4.01,6.44,3.42,9.43,1.73c1.82-1.03,3.64-2.38,4.26-4.61l0.37-1.34c-0.35,0.29-1.11,0.95-2.5,1.74
					c-2.17,1.23-4.41,1.92-6.57,1.26c-1.99-0.62-3.35-1.68-4.58-3.38L380.13,226.41z M385.25,223.67c3.08-1.45,4.66-0.98,7.37,3.83
					c0.08,0.14,0.6,1.07,1.16,2.22c1.4-1.02,1.92-2.02-0.6-6.48c-2.87-5.1-3.6-4.97-6.65-3.3l-2.15-3.81l-1.31,4.68
					c0.25,0.28,0.41,0.47,0.67,0.85L385.25,223.67z M389.09,228.97c1.3,1.81,1.97,2.08,3.54,1.44c-0.39-0.86-0.63-1.29-1.08-2.07
					c-2.45-4.35-3.34-4.6-5.55-3.59L389.09,228.97z"/>
				<path class="st18" d="M410.26,316.42l-21.98-12.53l-0.03-7.57l3.91-3.94l18.04,10.82l-0.04-11.58l3.91-3.94l5.81-0.02l0.09,24.8
					l-3.91,3.94L410.26,316.42z M392.18,294.26l-2.61,2.63l0.02,6.22l21,12l4.91-0.02l2.61-2.63l-3.93,0.01l-21.98-12.52
					L392.18,294.26z M414.15,305.56l-0.06-16.04l-2.61,2.63l0.04,11.87L414.15,305.56z"/>
				<path class="st18" d="M377.63,386.01l-5.37,1.42l-5.03-2.92l2.14-3.68l-4.46-2.59l3.17-5.45l5.37-1.42l1.06,0.62l5.94-10.23
					l5.37-1.42l5.31,3.08l7.59,19.7l-4.44,7.65l-5.37,1.42l-11.11-6.46L377.63,386.01z M372.61,383.09l2.14-3.68l-4.46-2.59
					l2.24-3.86l-3.58,0.95l-2.24,3.86l4.46,2.59l-2.14,3.68l3.4,1.97l3.58-0.95L372.61,383.09z M377.91,373.96l6.99-12.03
					l-3.58,0.95l-5.67,9.77L377.91,373.96z M379.77,382.33l-1.32,2.27l10.62,6.17l3.58-0.95L379.77,382.33z M384.91,373.48
					l-1.97,3.4l4.67,2.71L384.91,373.48z M389.38,380.62l3.79,2.2l-5.56-13.97l-1.79,3.08L389.38,380.62z"/>
				<path class="st18" d="M345.86,428.59c3.69,6.33,3.68,9.41-5.83,14.95c-4.63,2.7-7.88,3.46-9.51,3.03l-5.37-1.42
					c-1.9-0.5-3.71-1.82-5.42-4.75c-1.42-2.44-1.97-4.68-1.41-6.57c0.57-1.94,1.67-3.39,3.35-4.65l3.97-3.02l-7.04,4.1l-5.37-1.42
					l-2.9-4.99l21.54-12.54l5.37,1.42l2.78,4.77c1.24,2.12,3.48,5.98,0.58,9.7L345.86,428.59z M315.7,425.27l19.91-11.59l-3.58-0.95
					l-19.91,11.59l1.98,3.39l3.58,0.95L315.7,425.27z M333.92,425.41c1.49-1.1,2.26-1.98,1.23-3.75l-0.43-0.74l-12.28,9.33
					c-3.97,3.02-3.33,6.48-1.6,9.45c1.05,1.8,2.43,3.6,4.67,4.19l1.34,0.35c-0.3-0.35-0.97-1.09-1.77-2.47
					c-1.26-2.16-1.99-4.38-1.35-6.55c0.59-2,1.64-3.37,3.32-4.63L333.92,425.41z M331.49,434.4c-1.79,1.32-2.05,2-1.39,3.55
					c0.86-0.4,1.28-0.65,2.06-1.1c4.31-2.51,4.55-3.41,3.51-5.6L331.49,434.4z M336.74,430.49c1.5,3.06,1.05,4.64-3.73,7.43
					c-0.14,0.08-1.06,0.62-2.2,1.19c1.04,1.38,2.05,1.89,6.47-0.69c5.06-2.95,4.92-3.67,3.2-6.7l3.79-2.2l-4.7-1.24
					c-0.28,0.26-0.47,0.42-0.84,0.68L336.74,430.49z"/>
				<path class="st18" d="M264.07,434.51l6.35-0.67l4.32,3.49l1.9,17.91l1.75-0.19l4.32,3.49l0.61,5.78l-12.01,1.28l-4.32-3.49
					L264.07,434.51z M272.87,437.53l-2.88-2.33l-4.48,0.48l2.73,25.72l2.88,2.33L268.39,438L272.87,437.53z M277.06,459.14
					l3.83-0.41l-2.88-2.33l-1.22,0.13L277.06,459.14z"/>
				<path class="st18" d="M232.64,448.72c-1.54-1.8-1.81-4.24-1.63-6.57c0.72-9.3,6.35-8.87,12.88-8.36
					c6.57,0.51,8.53,1.77,9.69,3.13l2.98,3.47c1.92,2.24,2.65,4.52,1.99,13.04c-0.88,11.3-3.06,13.6-13.84,12.76
					c-2.73-0.21-6.93-0.58-9.08-3.08l-3.61-4.22c-1.81-2.11-1.56-4.76-1.45-6.19l5.88,0.45c-0.15-0.13-0.15-0.18-0.34-0.4
					L232.64,448.72z M236.71,454.5l-4.94-0.38c0.04,1.07,0.09,2.59,1.22,3.91l1.17,1.36c-0.08-1.03-0.04-1.6,0.04-2.62l4.65,0.36
					L236.71,454.5z M252.58,437.74c-1.51-1.76-4.95-2.35-9.32-2.69c-6-0.46-10.33-0.8-10.96,7.36c-0.05,0.69-0.2,3.68,1.34,5.48
					l1.02,1.19c-0.16-1.16-0.06-2.43-0.03-2.79c0.68-8.86,6.23-8.84,11.53-8.43c0.65,0.05,4.37,0.34,7.54,1.2L252.58,437.74z
					 M240.44,457.25l-0.01,0.08c0.73,0.1,1.1,0.17,2.61,0.28c3.67,0.28,4.23,0,4.52-1.62c-0.41,0.05-1.4,0.1-3.08-0.03
					c-3.18-0.25-4.62-0.73-6.06-1.21L240.44,457.25z M245.23,460.58c5.59,0.43,6.5-0.73,6.99-5.99c-0.83,0.59-1.43,1-3.38,1.3
					c-0.43,2.96-1.74,3.4-8.37,2.6C240.51,459.43,241.31,460.27,245.23,460.58z M240.86,447.55c0.08,1.65,0.82,2.73,5.3,3.08
					c5.51,0.43,6.36-0.45,6.58-3.31c0.2-2.61-1.25-2.97-2.42-3.27C249.96,446.66,248.73,448.7,240.86,447.55z M240.92,446.24
					c7.28,0.93,7.83-0.42,8.11-2.41C241.87,442.99,241.28,443.64,240.92,446.24z"/>
				<path class="st18" d="M182.34,412.21l5.45,3.32l1.31,5.4l-9.38,15.37l1.5,0.92l1.31,5.4l-3.03,4.96l-10.31-6.28l-1.31-5.4
					L182.34,412.21z M187.49,419.96l-0.87-3.6l-3.84-2.34l-13.47,22.08l0.87,3.6l13.47-22.08L187.49,419.96z M177.67,439.67l3.28,2
					l-0.87-3.6l-1.05-0.64L177.67,439.67z"/>
				<path class="st18" d="M129.19,391.01c-6.37,3.62-9.45,3.59-14.9-5.98c-2.65-4.66-3.38-7.92-2.94-9.54l1.47-5.36
					c0.52-1.9,1.85-3.69,4.81-5.37c2.45-1.4,4.7-1.92,6.58-1.35c1.94,0.59,3.37,1.71,4.62,3.4l2.98,4l-4.03-7.08l1.47-5.36
					l5.02-2.86l12.33,21.66l-1.47,5.36l-4.8,2.73c-2.13,1.21-6.01,3.42-9.71,0.49L129.19,391.01z M132.48,379.1
					c1.09,1.5,1.96,2.28,3.73,1.27l0.75-0.43l-9.21-12.37c-2.98-4-6.45-3.39-9.44-1.69c-1.81,1.03-3.63,2.4-4.24,4.63l-0.37,1.34
					c0.35-0.29,1.1-0.96,2.49-1.75c2.17-1.24,4.4-1.94,6.57-1.29c1.99,0.61,3.35,1.67,4.6,3.36L132.48,379.1z M127.37,381.87
					c-3.07,1.47-4.66,1-7.39-3.8c-0.08-0.14-0.61-1.07-1.17-2.21c-1.39,1.03-1.91,2.03,0.62,6.47c2.9,5.09,3.62,4.96,6.67,3.27
					l2.17,3.81l1.29-4.69c-0.25-0.28-0.41-0.47-0.67-0.84L127.37,381.87z M123.51,376.57c-1.31-1.8-1.98-2.08-3.54-1.42
					c0.39,0.86,0.64,1.28,1.08,2.07c2.47,4.34,3.36,4.58,5.56,3.57L123.51,376.57z M132.8,360.88l11.4,20.03l0.98-3.57l-11.4-20.03
					l-3.41,1.94l-0.98,3.57L132.8,360.88z"/>
				<path class="st18" d="M102.31,285.58l21.73,12.95l-0.12,7.57l-3.99,3.87L102.1,298.8l-0.19,11.58l-3.99,3.87l-5.81-0.09
					l0.4-24.8l3.99-3.87L102.31,285.58z M119.96,308.09l2.66-2.58l0.1-6.22l-20.76-12.41l-4.91-0.08l-2.66,2.58l3.93,0.06
					l21.73,12.95L119.96,308.09z M98.21,296.36l-0.26,16.04l2.66-2.58l0.19-11.87L98.21,296.36z"/>
				<path class="st18" d="M133.32,220.92l5.35-1.51l5.07,2.84l-2.08,3.71l4.5,2.52l-3.08,5.5l-5.35,1.51l-1.07-0.6l-5.78,10.32
					l-5.35,1.51l-5.36-3l-7.9-19.57l4.32-7.71l5.35-1.51l11.21,6.28L133.32,220.92z M121.66,226.5l-3.82-2.14l5.78,13.89l1.74-3.11
					L121.66,226.5z M131.24,224.64l1.28-2.29l-10.71-6l-3.57,1.01L131.24,224.64z M126.24,233.57l1.92-3.43l-4.71-2.64
					L126.24,233.57z M133.23,232.98l-6.8,12.14l3.57-1.01l5.52-9.86L133.23,232.98z M138.39,223.76l-2.08,3.71l4.5,2.52l-2.18,3.89
					l3.57-1.01l2.18-3.89l-4.5-2.52l2.08-3.71l-3.43-1.92l-3.57,1.01L138.39,223.76z"/>
				<path class="st18" d="M166.59,176.26c-3.68-6.34-3.67-9.42,5.85-14.94c4.64-2.69,7.89-3.44,9.51-3.01l5.37,1.43
					c1.9,0.5,3.71,1.82,5.41,4.76c1.42,2.44,1.96,4.68,1.4,6.57c-0.58,1.94-1.68,3.39-3.36,4.65l-3.97,3.02l7.04-4.09l5.37,1.42
					l2.9,4.99l-21.55,12.51l-5.37-1.43l-2.77-4.78c-1.23-2.12-3.47-5.98-0.57-9.7L166.59,176.26z M175.71,174.37
					c-1.49-3.06-1.04-4.65,3.74-7.42c0.14-0.08,1.06-0.62,2.2-1.18c-1.04-1.38-2.04-1.89-6.47,0.68c-5.06,2.94-4.92,3.66-3.21,6.69
					l-3.79,2.2l4.7,1.25c0.28-0.26,0.47-0.42,0.84-0.68L175.71,174.37z M180.97,170.47c1.79-1.32,2.06-2,1.39-3.55
					c-0.85,0.4-1.28,0.65-2.06,1.1c-4.32,2.51-4.56,3.4-3.52,5.59L180.97,170.47z M196.74,179.62l-19.93,11.56l3.58,0.95
					l19.93-11.56l-1.97-3.4l-3.58-0.95L196.74,179.62z M178.52,179.46c-1.49,1.1-2.26,1.97-1.23,3.74l0.43,0.74l12.29-9.31
					c3.97-3.02,3.34-6.48,1.61-9.45c-1.05-1.81-2.42-3.61-4.66-4.2l-1.34-0.36c0.3,0.35,0.97,1.09,1.77,2.47
					c1.25,2.16,1.98,4.39,1.34,6.55c-0.59,2-1.64,3.37-3.32,4.63L178.52,179.46z"/>
			</g>
		</g>
	</g>
	
		<ellipse transform="matrix(0.7071 -0.7071 0.7071 0.7071 -138.8668 269.7107)" class="st18" cx="256.14" cy="302.48" rx="122.88" ry="122.88"/>
	<g>
		<path class="st18" d="M404.8,142.73c0.18-2.44,2.48-4.17,4.83-4.17c1.02,0,2.53,0.22,4.61,2.3l2.48,2.48
			c3.94,3.94,5.67,9.62,5.67,15.46c0,4.7-4.12,5.01-5.45,5.01c-1.46,0-2.7-0.62-3.37-1.29l-0.66-0.66
			c-0.44,6.25-1.99,12.63-9.88,12.63c-2.75,0-5.98-0.75-7.89-2.66c-0.53,0.71-1.59,2.22-4.08,2.22c-1.91,0-3.32-1.06-4.03-1.77
			l-2.48-2.44c-0.93-0.93-1.37-2.04-1.37-3.06c0-1.46,0.4-2.13,1.73-4.56c1.59-2.88,3.19-7.36,3.32-7.75
			c-0.13-0.04-0.67-0.31-1.2-0.84l-2.48-2.48c-1.24-1.24-1.33-2.97-1.33-3.54c0-4.7,3.72-4.92,8.2-5.14
			c0.62-3.68,1.15-6.56,4.96-6.56c0.8,0,3.01,0.09,4.34,1.42l2.48,2.48c0.8,0.8,1.06,1.68,1.11,2.75L404.8,142.73z"/>
		<path class="st18" d="M453.01,188.39c1.2,1.2,1.29,2.92,1.29,3.5c0,4.56-3.63,4.7-6.25,4.79l2.3,2.26
			c2.21,2.17,3.06,5.27,3.06,8.06c0,11.61-12.63,12.23-18.39,12.23c-3.19,0-9.04-0.13-11.08-2.22l-2.48-2.53
			c-0.97-0.97-1.2-2.3-1.2-3.23c0-2.48,1.42-3.68,1.91-4.08l-2.22-2.26c-1.06-1.06-1.29-2.26-1.29-2.79c0-1.29,0.31-1.86,1.37-3.99
			c0.44-0.89,0.62-1.33,0.8-1.73c-0.31-0.22-0.49-0.35-0.67-0.58l-2.48-2.48c-1.2-1.2-1.29-2.88-1.29-3.5
			c0-4.79,3.99-4.83,6.74-4.74l1.2,0.04c0.31-1.51,0.93-4.34,5.01-4.34c0.84,0,2.97,0.09,4.3,1.42l2.48,2.48
			c0.09,0.09,0.09,0.13,0.22,0.22c1.68-0.04,9.08-0.31,10.63-0.31c1.29,0,2.57,0.31,3.54,1.28L453.01,188.39z M432.94,207.4
			c1.2,0,7.27,0,7.67-2.7c-0.58-0.13-0.97-0.18-1.91-0.18c-4.96,0-7.05,1.77-8.15,2.75C431.12,207.36,431.79,207.4,432.94,207.4z"/>
	</g>
	<g>
		<path class="st18" d="M116.75,142.73c0.18-2.44,2.48-4.17,4.83-4.17c1.02,0,2.53,0.22,4.61,2.3l2.48,2.48
			c3.94,3.94,5.67,9.62,5.67,15.46c0,4.7-4.12,5.01-5.45,5.01c-1.46,0-2.7-0.62-3.37-1.29l-0.66-0.66
			c-0.44,6.25-1.99,12.63-9.88,12.63c-2.75,0-5.98-0.75-7.89-2.66c-0.53,0.71-1.6,2.22-4.08,2.22c-1.91,0-3.32-1.06-4.03-1.77
			l-2.48-2.44c-0.93-0.93-1.37-2.04-1.37-3.06c0-1.46,0.4-2.13,1.73-4.56c1.6-2.88,3.19-7.36,3.32-7.75
			c-0.13-0.04-0.66-0.31-1.2-0.84l-2.48-2.48c-1.24-1.24-1.33-2.97-1.33-3.54c0-4.7,3.72-4.92,8.2-5.14
			c0.62-3.68,1.15-6.56,4.96-6.56c0.8,0,3.01,0.09,4.34,1.42l2.48,2.48c0.8,0.8,1.06,1.68,1.11,2.75L116.75,142.73z"/>
		<path class="st18" d="M98.5,188.39c1.2,1.2,1.29,2.92,1.29,3.5c0,4.56-3.63,4.7-6.25,4.79l2.3,2.26c2.22,2.17,3.06,5.27,3.06,8.06
			c0,11.61-12.63,12.23-18.39,12.23c-3.19,0-9.04-0.13-11.08-2.22l-2.48-2.53c-0.97-0.97-1.2-2.3-1.2-3.23
			c0-2.48,1.42-3.68,1.91-4.08l-2.22-2.26c-1.06-1.06-1.29-2.26-1.29-2.79c0-1.29,0.31-1.86,1.37-3.99c0.44-0.89,0.62-1.33,0.8-1.73
			c-0.31-0.22-0.49-0.35-0.66-0.58l-2.48-2.48c-1.2-1.2-1.29-2.88-1.29-3.5c0-4.79,3.99-4.83,6.74-4.74l1.2,0.04
			c0.31-1.51,0.93-4.34,5.01-4.34c0.84,0,2.97,0.09,4.3,1.42l2.48,2.48c0.09,0.09,0.09,0.13,0.22,0.22
			c1.68-0.04,9.08-0.31,10.63-0.31c1.29,0,2.57,0.31,3.54,1.28L98.5,188.39z M78.42,207.4c1.2,0,7.27,0,7.67-2.7
			c-0.58-0.13-0.97-0.18-1.91-0.18c-4.96,0-7.05,1.77-8.15,2.75C76.61,207.36,77.27,207.4,78.42,207.4z"/>
	</g>
	<g>
		<path class="st18" d="M452.67,348.83c1.6,0,8.55-0.44,9.97-0.44c2.26,0,3.19,0.84,3.59,1.24l2.48,2.48
			c1.24,1.24,1.29,2.92,1.29,3.54c0,4.21-3.37,4.52-4.87,4.65l2.44,2.44c1.73,1.73,3.46,4.39,3.46,8.82c0,9-7.27,12.67-14.18,12.67
			c-1.02,0-2.48-0.22-3.59-1.33l-1.06-1.06c-0.44,0.18-0.93,0.35-1.73,0.35c-0.93,0-1.46-0.22-1.95-0.4
			c-1.77,0.75-3.15,1.37-5.27,1.37c-0.67,0-3.28-0.04-5.58-2.35l-2.48-2.48c-2.44-2.44-2.61-5.94-2.61-7.13
			c0-4.3,2.13-8.29,5.54-10.9c-0.31-0.13-0.58-0.35-0.89-0.66l-2.48-2.48c-1.02-1.02-1.29-2.39-1.29-3.5c0-2.79,1.82-4.08,2.92-4.39
			c1.24-0.31,2.08-0.31,4.7-0.31c0.67-3.59,3.59-3.77,4.74-3.77c1.68,0,2.84,0.35,3.86,1.37l2.26,2.26H452.67z"/>
		<path class="st18" d="M437.38,412.61c0.97,0.97,1.28,2.17,1.28,3.1c0,3.06-3.06,12.67-11.39,12.67c-2.84,0-4.79-1.46-5.76-2.44
			l-2.48-2.48c-4.48-4.48-4.7-13.52-4.7-19.01c0-9.13,0.35-12.54,5.41-12.54c1.29,0,2.75,0.31,3.72,1.29l2.48,2.48
			c1.15,1.15,1.24,2.66,1.24,3.37c0,0.49-0.27,2.75-0.31,3.19c-0.04,0.84-0.27,3.81-0.27,7.05c0,1.11,0,1.37,0.09,2.88
			c0.49-1.51,1.15-3.54,4.43-3.54c1.99,0,3.28,1.02,3.77,1.51L437.38,412.61z M432.99,402.16c-0.97-0.97-1.24-2.39-1.24-3.5
			c0-2.44,1.42-5.01,4.92-5.01c4.52,0,7.62,2.53,8.6,3.5l2.48,2.48c2.88,2.88,4.79,8.29,4.79,20.52c0,1.33-0.04,5.72-5.32,5.72
			c-1.77,0-3.06-0.75-3.77-1.46l-2.48-2.48c-1.2-1.2-1.24-2.57-1.24-4.08c0-5.49,0-8.68-0.93-11.92c-1.29-0.18-2.35-0.31-3.32-1.29
			L432.99,402.16z"/>
		<path class="st18" d="M418.64,463.73c1.15,1.15,1.33,2.75,1.33,3.59c0,4.03-2.26,6.07-16.26,6.07c-4.43,0-6.43-0.18-10.46-1.42
			c-3.01-0.89-3.94-1.64-4.79-2.48l-2.48-2.48c-2.39-2.39-2.66-4.83-2.66-6.03c0-6.03,5.41-10.55,8.55-10.55
			c0.31,0,2.17,0,3.54,1.37l2.48,2.48c0.49,0.49,1.55,1.55,1.55,3.37c0,1.73-0.8,2.48-1.82,3.46c0.8,0.04,1.91,0.09,3.28,0.09
			c1.99,0,4.96-0.09,8.15-0.66c2.75-0.49,3.06-0.58,3.68-0.58c1.37,0,2.53,0.4,3.41,1.29L418.64,463.73z M386.64,445.74
			c-1.06-1.06-1.33-2.48-1.33-3.59c0-4.83,4.21-4.83,5.45-4.83c1.15,0,6.16,0.13,7.22,0.13c1.77,0,9.62-0.22,11.21-0.22
			c1.06,0,3.06,0,4.48,1.42l2.48,2.48c1.02,1.02,1.2,2.3,1.2,3.32c0,2.84-0.97,3.54-5.67,6.82c-0.62,0.44-3.32,2.39-3.9,2.75
			c-0.49,0.27-1.68,0.93-3.19,0.93c-1.55,0-2.88-0.93-3.46-1.51l-2.48-2.44c-0.67-0.62-0.89-1.2-1.06-1.64
			c-0.75,0.04-4.08,0.13-4.74,0.13c-1.86,0-2.92-0.49-3.72-1.29L386.64,445.74z"/>
	</g>
	<g>
		<path class="st18" d="M72.95,375.95c3.15,1.73,4.56,2.97,5.1,3.5l2.48,2.48c0.8,0.8,1.55,1.91,1.55,3.41
			c0,2.7-2.17,5.45-5.18,5.45c-1.55,0-1.95-0.31-4.52-2.35c-0.35-0.31-0.53-0.44-2.08-1.64c-1.68,4.56-6.74,5.23-9.79,5.23
			c-4.17,0-7.75-0.89-10.32-3.46l-2.48-2.48c-1.64-1.64-2.22-3.59-2.22-5.41c0-2.53,1.06-4.7,3.06-6.29l-1.86-1.86
			c-0.93-0.93-1.24-2.17-1.24-3.28c0-1.51,0.44-2.66,1.6-3.59l-0.71-0.71c-1.02-1.02-1.24-2.35-1.24-3.32
			c0-4.48,4.08-4.48,4.96-4.48c1.73,0,3.72-0.04,5.41-0.04h2.61c0.18-1.11,0.97-3.72,4.96-3.72c1.33,0,2.75,0.27,3.68,1.24l2.26,2.3
			c0.98,0,5.32-0.18,6.2-0.18c1.55,0,2.7,0.75,3.15,1.2l2.48,2.48c0.8,0.8,1.24,1.99,1.24,3.32c0,1.68-0.62,3.01-1.99,3.9
			c0.84,0.84,1.68,1.64,1.68,3.68c0,4.43-3.54,4.48-5.67,4.52L72.95,375.95z"/>
		<path class="st18" d="M112.03,420.42c1.2,1.2,1.33,2.61,1.33,3.59c0.97,0.18,1.77,0.44,2.48,1.15l2.48,2.48
			c0.8,0.8,1.28,1.91,1.28,3.59c0,4.43-3.32,4.61-5.94,4.79c0.04,0.49,0.09,2.79,0.09,3.23c0,6.51-1.24,11.92-7.84,14.58
			c-1.37,0.53-4.56,1.51-7.27,1.51c-1.77,0-2.79-0.98-3.23-1.37l-1.6-1.55c-1.02,1.51-2.75,1.95-4.43,1.95s-2.79-0.8-3.28-1.29
			l-2.48-2.48c-2.04-2.04-2.08-10.32-2.08-13.87c0-7.67,0.84-15.2,1.29-16.71c0.58-1.91,1.95-3.19,4.43-3.19
			c0.8,0,2.7,0.04,3.94,1.29l2.48,2.48c1.29,1.28,1.2,3.1,1.15,3.85c0.93,0,5.18-0.04,6.07-0.04c-0.04-0.44-0.09-2.3-0.09-2.7
			c0-3.06,1.42-5.01,5.1-5.01c1.28,0,2.66,0.27,3.63,1.24L112.03,420.42z M93.78,438.72c0,1.68,0.04,3.28,0.18,4.96
			c0.67-0.22,4.03-0.71,4.79-0.97c1.95-0.67,2.48-1.91,2.48-6.29c-4.96,0.13-6.11,0-7.4-1.11C93.78,436.38,93.78,437.4,93.78,438.72
			z"/>
	</g>
	<g>
		<g>
			<path class="st19" d="M76.58,380.51c-2.17-1.86-6.65-4.52-10.06-5.63l-0.04-3.1c2.97-0.09,8.33-0.18,8.86-0.27
				c0.49-0.09,2.08-0.31,2.08-2.61c0-2.39-1.68-2.7-2.7-2.7c-0.22,0-7.75,0.18-8.33,0.18l-0.04-2.13c1.2-0.04,7.22-0.13,8.6-0.22
				c0.93-0.04,2.84-0.18,2.84-2.75c0-0.84-0.27-2.75-2.7-2.75c-1.06,0-7.58,0.18-8.86,0.22v-0.84c0-1.99-1.24-2.75-3.32-2.75
				c-2.61,0-3.15,1.64-3.1,2.75l0.04,0.93c-1.42,0.04-8.24,0.09-9.79,0.09c-1.02,0-3.19,0-3.19,2.7c0,2.79,1.86,2.79,4.3,2.79
				c1.24,0,7.4-0.09,8.77-0.09l0.04,2.17c-1.42,0-8.38,0.04-9.97,0.04c-1.64,0-2.84,0.71-2.84,2.7c0,2.66,1.91,2.7,3.46,2.7
				c0.04,0,8.6-0.04,9.48-0.04v1.68c-0.53-0.09-1.24-0.13-2.3-0.13c-6.47,0-10.55,2.79-10.55,7.22c0,3.72,3.37,7.09,10.59,7.09
				c8.2,0,8.55-4.34,8.69-6.38c1.6,0.84,2.92,1.91,4.56,3.23c2.17,1.73,2.39,1.95,3.37,1.95c1.99,0,3.32-2.04,3.32-3.72
				C77.78,381.66,77.07,380.91,76.58,380.51z M57.04,382.37c-0.84,0-3.85,0-3.85-1.99c0-1.68,2.66-2.04,4.08-2.04
				c1.46,0,2.22,0.27,2.88,0.49C60.14,381.31,60.14,382.37,57.04,382.37z"/>
		</g>
		<path class="st19" d="M84.69,420.07c-0.62,1.46-1.37,9.53-1.37,16.79c0,13.25,1.55,13.25,3.63,13.25c1.37,0,3.32-0.4,3.32-2.61
			c0-0.62-0.09-1.51-0.18-2.13c-0.53-4.39-0.58-7.71-0.58-9.35c0-5.58,0.75-11.7,0.8-12.05c0.27-2.17,0.27-2.44,0.27-2.75
			c0-2.57-2.44-2.57-2.57-2.57C86.82,418.56,85.36,418.47,84.69,420.07z"/>
		<path class="st19" d="M113.72,431.5c1.2-0.31,1.64-1.51,1.64-2.84c0-2.04-1.11-2.97-2.97-2.97c-0.44,0-2.7,0.13-3.19,0.13
			c-0.04-1.51-0.04-4.08-0.18-5.18c-0.13-1.37-1.11-2.17-3.23-2.17c-2.88,0-3.19,1.68-3.19,3.15c0,0.22,0.09,3.68,0.13,4.48
			c-0.13,0-7.27,0.13-7.8,0.13c-1.51,0.04-3.19,0.35-3.19,2.97c0,3.01,1.91,3.01,4.65,3.01c1.86,0,3.59-0.04,6.51-0.18
			c0.04,1.42,0.09,3.68,0.09,4.25c0,5.1-0.62,7.89-5.85,8.6c-2.97,0.4-3.94,0.53-3.94,2.84c0,1.68,1.02,3.37,3.06,3.37
			c2.22,0,5.18-0.84,6.56-1.37c5.63-2.3,6.69-6.78,6.69-12.85c0-0.66-0.09-4.12-0.09-5.01C110.44,431.81,112.87,431.72,113.72,431.5
			z"/>
		<path class="st19" d="M385.04,147.6c0,2.7,1.86,3.06,2.75,3.06c0.58,0,2.92-0.31,3.63-0.4c-1.86,6.69-4.25,11.52-4.96,12.81
			c-1.24,2.22-1.51,2.7-1.51,3.68c0,1.51,1.82,3.06,3.81,3.06c1.82,0,2.84-1.51,4.65-6.16c2.35-5.89,3.85-11.39,4.56-14
			c4.21-0.27,4.65,0.71,4.65,4.96c0,2.44-0.18,4.83-0.53,6.65c-0.4,2.08-0.75,2.92-2.22,2.92c-0.53,0-3.15-0.84-3.72-0.84
			c-2.66,0-2.66,3.15-2.66,3.19c0,2.92,4.56,3.72,7.05,3.72c5.5,0,8.24-3.28,8.24-14.76c0-10.59-3.72-11.79-9.35-11.65
			c0.27-1.02,0.62-2.75,0.62-3.59c0-2.35-2.53-2.57-3.63-2.57c-2.04,0-2.44,1.2-2.61,1.82c-0.18,0.58-0.75,3.9-0.93,4.65
			C386.76,144.46,385.04,144.54,385.04,147.6z"/>
		<path class="st19" d="M406.57,143.04c0,0.98,0.22,1.2,2.3,3.37c0.89,0.93,2.44,3.63,2.7,8.77c0.13,2.84,0.22,4.39,2.97,4.39
			c3.59,0,3.59-2.48,3.59-3.23c0-10.15-5.63-16-8.46-16C408.03,140.33,406.57,141.53,406.57,143.04z"/>
		<path class="st19" d="M446.76,192.34c1.68-0.13,3.28-0.35,3.28-2.92c0-2.92-2.26-3.01-3.15-3.01c-0.58,0-3.37,0.09-3.99,0.13
			c-2.7,0.09-7.36,0.22-10.19,0.27c0.18-0.71,0.27-1.11,0.27-1.68c0-1.86-1.46-2.53-3.59-2.53c-2.61,0-2.84,0.98-3.63,4.3
			c-0.49,0.04-2.88,0-3.41,0c-1.95,0-4.17,0-4.17,2.97c0,3.1,1.82,3.06,5.94,3.01c-1.06,2.97-1.29,3.54-2.26,5.58
			c-1.24,2.61-1.42,2.88-1.42,3.63c0,1.55,1.86,2.7,3.72,2.7c1.24,0,1.77-0.44,2.75-1.33c2.13-1.95,5.05-3.19,9.39-3.19
			c1.82,0,6.11,0.35,6.11,3.99c0,4.12-5.1,4.92-9.44,4.92c-2.57,0-4.61-0.31-5.94-0.58c-1.73-0.35-1.95-0.4-2.44-0.4
			c-1.86,0-2.57,1.77-2.57,3.1c0,1.42,0.04,3.68,10.5,3.68c10.41,0,16.62-2.79,16.62-10.68c0-9.57-10.15-9.57-12.1-9.57
			c-3.86,0-5.72,0.84-7.93,1.82c0.67-1.24,0.97-1.86,1.64-3.77C440.61,192.65,446.23,192.38,446.76,192.34z"/>
		<path class="st19" d="M96.99,147.6c0,2.7,1.86,3.06,2.75,3.06c0.58,0,2.92-0.31,3.63-0.4c-1.86,6.69-4.25,11.52-4.96,12.81
			c-1.24,2.22-1.51,2.7-1.51,3.68c0,1.51,1.82,3.06,3.81,3.06c1.82,0,2.84-1.51,4.65-6.16c2.35-5.89,3.85-11.39,4.56-14
			c4.21-0.27,4.65,0.71,4.65,4.96c0,2.44-0.18,4.83-0.53,6.65c-0.4,2.08-0.75,2.92-2.22,2.92c-0.53,0-3.15-0.84-3.72-0.84
			c-2.66,0-2.66,3.15-2.66,3.19c0,2.92,4.56,3.72,7.05,3.72c5.5,0,8.24-3.28,8.24-14.76c0-10.59-3.72-11.79-9.35-11.65
			c0.27-1.02,0.62-2.75,0.62-3.59c0-2.35-2.53-2.57-3.63-2.57c-2.04,0-2.44,1.2-2.61,1.82c-0.18,0.58-0.75,3.9-0.93,4.65
			C98.72,144.46,96.99,144.54,96.99,147.6z"/>
		<path class="st19" d="M118.53,143.04c0,0.98,0.22,1.2,2.3,3.37c0.89,0.93,2.44,3.63,2.7,8.77c0.13,2.84,0.22,4.39,2.97,4.39
			c3.59,0,3.59-2.48,3.59-3.23c0-10.15-5.63-16-8.46-16C119.99,140.33,118.53,141.53,118.53,143.04z"/>
		<path class="st19" d="M92.25,192.34c1.68-0.13,3.28-0.35,3.28-2.92c0-2.92-2.26-3.01-3.15-3.01c-0.58,0-3.37,0.09-3.99,0.13
			c-2.7,0.09-7.36,0.22-10.19,0.27c0.18-0.71,0.27-1.11,0.27-1.68c0-1.86-1.46-2.53-3.59-2.53c-2.61,0-2.84,0.98-3.63,4.3
			c-0.49,0.04-2.88,0-3.41,0c-1.95,0-4.17,0-4.17,2.97c0,3.1,1.82,3.06,5.94,3.01c-1.06,2.97-1.29,3.54-2.26,5.58
			c-1.24,2.61-1.42,2.88-1.42,3.63c0,1.55,1.86,2.7,3.72,2.7c1.24,0,1.77-0.44,2.75-1.33c2.13-1.95,5.05-3.19,9.39-3.19
			c1.82,0,6.11,0.35,6.11,3.99c0,4.12-5.1,4.92-9.44,4.92c-2.57,0-4.61-0.31-5.94-0.58c-1.73-0.35-1.95-0.4-2.44-0.4
			c-1.86,0-2.57,1.77-2.57,3.1c0,1.42,0.04,3.68,10.5,3.68c10.41,0,16.62-2.79,16.62-10.68c0-9.57-10.15-9.57-12.1-9.57
			c-3.85,0-5.72,0.84-7.93,1.82c0.67-1.24,0.98-1.86,1.64-3.77C86.09,192.65,91.72,192.38,92.25,192.34z"/>
		<path class="st19" d="M416.07,404.5c0,4.83,0.04,19.63,8.91,19.63c6.65,0,9.44-8.29,9.44-10.86c0-1.73-1.46-2.88-3.46-2.88
			c-1.86,0-2.13,0.89-2.79,2.97c-0.75,2.3-1.64,3.37-2.92,3.37c-2.66,0-2.88-7.44-2.88-10.46c0-2.61,0.18-6.16,0.35-7.53
			c0.13-1.06,0.22-1.82,0.22-2.17c0-1.29-0.4-2.88-3.23-2.88C416.78,393.69,416.07,394.62,416.07,404.5z"/>
		<path class="st19" d="M448.28,417.71c0-11.57-1.99-15.82-2.3-16.48c-2.44-5.14-7.49-5.8-9.26-5.8c-2.92,0-3.19,2.35-3.19,3.19
			c0,2.57,1.11,2.75,3.46,3.15c4.52,0.71,4.52,8.2,4.52,16.17c0,1.55,0,3.68,3.37,3.68C448.19,421.61,448.28,419.08,448.28,417.71z"
			/>
		<path class="st19" d="M412.79,461.74c-0.35,0-0.71-0.04-2.53,0.35c-1.37,0.27-4.56,0.93-9.7,0.93c-3.06,0-8.82-0.18-8.82-2.84
			c0-1.06,1.37-2.17,1.95-2.62c0.8-0.66,1.55-1.37,1.55-2.35c0-1.24-1.2-3.01-3.32-3.01s-6.82,3.68-6.82,8.77
			c0,2.35,1.46,4.74,3.77,5.94c1.99,1.06,4.92,2.17,13.03,2.17c4.12,0,9.39-0.31,11.83-1.24c1.73-0.62,1.99-1.91,1.99-3.01
			C415.71,463.06,414.91,461.74,412.79,461.74z"/>
		<path class="st19" d="M399.98,445.96c-0.4,0.35-0.93,0.84-0.93,1.82c0,1.64,1.6,2.92,3.1,2.92c0.98,0,1.77-0.44,2.26-0.71
			c0.58-0.31,3.15-2.21,3.72-2.61c4.65-3.28,4.96-3.5,4.96-5.41c0-2.88-2.39-2.97-3.99-2.97c-1.55,0-9.17,0.27-10.86,0.27
			c-1.11,0-6.42-0.18-7.62-0.18c-1.29,0-3.54,0-3.54,3.15c0,2.53,1.73,3.01,3.19,3.01c3.19,0,8.33-0.22,11.43-0.49
			C401.49,444.94,400.25,445.74,399.98,445.96z"/>
		<g>
			<path class="st19" d="M462.64,360.48c-1.6-1.2-4.08-2.7-10.33-2.7c-1.77,0-2.84,0.18-3.68,0.27c0.04-0.53,0.04-0.71,0.09-1.46
				c1.86-0.04,12.5-0.27,14.76-0.62c1.77-0.27,2.26-1.55,2.26-2.84c0-2.17-1.24-2.97-3.06-2.97c-0.97,0-11.52,0.49-13.65,0.53
				c0.09-1.73,0.09-3.72-3.32-3.72c-2.88,0-2.92,1.99-2.97,3.77h-3.77c-1.37,0-3.77,0-3.77,2.97c0,0.98,0.31,2.04,1.33,2.61
				c0.62,0.35,1.15,0.35,5.98,0.35l-0.04,3.06c-2.97,1.37-8.15,4.74-8.15,11.52c0,5.32,3.5,7.67,6.25,7.67
				c2.66,0,5.1-1.37,5.54-1.68c0.31,0.27,0.75,0.71,1.82,0.71c1.82,0,3.28-1.55,3.28-3.1c0-0.67-0.31-1.24-0.4-1.51
				c3.01-3.23,4.87-7,5.98-9.62c0.8,0.22,3.59,1.06,3.59,5.1c0,3.94-2.57,5.1-5.98,5.41c-1.73,0.18-3.15,0.31-3.15,2.79
				c0,1.24,0.49,2.97,3.1,2.97c4.83,0,12.41-2.17,12.41-10.9C466.76,366.77,466.27,363.23,462.64,360.48z M441.59,373.38
				c-1.55,0-1.64-1.77-1.64-2.35c0-2.97,1.95-4.74,2.61-5.27c0.13,1.77,0.62,5.23,1.24,6.82
				C443.14,372.93,442.3,373.38,441.59,373.38z M448.77,367.48c-0.18-1.11-0.27-1.99-0.27-4.43c0.58-0.13,1.02-0.22,2.61-0.22
				C450.63,363.89,449.83,365.93,448.77,367.48z"/>
		</g>
	</g>
	<polygon class="st28" points="317.59,97.13 347.28,80.97 346.64,89.05 389.7,75.26 334.69,101.98 336.15,91.85 	"/>
	<polygon class="st28" points="194.51,97.13 164.82,80.97 165.45,89.05 122.39,75.26 177.41,101.98 175.94,91.85 	"/>
</g>
</svg>
