<?xml version="1.0" encoding="utf-8"?>
<!-- Generator: Adobe Illustrator 27.9.3, SVG Export Plug-In . SVG Version: 9.03 Build 53313)  -->
<svg version="1.1" id="レイヤー_1" xmlns="http://www.w3.org/2000/svg" xmlns:xlink="http://www.w3.org/1999/xlink" x="0px"
	 y="0px" viewBox="0 0 513.09 675.82" style="enable-background:new 0 0 513.09 675.82;" xml:space="preserve">
<style type="text/css">
	.st0{fill:none;}
	.st1{fill:#231815;}
	.st2{fill:#FFFFFF;}
	.st3{fill:#FF0000;}
</style>
<rect class="st0" width="513.09" height="675.82"/>
<g>
	<path class="st1" d="M404.8,142.73c0.18-2.44,2.48-4.17,4.83-4.17c1.02,0,2.53,0.22,4.61,2.3l2.48,2.48
		c3.94,3.94,5.67,9.62,5.67,15.46c0,4.7-4.12,5.01-5.45,5.01c-1.46,0-2.7-0.62-3.37-1.29l-0.66-0.66
		c-0.44,6.25-1.99,12.63-9.88,12.63c-2.75,0-5.98-0.75-7.89-2.66c-0.53,0.71-1.59,2.22-4.08,2.22c-1.91,0-3.32-1.06-4.03-1.77
		l-2.48-2.44c-0.93-0.93-1.37-2.04-1.37-3.06c0-1.46,0.4-2.13,1.73-4.56c1.59-2.88,3.19-7.36,3.32-7.75
		c-0.13-0.04-0.67-0.31-1.2-0.84l-2.48-2.48c-1.24-1.24-1.33-2.97-1.33-3.54c0-4.7,3.72-4.92,8.2-5.14
		c0.62-3.68,1.15-6.56,4.96-6.56c0.8,0,3.01,0.09,4.34,1.42l2.48,2.48c0.8,0.8,1.06,1.68,1.11,2.75L404.8,142.73z"/>
	<path class="st1" d="M453.01,188.39c1.2,1.2,1.29,2.92,1.29,3.5c0,4.56-3.63,4.7-6.25,4.79l2.3,2.26c2.21,2.17,3.06,5.27,3.06,8.06
		c0,11.61-12.63,12.23-18.39,12.23c-3.19,0-9.04-0.13-11.08-2.22l-2.48-2.53c-0.97-0.97-1.2-2.3-1.2-3.23
		c0-2.48,1.42-3.68,1.91-4.08l-2.22-2.26c-1.06-1.06-1.29-2.26-1.29-2.79c0-1.29,0.31-1.86,1.37-3.99c0.44-0.89,0.62-1.33,0.8-1.73
		c-0.31-0.22-0.49-0.35-0.67-0.58l-2.48-2.48c-1.2-1.2-1.29-2.88-1.29-3.5c0-4.79,3.99-4.83,6.74-4.74l1.2,0.04
		c0.31-1.51,0.93-4.34,5.01-4.34c0.84,0,2.97,0.09,4.3,1.42l2.48,2.48c0.09,0.09,0.09,0.13,0.22,0.22
		c1.68-0.04,9.08-0.31,10.63-0.31c1.29,0,2.57,0.31,3.54,1.28L453.01,188.39z M432.94,207.4c1.2,0,7.27,0,7.67-2.7
		c-0.58-0.13-0.97-0.18-1.91-0.18c-4.96,0-7.05,1.77-8.15,2.75C431.12,207.36,431.79,207.4,432.94,207.4z"/>
	<g>
		<path class="st1" d="M116.75,142.73c0.18-2.44,2.48-4.17,4.83-4.17c1.02,0,2.53,0.22,4.61,2.3l2.48,2.48
			c3.94,3.94,5.67,9.62,5.67,15.46c0,4.7-4.12,5.01-5.45,5.01c-1.46,0-2.7-0.62-3.37-1.29l-0.66-0.66
			c-0.44,6.25-1.99,12.63-9.88,12.63c-2.75,0-5.98-0.75-7.89-2.66c-0.53,0.71-1.6,2.22-4.08,2.22c-1.91,0-3.32-1.06-4.03-1.77
			l-2.48-2.44c-0.93-0.93-1.37-2.04-1.37-3.06c0-1.46,0.4-2.13,1.73-4.56c1.6-2.88,3.19-7.36,3.32-7.75
			c-0.13-0.04-0.66-0.31-1.2-0.84l-2.48-2.48c-1.24-1.24-1.33-2.97-1.33-3.54c0-4.7,3.72-4.92,8.2-5.14
			c0.62-3.68,1.15-6.56,4.96-6.56c0.8,0,3.01,0.09,4.34,1.42l2.48,2.48c0.8,0.8,1.06,1.68,1.11,2.75L116.75,142.73z"/>
		<path class="st1" d="M98.5,188.39c1.2,1.2,1.29,2.92,1.29,3.5c0,4.56-3.63,4.7-6.25,4.79l2.3,2.26c2.22,2.17,3.06,5.27,3.06,8.06
			c0,11.61-12.63,12.23-18.39,12.23c-3.19,0-9.04-0.13-11.08-2.22l-2.48-2.53c-0.97-0.97-1.2-2.3-1.2-3.23
			c0-2.48,1.42-3.68,1.91-4.08l-2.22-2.26c-1.06-1.06-1.29-2.26-1.29-2.79c0-1.29,0.31-1.86,1.37-3.99c0.44-0.89,0.62-1.33,0.8-1.73
			c-0.31-0.22-0.49-0.35-0.66-0.58l-2.48-2.48c-1.2-1.2-1.29-2.88-1.29-3.5c0-4.79,3.99-4.83,6.74-4.74l1.2,0.04
			c0.31-1.51,0.93-4.34,5.01-4.34c0.84,0,2.97,0.09,4.3,1.42l2.48,2.48c0.09,0.09,0.09,0.13,0.22,0.22
			c1.68-0.04,9.08-0.31,10.63-0.31c1.29,0,2.57,0.31,3.54,1.28L98.5,188.39z M78.42,207.4c1.2,0,7.27,0,7.67-2.7
			c-0.58-0.13-0.97-0.18-1.91-0.18c-4.96,0-7.05,1.77-8.15,2.75C76.61,207.36,77.27,207.4,78.42,207.4z"/>
	</g>
	<g>
		<path class="st1" d="M452.67,348.83c1.6,0,8.55-0.44,9.97-0.44c2.26,0,3.19,0.84,3.59,1.24l2.48,2.48
			c1.24,1.24,1.29,2.92,1.29,3.54c0,4.21-3.37,4.52-4.87,4.65l2.44,2.44c1.73,1.73,3.46,4.39,3.46,8.82c0,9-7.27,12.67-14.18,12.67
			c-1.02,0-2.48-0.22-3.59-1.33l-1.06-1.06c-0.44,0.18-0.93,0.35-1.73,0.35c-0.93,0-1.46-0.22-1.95-0.4
			c-1.77,0.75-3.15,1.37-5.27,1.37c-0.67,0-3.28-0.04-5.58-2.35l-2.48-2.48c-2.44-2.44-2.61-5.94-2.61-7.13
			c0-4.3,2.13-8.29,5.54-10.9c-0.31-0.13-0.58-0.35-0.89-0.66l-2.48-2.48c-1.02-1.02-1.29-2.39-1.29-3.5c0-2.79,1.82-4.08,2.92-4.39
			c1.24-0.31,2.08-0.31,4.7-0.31c0.67-3.59,3.59-3.77,4.74-3.77c1.68,0,2.84,0.35,3.86,1.37l2.26,2.26H452.67z"/>
		<path class="st1" d="M437.38,412.61c0.97,0.97,1.28,2.17,1.28,3.1c0,3.06-3.06,12.67-11.39,12.67c-2.84,0-4.79-1.46-5.76-2.44
			l-2.48-2.48c-4.48-4.48-4.7-13.52-4.7-19.01c0-9.13,0.35-12.54,5.41-12.54c1.29,0,2.75,0.31,3.72,1.29l2.48,2.48
			c1.15,1.15,1.24,2.66,1.24,3.37c0,0.49-0.27,2.75-0.31,3.19c-0.04,0.84-0.27,3.81-0.27,7.05c0,1.11,0,1.37,0.09,2.88
			c0.49-1.51,1.15-3.54,4.43-3.54c1.99,0,3.28,1.02,3.77,1.51L437.38,412.61z M432.99,402.16c-0.97-0.97-1.24-2.39-1.24-3.5
			c0-2.44,1.42-5.01,4.92-5.01c4.52,0,7.62,2.53,8.6,3.5l2.48,2.48c2.88,2.88,4.79,8.29,4.79,20.52c0,1.33-0.04,5.72-5.32,5.72
			c-1.77,0-3.06-0.75-3.77-1.46l-2.48-2.48c-1.2-1.2-1.24-2.57-1.24-4.08c0-5.49,0-8.68-0.93-11.92c-1.29-0.18-2.35-0.31-3.32-1.29
			L432.99,402.16z"/>
		<path class="st1" d="M418.64,463.73c1.15,1.15,1.33,2.75,1.33,3.59c0,4.03-2.26,6.07-16.26,6.07c-4.43,0-6.43-0.18-10.46-1.42
			c-3.01-0.89-3.94-1.64-4.79-2.48l-2.48-2.48c-2.39-2.39-2.66-4.83-2.66-6.03c0-6.03,5.41-10.55,8.55-10.55
			c0.31,0,2.17,0,3.54,1.37l2.48,2.48c0.49,0.49,1.55,1.55,1.55,3.37c0,1.73-0.8,2.48-1.82,3.46c0.8,0.04,1.91,0.09,3.28,0.09
			c1.99,0,4.96-0.09,8.15-0.66c2.75-0.49,3.06-0.58,3.68-0.58c1.37,0,2.53,0.4,3.41,1.29L418.64,463.73z M386.64,445.74
			c-1.06-1.06-1.33-2.48-1.33-3.59c0-4.83,4.21-4.83,5.45-4.83c1.15,0,6.16,0.13,7.22,0.13c1.77,0,9.62-0.22,11.21-0.22
			c1.06,0,3.06,0,4.48,1.42l2.48,2.48c1.02,1.02,1.2,2.3,1.2,3.32c0,2.84-0.97,3.54-5.67,6.82c-0.62,0.44-3.32,2.39-3.9,2.75
			c-0.49,0.27-1.68,0.93-3.19,0.93c-1.55,0-2.88-0.93-3.46-1.51l-2.48-2.44c-0.67-0.62-0.89-1.2-1.06-1.64
			c-0.75,0.04-4.08,0.13-4.74,0.13c-1.86,0-2.92-0.49-3.72-1.29L386.64,445.74z"/>
	</g>
	<path class="st2" d="M385.04,147.6c0,2.7,1.86,3.06,2.75,3.06c0.58,0,2.92-0.31,3.63-0.4c-1.86,6.69-4.25,11.52-4.96,12.81
		c-1.24,2.22-1.51,2.7-1.51,3.68c0,1.51,1.82,3.06,3.81,3.06c1.82,0,2.84-1.51,4.65-6.16c2.35-5.89,3.85-11.39,4.56-14
		c4.21-0.27,4.65,0.71,4.65,4.96c0,2.44-0.18,4.83-0.53,6.65c-0.4,2.08-0.75,2.92-2.22,2.92c-0.53,0-3.15-0.84-3.72-0.84
		c-2.66,0-2.66,3.15-2.66,3.19c0,2.92,4.56,3.72,7.05,3.72c5.5,0,8.24-3.28,8.24-14.76c0-10.59-3.72-11.79-9.35-11.65
		c0.27-1.02,0.62-2.75,0.62-3.59c0-2.35-2.53-2.57-3.63-2.57c-2.04,0-2.44,1.2-2.61,1.82c-0.18,0.58-0.75,3.9-0.93,4.65
		C386.76,144.46,385.04,144.54,385.04,147.6z"/>
	<path class="st2" d="M406.57,143.04c0,0.98,0.22,1.2,2.3,3.37c0.89,0.93,2.44,3.63,2.7,8.77c0.13,2.84,0.22,4.39,2.97,4.39
		c3.59,0,3.59-2.48,3.59-3.23c0-10.15-5.63-16-8.46-16C408.03,140.33,406.57,141.53,406.57,143.04z"/>
	<path class="st2" d="M446.76,192.34c1.68-0.13,3.28-0.35,3.28-2.92c0-2.92-2.26-3.01-3.15-3.01c-0.58,0-3.37,0.09-3.99,0.13
		c-2.7,0.09-7.36,0.22-10.19,0.27c0.18-0.71,0.27-1.11,0.27-1.68c0-1.86-1.46-2.53-3.59-2.53c-2.61,0-2.84,0.98-3.63,4.3
		c-0.49,0.04-2.88,0-3.41,0c-1.95,0-4.17,0-4.17,2.97c0,3.1,1.82,3.06,5.94,3.01c-1.06,2.97-1.29,3.54-2.26,5.58
		c-1.24,2.61-1.42,2.88-1.42,3.63c0,1.55,1.86,2.7,3.72,2.7c1.24,0,1.77-0.44,2.75-1.33c2.13-1.95,5.05-3.19,9.39-3.19
		c1.82,0,6.11,0.35,6.11,3.99c0,4.12-5.1,4.92-9.44,4.92c-2.57,0-4.61-0.31-5.94-0.58c-1.73-0.35-1.95-0.4-2.44-0.4
		c-1.86,0-2.57,1.77-2.57,3.1c0,1.42,0.04,3.68,10.5,3.68c10.41,0,16.62-2.79,16.62-10.68c0-9.57-10.15-9.57-12.1-9.57
		c-3.86,0-5.72,0.84-7.93,1.82c0.67-1.24,0.97-1.86,1.64-3.77C440.61,192.65,446.23,192.38,446.76,192.34z"/>
	<path class="st2" d="M96.99,147.6c0,2.7,1.86,3.06,2.75,3.06c0.58,0,2.92-0.31,3.63-0.4c-1.86,6.69-4.25,11.52-4.96,12.81
		c-1.24,2.22-1.51,2.7-1.51,3.68c0,1.51,1.82,3.06,3.81,3.06c1.82,0,2.84-1.51,4.65-6.16c2.35-5.89,3.85-11.39,4.56-14
		c4.21-0.27,4.65,0.71,4.65,4.96c0,2.44-0.18,4.83-0.53,6.65c-0.4,2.08-0.75,2.92-2.22,2.92c-0.53,0-3.15-0.84-3.72-0.84
		c-2.66,0-2.66,3.15-2.66,3.19c0,2.92,4.56,3.72,7.05,3.72c5.5,0,8.24-3.28,8.24-14.76c0-10.59-3.72-11.79-9.35-11.65
		c0.27-1.02,0.62-2.75,0.62-3.59c0-2.35-2.53-2.57-3.63-2.57c-2.04,0-2.44,1.2-2.61,1.82c-0.18,0.58-0.75,3.9-0.93,4.65
		C98.72,144.46,96.99,144.54,96.99,147.6z"/>
	<path class="st2" d="M118.53,143.04c0,0.98,0.22,1.2,2.3,3.37c0.89,0.93,2.44,3.63,2.7,8.77c0.13,2.84,0.22,4.39,2.97,4.39
		c3.59,0,3.59-2.48,3.59-3.23c0-10.15-5.63-16-8.46-16C119.99,140.33,118.53,141.53,118.53,143.04z"/>
	<path class="st2" d="M92.25,192.34c1.68-0.13,3.28-0.35,3.28-2.92c0-2.92-2.26-3.01-3.15-3.01c-0.58,0-3.37,0.09-3.99,0.13
		c-2.7,0.09-7.36,0.22-10.19,0.27c0.18-0.71,0.27-1.11,0.27-1.68c0-1.86-1.46-2.53-3.59-2.53c-2.61,0-2.84,0.98-3.63,4.3
		c-0.49,0.04-2.88,0-3.41,0c-1.95,0-4.17,0-4.17,2.97c0,3.1,1.82,3.06,5.94,3.01c-1.06,2.97-1.29,3.54-2.26,5.58
		c-1.24,2.61-1.42,2.88-1.42,3.63c0,1.55,1.86,2.7,3.72,2.7c1.24,0,1.77-0.44,2.75-1.33c2.13-1.95,5.05-3.19,9.39-3.19
		c1.82,0,6.11,0.35,6.11,3.99c0,4.12-5.1,4.92-9.44,4.92c-2.57,0-4.61-0.31-5.94-0.58c-1.73-0.35-1.95-0.4-2.44-0.4
		c-1.86,0-2.57,1.77-2.57,3.1c0,1.42,0.04,3.68,10.5,3.68c10.41,0,16.62-2.79,16.62-10.68c0-9.57-10.15-9.57-12.1-9.57
		c-3.85,0-5.72,0.84-7.93,1.82c0.67-1.24,0.98-1.86,1.64-3.77C86.09,192.65,91.72,192.38,92.25,192.34z"/>
	<path class="st2" d="M416.07,404.5c0,4.83,0.04,19.63,8.91,19.63c6.65,0,9.44-8.29,9.44-10.86c0-1.73-1.46-2.88-3.46-2.88
		c-1.86,0-2.13,0.89-2.79,2.97c-0.75,2.3-1.64,3.37-2.92,3.37c-2.66,0-2.88-7.44-2.88-10.46c0-2.61,0.18-6.16,0.35-7.53
		c0.13-1.06,0.22-1.82,0.22-2.17c0-1.29-0.4-2.88-3.23-2.88C416.78,393.69,416.07,394.62,416.07,404.5z"/>
	<path class="st2" d="M448.28,417.71c0-11.57-1.99-15.82-2.3-16.48c-2.44-5.14-7.49-5.8-9.26-5.8c-2.92,0-3.19,2.35-3.19,3.19
		c0,2.57,1.11,2.75,3.46,3.15c4.52,0.71,4.52,8.2,4.52,16.17c0,1.55,0,3.68,3.37,3.68C448.19,421.61,448.28,419.08,448.28,417.71z"
		/>
	<path class="st2" d="M412.79,461.74c-0.35,0-0.71-0.04-2.53,0.35c-1.37,0.27-4.56,0.93-9.7,0.93c-3.06,0-8.82-0.18-8.82-2.84
		c0-1.06,1.37-2.17,1.95-2.62c0.8-0.66,1.55-1.37,1.55-2.35c0-1.24-1.2-3.01-3.32-3.01s-6.82,3.68-6.82,8.77
		c0,2.35,1.46,4.74,3.77,5.94c1.99,1.06,4.92,2.17,13.03,2.17c4.12,0,9.39-0.31,11.83-1.24c1.73-0.62,1.99-1.91,1.99-3.01
		C415.71,463.06,414.91,461.74,412.79,461.74z"/>
	<path class="st2" d="M399.98,445.96c-0.4,0.35-0.93,0.84-0.93,1.82c0,1.64,1.6,2.92,3.1,2.92c0.98,0,1.77-0.44,2.26-0.71
		c0.58-0.31,3.15-2.21,3.72-2.61c4.65-3.28,4.96-3.5,4.96-5.41c0-2.88-2.39-2.97-3.99-2.97c-1.55,0-9.17,0.27-10.86,0.27
		c-1.11,0-6.42-0.18-7.62-0.18c-1.29,0-3.54,0-3.54,3.15c0,2.53,1.73,3.01,3.19,3.01c3.19,0,8.33-0.22,11.43-0.49
		C401.49,444.94,400.25,445.74,399.98,445.96z"/>
	<g>
		<path class="st2" d="M462.64,360.48c-1.6-1.2-4.08-2.7-10.33-2.7c-1.77,0-2.84,0.18-3.68,0.27c0.04-0.53,0.04-0.71,0.09-1.46
			c1.86-0.04,12.5-0.27,14.76-0.62c1.77-0.27,2.26-1.55,2.26-2.84c0-2.17-1.24-2.97-3.06-2.97c-0.97,0-11.52,0.49-13.65,0.53
			c0.09-1.73,0.09-3.72-3.32-3.72c-2.88,0-2.92,1.99-2.97,3.77h-3.77c-1.37,0-3.77,0-3.77,2.97c0,0.98,0.31,2.04,1.33,2.61
			c0.62,0.35,1.15,0.35,5.98,0.35l-0.04,3.06c-2.97,1.37-8.15,4.74-8.15,11.52c0,5.32,3.5,7.67,6.25,7.67c2.66,0,5.1-1.37,5.54-1.68
			c0.31,0.27,0.75,0.71,1.82,0.71c1.82,0,3.28-1.55,3.28-3.1c0-0.67-0.31-1.24-0.4-1.51c3.01-3.23,4.87-7,5.98-9.62
			c0.8,0.22,3.59,1.06,3.59,5.1c0,3.94-2.57,5.1-5.98,5.41c-1.73,0.18-3.15,0.31-3.15,2.79c0,1.24,0.49,2.97,3.1,2.97
			c4.83,0,12.41-2.17,12.41-10.9C466.76,366.77,466.27,363.23,462.64,360.48z M441.59,373.38c-1.55,0-1.64-1.77-1.64-2.35
			c0-2.97,1.95-4.74,2.61-5.27c0.13,1.77,0.62,5.23,1.24,6.82C443.14,372.93,442.3,373.38,441.59,373.38z M448.77,367.48
			c-0.18-1.11-0.27-1.99-0.27-4.43c0.58-0.13,1.02-0.22,2.61-0.22C450.63,363.89,449.83,365.93,448.77,367.48z"/>
	</g>
</g>
<g>
	<path class="st1" d="M74.82,376.59c3.78,2.07,5.48,3.56,6.11,4.2l2.98,2.98c0.96,0.96,1.86,2.29,1.86,4.09
		c0,3.24-2.61,6.54-6.22,6.54c-1.86,0-2.34-0.37-5.42-2.82c-0.43-0.37-0.64-0.53-2.5-1.97c-2.02,5.48-8.08,6.27-11.75,6.27
		c-5,0-9.31-1.06-12.39-4.15l-2.98-2.98c-1.97-1.97-2.66-4.31-2.66-6.49c0-3.03,1.28-5.64,3.67-7.55l-2.23-2.23
		c-1.12-1.12-1.49-2.61-1.49-3.94c0-1.81,0.53-3.19,1.91-4.31l-0.85-0.85c-1.22-1.22-1.49-2.82-1.49-3.99
		c0-5.37,4.89-5.37,5.96-5.37c2.07,0,4.47-0.05,6.49-0.05h3.14c0.21-1.33,1.17-4.47,5.96-4.47c1.59,0,3.3,0.32,4.41,1.49l2.71,2.77
		c1.17,0,6.38-0.21,7.44-0.21c1.86,0,3.24,0.9,3.78,1.44l2.98,2.98c0.96,0.96,1.49,2.39,1.49,3.99c0,2.02-0.74,3.62-2.39,4.68
		c1.01,1.01,2.02,1.97,2.02,4.41c0,5.32-4.25,5.37-6.81,5.42L74.82,376.59z"/>
	<path class="st3" d="M79.18,382.07c-2.61-2.23-7.98-5.42-12.07-6.75l-0.05-3.72c3.56-0.11,10-0.21,10.63-0.32
		c0.58-0.11,2.5-0.37,2.5-3.14c0-2.87-2.02-3.24-3.24-3.24c-0.27,0-9.31,0.21-10,0.21l-0.05-2.55c1.44-0.05,8.67-0.16,10.32-0.27
		c1.12-0.05,3.4-0.21,3.4-3.3c0-1.01-0.32-3.3-3.24-3.3c-1.28,0-9.09,0.21-10.63,0.27v-1.01c0-2.39-1.49-3.3-3.99-3.3
		c-3.14,0-3.78,1.97-3.72,3.3l0.05,1.12c-1.7,0.05-9.89,0.11-11.75,0.11c-1.22,0-3.83,0-3.83,3.24c0,3.35,2.23,3.35,5.16,3.35
		c1.49,0,8.88-0.11,10.53-0.11l0.05,2.61c-1.7,0-10.05,0.05-11.96,0.05c-1.97,0-3.4,0.85-3.4,3.24c0,3.19,2.29,3.24,4.15,3.24
		c0.05,0,10.32-0.05,11.38-0.05v2.02c-0.64-0.11-1.49-0.16-2.77-0.16c-7.76,0-12.66,3.35-12.66,8.67c0,4.47,4.04,8.51,12.71,8.51
		c9.84,0,10.26-5.21,10.42-7.66c1.91,1.01,3.51,2.29,5.48,3.88c2.61,2.07,2.87,2.34,4.04,2.34c2.39,0,3.99-2.45,3.99-4.47
		C80.62,383.45,79.77,382.55,79.18,382.07z M55.73,384.3c-1.01,0-4.63,0-4.63-2.39c0-2.02,3.19-2.45,4.89-2.45
		c1.75,0,2.66,0.32,3.46,0.58C59.45,383.03,59.45,384.3,55.73,384.3z"/>
</g>
<g>
	<path class="st1" d="M114.32,417.3c1.44,1.44,1.6,3.14,1.6,4.31c1.17,0.21,2.13,0.53,2.98,1.38l2.98,2.98
		c0.96,0.96,1.54,2.29,1.54,4.31c0,5.32-3.99,5.53-7.12,5.74c0.05,0.58,0.11,3.35,0.11,3.88c0,7.82-1.49,14.3-9.41,17.49
		c-1.65,0.64-5.48,1.81-8.72,1.81c-2.13,0-3.35-1.17-3.88-1.65l-1.91-1.86c-1.22,1.81-3.3,2.34-5.32,2.34s-3.35-0.96-3.93-1.54
		l-2.98-2.98c-2.45-2.45-2.5-12.39-2.5-16.64c0-9.2,1.01-18.24,1.54-20.05c0.69-2.29,2.34-3.83,5.32-3.83
		c0.96,0,3.24,0.05,4.73,1.54l2.98,2.98c1.54,1.54,1.44,3.72,1.38,4.63c1.12,0,6.22-0.05,7.28-0.05c-0.05-0.53-0.11-2.77-0.11-3.24
		c0-3.67,1.7-6.01,6.12-6.01c1.54,0,3.19,0.32,4.36,1.49L114.32,417.3z M92.42,439.27c0,2.02,0.05,3.94,0.21,5.96
		c0.8-0.27,4.84-0.85,5.74-1.17c2.34-0.8,2.98-2.29,2.98-7.55c-5.96,0.16-7.34,0-8.88-1.33C92.42,436.45,92.42,437.67,92.42,439.27z
		"/>
	<path class="st3" d="M81.52,416.88c-0.74,1.75-1.65,11.43-1.65,20.15c0,15.9,1.86,15.9,4.36,15.9c1.65,0,3.99-0.48,3.99-3.14
		c0-0.74-0.11-1.81-0.21-2.55c-0.64-5.26-0.69-9.25-0.69-11.22c0-6.7,0.9-14.04,0.96-14.46c0.32-2.61,0.32-2.92,0.32-3.3
		c0-3.08-2.92-3.08-3.08-3.08C84.07,415.07,82.31,414.97,81.52,416.88z"/>
	<path class="st3" d="M116.34,430.6c1.44-0.37,1.97-1.81,1.97-3.4c0-2.45-1.33-3.56-3.56-3.56c-0.53,0-3.24,0.16-3.83,0.16
		c-0.05-1.81-0.05-4.89-0.21-6.22c-0.16-1.65-1.33-2.61-3.88-2.61c-3.46,0-3.83,2.02-3.83,3.77c0,0.27,0.11,4.41,0.16,5.37
		c-0.16,0-8.72,0.16-9.36,0.16c-1.81,0.05-3.83,0.43-3.83,3.56c0,3.62,2.29,3.62,5.58,3.62c2.23,0,4.31-0.05,7.82-0.21
		c0.05,1.7,0.11,4.41,0.11,5.1c0,6.11-0.74,9.47-7.02,10.32c-3.56,0.48-4.73,0.64-4.73,3.4c0,2.02,1.22,4.04,3.67,4.04
		c2.66,0,6.22-1.01,7.87-1.65c6.75-2.77,8.03-8.14,8.03-15.42c0-0.8-0.11-4.95-0.11-6.01C112.41,430.97,115.33,430.86,116.34,430.6z
		"/>
</g>
</svg>
