<?xml version="1.0" encoding="utf-8"?>
<!-- Generator: Adobe Illustrator 27.9.3, SVG Export Plug-In . SVG Version: 9.03 Build 53313)  -->
<svg version="1.1" id="レイヤー_1" xmlns="http://www.w3.org/2000/svg" xmlns:xlink="http://www.w3.org/1999/xlink" x="0px"
	 y="0px" viewBox="0 0 513.09 675.82" style="enable-background:new 0 0 513.09 675.82;" xml:space="preserve">
<style type="text/css">
	.st0{fill:none;}
	.st1{fill:#231815;}
	.st2{fill:#FFFFFF;}
	.st3{fill:#FFFF00;}
</style>
<rect class="st0" width="513.09" height="675.82"/>
<g>
	<g>
		<path class="st1" d="M404.8,142.73c0.18-2.44,2.48-4.17,4.83-4.17c1.02,0,2.53,0.22,4.61,2.3l2.48,2.48
			c3.94,3.94,5.67,9.62,5.67,15.46c0,4.7-4.12,5.01-5.45,5.01c-1.46,0-2.7-0.62-3.37-1.29l-0.66-0.66
			c-0.44,6.25-1.99,12.63-9.88,12.63c-2.75,0-5.98-0.75-7.89-2.66c-0.53,0.71-1.59,2.22-4.08,2.22c-1.91,0-3.32-1.06-4.03-1.77
			l-2.48-2.44c-0.93-0.93-1.37-2.04-1.37-3.06c0-1.46,0.4-2.13,1.73-4.56c1.59-2.88,3.19-7.36,3.32-7.75
			c-0.13-0.04-0.67-0.31-1.2-0.84l-2.48-2.48c-1.24-1.24-1.33-2.97-1.33-3.54c0-4.7,3.72-4.92,8.2-5.14
			c0.62-3.68,1.15-6.56,4.96-6.56c0.8,0,3.01,0.09,4.34,1.42l2.48,2.48c0.8,0.8,1.06,1.68,1.11,2.75L404.8,142.73z"/>
		<path class="st1" d="M453.01,188.39c1.2,1.2,1.29,2.92,1.29,3.5c0,4.56-3.63,4.7-6.25,4.79l2.3,2.26
			c2.21,2.17,3.06,5.27,3.06,8.06c0,11.61-12.63,12.23-18.39,12.23c-3.19,0-9.04-0.13-11.08-2.22l-2.48-2.53
			c-0.97-0.97-1.2-2.3-1.2-3.23c0-2.48,1.42-3.68,1.91-4.08l-2.22-2.26c-1.06-1.06-1.29-2.26-1.29-2.79c0-1.29,0.31-1.86,1.37-3.99
			c0.44-0.89,0.62-1.33,0.8-1.73c-0.31-0.22-0.49-0.35-0.67-0.58l-2.48-2.48c-1.2-1.2-1.29-2.88-1.29-3.5
			c0-4.79,3.99-4.83,6.74-4.74l1.2,0.04c0.31-1.51,0.93-4.34,5.01-4.34c0.84,0,2.97,0.09,4.3,1.42l2.48,2.48
			c0.09,0.09,0.09,0.13,0.22,0.22c1.68-0.04,9.08-0.31,10.63-0.31c1.29,0,2.57,0.31,3.54,1.28L453.01,188.39z M432.94,207.4
			c1.2,0,7.27,0,7.67-2.7c-0.58-0.13-0.97-0.18-1.91-0.18c-4.96,0-7.05,1.77-8.15,2.75C431.12,207.36,431.79,207.4,432.94,207.4z"/>
	</g>
	<g>
		<path class="st1" d="M116.75,142.73c0.18-2.44,2.48-4.17,4.83-4.17c1.02,0,2.53,0.22,4.61,2.3l2.48,2.48
			c3.94,3.94,5.67,9.62,5.67,15.46c0,4.7-4.12,5.01-5.45,5.01c-1.46,0-2.7-0.62-3.37-1.29l-0.66-0.66
			c-0.44,6.25-1.99,12.63-9.88,12.63c-2.75,0-5.98-0.75-7.89-2.66c-0.53,0.71-1.6,2.22-4.08,2.22c-1.91,0-3.32-1.06-4.03-1.77
			l-2.48-2.44c-0.93-0.93-1.37-2.04-1.37-3.06c0-1.46,0.4-2.13,1.73-4.56c1.6-2.88,3.19-7.36,3.32-7.75
			c-0.13-0.04-0.66-0.31-1.2-0.84l-2.48-2.48c-1.24-1.24-1.33-2.97-1.33-3.54c0-4.7,3.72-4.92,8.2-5.14
			c0.62-3.68,1.15-6.56,4.96-6.56c0.8,0,3.01,0.09,4.34,1.42l2.48,2.48c0.8,0.8,1.06,1.68,1.11,2.75L116.75,142.73z"/>
		<path class="st1" d="M98.5,188.39c1.2,1.2,1.29,2.92,1.29,3.5c0,4.56-3.63,4.7-6.25,4.79l2.3,2.26c2.22,2.17,3.06,5.27,3.06,8.06
			c0,11.61-12.63,12.23-18.39,12.23c-3.19,0-9.04-0.13-11.08-2.22l-2.48-2.53c-0.97-0.97-1.2-2.3-1.2-3.23
			c0-2.48,1.42-3.68,1.91-4.08l-2.22-2.26c-1.06-1.06-1.29-2.26-1.29-2.79c0-1.29,0.31-1.86,1.37-3.99c0.44-0.89,0.62-1.33,0.8-1.73
			c-0.31-0.22-0.49-0.35-0.66-0.58l-2.48-2.48c-1.2-1.2-1.29-2.88-1.29-3.5c0-4.79,3.99-4.83,6.74-4.74l1.2,0.04
			c0.31-1.51,0.93-4.34,5.01-4.34c0.84,0,2.97,0.09,4.3,1.42l2.48,2.48c0.09,0.09,0.09,0.13,0.22,0.22
			c1.68-0.04,9.08-0.31,10.63-0.31c1.29,0,2.57,0.31,3.54,1.28L98.5,188.39z M78.42,207.4c1.2,0,7.27,0,7.67-2.7
			c-0.58-0.13-0.97-0.18-1.91-0.18c-4.96,0-7.05,1.77-8.15,2.75C76.61,207.36,77.27,207.4,78.42,207.4z"/>
	</g>
	<g>
		<path class="st1" d="M72.95,375.95c3.15,1.73,4.56,2.97,5.1,3.5l2.48,2.48c0.8,0.8,1.55,1.91,1.55,3.41c0,2.7-2.17,5.45-5.18,5.45
			c-1.55,0-1.95-0.31-4.52-2.35c-0.35-0.31-0.53-0.44-2.08-1.64c-1.68,4.56-6.74,5.23-9.79,5.23c-4.17,0-7.75-0.89-10.32-3.46
			l-2.48-2.48c-1.64-1.64-2.22-3.59-2.22-5.41c0-2.53,1.06-4.7,3.06-6.29l-1.86-1.86c-0.93-0.93-1.24-2.17-1.24-3.28
			c0-1.51,0.44-2.66,1.6-3.59l-0.71-0.71c-1.02-1.02-1.24-2.35-1.24-3.32c0-4.48,4.08-4.48,4.96-4.48c1.73,0,3.72-0.04,5.41-0.04
			h2.61c0.18-1.11,0.97-3.72,4.96-3.72c1.33,0,2.75,0.27,3.68,1.24l2.26,2.3c0.98,0,5.32-0.18,6.2-0.18c1.55,0,2.7,0.75,3.15,1.2
			l2.48,2.48c0.8,0.8,1.24,1.99,1.24,3.32c0,1.68-0.62,3.01-1.99,3.9c0.84,0.84,1.68,1.64,1.68,3.68c0,4.43-3.54,4.48-5.67,4.52
			L72.95,375.95z"/>
		<path class="st1" d="M112.03,420.42c1.2,1.2,1.33,2.61,1.33,3.59c0.97,0.18,1.77,0.44,2.48,1.15l2.48,2.48
			c0.8,0.8,1.28,1.91,1.28,3.59c0,4.43-3.32,4.61-5.94,4.79c0.04,0.49,0.09,2.79,0.09,3.23c0,6.51-1.24,11.92-7.84,14.58
			c-1.37,0.53-4.56,1.51-7.27,1.51c-1.77,0-2.79-0.98-3.23-1.37l-1.6-1.55c-1.02,1.51-2.75,1.95-4.43,1.95s-2.79-0.8-3.28-1.29
			l-2.48-2.48c-2.04-2.04-2.08-10.32-2.08-13.87c0-7.67,0.84-15.2,1.29-16.71c0.58-1.91,1.95-3.19,4.43-3.19
			c0.8,0,2.7,0.04,3.94,1.29l2.48,2.48c1.29,1.28,1.2,3.1,1.15,3.85c0.93,0,5.18-0.04,6.07-0.04c-0.04-0.44-0.09-2.3-0.09-2.7
			c0-3.06,1.42-5.01,5.1-5.01c1.28,0,2.66,0.27,3.63,1.24L112.03,420.42z M93.78,438.72c0,1.68,0.04,3.28,0.18,4.96
			c0.67-0.22,4.03-0.71,4.79-0.97c1.95-0.67,2.48-1.91,2.48-6.29c-4.96,0.13-6.11,0-7.4-1.11C93.78,436.38,93.78,437.4,93.78,438.72
			z"/>
	</g>
	<g>
		<path class="st2" d="M76.58,380.51c-2.17-1.86-6.65-4.52-10.06-5.63l-0.04-3.1c2.97-0.09,8.33-0.18,8.86-0.27
			c0.49-0.09,2.08-0.31,2.08-2.61c0-2.39-1.68-2.7-2.7-2.7c-0.22,0-7.75,0.18-8.33,0.18l-0.04-2.13c1.2-0.04,7.22-0.13,8.6-0.22
			c0.93-0.04,2.84-0.18,2.84-2.75c0-0.84-0.27-2.75-2.7-2.75c-1.06,0-7.58,0.18-8.86,0.22v-0.84c0-1.99-1.24-2.75-3.32-2.75
			c-2.61,0-3.15,1.64-3.1,2.75l0.04,0.93c-1.42,0.04-8.24,0.09-9.79,0.09c-1.02,0-3.19,0-3.19,2.7c0,2.79,1.86,2.79,4.3,2.79
			c1.24,0,7.4-0.09,8.77-0.09l0.04,2.17c-1.42,0-8.38,0.04-9.97,0.04c-1.64,0-2.84,0.71-2.84,2.7c0,2.66,1.91,2.7,3.46,2.7
			c0.04,0,8.6-0.04,9.48-0.04v1.68c-0.53-0.09-1.24-0.13-2.3-0.13c-6.47,0-10.55,2.79-10.55,7.22c0,3.72,3.37,7.09,10.59,7.09
			c8.2,0,8.55-4.34,8.69-6.38c1.6,0.84,2.92,1.91,4.56,3.23c2.17,1.73,2.39,1.95,3.37,1.95c1.99,0,3.32-2.04,3.32-3.72
			C77.78,381.66,77.07,380.91,76.58,380.51z M57.04,382.37c-0.84,0-3.85,0-3.85-1.99c0-1.68,2.66-2.04,4.08-2.04
			c1.46,0,2.22,0.27,2.88,0.49C60.14,381.31,60.14,382.37,57.04,382.37z"/>
	</g>
	<path class="st2" d="M84.69,420.07c-0.62,1.46-1.37,9.53-1.37,16.79c0,13.25,1.55,13.25,3.63,13.25c1.37,0,3.32-0.4,3.32-2.61
		c0-0.62-0.09-1.51-0.18-2.13c-0.53-4.39-0.58-7.71-0.58-9.35c0-5.58,0.75-11.7,0.8-12.05c0.27-2.17,0.27-2.44,0.27-2.75
		c0-2.57-2.44-2.57-2.57-2.57C86.82,418.56,85.36,418.47,84.69,420.07z"/>
	<path class="st2" d="M113.72,431.5c1.2-0.31,1.64-1.51,1.64-2.84c0-2.04-1.11-2.97-2.97-2.97c-0.44,0-2.7,0.13-3.19,0.13
		c-0.04-1.51-0.04-4.08-0.18-5.18c-0.13-1.37-1.11-2.17-3.23-2.17c-2.88,0-3.19,1.68-3.19,3.15c0,0.22,0.09,3.68,0.13,4.48
		c-0.13,0-7.27,0.13-7.8,0.13c-1.51,0.04-3.19,0.35-3.19,2.97c0,3.01,1.91,3.01,4.65,3.01c1.86,0,3.59-0.04,6.51-0.18
		c0.04,1.42,0.09,3.68,0.09,4.25c0,5.1-0.62,7.89-5.85,8.6c-2.97,0.4-3.94,0.53-3.94,2.84c0,1.68,1.02,3.37,3.06,3.37
		c2.22,0,5.18-0.84,6.56-1.37c5.63-2.3,6.69-6.78,6.69-12.85c0-0.66-0.09-4.12-0.09-5.01C110.44,431.81,112.87,431.72,113.72,431.5z
		"/>
	<path class="st2" d="M385.04,147.6c0,2.7,1.86,3.06,2.75,3.06c0.58,0,2.92-0.31,3.63-0.4c-1.86,6.69-4.25,11.52-4.96,12.81
		c-1.24,2.22-1.51,2.7-1.51,3.68c0,1.51,1.82,3.06,3.81,3.06c1.82,0,2.84-1.51,4.65-6.16c2.35-5.89,3.85-11.39,4.56-14
		c4.21-0.27,4.65,0.71,4.65,4.96c0,2.44-0.18,4.83-0.53,6.65c-0.4,2.08-0.75,2.92-2.22,2.92c-0.53,0-3.15-0.84-3.72-0.84
		c-2.66,0-2.66,3.15-2.66,3.19c0,2.92,4.56,3.72,7.05,3.72c5.5,0,8.24-3.28,8.24-14.76c0-10.59-3.72-11.79-9.35-11.65
		c0.27-1.02,0.62-2.75,0.62-3.59c0-2.35-2.53-2.57-3.63-2.57c-2.04,0-2.44,1.2-2.61,1.82c-0.18,0.58-0.75,3.9-0.93,4.65
		C386.76,144.46,385.04,144.54,385.04,147.6z"/>
	<path class="st2" d="M406.57,143.04c0,0.98,0.22,1.2,2.3,3.37c0.89,0.93,2.44,3.63,2.7,8.77c0.13,2.84,0.22,4.39,2.97,4.39
		c3.59,0,3.59-2.48,3.59-3.23c0-10.15-5.63-16-8.46-16C408.03,140.33,406.57,141.53,406.57,143.04z"/>
	<path class="st2" d="M446.76,192.34c1.68-0.13,3.28-0.35,3.28-2.92c0-2.92-2.26-3.01-3.15-3.01c-0.58,0-3.37,0.09-3.99,0.13
		c-2.7,0.09-7.36,0.22-10.19,0.27c0.18-0.71,0.27-1.11,0.27-1.68c0-1.86-1.46-2.53-3.59-2.53c-2.61,0-2.84,0.98-3.63,4.3
		c-0.49,0.04-2.88,0-3.41,0c-1.95,0-4.17,0-4.17,2.97c0,3.1,1.82,3.06,5.94,3.01c-1.06,2.97-1.29,3.54-2.26,5.58
		c-1.24,2.61-1.42,2.88-1.42,3.63c0,1.55,1.86,2.7,3.72,2.7c1.24,0,1.77-0.44,2.75-1.33c2.13-1.95,5.05-3.19,9.39-3.19
		c1.82,0,6.11,0.35,6.11,3.99c0,4.12-5.1,4.92-9.44,4.92c-2.57,0-4.61-0.31-5.94-0.58c-1.73-0.35-1.95-0.4-2.44-0.4
		c-1.86,0-2.57,1.77-2.57,3.1c0,1.42,0.04,3.68,10.5,3.68c10.41,0,16.62-2.79,16.62-10.68c0-9.57-10.15-9.57-12.1-9.57
		c-3.86,0-5.72,0.84-7.93,1.82c0.67-1.24,0.97-1.86,1.64-3.77C440.61,192.65,446.23,192.38,446.76,192.34z"/>
	<path class="st2" d="M96.99,147.6c0,2.7,1.86,3.06,2.75,3.06c0.58,0,2.92-0.31,3.63-0.4c-1.86,6.69-4.25,11.52-4.96,12.81
		c-1.24,2.22-1.51,2.7-1.51,3.68c0,1.51,1.82,3.06,3.81,3.06c1.82,0,2.84-1.51,4.65-6.16c2.35-5.89,3.85-11.39,4.56-14
		c4.21-0.27,4.65,0.71,4.65,4.96c0,2.44-0.18,4.83-0.53,6.65c-0.4,2.08-0.75,2.92-2.22,2.92c-0.53,0-3.15-0.84-3.72-0.84
		c-2.66,0-2.66,3.15-2.66,3.19c0,2.92,4.56,3.72,7.05,3.72c5.5,0,8.24-3.28,8.24-14.76c0-10.59-3.72-11.79-9.35-11.65
		c0.27-1.02,0.62-2.75,0.62-3.59c0-2.35-2.53-2.57-3.63-2.57c-2.04,0-2.44,1.2-2.61,1.82c-0.18,0.58-0.75,3.9-0.93,4.65
		C98.72,144.46,96.99,144.54,96.99,147.6z"/>
	<path class="st2" d="M118.53,143.04c0,0.98,0.22,1.2,2.3,3.37c0.89,0.93,2.44,3.63,2.7,8.77c0.13,2.84,0.22,4.39,2.97,4.39
		c3.59,0,3.59-2.48,3.59-3.23c0-10.15-5.63-16-8.46-16C119.99,140.33,118.53,141.53,118.53,143.04z"/>
	<path class="st2" d="M92.25,192.34c1.68-0.13,3.28-0.35,3.28-2.92c0-2.92-2.26-3.01-3.15-3.01c-0.58,0-3.37,0.09-3.99,0.13
		c-2.7,0.09-7.36,0.22-10.19,0.27c0.18-0.71,0.27-1.11,0.27-1.68c0-1.86-1.46-2.53-3.59-2.53c-2.61,0-2.84,0.98-3.63,4.3
		c-0.49,0.04-2.88,0-3.41,0c-1.95,0-4.17,0-4.17,2.97c0,3.1,1.82,3.06,5.94,3.01c-1.06,2.97-1.29,3.54-2.26,5.58
		c-1.24,2.61-1.42,2.88-1.42,3.63c0,1.55,1.86,2.7,3.72,2.7c1.24,0,1.77-0.44,2.75-1.33c2.13-1.95,5.05-3.19,9.39-3.19
		c1.82,0,6.11,0.35,6.11,3.99c0,4.12-5.1,4.92-9.44,4.92c-2.57,0-4.61-0.31-5.94-0.58c-1.73-0.35-1.95-0.4-2.44-0.4
		c-1.86,0-2.57,1.77-2.57,3.1c0,1.42,0.04,3.68,10.5,3.68c10.41,0,16.62-2.79,16.62-10.68c0-9.57-10.15-9.57-12.1-9.57
		c-3.85,0-5.72,0.84-7.93,1.82c0.67-1.24,0.98-1.86,1.64-3.77C86.09,192.65,91.72,192.38,92.25,192.34z"/>
	<g>
		<path class="st1" d="M438.17,413.11c1.17,1.17,1.54,2.61,1.54,3.72c0,3.67-3.67,15.21-13.67,15.21c-3.4,0-5.74-1.75-6.91-2.92
			l-2.98-2.98c-5.37-5.37-5.64-16.22-5.64-22.81c0-10.95,0.43-15.05,6.49-15.05c1.54,0,3.3,0.37,4.47,1.54l2.98,2.98
			c1.38,1.38,1.49,3.19,1.49,4.04c0,0.58-0.32,3.3-0.37,3.83c-0.05,1.01-0.32,4.57-0.32,8.46c0,1.33,0,1.65,0.11,3.46
			c0.58-1.81,1.38-4.25,5.32-4.25c2.39,0,3.93,1.22,4.52,1.81L438.17,413.11z M432.9,400.56c-1.17-1.17-1.49-2.87-1.49-4.2
			c0-2.92,1.7-6.01,5.9-6.01c5.42,0,9.15,3.03,10.31,4.2l2.98,2.98c3.46,3.46,5.74,9.94,5.74,24.62c0,1.59-0.05,6.86-6.38,6.86
			c-2.13,0-3.67-0.9-4.52-1.75l-2.98-2.98c-1.44-1.44-1.49-3.08-1.49-4.89c0-6.59,0-10.42-1.12-14.3c-1.54-0.21-2.82-0.37-3.99-1.54
			L432.9,400.56z"/>
		<path class="st3" d="M412.59,403.37c0,5.8,0.05,23.56,10.69,23.56c7.98,0,11.32-9.94,11.32-13.03c0-2.07-1.75-3.46-4.15-3.46
			c-2.23,0-2.55,1.06-3.35,3.56c-0.9,2.77-1.97,4.04-3.51,4.04c-3.19,0-3.46-8.93-3.46-12.55c0-3.14,0.21-7.39,0.43-9.04
			c0.16-1.28,0.27-2.18,0.27-2.61c0-1.54-0.48-3.46-3.88-3.46C413.44,390.4,412.59,391.52,412.59,403.37z"/>
		<path class="st3" d="M451.25,419.22c0-13.88-2.39-18.98-2.77-19.78c-2.92-6.17-8.99-6.97-11.11-6.97c-3.51,0-3.83,2.82-3.83,3.83
			c0,3.08,1.33,3.3,4.15,3.78c5.42,0.85,5.42,9.84,5.42,19.41c0,1.86,0,4.41,4.04,4.41C451.14,423.9,451.25,420.87,451.25,419.22z"
			/>
	</g>
	<g>
		<path class="st1" d="M422.03,465.41c1.38,1.38,1.59,3.3,1.59,4.31c0,4.84-2.71,7.28-19.51,7.28c-5.32,0-7.71-0.21-12.55-1.7
			c-3.62-1.06-4.73-1.97-5.74-2.98l-2.98-2.98c-2.87-2.87-3.19-5.8-3.19-7.23c0-7.23,6.49-12.66,10.26-12.66
			c0.37,0,2.61,0,4.25,1.65l2.98,2.98c0.59,0.58,1.86,1.86,1.86,4.04c0,2.07-0.96,2.98-2.18,4.15c0.96,0.05,2.29,0.11,3.94,0.11
			c2.39,0,5.96-0.11,9.78-0.8c3.3-0.59,3.67-0.69,4.41-0.69c1.65,0,3.03,0.48,4.09,1.54L422.03,465.41z M383.64,443.82
			c-1.28-1.28-1.59-2.98-1.59-4.31c0-5.8,5.05-5.8,6.54-5.8c1.38,0,7.39,0.16,8.67,0.16c2.13,0,11.54-0.27,13.45-0.27
			c1.28,0,3.67,0,5.37,1.7l2.98,2.98c1.22,1.22,1.44,2.77,1.44,3.99c0,3.4-1.17,4.25-6.81,8.19c-0.74,0.53-3.99,2.87-4.68,3.3
			c-0.58,0.32-2.02,1.12-3.83,1.12c-1.86,0-3.46-1.12-4.15-1.81l-2.98-2.92c-0.8-0.74-1.06-1.44-1.28-1.97
			c-0.9,0.05-4.89,0.16-5.69,0.16c-2.23,0-3.51-0.58-4.47-1.54L383.64,443.82z"/>
		<path class="st3" d="M415.01,463.02c-0.43,0-0.85-0.05-3.03,0.43c-1.65,0.32-5.48,1.12-11.64,1.12c-3.67,0-10.58-0.21-10.58-3.4
			c0-1.28,1.65-2.61,2.34-3.14c0.96-0.8,1.86-1.65,1.86-2.82c0-1.49-1.44-3.62-3.99-3.62c-2.55,0-8.19,4.41-8.19,10.53
			c0,2.82,1.75,5.69,4.52,7.13c2.39,1.28,5.9,2.61,15.63,2.61c4.95,0,11.27-0.37,14.2-1.49c2.07-0.74,2.39-2.29,2.39-3.62
			C418.52,464.62,417.57,463.02,415.01,463.02z"/>
		<path class="st3" d="M399.65,444.09c-0.48,0.43-1.12,1.01-1.12,2.18c0,1.97,1.91,3.51,3.72,3.51c1.17,0,2.13-0.53,2.71-0.85
			c0.69-0.37,3.77-2.66,4.47-3.14c5.58-3.94,5.96-4.2,5.96-6.49c0-3.46-2.87-3.56-4.79-3.56c-1.86,0-11.01,0.32-13.03,0.32
			c-1.33,0-7.71-0.21-9.15-0.21c-1.54,0-4.25,0-4.25,3.78c0,3.03,2.07,3.62,3.83,3.62c3.83,0,10-0.27,13.72-0.58
			C401.46,442.87,399.97,443.82,399.65,444.09z"/>
	</g>
	<g>
		<path class="st1" d="M452.85,345.65c1.91,0,10.26-0.53,11.96-0.53c2.71,0,3.83,1.01,4.31,1.49l2.98,2.98
			c1.49,1.49,1.54,3.51,1.54,4.25c0,5.05-4.04,5.42-5.85,5.58l2.92,2.93c2.07,2.07,4.15,5.26,4.15,10.58
			c0,10.79-8.72,15.21-17.02,15.21c-1.22,0-2.98-0.26-4.31-1.59l-1.28-1.28c-0.53,0.21-1.12,0.43-2.07,0.43
			c-1.12,0-1.76-0.27-2.34-0.48c-2.13,0.9-3.77,1.65-6.33,1.65c-0.8,0-3.94-0.05-6.7-2.82l-2.98-2.98
			c-2.92-2.93-3.14-7.13-3.14-8.56c0-5.16,2.55-9.94,6.65-13.08c-0.37-0.16-0.69-0.43-1.06-0.8l-2.98-2.98
			c-1.22-1.22-1.54-2.87-1.54-4.2c0-3.35,2.18-4.89,3.51-5.26c1.49-0.37,2.5-0.37,5.64-0.37c0.8-4.31,4.31-4.52,5.69-4.52
			c2.02,0,3.4,0.43,4.63,1.65l2.71,2.71H452.85z"/>
		<g>
			<path class="st3" d="M464.81,359.63c-1.91-1.44-4.89-3.24-12.39-3.24c-2.13,0-3.4,0.21-4.41,0.32c0.05-0.64,0.05-0.85,0.11-1.75
				c2.23-0.05,15-0.32,17.71-0.74c2.13-0.32,2.71-1.86,2.71-3.4c0-2.61-1.49-3.56-3.67-3.56c-1.17,0-13.82,0.59-16.38,0.64
				c0.11-2.07,0.11-4.47-3.99-4.47c-3.46,0-3.51,2.39-3.56,4.52h-4.52c-1.65,0-4.52,0-4.52,3.56c0,1.17,0.37,2.45,1.59,3.14
				c0.74,0.43,1.38,0.43,7.18,0.43l-0.05,3.67c-3.56,1.65-9.78,5.69-9.78,13.83c0,6.38,4.2,9.2,7.5,9.2c3.19,0,6.11-1.65,6.65-2.02
				c0.37,0.32,0.9,0.85,2.18,0.85c2.18,0,3.94-1.86,3.94-3.72c0-0.8-0.37-1.49-0.48-1.81c3.62-3.88,5.85-8.4,7.18-11.54
				c0.96,0.27,4.31,1.28,4.31,6.11c0,4.73-3.08,6.11-7.18,6.49c-2.07,0.21-3.78,0.37-3.78,3.35c0,1.49,0.59,3.56,3.72,3.56
				c5.8,0,14.89-2.61,14.89-13.08C469.76,367.18,469.17,362.93,464.81,359.63z M439.55,375.11c-1.86,0-1.97-2.13-1.97-2.82
				c0-3.56,2.34-5.69,3.14-6.33c0.16,2.13,0.74,6.27,1.49,8.19C441.41,374.58,440.4,375.11,439.55,375.11z M448.17,368.04
				c-0.21-1.33-0.32-2.39-0.32-5.32c0.69-0.16,1.22-0.27,3.14-0.27C450.4,363.73,449.44,366.17,448.17,368.04z"/>
		</g>
	</g>
</g>
</svg>
