<?xml version="1.0" encoding="utf-8"?>
<!-- Generator: Adobe Illustrator 27.9.3, SVG Export Plug-In . SVG Version: 9.03 Build 53313)  -->
<svg version="1.1" id="レイヤー_1" xmlns="http://www.w3.org/2000/svg" xmlns:xlink="http://www.w3.org/1999/xlink" x="0px"
	 y="0px" viewBox="0 0 513.09 675.82" style="enable-background:new 0 0 513.09 675.82;" xml:space="preserve">
<style type="text/css">
	.st0{fill:none;}
	.st1{fill:#231815;}
	.st2{fill:#FFFFFF;}
</style>
<rect class="st0" width="513.09" height="675.82"/>
<g>
	<g>
		<path class="st1" d="M404.8,142.73c0.18-2.44,2.48-4.17,4.83-4.17c1.02,0,2.53,0.22,4.61,2.3l2.48,2.48
			c3.94,3.94,5.67,9.62,5.67,15.46c0,4.7-4.12,5.01-5.45,5.01c-1.46,0-2.7-0.62-3.37-1.29l-0.66-0.66
			c-0.44,6.25-1.99,12.63-9.88,12.63c-2.75,0-5.98-0.75-7.89-2.66c-0.53,0.71-1.59,2.22-4.08,2.22c-1.91,0-3.32-1.06-4.03-1.77
			l-2.48-2.44c-0.93-0.93-1.37-2.04-1.37-3.06c0-1.46,0.4-2.13,1.73-4.56c1.59-2.88,3.19-7.36,3.32-7.75
			c-0.13-0.04-0.67-0.31-1.2-0.84l-2.48-2.48c-1.24-1.24-1.33-2.97-1.33-3.54c0-4.7,3.72-4.92,8.2-5.14
			c0.62-3.68,1.15-6.56,4.96-6.56c0.8,0,3.01,0.09,4.34,1.42l2.48,2.48c0.8,0.8,1.06,1.68,1.11,2.75L404.8,142.73z"/>
		<path class="st1" d="M453.01,188.39c1.2,1.2,1.29,2.92,1.29,3.5c0,4.56-3.63,4.7-6.25,4.79l2.3,2.26
			c2.21,2.17,3.06,5.27,3.06,8.06c0,11.61-12.63,12.23-18.39,12.23c-3.19,0-9.04-0.13-11.08-2.22l-2.48-2.53
			c-0.97-0.97-1.2-2.3-1.2-3.23c0-2.48,1.42-3.68,1.91-4.08l-2.22-2.26c-1.06-1.06-1.29-2.26-1.29-2.79c0-1.29,0.31-1.86,1.37-3.99
			c0.44-0.89,0.62-1.33,0.8-1.73c-0.31-0.22-0.49-0.35-0.67-0.58l-2.48-2.48c-1.2-1.2-1.29-2.88-1.29-3.5
			c0-4.79,3.99-4.83,6.74-4.74l1.2,0.04c0.31-1.51,0.93-4.34,5.01-4.34c0.84,0,2.97,0.09,4.3,1.42l2.48,2.48
			c0.09,0.09,0.09,0.13,0.22,0.22c1.68-0.04,9.08-0.31,10.63-0.31c1.29,0,2.57,0.31,3.54,1.28L453.01,188.39z M432.94,207.4
			c1.2,0,7.27,0,7.67-2.7c-0.58-0.13-0.97-0.18-1.91-0.18c-4.96,0-7.05,1.77-8.15,2.75C431.12,207.36,431.79,207.4,432.94,207.4z"/>
	</g>
	<g>
		<path class="st1" d="M116.75,142.73c0.18-2.44,2.48-4.17,4.83-4.17c1.02,0,2.53,0.22,4.61,2.3l2.48,2.48
			c3.94,3.94,5.67,9.62,5.67,15.46c0,4.7-4.12,5.01-5.45,5.01c-1.46,0-2.7-0.62-3.37-1.29l-0.66-0.66
			c-0.44,6.25-1.99,12.63-9.88,12.63c-2.75,0-5.98-0.75-7.89-2.66c-0.53,0.71-1.6,2.22-4.08,2.22c-1.91,0-3.32-1.06-4.03-1.77
			l-2.48-2.44c-0.93-0.93-1.37-2.04-1.37-3.06c0-1.46,0.4-2.13,1.73-4.56c1.6-2.88,3.19-7.36,3.32-7.75
			c-0.13-0.04-0.66-0.31-1.2-0.84l-2.48-2.48c-1.24-1.24-1.33-2.97-1.33-3.54c0-4.7,3.72-4.92,8.2-5.14
			c0.62-3.68,1.15-6.56,4.96-6.56c0.8,0,3.01,0.09,4.34,1.42l2.48,2.48c0.8,0.8,1.06,1.68,1.11,2.75L116.75,142.73z"/>
		<path class="st1" d="M98.5,188.39c1.2,1.2,1.29,2.92,1.29,3.5c0,4.56-3.63,4.7-6.25,4.79l2.3,2.26c2.22,2.17,3.06,5.27,3.06,8.06
			c0,11.61-12.63,12.23-18.39,12.23c-3.19,0-9.04-0.13-11.08-2.22l-2.48-2.53c-0.97-0.97-1.2-2.3-1.2-3.23
			c0-2.48,1.42-3.68,1.91-4.08l-2.22-2.26c-1.06-1.06-1.29-2.26-1.29-2.79c0-1.29,0.31-1.86,1.37-3.99c0.44-0.89,0.62-1.33,0.8-1.73
			c-0.31-0.22-0.49-0.35-0.66-0.58l-2.48-2.48c-1.2-1.2-1.29-2.88-1.29-3.5c0-4.79,3.99-4.83,6.74-4.74l1.2,0.04
			c0.31-1.51,0.93-4.34,5.01-4.34c0.84,0,2.97,0.09,4.3,1.42l2.48,2.48c0.09,0.09,0.09,0.13,0.22,0.22
			c1.68-0.04,9.08-0.31,10.63-0.31c1.29,0,2.57,0.31,3.54,1.28L98.5,188.39z M78.42,207.4c1.2,0,7.27,0,7.67-2.7
			c-0.58-0.13-0.97-0.18-1.91-0.18c-4.96,0-7.05,1.77-8.15,2.75C76.61,207.36,77.27,207.4,78.42,207.4z"/>
	</g>
	<g>
		<path class="st1" d="M452.67,348.83c1.6,0,8.55-0.44,9.97-0.44c2.26,0,3.19,0.84,3.59,1.24l2.48,2.48
			c1.24,1.24,1.29,2.92,1.29,3.54c0,4.21-3.37,4.52-4.87,4.65l2.44,2.44c1.73,1.73,3.46,4.39,3.46,8.82c0,9-7.27,12.67-14.18,12.67
			c-1.02,0-2.48-0.22-3.59-1.33l-1.06-1.06c-0.44,0.18-0.93,0.35-1.73,0.35c-0.93,0-1.46-0.22-1.95-0.4
			c-1.77,0.75-3.15,1.37-5.27,1.37c-0.67,0-3.28-0.04-5.58-2.35l-2.48-2.48c-2.44-2.44-2.61-5.94-2.61-7.13
			c0-4.3,2.13-8.29,5.54-10.9c-0.31-0.13-0.58-0.35-0.89-0.66l-2.48-2.48c-1.02-1.02-1.29-2.39-1.29-3.5c0-2.79,1.82-4.08,2.92-4.39
			c1.24-0.31,2.08-0.31,4.7-0.31c0.67-3.59,3.59-3.77,4.74-3.77c1.68,0,2.84,0.35,3.86,1.37l2.26,2.26H452.67z"/>
		<path class="st1" d="M437.38,412.61c0.97,0.97,1.28,2.17,1.28,3.1c0,3.06-3.06,12.67-11.39,12.67c-2.84,0-4.79-1.46-5.76-2.44
			l-2.48-2.48c-4.48-4.48-4.7-13.52-4.7-19.01c0-9.13,0.35-12.54,5.41-12.54c1.29,0,2.75,0.31,3.72,1.29l2.48,2.48
			c1.15,1.15,1.24,2.66,1.24,3.37c0,0.49-0.27,2.75-0.31,3.19c-0.04,0.84-0.27,3.81-0.27,7.05c0,1.11,0,1.37,0.09,2.88
			c0.49-1.51,1.15-3.54,4.43-3.54c1.99,0,3.28,1.02,3.77,1.51L437.38,412.61z M432.99,402.16c-0.97-0.97-1.24-2.39-1.24-3.5
			c0-2.44,1.42-5.01,4.92-5.01c4.52,0,7.62,2.53,8.6,3.5l2.48,2.48c2.88,2.88,4.79,8.29,4.79,20.52c0,1.33-0.04,5.72-5.32,5.72
			c-1.77,0-3.06-0.75-3.77-1.46l-2.48-2.48c-1.2-1.2-1.24-2.57-1.24-4.08c0-5.49,0-8.68-0.93-11.92c-1.29-0.18-2.35-0.31-3.32-1.29
			L432.99,402.16z"/>
		<path class="st1" d="M418.64,463.73c1.15,1.15,1.33,2.75,1.33,3.59c0,4.03-2.26,6.07-16.26,6.07c-4.43,0-6.43-0.18-10.46-1.42
			c-3.01-0.89-3.94-1.64-4.79-2.48l-2.48-2.48c-2.39-2.39-2.66-4.83-2.66-6.03c0-6.03,5.41-10.55,8.55-10.55
			c0.31,0,2.17,0,3.54,1.37l2.48,2.48c0.49,0.49,1.55,1.55,1.55,3.37c0,1.73-0.8,2.48-1.82,3.46c0.8,0.04,1.91,0.09,3.28,0.09
			c1.99,0,4.96-0.09,8.15-0.66c2.75-0.49,3.06-0.58,3.68-0.58c1.37,0,2.53,0.4,3.41,1.29L418.64,463.73z M386.64,445.74
			c-1.06-1.06-1.33-2.48-1.33-3.59c0-4.83,4.21-4.83,5.45-4.83c1.15,0,6.16,0.13,7.22,0.13c1.77,0,9.62-0.22,11.21-0.22
			c1.06,0,3.06,0,4.48,1.42l2.48,2.48c1.02,1.02,1.2,2.3,1.2,3.32c0,2.84-0.97,3.54-5.67,6.82c-0.62,0.44-3.32,2.39-3.9,2.75
			c-0.49,0.27-1.68,0.93-3.19,0.93c-1.55,0-2.88-0.93-3.46-1.51l-2.48-2.44c-0.67-0.62-0.89-1.2-1.06-1.64
			c-0.75,0.04-4.08,0.13-4.74,0.13c-1.86,0-2.92-0.49-3.72-1.29L386.64,445.74z"/>
	</g>
	<g>
		<path class="st1" d="M72.95,375.95c3.15,1.73,4.56,2.97,5.1,3.5l2.48,2.48c0.8,0.8,1.55,1.91,1.55,3.41c0,2.7-2.17,5.45-5.18,5.45
			c-1.55,0-1.95-0.31-4.52-2.35c-0.35-0.31-0.53-0.44-2.08-1.64c-1.68,4.56-6.74,5.23-9.79,5.23c-4.17,0-7.75-0.89-10.32-3.46
			l-2.48-2.48c-1.64-1.64-2.22-3.59-2.22-5.41c0-2.53,1.06-4.7,3.06-6.29l-1.86-1.86c-0.93-0.93-1.24-2.17-1.24-3.28
			c0-1.51,0.44-2.66,1.6-3.59l-0.71-0.71c-1.02-1.02-1.24-2.35-1.24-3.32c0-4.48,4.08-4.48,4.96-4.48c1.73,0,3.72-0.04,5.41-0.04
			h2.61c0.18-1.11,0.97-3.72,4.96-3.72c1.33,0,2.75,0.27,3.68,1.24l2.26,2.3c0.98,0,5.32-0.18,6.2-0.18c1.55,0,2.7,0.75,3.15,1.2
			l2.48,2.48c0.8,0.8,1.24,1.99,1.24,3.32c0,1.68-0.62,3.01-1.99,3.9c0.84,0.84,1.68,1.64,1.68,3.68c0,4.43-3.54,4.48-5.67,4.52
			L72.95,375.95z"/>
		<path class="st1" d="M112.03,420.42c1.2,1.2,1.33,2.61,1.33,3.59c0.97,0.18,1.77,0.44,2.48,1.15l2.48,2.48
			c0.8,0.8,1.28,1.91,1.28,3.59c0,4.43-3.32,4.61-5.94,4.79c0.04,0.49,0.09,2.79,0.09,3.23c0,6.51-1.24,11.92-7.84,14.58
			c-1.37,0.53-4.56,1.51-7.27,1.51c-1.77,0-2.79-0.98-3.23-1.37l-1.6-1.55c-1.02,1.51-2.75,1.95-4.43,1.95s-2.79-0.8-3.28-1.29
			l-2.48-2.48c-2.04-2.04-2.08-10.32-2.08-13.87c0-7.67,0.84-15.2,1.29-16.71c0.58-1.91,1.95-3.19,4.43-3.19
			c0.8,0,2.7,0.04,3.94,1.29l2.48,2.48c1.29,1.28,1.2,3.1,1.15,3.85c0.93,0,5.18-0.04,6.07-0.04c-0.04-0.44-0.09-2.3-0.09-2.7
			c0-3.06,1.42-5.01,5.1-5.01c1.28,0,2.66,0.27,3.63,1.24L112.03,420.42z M93.78,438.72c0,1.68,0.04,3.28,0.18,4.96
			c0.67-0.22,4.03-0.71,4.79-0.97c1.95-0.67,2.48-1.91,2.48-6.29c-4.96,0.13-6.11,0-7.4-1.11C93.78,436.38,93.78,437.4,93.78,438.72
			z"/>
	</g>
	<g>
		<g>
			<path class="st2" d="M76.58,380.51c-2.17-1.86-6.65-4.52-10.06-5.63l-0.04-3.1c2.97-0.09,8.33-0.18,8.86-0.27
				c0.49-0.09,2.08-0.31,2.08-2.61c0-2.39-1.68-2.7-2.7-2.7c-0.22,0-7.75,0.18-8.33,0.18l-0.04-2.13c1.2-0.04,7.22-0.13,8.6-0.22
				c0.93-0.04,2.84-0.18,2.84-2.75c0-0.84-0.27-2.75-2.7-2.75c-1.06,0-7.58,0.18-8.86,0.22v-0.84c0-1.99-1.24-2.75-3.32-2.75
				c-2.61,0-3.15,1.64-3.1,2.75l0.04,0.93c-1.42,0.04-8.24,0.09-9.79,0.09c-1.02,0-3.19,0-3.19,2.7c0,2.79,1.86,2.79,4.3,2.79
				c1.24,0,7.4-0.09,8.77-0.09l0.04,2.17c-1.42,0-8.38,0.04-9.97,0.04c-1.64,0-2.84,0.71-2.84,2.7c0,2.66,1.91,2.7,3.46,2.7
				c0.04,0,8.6-0.04,9.48-0.04v1.68c-0.53-0.09-1.24-0.13-2.3-0.13c-6.47,0-10.55,2.79-10.55,7.22c0,3.72,3.37,7.09,10.59,7.09
				c8.2,0,8.55-4.34,8.69-6.38c1.6,0.84,2.92,1.91,4.56,3.23c2.17,1.73,2.39,1.95,3.37,1.95c1.99,0,3.32-2.04,3.32-3.72
				C77.78,381.66,77.07,380.91,76.58,380.51z M57.04,382.37c-0.84,0-3.85,0-3.85-1.99c0-1.68,2.66-2.04,4.08-2.04
				c1.46,0,2.22,0.27,2.88,0.49C60.14,381.31,60.14,382.37,57.04,382.37z"/>
		</g>
		<path class="st2" d="M84.69,420.07c-0.62,1.46-1.37,9.53-1.37,16.79c0,13.25,1.55,13.25,3.63,13.25c1.37,0,3.32-0.4,3.32-2.61
			c0-0.62-0.09-1.51-0.18-2.13c-0.53-4.39-0.58-7.71-0.58-9.35c0-5.58,0.75-11.7,0.8-12.05c0.27-2.17,0.27-2.44,0.27-2.75
			c0-2.57-2.44-2.57-2.57-2.57C86.82,418.56,85.36,418.47,84.69,420.07z"/>
		<path class="st2" d="M113.72,431.5c1.2-0.31,1.64-1.51,1.64-2.84c0-2.04-1.11-2.97-2.97-2.97c-0.44,0-2.7,0.13-3.19,0.13
			c-0.04-1.51-0.04-4.08-0.18-5.18c-0.13-1.37-1.11-2.17-3.23-2.17c-2.88,0-3.19,1.68-3.19,3.15c0,0.22,0.09,3.68,0.13,4.48
			c-0.13,0-7.27,0.13-7.8,0.13c-1.51,0.04-3.19,0.35-3.19,2.97c0,3.01,1.91,3.01,4.65,3.01c1.86,0,3.59-0.04,6.51-0.18
			c0.04,1.42,0.09,3.68,0.09,4.25c0,5.1-0.62,7.89-5.85,8.6c-2.97,0.4-3.94,0.53-3.94,2.84c0,1.68,1.02,3.37,3.06,3.37
			c2.22,0,5.18-0.84,6.56-1.37c5.63-2.3,6.69-6.78,6.69-12.85c0-0.66-0.09-4.12-0.09-5.01C110.44,431.81,112.87,431.72,113.72,431.5
			z"/>
		<path class="st2" d="M385.04,147.6c0,2.7,1.86,3.06,2.75,3.06c0.58,0,2.92-0.31,3.63-0.4c-1.86,6.69-4.25,11.52-4.96,12.81
			c-1.24,2.22-1.51,2.7-1.51,3.68c0,1.51,1.82,3.06,3.81,3.06c1.82,0,2.84-1.51,4.65-6.16c2.35-5.89,3.85-11.39,4.56-14
			c4.21-0.27,4.65,0.71,4.65,4.96c0,2.44-0.18,4.83-0.53,6.65c-0.4,2.08-0.75,2.92-2.22,2.92c-0.53,0-3.15-0.84-3.72-0.84
			c-2.66,0-2.66,3.15-2.66,3.19c0,2.92,4.56,3.72,7.05,3.72c5.5,0,8.24-3.28,8.24-14.76c0-10.59-3.72-11.79-9.35-11.65
			c0.27-1.02,0.62-2.75,0.62-3.59c0-2.35-2.53-2.57-3.63-2.57c-2.04,0-2.44,1.2-2.61,1.82c-0.18,0.58-0.75,3.9-0.93,4.65
			C386.76,144.46,385.04,144.54,385.04,147.6z"/>
		<path class="st2" d="M406.57,143.04c0,0.98,0.22,1.2,2.3,3.37c0.89,0.93,2.44,3.63,2.7,8.77c0.13,2.84,0.22,4.39,2.97,4.39
			c3.59,0,3.59-2.48,3.59-3.23c0-10.15-5.63-16-8.46-16C408.03,140.33,406.57,141.53,406.57,143.04z"/>
		<path class="st2" d="M446.76,192.34c1.68-0.13,3.28-0.35,3.28-2.92c0-2.92-2.26-3.01-3.15-3.01c-0.58,0-3.37,0.09-3.99,0.13
			c-2.7,0.09-7.36,0.22-10.19,0.27c0.18-0.71,0.27-1.11,0.27-1.68c0-1.86-1.46-2.53-3.59-2.53c-2.61,0-2.84,0.98-3.63,4.3
			c-0.49,0.04-2.88,0-3.41,0c-1.95,0-4.17,0-4.17,2.97c0,3.1,1.82,3.06,5.94,3.01c-1.06,2.97-1.29,3.54-2.26,5.58
			c-1.24,2.61-1.42,2.88-1.42,3.63c0,1.55,1.86,2.7,3.72,2.7c1.24,0,1.77-0.44,2.75-1.33c2.13-1.95,5.05-3.19,9.39-3.19
			c1.82,0,6.11,0.35,6.11,3.99c0,4.12-5.1,4.92-9.44,4.92c-2.57,0-4.61-0.31-5.94-0.58c-1.73-0.35-1.95-0.4-2.44-0.4
			c-1.86,0-2.57,1.77-2.57,3.1c0,1.42,0.04,3.68,10.5,3.68c10.41,0,16.62-2.79,16.62-10.68c0-9.57-10.15-9.57-12.1-9.57
			c-3.86,0-5.72,0.84-7.93,1.82c0.67-1.24,0.97-1.86,1.64-3.77C440.61,192.65,446.23,192.38,446.76,192.34z"/>
		<path class="st2" d="M96.99,147.6c0,2.7,1.86,3.06,2.75,3.06c0.58,0,2.92-0.31,3.63-0.4c-1.86,6.69-4.25,11.52-4.96,12.81
			c-1.24,2.22-1.51,2.7-1.51,3.68c0,1.51,1.82,3.06,3.81,3.06c1.82,0,2.84-1.51,4.65-6.16c2.35-5.89,3.85-11.39,4.56-14
			c4.21-0.27,4.65,0.71,4.65,4.96c0,2.44-0.18,4.83-0.53,6.65c-0.4,2.08-0.75,2.92-2.22,2.92c-0.53,0-3.15-0.84-3.72-0.84
			c-2.66,0-2.66,3.15-2.66,3.19c0,2.92,4.56,3.72,7.05,3.72c5.5,0,8.24-3.28,8.24-14.76c0-10.59-3.72-11.79-9.35-11.65
			c0.27-1.02,0.62-2.75,0.62-3.59c0-2.35-2.53-2.57-3.63-2.57c-2.04,0-2.44,1.2-2.61,1.82c-0.18,0.58-0.75,3.9-0.93,4.65
			C98.72,144.46,96.99,144.54,96.99,147.6z"/>
		<path class="st2" d="M118.53,143.04c0,0.98,0.22,1.2,2.3,3.37c0.89,0.93,2.44,3.63,2.7,8.77c0.13,2.84,0.22,4.39,2.97,4.39
			c3.59,0,3.59-2.48,3.59-3.23c0-10.15-5.63-16-8.46-16C119.99,140.33,118.53,141.53,118.53,143.04z"/>
		<path class="st2" d="M92.25,192.34c1.68-0.13,3.28-0.35,3.28-2.92c0-2.92-2.26-3.01-3.15-3.01c-0.58,0-3.37,0.09-3.99,0.13
			c-2.7,0.09-7.36,0.22-10.19,0.27c0.18-0.71,0.27-1.11,0.27-1.68c0-1.86-1.46-2.53-3.59-2.53c-2.61,0-2.84,0.98-3.63,4.3
			c-0.49,0.04-2.88,0-3.41,0c-1.95,0-4.17,0-4.17,2.97c0,3.1,1.82,3.06,5.94,3.01c-1.06,2.97-1.29,3.54-2.26,5.58
			c-1.24,2.61-1.42,2.88-1.42,3.63c0,1.55,1.86,2.7,3.72,2.7c1.24,0,1.77-0.44,2.75-1.33c2.13-1.95,5.05-3.19,9.39-3.19
			c1.82,0,6.11,0.35,6.11,3.99c0,4.12-5.1,4.92-9.44,4.92c-2.57,0-4.61-0.31-5.94-0.58c-1.73-0.35-1.95-0.4-2.44-0.4
			c-1.86,0-2.57,1.77-2.57,3.1c0,1.42,0.04,3.68,10.5,3.68c10.41,0,16.62-2.79,16.62-10.68c0-9.57-10.15-9.57-12.1-9.57
			c-3.85,0-5.72,0.84-7.93,1.82c0.67-1.24,0.98-1.86,1.64-3.77C86.09,192.65,91.72,192.38,92.25,192.34z"/>
		<path class="st2" d="M416.07,404.5c0,4.83,0.04,19.63,8.91,19.63c6.65,0,9.44-8.29,9.44-10.86c0-1.73-1.46-2.88-3.46-2.88
			c-1.86,0-2.13,0.89-2.79,2.97c-0.75,2.3-1.64,3.37-2.92,3.37c-2.66,0-2.88-7.44-2.88-10.46c0-2.61,0.18-6.16,0.35-7.53
			c0.13-1.06,0.22-1.82,0.22-2.17c0-1.29-0.4-2.88-3.23-2.88C416.78,393.69,416.07,394.62,416.07,404.5z"/>
		<path class="st2" d="M448.28,417.71c0-11.57-1.99-15.82-2.3-16.48c-2.44-5.14-7.49-5.8-9.26-5.8c-2.92,0-3.19,2.35-3.19,3.19
			c0,2.57,1.11,2.75,3.46,3.15c4.52,0.71,4.52,8.2,4.52,16.17c0,1.55,0,3.68,3.37,3.68C448.19,421.61,448.28,419.08,448.28,417.71z"
			/>
		<path class="st2" d="M412.79,461.74c-0.35,0-0.71-0.04-2.53,0.35c-1.37,0.27-4.56,0.93-9.7,0.93c-3.06,0-8.82-0.18-8.82-2.84
			c0-1.06,1.37-2.17,1.95-2.62c0.8-0.66,1.55-1.37,1.55-2.35c0-1.24-1.2-3.01-3.32-3.01s-6.82,3.68-6.82,8.77
			c0,2.35,1.46,4.74,3.77,5.94c1.99,1.06,4.92,2.17,13.03,2.17c4.12,0,9.39-0.31,11.83-1.24c1.73-0.62,1.99-1.91,1.99-3.01
			C415.71,463.06,414.91,461.74,412.79,461.74z"/>
		<path class="st2" d="M399.98,445.96c-0.4,0.35-0.93,0.84-0.93,1.82c0,1.64,1.6,2.92,3.1,2.92c0.98,0,1.77-0.44,2.26-0.71
			c0.58-0.31,3.15-2.21,3.72-2.61c4.65-3.28,4.96-3.5,4.96-5.41c0-2.88-2.39-2.97-3.99-2.97c-1.55,0-9.17,0.27-10.86,0.27
			c-1.11,0-6.42-0.18-7.62-0.18c-1.29,0-3.54,0-3.54,3.15c0,2.53,1.73,3.01,3.19,3.01c3.19,0,8.33-0.22,11.43-0.49
			C401.49,444.94,400.25,445.74,399.98,445.96z"/>
		<g>
			<path class="st2" d="M462.64,360.48c-1.6-1.2-4.08-2.7-10.33-2.7c-1.77,0-2.84,0.18-3.68,0.27c0.04-0.53,0.04-0.71,0.09-1.46
				c1.86-0.04,12.5-0.27,14.76-0.62c1.77-0.27,2.26-1.55,2.26-2.84c0-2.17-1.24-2.97-3.06-2.97c-0.97,0-11.52,0.49-13.65,0.53
				c0.09-1.73,0.09-3.72-3.32-3.72c-2.88,0-2.92,1.99-2.97,3.77h-3.77c-1.37,0-3.77,0-3.77,2.97c0,0.98,0.31,2.04,1.33,2.61
				c0.62,0.35,1.15,0.35,5.98,0.35l-0.04,3.06c-2.97,1.37-8.15,4.74-8.15,11.52c0,5.32,3.5,7.67,6.25,7.67
				c2.66,0,5.1-1.37,5.54-1.68c0.31,0.27,0.75,0.71,1.82,0.71c1.82,0,3.28-1.55,3.28-3.1c0-0.67-0.31-1.24-0.4-1.51
				c3.01-3.23,4.87-7,5.98-9.62c0.8,0.22,3.59,1.06,3.59,5.1c0,3.94-2.57,5.1-5.98,5.41c-1.73,0.18-3.15,0.31-3.15,2.79
				c0,1.24,0.49,2.97,3.1,2.97c4.83,0,12.41-2.17,12.41-10.9C466.76,366.77,466.27,363.23,462.64,360.48z M441.59,373.38
				c-1.55,0-1.64-1.77-1.64-2.35c0-2.97,1.95-4.74,2.61-5.27c0.13,1.77,0.62,5.23,1.24,6.82
				C443.14,372.93,442.3,373.38,441.59,373.38z M448.77,367.48c-0.18-1.11-0.27-1.99-0.27-4.43c0.58-0.13,1.02-0.22,2.61-0.22
				C450.63,363.89,449.83,365.93,448.77,367.48z"/>
		</g>
	</g>
</g>
</svg>
