<?xml version="1.0" encoding="utf-8"?>
<!-- Generator: Adobe Illustrator 27.9.3, SVG Export Plug-In . SVG Version: 9.03 Build 53313)  -->
<svg version="1.1" id="レイヤー_1" xmlns="http://www.w3.org/2000/svg" xmlns:xlink="http://www.w3.org/1999/xlink" x="0px"
	 y="0px" viewBox="0 0 513.09 675.82" style="enable-background:new 0 0 513.09 675.82;" xml:space="preserve">
<style type="text/css">
	.st0{fill:none;}
	.st1{fill:#231815;}
	.st2{fill:#FFFFFF;}
	.st3{fill:#00D2FF;}
</style>
<rect class="st0" width="513.09" height="675.82"/>
<g>
	<g>
		<path class="st1" d="M452.67,348.83c1.6,0,8.55-0.44,9.97-0.44c2.26,0,3.19,0.84,3.59,1.24l2.48,2.48
			c1.24,1.24,1.29,2.92,1.29,3.54c0,4.21-3.37,4.52-4.87,4.65l2.44,2.44c1.73,1.73,3.46,4.39,3.46,8.82c0,9-7.27,12.67-14.18,12.67
			c-1.02,0-2.48-0.22-3.59-1.33l-1.06-1.06c-0.44,0.18-0.93,0.35-1.73,0.35c-0.93,0-1.46-0.22-1.95-0.4
			c-1.77,0.75-3.15,1.37-5.27,1.37c-0.67,0-3.28-0.04-5.58-2.35l-2.48-2.48c-2.44-2.44-2.61-5.94-2.61-7.13
			c0-4.3,2.13-8.29,5.54-10.9c-0.31-0.13-0.58-0.35-0.89-0.66l-2.48-2.48c-1.02-1.02-1.29-2.39-1.29-3.5c0-2.79,1.82-4.08,2.92-4.39
			c1.24-0.31,2.08-0.31,4.7-0.31c0.67-3.59,3.59-3.77,4.74-3.77c1.68,0,2.84,0.35,3.86,1.37l2.26,2.26H452.67z"/>
		<path class="st1" d="M437.38,412.61c0.97,0.97,1.28,2.17,1.28,3.1c0,3.06-3.06,12.67-11.39,12.67c-2.84,0-4.79-1.46-5.76-2.44
			l-2.48-2.48c-4.48-4.48-4.7-13.52-4.7-19.01c0-9.13,0.35-12.54,5.41-12.54c1.29,0,2.75,0.31,3.72,1.29l2.48,2.48
			c1.15,1.15,1.24,2.66,1.24,3.37c0,0.49-0.27,2.75-0.31,3.19c-0.04,0.84-0.27,3.81-0.27,7.05c0,1.11,0,1.37,0.09,2.88
			c0.49-1.51,1.15-3.54,4.43-3.54c1.99,0,3.28,1.02,3.77,1.51L437.38,412.61z M432.99,402.16c-0.97-0.97-1.24-2.39-1.24-3.5
			c0-2.44,1.42-5.01,4.92-5.01c4.52,0,7.62,2.53,8.6,3.5l2.48,2.48c2.88,2.88,4.79,8.29,4.79,20.52c0,1.33-0.04,5.72-5.32,5.72
			c-1.77,0-3.06-0.75-3.77-1.46l-2.48-2.48c-1.2-1.2-1.24-2.57-1.24-4.08c0-5.49,0-8.68-0.93-11.92c-1.29-0.18-2.35-0.31-3.32-1.29
			L432.99,402.16z"/>
		<path class="st1" d="M418.64,463.73c1.15,1.15,1.33,2.75,1.33,3.59c0,4.03-2.26,6.07-16.26,6.07c-4.43,0-6.43-0.18-10.46-1.42
			c-3.01-0.89-3.94-1.64-4.79-2.48l-2.48-2.48c-2.39-2.39-2.66-4.83-2.66-6.03c0-6.03,5.41-10.55,8.55-10.55
			c0.31,0,2.17,0,3.54,1.37l2.48,2.48c0.49,0.49,1.55,1.55,1.55,3.37c0,1.73-0.8,2.48-1.82,3.46c0.8,0.04,1.91,0.09,3.28,0.09
			c1.99,0,4.96-0.09,8.15-0.66c2.75-0.49,3.06-0.58,3.68-0.58c1.37,0,2.53,0.4,3.41,1.29L418.64,463.73z M386.64,445.74
			c-1.06-1.06-1.33-2.48-1.33-3.59c0-4.83,4.21-4.83,5.45-4.83c1.15,0,6.16,0.13,7.22,0.13c1.77,0,9.62-0.22,11.21-0.22
			c1.06,0,3.06,0,4.48,1.42l2.48,2.48c1.02,1.02,1.2,2.3,1.2,3.32c0,2.84-0.97,3.54-5.67,6.82c-0.62,0.44-3.32,2.39-3.9,2.75
			c-0.49,0.27-1.68,0.93-3.19,0.93c-1.55,0-2.88-0.93-3.46-1.51l-2.48-2.44c-0.67-0.62-0.89-1.2-1.06-1.64
			c-0.75,0.04-4.08,0.13-4.74,0.13c-1.86,0-2.92-0.49-3.72-1.29L386.64,445.74z"/>
	</g>
	<g>
		<path class="st1" d="M72.95,375.95c3.15,1.73,4.56,2.97,5.1,3.5l2.48,2.48c0.8,0.8,1.55,1.91,1.55,3.41c0,2.7-2.17,5.45-5.18,5.45
			c-1.55,0-1.95-0.31-4.52-2.35c-0.35-0.31-0.53-0.44-2.08-1.64c-1.68,4.56-6.74,5.23-9.79,5.23c-4.17,0-7.75-0.89-10.32-3.46
			l-2.48-2.48c-1.64-1.64-2.22-3.59-2.22-5.41c0-2.53,1.06-4.7,3.06-6.29l-1.86-1.86c-0.93-0.93-1.24-2.17-1.24-3.28
			c0-1.51,0.44-2.66,1.6-3.59l-0.71-0.71c-1.02-1.02-1.24-2.35-1.24-3.32c0-4.48,4.08-4.48,4.96-4.48c1.73,0,3.72-0.04,5.41-0.04
			h2.61c0.18-1.11,0.97-3.72,4.96-3.72c1.33,0,2.75,0.27,3.68,1.24l2.26,2.3c0.98,0,5.32-0.18,6.2-0.18c1.55,0,2.7,0.75,3.15,1.2
			l2.48,2.48c0.8,0.8,1.24,1.99,1.24,3.32c0,1.68-0.62,3.01-1.99,3.9c0.84,0.84,1.68,1.64,1.68,3.68c0,4.43-3.54,4.48-5.67,4.52
			L72.95,375.95z"/>
		<path class="st1" d="M112.03,420.42c1.2,1.2,1.33,2.61,1.33,3.59c0.97,0.18,1.77,0.44,2.48,1.15l2.48,2.48
			c0.8,0.8,1.28,1.91,1.28,3.59c0,4.43-3.32,4.61-5.94,4.79c0.04,0.49,0.09,2.79,0.09,3.23c0,6.51-1.24,11.92-7.84,14.58
			c-1.37,0.53-4.56,1.51-7.27,1.51c-1.77,0-2.79-0.98-3.23-1.37l-1.6-1.55c-1.02,1.51-2.75,1.95-4.43,1.95s-2.79-0.8-3.28-1.29
			l-2.48-2.48c-2.04-2.04-2.08-10.32-2.08-13.87c0-7.67,0.84-15.2,1.29-16.71c0.58-1.91,1.95-3.19,4.43-3.19
			c0.8,0,2.7,0.04,3.94,1.29l2.48,2.48c1.29,1.28,1.2,3.1,1.15,3.85c0.93,0,5.18-0.04,6.07-0.04c-0.04-0.44-0.09-2.3-0.09-2.7
			c0-3.06,1.42-5.01,5.1-5.01c1.28,0,2.66,0.27,3.63,1.24L112.03,420.42z M93.78,438.72c0,1.68,0.04,3.28,0.18,4.96
			c0.67-0.22,4.03-0.71,4.79-0.97c1.95-0.67,2.48-1.91,2.48-6.29c-4.96,0.13-6.11,0-7.4-1.11C93.78,436.38,93.78,437.4,93.78,438.72
			z"/>
	</g>
	<g>
		<path class="st2" d="M76.58,380.51c-2.17-1.86-6.65-4.52-10.06-5.63l-0.04-3.1c2.97-0.09,8.33-0.18,8.86-0.27
			c0.49-0.09,2.08-0.31,2.08-2.61c0-2.39-1.68-2.7-2.7-2.7c-0.22,0-7.75,0.18-8.33,0.18l-0.04-2.13c1.2-0.04,7.22-0.13,8.6-0.22
			c0.93-0.04,2.84-0.18,2.84-2.75c0-0.84-0.27-2.75-2.7-2.75c-1.06,0-7.58,0.18-8.86,0.22v-0.84c0-1.99-1.24-2.75-3.32-2.75
			c-2.61,0-3.15,1.64-3.1,2.75l0.04,0.93c-1.42,0.04-8.24,0.09-9.79,0.09c-1.02,0-3.19,0-3.19,2.7c0,2.79,1.86,2.79,4.3,2.79
			c1.24,0,7.4-0.09,8.77-0.09l0.04,2.17c-1.42,0-8.38,0.04-9.97,0.04c-1.64,0-2.84,0.71-2.84,2.7c0,2.66,1.91,2.7,3.46,2.7
			c0.04,0,8.6-0.04,9.48-0.04v1.68c-0.53-0.09-1.24-0.13-2.3-0.13c-6.47,0-10.55,2.79-10.55,7.22c0,3.72,3.37,7.09,10.59,7.09
			c8.2,0,8.55-4.34,8.69-6.38c1.6,0.84,2.92,1.91,4.56,3.23c2.17,1.73,2.39,1.95,3.37,1.95c1.99,0,3.32-2.04,3.32-3.72
			C77.78,381.66,77.07,380.91,76.58,380.51z M57.04,382.37c-0.84,0-3.85,0-3.85-1.99c0-1.68,2.66-2.04,4.08-2.04
			c1.46,0,2.22,0.27,2.88,0.49C60.14,381.31,60.14,382.37,57.04,382.37z"/>
	</g>
	<path class="st2" d="M84.69,420.07c-0.62,1.46-1.37,9.53-1.37,16.79c0,13.25,1.55,13.25,3.63,13.25c1.37,0,3.32-0.4,3.32-2.61
		c0-0.62-0.09-1.51-0.18-2.13c-0.53-4.39-0.58-7.71-0.58-9.35c0-5.58,0.75-11.7,0.8-12.05c0.27-2.17,0.27-2.44,0.27-2.75
		c0-2.57-2.44-2.57-2.57-2.57C86.82,418.56,85.36,418.47,84.69,420.07z"/>
	<path class="st2" d="M113.72,431.5c1.2-0.31,1.64-1.51,1.64-2.84c0-2.04-1.11-2.97-2.97-2.97c-0.44,0-2.7,0.13-3.19,0.13
		c-0.04-1.51-0.04-4.08-0.18-5.18c-0.13-1.37-1.11-2.17-3.23-2.17c-2.88,0-3.19,1.68-3.19,3.15c0,0.22,0.09,3.68,0.13,4.48
		c-0.13,0-7.27,0.13-7.8,0.13c-1.51,0.04-3.19,0.35-3.19,2.97c0,3.01,1.91,3.01,4.65,3.01c1.86,0,3.59-0.04,6.51-0.18
		c0.04,1.42,0.09,3.68,0.09,4.25c0,5.1-0.62,7.89-5.85,8.6c-2.97,0.4-3.94,0.53-3.94,2.84c0,1.68,1.02,3.37,3.06,3.37
		c2.22,0,5.18-0.84,6.56-1.37c5.63-2.3,6.69-6.78,6.69-12.85c0-0.66-0.09-4.12-0.09-5.01C110.44,431.81,112.87,431.72,113.72,431.5z
		"/>
	<g>
		<path class="st1" d="M405.2,140.23c0.21-2.92,2.98-5,5.8-5c1.22,0,3.03,0.27,5.53,2.77l2.98,2.98c4.73,4.73,6.81,11.54,6.81,18.56
			c0,5.64-4.95,6.01-6.54,6.01c-1.76,0-3.24-0.74-4.04-1.54l-0.8-0.8c-0.53,7.5-2.39,15.15-11.86,15.15c-3.3,0-7.18-0.9-9.47-3.19
			c-0.64,0.85-1.91,2.66-4.89,2.66c-2.29,0-3.99-1.28-4.84-2.13l-2.98-2.93c-1.12-1.12-1.65-2.45-1.65-3.67
			c0-1.75,0.48-2.55,2.07-5.48c1.91-3.46,3.83-8.83,3.99-9.31c-0.16-0.05-0.8-0.37-1.44-1.01l-2.98-2.98
			c-1.49-1.49-1.6-3.56-1.6-4.25c0-5.64,4.47-5.9,9.84-6.17c0.74-4.41,1.38-7.87,5.96-7.87c0.96,0,3.62,0.11,5.21,1.7l2.98,2.98
			c0.96,0.96,1.28,2.02,1.33,3.3L405.2,140.23z"/>
		<path class="st3" d="M381.49,146.08c0,3.24,2.23,3.67,3.3,3.67c0.69,0,3.51-0.37,4.36-0.48c-2.23,8.03-5.1,13.83-5.96,15.37
			c-1.49,2.66-1.81,3.24-1.81,4.41c0,1.81,2.18,3.67,4.57,3.67c2.18,0,3.4-1.81,5.58-7.39c2.82-7.07,4.63-13.67,5.48-16.8
			c5.05-0.32,5.58,0.85,5.58,5.96c0,2.93-0.21,5.8-0.64,7.98c-0.48,2.5-0.9,3.51-2.66,3.51c-0.64,0-3.77-1.01-4.47-1.01
			c-3.19,0-3.19,3.78-3.19,3.83c0,3.51,5.48,4.47,8.46,4.47c6.59,0,9.89-3.93,9.89-17.71c0-12.71-4.47-14.14-11.22-13.98
			c0.32-1.22,0.74-3.3,0.74-4.31c0-2.82-3.03-3.08-4.36-3.08c-2.45,0-2.92,1.44-3.14,2.18c-0.21,0.69-0.9,4.68-1.12,5.58
			C383.56,142.31,381.49,142.41,381.49,146.08z"/>
		<path class="st3" d="M407.33,140.6c0,1.17,0.27,1.44,2.77,4.04c1.06,1.12,2.92,4.36,3.24,10.53c0.16,3.4,0.27,5.26,3.56,5.26
			c4.31,0,4.31-2.98,4.31-3.88c0-12.18-6.75-19.2-10.16-19.2C409.08,137.36,407.33,138.8,407.33,140.6z"/>
	</g>
	<g>
		<path class="st1" d="M456.54,186.07c1.44,1.44,1.54,3.51,1.54,4.2c0,5.48-4.36,5.64-7.5,5.74l2.77,2.71
			c2.66,2.61,3.67,6.33,3.67,9.68c0,13.93-15.15,14.68-22.07,14.68c-3.83,0-10.85-0.16-13.29-2.66l-2.98-3.03
			c-1.17-1.17-1.44-2.77-1.44-3.88c0-2.98,1.7-4.41,2.29-4.89l-2.66-2.71c-1.28-1.28-1.54-2.71-1.54-3.35
			c0-1.54,0.37-2.23,1.65-4.79c0.53-1.06,0.74-1.6,0.96-2.07c-0.37-0.27-0.58-0.43-0.8-0.69l-2.98-2.98
			c-1.44-1.44-1.54-3.46-1.54-4.2c0-5.74,4.79-5.8,8.08-5.69l1.44,0.05c0.37-1.81,1.12-5.21,6.01-5.21c1.01,0,3.56,0.11,5.16,1.7
			l2.98,2.98c0.11,0.11,0.11,0.16,0.27,0.27c2.02-0.05,10.9-0.37,12.76-0.37c1.54,0,3.08,0.37,4.25,1.54L456.54,186.07z
			 M432.46,208.88c1.44,0,8.72,0,9.2-3.24c-0.69-0.16-1.17-0.21-2.29-0.21c-5.96,0-8.46,2.13-9.78,3.3
			C430.28,208.82,431.07,208.88,432.46,208.88z"/>
		<path class="st3" d="M449.05,190.8c2.02-0.16,3.94-0.43,3.94-3.51c0-3.51-2.71-3.62-3.78-3.62c-0.69,0-4.04,0.11-4.78,0.16
			c-3.24,0.11-8.83,0.27-12.23,0.32c0.21-0.85,0.32-1.33,0.32-2.02c0-2.23-1.76-3.03-4.31-3.03c-3.14,0-3.4,1.17-4.36,5.16
			c-0.58,0.05-3.46,0-4.09,0c-2.34,0-5,0-5,3.56c0,3.72,2.18,3.67,7.13,3.62c-1.28,3.56-1.54,4.25-2.71,6.7
			c-1.49,3.14-1.7,3.46-1.7,4.36c0,1.86,2.23,3.24,4.47,3.24c1.49,0,2.13-0.53,3.3-1.59c2.55-2.34,6.06-3.83,11.27-3.83
			c2.18,0,7.34,0.43,7.34,4.79c0,4.95-6.11,5.9-11.32,5.9c-3.08,0-5.53-0.37-7.13-0.69c-2.07-0.43-2.34-0.48-2.92-0.48
			c-2.23,0-3.08,2.13-3.08,3.72c0,1.7,0.05,4.41,12.6,4.41c12.5,0,19.94-3.35,19.94-12.81c0-11.49-12.18-11.49-14.52-11.49
			c-4.63,0-6.86,1.01-9.52,2.18c0.8-1.49,1.17-2.23,1.97-4.52C441.66,191.17,448.41,190.85,449.05,190.8z"/>
	</g>
	<g>
		<path class="st1" d="M117.16,140.23c0.21-2.92,2.98-5,5.8-5c1.22,0,3.03,0.27,5.53,2.77l2.98,2.98
			c4.73,4.73,6.81,11.54,6.81,18.56c0,5.64-4.95,6.01-6.54,6.01c-1.75,0-3.24-0.74-4.04-1.54l-0.8-0.8
			c-0.53,7.5-2.39,15.15-11.86,15.15c-3.3,0-7.18-0.9-9.46-3.19c-0.64,0.85-1.91,2.66-4.89,2.66c-2.29,0-3.99-1.28-4.84-2.13
			l-2.98-2.93c-1.12-1.12-1.65-2.45-1.65-3.67c0-1.75,0.48-2.55,2.07-5.48c1.91-3.46,3.83-8.83,3.99-9.31
			c-0.16-0.05-0.8-0.37-1.44-1.01l-2.98-2.98c-1.49-1.49-1.6-3.56-1.6-4.25c0-5.64,4.47-5.9,9.84-6.17
			c0.74-4.41,1.38-7.87,5.96-7.87c0.96,0,3.62,0.11,5.21,1.7l2.98,2.98c0.96,0.96,1.28,2.02,1.33,3.3L117.16,140.23z"/>
		<path class="st3" d="M93.44,146.08c0,3.24,2.23,3.67,3.3,3.67c0.69,0,3.51-0.37,4.36-0.48c-2.23,8.03-5.1,13.83-5.96,15.37
			c-1.49,2.66-1.81,3.24-1.81,4.41c0,1.81,2.18,3.67,4.57,3.67c2.18,0,3.4-1.81,5.58-7.39c2.82-7.07,4.63-13.67,5.48-16.8
			c5.05-0.32,5.58,0.85,5.58,5.96c0,2.93-0.21,5.8-0.64,7.98c-0.48,2.5-0.9,3.51-2.66,3.51c-0.64,0-3.78-1.01-4.47-1.01
			c-3.19,0-3.19,3.78-3.19,3.83c0,3.51,5.48,4.47,8.45,4.47c6.59,0,9.89-3.93,9.89-17.71c0-12.71-4.47-14.14-11.22-13.98
			c0.32-1.22,0.74-3.3,0.74-4.31c0-2.82-3.03-3.08-4.36-3.08c-2.45,0-2.92,1.44-3.14,2.18c-0.21,0.69-0.9,4.68-1.12,5.58
			C95.52,142.31,93.44,142.41,93.44,146.08z"/>
		<path class="st3" d="M119.28,140.6c0,1.17,0.27,1.44,2.77,4.04c1.06,1.12,2.92,4.36,3.24,10.53c0.16,3.4,0.27,5.26,3.56,5.26
			c4.31,0,4.31-2.98,4.31-3.88c0-12.18-6.75-19.2-10.16-19.2C121.04,137.36,119.28,138.8,119.28,140.6z"/>
	</g>
	<g>
		<path class="st1" d="M102.03,186.07c1.44,1.44,1.54,3.51,1.54,4.2c0,5.48-4.36,5.64-7.5,5.74l2.77,2.71
			c2.66,2.61,3.67,6.33,3.67,9.68c0,13.93-15.15,14.68-22.07,14.68c-3.83,0-10.85-0.16-13.29-2.66l-2.98-3.03
			c-1.17-1.17-1.44-2.77-1.44-3.88c0-2.98,1.7-4.41,2.29-4.89l-2.66-2.71c-1.28-1.28-1.54-2.71-1.54-3.35
			c0-1.54,0.37-2.23,1.65-4.79c0.53-1.06,0.74-1.6,0.96-2.07c-0.37-0.27-0.58-0.43-0.8-0.69l-2.98-2.98
			c-1.44-1.44-1.54-3.46-1.54-4.2c0-5.74,4.79-5.8,8.08-5.69l1.44,0.05c0.37-1.81,1.12-5.21,6.01-5.21c1.01,0,3.56,0.11,5.16,1.7
			l2.98,2.98c0.11,0.11,0.11,0.16,0.27,0.27c2.02-0.05,10.9-0.37,12.76-0.37c1.54,0,3.08,0.37,4.25,1.54L102.03,186.07z
			 M77.94,208.88c1.44,0,8.72,0,9.2-3.24c-0.69-0.16-1.17-0.21-2.29-0.21c-5.96,0-8.45,2.13-9.78,3.3
			C75.76,208.82,76.56,208.88,77.94,208.88z"/>
		<path class="st3" d="M94.53,190.8c2.02-0.16,3.93-0.43,3.93-3.51c0-3.51-2.71-3.62-3.78-3.62c-0.69,0-4.04,0.11-4.79,0.16
			c-3.24,0.11-8.83,0.27-12.23,0.32c0.21-0.85,0.32-1.33,0.32-2.02c0-2.23-1.75-3.03-4.31-3.03c-3.14,0-3.4,1.17-4.36,5.16
			c-0.58,0.05-3.46,0-4.09,0c-2.34,0-5,0-5,3.56c0,3.72,2.18,3.67,7.13,3.62c-1.28,3.56-1.54,4.25-2.71,6.7
			c-1.49,3.14-1.7,3.46-1.7,4.36c0,1.86,2.23,3.24,4.47,3.24c1.49,0,2.13-0.53,3.3-1.59c2.55-2.34,6.06-3.83,11.27-3.83
			c2.18,0,7.34,0.43,7.34,4.79c0,4.95-6.11,5.9-11.33,5.9c-3.08,0-5.53-0.37-7.13-0.69c-2.07-0.43-2.34-0.48-2.92-0.48
			c-2.23,0-3.08,2.13-3.08,3.72c0,1.7,0.05,4.41,12.6,4.41c12.5,0,19.94-3.35,19.94-12.81c0-11.49-12.18-11.49-14.52-11.49
			c-4.63,0-6.86,1.01-9.52,2.18c0.8-1.49,1.17-2.23,1.97-4.52C87.14,191.17,93.89,190.85,94.53,190.8z"/>
	</g>
	<path class="st2" d="M416.07,404.5c0,4.83,0.04,19.63,8.91,19.63c6.65,0,9.44-8.29,9.44-10.86c0-1.73-1.46-2.88-3.46-2.88
		c-1.86,0-2.13,0.89-2.79,2.97c-0.75,2.3-1.64,3.37-2.92,3.37c-2.66,0-2.88-7.44-2.88-10.46c0-2.61,0.18-6.16,0.35-7.53
		c0.13-1.06,0.22-1.82,0.22-2.17c0-1.29-0.4-2.88-3.23-2.88C416.78,393.69,416.07,394.62,416.07,404.5z"/>
	<path class="st2" d="M448.28,417.71c0-11.57-1.99-15.82-2.3-16.48c-2.44-5.14-7.49-5.8-9.26-5.8c-2.92,0-3.19,2.35-3.19,3.19
		c0,2.57,1.11,2.75,3.46,3.15c4.52,0.71,4.52,8.2,4.52,16.17c0,1.55,0,3.68,3.37,3.68C448.19,421.61,448.28,419.08,448.28,417.71z"
		/>
	<path class="st2" d="M412.79,461.74c-0.35,0-0.71-0.04-2.53,0.35c-1.37,0.27-4.56,0.93-9.7,0.93c-3.06,0-8.82-0.18-8.82-2.84
		c0-1.06,1.37-2.17,1.95-2.62c0.8-0.66,1.55-1.37,1.55-2.35c0-1.24-1.2-3.01-3.32-3.01s-6.82,3.68-6.82,8.77
		c0,2.35,1.46,4.74,3.77,5.94c1.99,1.06,4.92,2.17,13.03,2.17c4.12,0,9.39-0.31,11.83-1.24c1.73-0.62,1.99-1.91,1.99-3.01
		C415.71,463.06,414.91,461.74,412.79,461.74z"/>
	<path class="st2" d="M399.98,445.96c-0.4,0.35-0.93,0.84-0.93,1.82c0,1.64,1.6,2.92,3.1,2.92c0.98,0,1.77-0.44,2.26-0.71
		c0.58-0.31,3.15-2.21,3.72-2.61c4.65-3.28,4.96-3.5,4.96-5.41c0-2.88-2.39-2.97-3.99-2.97c-1.55,0-9.17,0.27-10.86,0.27
		c-1.11,0-6.42-0.18-7.62-0.18c-1.29,0-3.54,0-3.54,3.15c0,2.53,1.73,3.01,3.19,3.01c3.19,0,8.33-0.22,11.43-0.49
		C401.49,444.94,400.25,445.74,399.98,445.96z"/>
	<g>
		<path class="st2" d="M462.64,360.48c-1.6-1.2-4.08-2.7-10.33-2.7c-1.77,0-2.84,0.18-3.68,0.27c0.04-0.53,0.04-0.71,0.09-1.46
			c1.86-0.04,12.5-0.27,14.76-0.62c1.77-0.27,2.26-1.55,2.26-2.84c0-2.17-1.24-2.97-3.06-2.97c-0.97,0-11.52,0.49-13.65,0.53
			c0.09-1.73,0.09-3.72-3.32-3.72c-2.88,0-2.92,1.99-2.97,3.77h-3.77c-1.37,0-3.77,0-3.77,2.97c0,0.98,0.31,2.04,1.33,2.61
			c0.62,0.35,1.15,0.35,5.98,0.35l-0.04,3.06c-2.97,1.37-8.15,4.74-8.15,11.52c0,5.32,3.5,7.67,6.25,7.67c2.66,0,5.1-1.37,5.54-1.68
			c0.31,0.27,0.75,0.71,1.82,0.71c1.82,0,3.28-1.55,3.28-3.1c0-0.67-0.31-1.24-0.4-1.51c3.01-3.23,4.87-7,5.98-9.62
			c0.8,0.22,3.59,1.06,3.59,5.1c0,3.94-2.57,5.1-5.98,5.41c-1.73,0.18-3.15,0.31-3.15,2.79c0,1.24,0.49,2.97,3.1,2.97
			c4.83,0,12.41-2.17,12.41-10.9C466.76,366.77,466.27,363.23,462.64,360.48z M441.59,373.38c-1.55,0-1.64-1.77-1.64-2.35
			c0-2.97,1.95-4.74,2.61-5.27c0.13,1.77,0.62,5.23,1.24,6.82C443.14,372.93,442.3,373.38,441.59,373.38z M448.77,367.48
			c-0.18-1.11-0.27-1.99-0.27-4.43c0.58-0.13,1.02-0.22,2.61-0.22C450.63,363.89,449.83,365.93,448.77,367.48z"/>
	</g>
</g>
</svg>
