<?xml version="1.0" encoding="utf-8"?>
<!-- Generator: Adobe Illustrator 27.9.3, SVG Export Plug-In . SVG Version: 9.03 Build 53313)  -->
<svg version="1.1" id="レイヤー_1" xmlns="http://www.w3.org/2000/svg" xmlns:xlink="http://www.w3.org/1999/xlink" x="0px"
	 y="0px" viewBox="0 0 513.09 675.82" style="enable-background:new 0 0 513.09 675.82;" xml:space="preserve">
<style type="text/css">
	.st0{fill:none;}
	.st1{fill:url(#SVGID_1_);}
	.st2{fill:url(#SVGID_00000122692292791866532790000000062044956573601179_);}
	.st3{fill:url(#SVGID_00000150801265234984368120000016673278585035952313_);}
	.st4{fill:url(#SVGID_00000131329179302996266250000002733539354404073407_);}
	.st5{fill:url(#SVGID_00000112605996768307722100000014643039227547175320_);}
	.st6{fill:url(#SVGID_00000004510665154448592900000011569550190120471197_);}
	.st7{fill:url(#SVGID_00000106133642146023291050000011790632653761813891_);}
	.st8{fill:url(#SVGID_00000115500045970913117870000015749745670320453004_);}
	.st9{fill:url(#SVGID_00000068659075444868065910000017857899864083431060_);}
	.st10{fill:url(#SVGID_00000158745396922646690740000012737860256298408095_);}
	.st11{fill:url(#SVGID_00000129901472731285551130000013398174059574125221_);}
	.st12{fill:url(#SVGID_00000182501435332954764820000010881915557026382508_);}
	.st13{fill:url(#SVGID_00000044163521476307635960000015099776706841245570_);}
	.st14{fill:url(#SVGID_00000121998180654552855850000005396269405749036709_);}
	.st15{fill:url(#SVGID_00000066496690775803520120000017651175859351479189_);}
	.st16{fill:url(#SVGID_00000103231703149934022320000012509164454390555056_);}
	.st17{fill:url(#SVGID_00000044882824586676922160000012673246122547743375_);}
	.st18{fill:url(#SVGID_00000013176844997768537120000009004489838814704053_);}
	.st19{fill:url(#SVGID_00000043458113702716455220000007715540442217518245_);}
	.st20{fill:url(#SVGID_00000013874895774831671790000005102335668248815232_);}
	.st21{fill:url(#SVGID_00000158718186021927109550000002163712398411269537_);}
	.st22{fill:url(#SVGID_00000118366174596514694000000000536472808960262566_);}
	.st23{fill:url(#SVGID_00000057137444903049449230000017363601592603575181_);}
	.st24{fill:url(#SVGID_00000183951694583380286720000003815777927165532593_);}
	.st25{fill:url(#SVGID_00000181782524552843179140000014460273072052542140_);}
	.st26{fill:url(#SVGID_00000006695579186009354460000017041521534220169654_);}
	.st27{fill:url(#SVGID_00000108999437638852905670000012168701079282382726_);}
	.st28{fill:url(#SVGID_00000136397700811189481450000009641362125249677210_);}
	.st29{fill:url(#SVGID_00000095296915967325155650000005669286202003268261_);}
	.st30{fill:url(#SVGID_00000012441072340741271020000016966717737069382570_);}
	.st31{fill:url(#SVGID_00000115507366290118029310000014112355675586827433_);}
	.st32{fill:url(#SVGID_00000096759409936795060590000001187160899405665694_);}
	.st33{fill:url(#SVGID_00000126284172533560627630000010256665190578001304_);}
	.st34{fill:url(#SVGID_00000083778172021136568680000007127780950358786491_);}
	.st35{fill:url(#SVGID_00000164505627073980084660000000861034526652899713_);}
	.st36{fill:url(#SVGID_00000104701372955145991550000012805877717211511940_);}
	.st37{fill:url(#SVGID_00000021818896327826588350000009483769655377062583_);}
	.st38{fill:url(#SVGID_00000145053826403438385020000016740065275661393064_);}
	.st39{fill:url(#SVGID_00000021104601883236181240000010348750099632674750_);}
	.st40{fill:url(#SVGID_00000067950895398143257320000001121281030747428789_);}
	.st41{fill:url(#SVGID_00000124137857553790089190000004039666639909872055_);}
	.st42{fill:url(#SVGID_00000157285241070176360690000007287176220090106000_);}
	.st43{fill:url(#SVGID_00000118363470405749128440000003898261116114472895_);}
	.st44{fill:url(#SVGID_00000107577891863257156830000007398675621341897345_);}
	.st45{fill:url(#SVGID_00000046316129941852074160000011061087798673231536_);}
	.st46{fill:url(#SVGID_00000114032844238442072630000017753460014766133409_);}
	.st47{fill:url(#SVGID_00000013151652660457439340000013411075201388683950_);}
	.st48{fill:url(#SVGID_00000022537487637540481730000011329393355829796484_);}
	.st49{fill:url(#SVGID_00000039825008480323276750000002311142347680852883_);}
	.st50{fill:url(#SVGID_00000163066046376562637260000001772726611040319879_);}
	.st51{fill:url(#SVGID_00000156575527704508148100000009972567200755359145_);}
	.st52{fill:url(#SVGID_00000050659206925483421330000008202642602748616633_);}
	.st53{fill:url(#SVGID_00000013902638957457750680000014272479472601510589_);}
	.st54{fill:url(#SVGID_00000049202063913811498060000002150218878691265442_);}
	.st55{fill:url(#SVGID_00000015317816329894969890000006054256181890475154_);}
	.st56{fill:url(#SVGID_00000038377957220868618750000004161259086252677770_);}
	.st57{fill:url(#SVGID_00000022544678329274262670000009054142976008131762_);}
	.st58{fill:url(#SVGID_00000047773753210757518600000003847806433335616169_);}
	.st59{fill:url(#SVGID_00000108307931447312908610000016211802336716491954_);}
	.st60{fill:url(#SVGID_00000090975537844599291760000016217673303416463494_);}
	.st61{fill:url(#SVGID_00000029041994612423814320000002865313081678475926_);}
	.st62{fill:url(#SVGID_00000051377136366868199560000014072948522221578884_);}
	.st63{fill:url(#SVGID_00000058574978599661900420000018031858068560597685_);}
	.st64{fill:url(#SVGID_00000036240263563914824270000017719326091987237528_);}
	.st65{fill:url(#SVGID_00000036946763811825897760000003946199082910712236_);}
	.st66{fill:url(#SVGID_00000118395483095484898090000003958525256086777268_);}
	.st67{fill:url(#SVGID_00000096780443342373213000000008718985955204820627_);}
	.st68{fill:url(#SVGID_00000052800500665311854800000017678119917179970726_);}
	.st69{fill:url(#SVGID_00000103944165128636783410000003288316181831504023_);}
	.st70{fill:url(#SVGID_00000142171627352647451770000009814835002563969159_);}
	.st71{fill:url(#SVGID_00000181772073619245914690000012225025909154649777_);}
	.st72{fill:url(#SVGID_00000145750684991611680300000005786342042144712374_);}
	.st73{fill:url(#SVGID_00000099648396857854354970000012089265003584818070_);}
</style>
<rect class="st0" width="513.09" height="675.82"/>
<g>
	<g>
		<radialGradient id="SVGID_1_" cx="235.3249" cy="409.7666" r="3.1275" gradientUnits="userSpaceOnUse">
			<stop  offset="0" style="stop-color:#ED7746"/>
			<stop  offset="1" style="stop-color:#E50012"/>
		</radialGradient>
		<path class="st1" d="M235.32,413.02c-1.66,0-3-1.34-3-3v-0.5c0-1.66,1.34-3,3-3s3,1.34,3,3v0.5
			C238.32,411.67,236.98,413.02,235.32,413.02z"/>
		
			<radialGradient id="SVGID_00000078007223355205111480000017050273880000256685_" cx="235.3249" cy="400.2188" r="3.1275" gradientUnits="userSpaceOnUse">
			<stop  offset="0" style="stop-color:#ED7746"/>
			<stop  offset="1" style="stop-color:#E50012"/>
		</radialGradient>
		<path style="fill:url(#SVGID_00000078007223355205111480000017050273880000256685_);" d="M235.32,403.47c-1.66,0-3-1.34-3-3v-0.5
			c0-1.66,1.34-3,3-3s3,1.34,3,3v0.5C238.32,402.13,236.98,403.47,235.32,403.47z"/>
	</g>
	<g>
		
			<radialGradient id="SVGID_00000112619492797346656670000009824143116541738423_" cx="275.8893" cy="411.4883" r="3.1275" gradientUnits="userSpaceOnUse">
			<stop  offset="0" style="stop-color:#ED7746"/>
			<stop  offset="1" style="stop-color:#E50012"/>
		</radialGradient>
		<path style="fill:url(#SVGID_00000112619492797346656670000009824143116541738423_);" d="M275.89,414.74c-1.66,0-3-1.34-3-3v-0.5
			c0-1.66,1.34-3,3-3s3,1.34,3,3v0.5C278.89,413.4,277.55,414.74,275.89,414.74z"/>
		
			<radialGradient id="SVGID_00000154392842445378035290000000523261287875331516_" cx="275.8893" cy="401.9405" r="3.1275" gradientUnits="userSpaceOnUse">
			<stop  offset="0" style="stop-color:#ED7746"/>
			<stop  offset="1" style="stop-color:#E50012"/>
		</radialGradient>
		<path style="fill:url(#SVGID_00000154392842445378035290000000523261287875331516_);" d="M275.89,405.19c-1.66,0-3-1.34-3-3v-0.5
			c0-1.66,1.34-3,3-3s3,1.34,3,3v0.5C278.89,403.85,277.55,405.19,275.89,405.19z"/>
	</g>
	
		<radialGradient id="SVGID_00000003806010599885293730000009352236766434902426_" cx="249.1528" cy="394.5332" r="3.0002" gradientUnits="userSpaceOnUse">
		<stop  offset="0" style="stop-color:#ED7746"/>
		<stop  offset="1" style="stop-color:#E50012"/>
	</radialGradient>
	<path style="fill:url(#SVGID_00000003806010599885293730000009352236766434902426_);" d="M246.15,394.55
		c-0.01-1.65,1.32-3.01,2.98-3.02l0,0c1.65-0.01,3.01,1.32,3.02,2.98l0,0c0.01,1.65-1.32,3.01-2.97,3.02l0,0c-0.01,0-0.02,0-0.03,0
		l0,0C247.5,397.53,246.17,396.2,246.15,394.55z"/>
	
		<radialGradient id="SVGID_00000098220387734016505510000001753822809413527950_" cx="259.1418" cy="393.8748" r="2.9991" gradientUnits="userSpaceOnUse">
		<stop  offset="0" style="stop-color:#ED7746"/>
		<stop  offset="1" style="stop-color:#E50012"/>
	</radialGradient>
	<path style="fill:url(#SVGID_00000098220387734016505510000001753822809413527950_);" d="M256.16,394.2
		c-0.19-1.64,1-3.13,2.65-3.31l0,0c1.65-0.18,3.13,1,3.31,2.65l0,0c0.18,1.65-1,3.13-2.65,3.31l0,0l0,0l0,0
		c-0.11,0.02-0.22,0.02-0.33,0.02l0,0C257.63,396.87,256.33,395.74,256.16,394.2z"/>
	
		<radialGradient id="SVGID_00000093871887939194744650000006110676681985404075_" cx="269.1081" cy="393.3246" r="3.0002" gradientUnits="userSpaceOnUse">
		<stop  offset="0" style="stop-color:#ED7746"/>
		<stop  offset="1" style="stop-color:#E50012"/>
	</radialGradient>
	<path style="fill:url(#SVGID_00000093871887939194744650000006110676681985404075_);" d="M266.11,393.52
		c-0.11-1.65,1.14-3.08,2.79-3.19l0,0c1.65-0.12,3.09,1.13,3.2,2.78l0,0c0.11,1.66-1.14,3.09-2.79,3.2l0,0
		c-0.07,0.01-0.14,0.01-0.21,0.01l0,0C267.54,396.32,266.22,395.11,266.11,393.52z"/>
	
		<radialGradient id="SVGID_00000016041626171422113230000012181402659477335987_" cx="239.4377" cy="392.6337" r="3.0014" gradientUnits="userSpaceOnUse">
		<stop  offset="0" style="stop-color:#ED7746"/>
		<stop  offset="1" style="stop-color:#E50012"/>
	</radialGradient>
	<path style="fill:url(#SVGID_00000016041626171422113230000012181402659477335987_);" d="M238.96,395.6
		C238.96,395.6,238.96,395.6,238.96,395.6L238.96,395.6c-1.64-0.27-2.75-1.81-2.49-3.45l0,0c0.27-1.63,1.81-2.75,3.44-2.48l0,0
		c1.64,0.27,2.75,1.81,2.49,3.44l0,0c-0.24,1.47-1.52,2.52-2.96,2.52l0,0C239.28,395.63,239.12,395.62,238.96,395.6z"/>
	
		<radialGradient id="SVGID_00000003785830486474950040000002731565761378810030_" cx="279.0979" cy="392.5017" r="3.0007" gradientUnits="userSpaceOnUse">
		<stop  offset="0" style="stop-color:#ED7746"/>
		<stop  offset="1" style="stop-color:#E50012"/>
	</radialGradient>
	<path style="fill:url(#SVGID_00000003785830486474950040000002731565761378810030_);" d="M276.11,392.79
		c-0.16-1.65,1.05-3.12,2.69-3.28l0,0c1.65-0.16,3.12,1.05,3.28,2.7l0,0c0.16,1.65-1.04,3.11-2.69,3.27l0,0l0,0l0,0
		c-0.1,0.01-0.2,0.02-0.3,0.02l0,0C277.57,395.5,276.26,394.34,276.11,392.79z"/>
	
		<radialGradient id="SVGID_00000114786735048073430070000002344738658263271588_" cx="229.4969" cy="391.3646" r="3.0003" gradientUnits="userSpaceOnUse">
		<stop  offset="0" style="stop-color:#ED7746"/>
		<stop  offset="1" style="stop-color:#E50012"/>
	</radialGradient>
	<path style="fill:url(#SVGID_00000114786735048073430070000002344738658263271588_);" d="M229.17,394.35
		C229.17,394.35,229.17,394.35,229.17,394.35L229.17,394.35c-1.64-0.18-2.84-1.66-2.66-3.31l0,0c0.18-1.65,1.65-2.84,3.3-2.66l0,0
		c1.65,0.18,2.84,1.65,2.67,3.3l0,0c-0.17,1.54-1.47,2.68-2.98,2.68l0,0C229.39,394.36,229.28,394.36,229.17,394.35z"/>
	
		<radialGradient id="SVGID_00000005267684766908330500000017166287785099369379_" cx="289.0516" cy="391.3237" r="3.0002" gradientUnits="userSpaceOnUse">
		<stop  offset="0" style="stop-color:#ED7746"/>
		<stop  offset="1" style="stop-color:#E50012"/>
	</radialGradient>
	<path style="fill:url(#SVGID_00000005267684766908330500000017166287785099369379_);" d="M286.08,391.75
		c-0.24-1.64,0.9-3.16,2.54-3.4l0,0c1.64-0.23,3.16,0.91,3.4,2.55l0,0c0.23,1.64-0.91,3.16-2.55,3.39l0,0
		c-0.14,0.02-0.28,0.03-0.42,0.03l0,0C287.58,394.32,286.29,393.24,286.08,391.75z"/>
	
		<radialGradient id="SVGID_00000176753405973771040450000011041022670207132847_" cx="219.5195" cy="390.256" r="2.9984" gradientUnits="userSpaceOnUse">
		<stop  offset="0" style="stop-color:#ED7746"/>
		<stop  offset="1" style="stop-color:#E50012"/>
	</radialGradient>
	<path style="fill:url(#SVGID_00000176753405973771040450000011041022670207132847_);" d="M218.86,393.18
		c-1.61-0.36-2.63-1.96-2.27-3.58l0,0c0.36-1.62,1.96-2.64,3.58-2.27l0,0c1.62,0.36,2.64,1.96,2.27,3.58l0,0
		c-0.31,1.39-1.55,2.34-2.92,2.34l0,0C219.3,393.25,219.08,393.23,218.86,393.18z"/>
	
		<radialGradient id="SVGID_00000142159313871057237410000014605621812905523875_" cx="298.9029" cy="389.4938" r="2.9994" gradientUnits="userSpaceOnUse">
		<stop  offset="0" style="stop-color:#ED7746"/>
		<stop  offset="1" style="stop-color:#E50012"/>
	</radialGradient>
	<path style="fill:url(#SVGID_00000142159313871057237410000014605621812905523875_);" d="M295.99,390.22
		c-0.4-1.61,0.58-3.24,2.18-3.64h0.01c1.6-0.4,3.23,0.58,3.63,2.19l0,0c0.4,1.61-0.58,3.23-2.19,3.63l0,0
		c-0.24,0.06-0.48,0.09-0.72,0.09l0,0C297.55,392.49,296.33,391.58,295.99,390.22z"/>
	
		<radialGradient id="SVGID_00000164482275486971741270000015856602875550978716_" cx="210.0226" cy="387.1027" r="3.0012" gradientUnits="userSpaceOnUse">
		<stop  offset="0" style="stop-color:#ED7746"/>
		<stop  offset="1" style="stop-color:#E50012"/>
	</radialGradient>
	<path style="fill:url(#SVGID_00000164482275486971741270000015856602875550978716_);" d="M208.72,389.81
		c-1.49-0.72-2.12-2.51-1.41-4.01l0,0c0.72-1.49,2.51-2.12,4-1.41v0.01c1.5,0.71,2.13,2.5,1.42,4l0,0c-0.52,1.07-1.6,1.7-2.72,1.7
		l0,0C209.58,390.1,209.14,390.01,208.72,389.81z"/>
	
		<radialGradient id="SVGID_00000175319722951201636090000003080348237293085319_" cx="307.5271" cy="384.9857" r="2.9986" gradientUnits="userSpaceOnUse">
		<stop  offset="0" style="stop-color:#ED7746"/>
		<stop  offset="1" style="stop-color:#E50012"/>
	</radialGradient>
	<path style="fill:url(#SVGID_00000175319722951201636090000003080348237293085319_);" d="M306.17,387.66
		c-1.48-0.75-2.07-2.55-1.32-4.03l0,0c0.74-1.48,2.55-2.07,4.03-1.32l0,0c1.47,0.74,2.07,2.55,1.32,4.03l0,0
		c-0.53,1.04-1.58,1.64-2.68,1.64l0,0C307.07,387.98,306.6,387.88,306.17,387.66z"/>
	
		<radialGradient id="SVGID_00000025417824967540106560000012674483579612411306_" cx="203.174" cy="380.3216" r="3.0021" gradientUnits="userSpaceOnUse">
		<stop  offset="0" style="stop-color:#ED7746"/>
		<stop  offset="1" style="stop-color:#E50012"/>
	</radialGradient>
	<path style="fill:url(#SVGID_00000025417824967540106560000012674483579612411306_);" d="M200.21,380.82L200.21,380.82
		L200.21,380.82c-0.27-1.63,0.82-3.18,2.46-3.46l0,0c1.63-0.28,3.18,0.82,3.46,2.46v-0.01c0.28,1.64-0.82,3.19-2.46,3.46l0,0
		c-0.17,0.03-0.34,0.05-0.5,0.05l0,0C201.73,383.32,200.46,382.28,200.21,380.82z"/>
	
		<radialGradient id="SVGID_00000007415325005108766450000002873808201463335307_" cx="305.7503" cy="375.5211" r="3.0009" gradientUnits="userSpaceOnUse">
		<stop  offset="0" style="stop-color:#ED7746"/>
		<stop  offset="1" style="stop-color:#E50012"/>
	</radialGradient>
	<path style="fill:url(#SVGID_00000007415325005108766450000002873808201463335307_);" d="M303.14,376.99
		c-0.82-1.44-0.31-3.27,1.13-4.09l0,0c1.44-0.81,3.27-0.3,4.09,1.14l0,0c0.81,1.44,0.31,3.27-1.14,4.09l0,0
		c-0.46,0.26-0.97,0.39-1.47,0.39l0,0C304.7,378.52,303.69,377.97,303.14,376.99z"/>
	
		<radialGradient id="SVGID_00000130639588134336991700000004599359212377760917_" cx="207.5023" cy="371.6831" r="3.0009" gradientUnits="userSpaceOnUse">
		<stop  offset="0" style="stop-color:#ED7746"/>
		<stop  offset="1" style="stop-color:#E50012"/>
	</radialGradient>
	<path style="fill:url(#SVGID_00000130639588134336991700000004599359212377760917_);" d="M205.58,373.99
		c-1.27-1.06-1.45-2.95-0.39-4.22l0,0l0,0l0,0c1.06-1.28,2.95-1.46,4.22-0.4l0,0c1.28,1.06,1.46,2.95,0.4,4.22l0,0
		c-0.59,0.72-1.45,1.09-2.31,1.09l0,0C206.82,374.68,206.14,374.45,205.58,373.99z"/>
	
		<radialGradient id="SVGID_00000089566240810266693970000014187311142708538294_" cx="299.8617" cy="367.4339" r="3.0001" gradientUnits="userSpaceOnUse">
		<stop  offset="0" style="stop-color:#ED7746"/>
		<stop  offset="1" style="stop-color:#E50012"/>
	</radialGradient>
	<path style="fill:url(#SVGID_00000089566240810266693970000014187311142708538294_);" d="M297.59,369.4
		c-1.08-1.25-0.95-3.14,0.3-4.23l0,0c1.24-1.09,3.14-0.96,4.23,0.29l0,0c1.09,1.25,0.96,3.15-0.29,4.23l0,0
		c-0.57,0.5-1.27,0.74-1.97,0.74l0,0C299.02,370.43,298.19,370.08,297.59,369.4z"/>
	
		<radialGradient id="SVGID_00000061469420915256176210000016409623429763456688_" cx="214.0591" cy="364.1419" r="3.0006" gradientUnits="userSpaceOnUse">
		<stop  offset="0" style="stop-color:#ED7746"/>
		<stop  offset="1" style="stop-color:#E50012"/>
	</radialGradient>
	<path style="fill:url(#SVGID_00000061469420915256176210000016409623429763456688_);" d="M212.02,366.34
		c-1.22-1.13-1.29-3.02-0.16-4.24l0,0c1.12-1.22,3.02-1.29,4.24-0.16l0,0c1.21,1.12,1.28,3.02,0.16,4.24l0,0
		c-0.59,0.64-1.4,0.96-2.2,0.96l0,0C213.33,367.14,212.6,366.87,212.02,366.34z"/>
	
		<radialGradient id="SVGID_00000141425195494633636230000011891291784087365259_" cx="303.5999" cy="362.7224" r="3.0005" gradientUnits="userSpaceOnUse">
		<stop  offset="0" style="stop-color:#ED7746"/>
		<stop  offset="1" style="stop-color:#E50012"/>
	</radialGradient>
	<path style="fill:url(#SVGID_00000141425195494633636230000011891291784087365259_);" d="M300.84,363.9
		c-0.65-1.53,0.05-3.29,1.58-3.94l0,0c1.52-0.65,3.28,0.05,3.93,1.58l0,0c0.66,1.52-0.05,3.29-1.57,3.94l0,0c0,0,0,0-0.01,0l0,0
		c-0.38,0.16-0.78,0.24-1.17,0.24l0,0C302.43,365.72,301.32,365.03,300.84,363.9z"/>
	
		<radialGradient id="SVGID_00000070835244775937101580000009237048230571320752_" cx="215.4279" cy="357.8219" r="3.0004" gradientUnits="userSpaceOnUse">
		<stop  offset="0" style="stop-color:#ED7746"/>
		<stop  offset="1" style="stop-color:#E50012"/>
	</radialGradient>
	<path style="fill:url(#SVGID_00000070835244775937101580000009237048230571320752_);" d="M213.91,360.41
		c-1.43-0.84-1.91-2.68-1.07-4.11l0,0c0.84-1.43,2.68-1.91,4.11-1.07l0,0c1.42,0.84,1.9,2.68,1.06,4.11l0,0
		c-0.56,0.95-1.56,1.48-2.59,1.48l0,0C214.91,360.82,214.38,360.69,213.91,360.41z"/>
	
		<radialGradient id="SVGID_00000156579091173060395160000008910492517445483706_" cx="312.2755" cy="357.8041" r="2.9997" gradientUnits="userSpaceOnUse">
		<stop  offset="0" style="stop-color:#ED7746"/>
		<stop  offset="1" style="stop-color:#E50012"/>
	</radialGradient>
	<path style="fill:url(#SVGID_00000156579091173060395160000008910492517445483706_);" d="M309.85,359.57
		c-0.98-1.35-0.68-3.22,0.66-4.2l0,0c1.34-0.97,3.22-0.67,4.19,0.67l0,0c0.97,1.34,0.68,3.21-0.66,4.19l0,0
		c-0.53,0.39-1.15,0.57-1.76,0.57l0,0C311.35,360.8,310.43,360.37,309.85,359.57z"/>
	
		<radialGradient id="SVGID_00000047773031182669504180000011632554791710048686_" cx="206.898" cy="352.5666" r="2.9978" gradientUnits="userSpaceOnUse">
		<stop  offset="0" style="stop-color:#ED7746"/>
		<stop  offset="1" style="stop-color:#E50012"/>
	</radialGradient>
	<path style="fill:url(#SVGID_00000047773031182669504180000011632554791710048686_);" d="M205.27,355.08
		c-1.4-0.9-1.79-2.76-0.89-4.15l0,0c0.9-1.39,2.76-1.78,4.15-0.88l0,0c1.39,0.9,1.78,2.75,0.88,4.14l0,0
		c-0.57,0.89-1.53,1.37-2.52,1.37l0,0C206.33,355.56,205.77,355.41,205.27,355.08z"/>
	
		<radialGradient id="SVGID_00000170990573743834021520000001705529187904885917_" cx="319.6582" cy="351.0847" r="2.9988" gradientUnits="userSpaceOnUse">
		<stop  offset="0" style="stop-color:#ED7746"/>
		<stop  offset="1" style="stop-color:#E50012"/>
	</radialGradient>
	<path style="fill:url(#SVGID_00000170990573743834021520000001705529187904885917_);" d="M317.67,353.33
		c-1.24-1.1-1.36-3-0.26-4.24l0,0c1.1-1.24,3-1.35,4.24-0.25l0,0c1.23,1.1,1.35,3,0.25,4.23l0,0l0,0l0,0
		c-0.59,0.67-1.42,1.01-2.24,1.01l0,0C318.95,354.08,318.24,353.84,317.67,353.33z"/>
	
		<radialGradient id="SVGID_00000142166892572244883470000009272403495873681340_" cx="198.6652" cy="346.8639" r="3.001" gradientUnits="userSpaceOnUse">
		<stop  offset="0" style="stop-color:#ED7746"/>
		<stop  offset="1" style="stop-color:#E50012"/>
	</radialGradient>
	<path style="fill:url(#SVGID_00000142166892572244883470000009272403495873681340_);" d="M196.86,349.26c-1.33-1-1.59-2.88-0.6-4.2
		l0,0c1-1.33,2.88-1.59,4.21-0.6l0,0c1.32,1,1.59,2.88,0.59,4.21l0,0c-0.59,0.78-1.49,1.19-2.4,1.19l0,0
		C198.03,349.86,197.4,349.67,196.86,349.26z"/>
	
		<radialGradient id="SVGID_00000029019506346031504210000014182829872820492204_" cx="325.5264" cy="343.0019" r="3.0008" gradientUnits="userSpaceOnUse">
		<stop  offset="0" style="stop-color:#ED7746"/>
		<stop  offset="1" style="stop-color:#E50012"/>
	</radialGradient>
	<path style="fill:url(#SVGID_00000029019506346031504210000014182829872820492204_);" d="M323.99,345.58
		c-1.42-0.85-1.89-2.69-1.05-4.11l0,0c0.85-1.43,2.69-1.9,4.11-1.05l0,0c1.43,0.84,1.9,2.68,1.05,4.11l0,0l0,0l0,0
		c-0.56,0.94-1.55,1.47-2.58,1.47l0,0C325,346,324.47,345.86,323.99,345.58z"/>
	
		<radialGradient id="SVGID_00000084496278881275014140000016508320860985675145_" cx="190.8787" cy="341.4841" r="3.8173" gradientUnits="userSpaceOnUse">
		<stop  offset="0" style="stop-color:#ED7746"/>
		<stop  offset="1" style="stop-color:#E50012"/>
	</radialGradient>
	<path style="fill:url(#SVGID_00000084496278881275014140000016508320860985675145_);" d="M189.43,345.52
		c-1.54-0.62-2.27-2.37-1.65-3.91l0,0c0.12-0.29,0.28-0.56,0.47-0.79l0,0c-0.21-1.04,0.14-2.16,1.01-2.89l0,0
		c1.26-1.07,3.16-0.91,4.23,0.35l0,0c0.95,1.13,0.92,2.76,0.01,3.86l0,0c0.11,0.56,0.07,1.16-0.16,1.73l0,0
		c-0.47,1.16-1.6,1.87-2.78,1.87l0,0C190.18,345.74,189.8,345.67,189.43,345.52z"/>
	
		<radialGradient id="SVGID_00000090254866595164665400000003513128077420532632_" cx="181.5233" cy="338.476" r="2.9991" gradientUnits="userSpaceOnUse">
		<stop  offset="0" style="stop-color:#ED7746"/>
		<stop  offset="1" style="stop-color:#E50012"/>
	</radialGradient>
	<path style="fill:url(#SVGID_00000090254866595164665400000003513128077420532632_);" d="M180.16,341.15
		c-1.47-0.75-2.07-2.56-1.31-4.03l0,0c0.74-1.48,2.55-2.07,4.03-1.32l0,0c1.48,0.75,2.06,2.56,1.32,4.03l0,0
		c-0.53,1.04-1.59,1.64-2.68,1.64l0,0C181.06,341.47,180.6,341.37,180.16,341.15z"/>
	
		<radialGradient id="SVGID_00000078035323073846446160000004717273996531589773_" cx="330.0977" cy="334.0962" r="2.9986" gradientUnits="userSpaceOnUse">
		<stop  offset="0" style="stop-color:#ED7746"/>
		<stop  offset="1" style="stop-color:#E50012"/>
	</radialGradient>
	<path style="fill:url(#SVGID_00000078035323073846446160000004717273996531589773_);" d="M328.26,336.46
		c-1.31-1.01-1.55-2.89-0.54-4.21l0,0c1.02-1.3,2.9-1.54,4.21-0.53l0,0c1.31,1.02,1.55,2.9,0.54,4.21l0,0
		c-0.6,0.76-1.48,1.16-2.38,1.16l0,0C329.45,337.09,328.8,336.89,328.26,336.46z"/>
	
		<radialGradient id="SVGID_00000103229283319691254630000007991684810271350435_" cx="173.002" cy="333.311" r="3.0015" gradientUnits="userSpaceOnUse">
		<stop  offset="0" style="stop-color:#ED7746"/>
		<stop  offset="1" style="stop-color:#E50012"/>
	</radialGradient>
	<path style="fill:url(#SVGID_00000103229283319691254630000007991684810271350435_);" d="M171.03,335.57
		c-1.25-1.09-1.38-2.98-0.3-4.23l0,0c1.09-1.25,2.98-1.39,4.24-0.3l0,0c1.25,1.09,1.38,2.98,0.29,4.23l0,0
		c-0.59,0.69-1.42,1.04-2.26,1.04l0,0C172.3,336.31,171.6,336.07,171.03,335.57z"/>
	
		<radialGradient id="SVGID_00000016786994850618821530000002053632752448072839_" cx="167.0528" cy="325.3629" r="3.0012" gradientUnits="userSpaceOnUse">
		<stop  offset="0" style="stop-color:#ED7746"/>
		<stop  offset="1" style="stop-color:#E50012"/>
	</radialGradient>
	<path style="fill:url(#SVGID_00000016786994850618821530000002053632752448072839_);" d="M164.33,326.63L164.33,326.63
		L164.33,326.63c-0.7-1.5-0.05-3.29,1.45-3.99l0,0c1.5-0.7,3.29-0.05,3.99,1.45l0,0c0.7,1.5,0.05,3.28-1.45,3.99l0,0
		c-0.41,0.19-0.84,0.28-1.27,0.28l0,0C165.92,328.36,164.84,327.72,164.33,326.63z"/>
	
		<radialGradient id="SVGID_00000033346698931350561540000010967613014509893765_" cx="334.56" cy="325.1527" r="3.001" gradientUnits="userSpaceOnUse">
		<stop  offset="0" style="stop-color:#ED7746"/>
		<stop  offset="1" style="stop-color:#E50012"/>
	</radialGradient>
	<path style="fill:url(#SVGID_00000033346698931350561540000010967613014509893765_);" d="M333.4,327.92
		c-1.53-0.64-2.25-2.4-1.61-3.93l0,0c0.64-1.52,2.4-2.25,3.93-1.61l0,0c1.52,0.64,2.24,2.4,1.61,3.93l0,0
		c-0.48,1.15-1.6,1.84-2.77,1.84l0,0C334.17,328.15,333.78,328.08,333.4,327.92z"/>
	
		<radialGradient id="SVGID_00000074435708601606332410000006836937873768489092_" cx="166.3676" cy="315.8147" r="3.0007" gradientUnits="userSpaceOnUse">
		<stop  offset="0" style="stop-color:#ED7746"/>
		<stop  offset="1" style="stop-color:#E50012"/>
	</radialGradient>
	<path style="fill:url(#SVGID_00000074435708601606332410000006836937873768489092_);" d="M165.25,318.6
		c-1.54-0.62-2.29-2.36-1.67-3.9l0,0c0.61-1.54,2.36-2.29,3.9-1.67l0,0c1.54,0.61,2.29,2.35,1.67,3.89l0,0
		c-0.47,1.18-1.59,1.89-2.79,1.89l0,0C165.99,318.81,165.62,318.74,165.25,318.6z"/>
	
		<radialGradient id="SVGID_00000066474614408639641930000017251779016911199645_" cx="337.9878" cy="315.7558" r="2.9992" gradientUnits="userSpaceOnUse">
		<stop  offset="0" style="stop-color:#ED7746"/>
		<stop  offset="1" style="stop-color:#E50012"/>
	</radialGradient>
	<path style="fill:url(#SVGID_00000066474614408639641930000017251779016911199645_);" d="M337.09,318.62
		c-1.58-0.5-2.46-2.18-1.97-3.76l0,0c0.5-1.58,2.18-2.46,3.76-1.97l0,0c1.58,0.49,2.46,2.17,1.97,3.76l0,0
		c-0.4,1.28-1.58,2.1-2.86,2.1l0,0C337.69,318.75,337.39,318.71,337.09,318.62z"/>
	
		<radialGradient id="SVGID_00000071533948227363924550000017176531292537559957_" cx="171.0678" cy="306.9854" r="3.0001" gradientUnits="userSpaceOnUse">
		<stop  offset="0" style="stop-color:#ED7746"/>
		<stop  offset="1" style="stop-color:#E50012"/>
	</radialGradient>
	<path style="fill:url(#SVGID_00000071533948227363924550000017176531292537559957_);" d="M169.49,309.54
		c-1.41-0.87-1.85-2.72-0.98-4.13l0,0c0.87-1.41,2.72-1.85,4.13-0.98l0,0c1.41,0.87,1.85,2.72,0.98,4.13l0,0
		c-0.57,0.92-1.55,1.42-2.56,1.42l0,0C170.53,309.98,169.98,309.84,169.49,309.54z"/>
	
		<radialGradient id="SVGID_00000061438673816311263040000007530156615342227113_" cx="340.4275" cy="306.0537" r="3.0026" gradientUnits="userSpaceOnUse">
		<stop  offset="0" style="stop-color:#ED7746"/>
		<stop  offset="1" style="stop-color:#E50012"/>
	</radialGradient>
	<path style="fill:url(#SVGID_00000061438673816311263040000007530156615342227113_);" d="M339.88,309
		c-1.63-0.3-2.71-1.86-2.41-3.49l0,0c0.31-1.63,1.87-2.71,3.5-2.41l0,0c1.63,0.31,2.71,1.87,2.41,3.5l0,0
		c-0.27,1.45-1.53,2.46-2.95,2.45l0,0C340.25,309.05,340.06,309.04,339.88,309z"/>
	
		<radialGradient id="SVGID_00000139272032914261654930000006786662473888950917_" cx="178.045" cy="300.112" r="3.0016" gradientUnits="userSpaceOnUse">
		<stop  offset="0" style="stop-color:#ED7746"/>
		<stop  offset="1" style="stop-color:#E50012"/>
	</radialGradient>
	<path style="fill:url(#SVGID_00000139272032914261654930000006786662473888950917_);" d="M175.28,301.27
		c-0.65-1.53,0.07-3.29,1.6-3.93l0,0c1.53-0.64,3.28,0.08,3.93,1.61l0,0c0.64,1.52-0.08,3.28-1.61,3.92l0,0
		c-0.38,0.16-0.77,0.24-1.16,0.24l0,0C176.87,303.11,175.76,302.42,175.28,301.27z"/>
	
		<radialGradient id="SVGID_00000013913789987191344540000014626816059588125361_" cx="187.8977" cy="298.864" r="3.0022" gradientUnits="userSpaceOnUse">
		<stop  offset="0" style="stop-color:#ED7746"/>
		<stop  offset="1" style="stop-color:#E50012"/>
	</radialGradient>
	<path style="fill:url(#SVGID_00000013913789987191344540000014626816059588125361_);" d="M184.9,299.1
		c-0.13-1.65,1.1-3.09,2.75-3.23l0,0c1.66-0.13,3.1,1.1,3.24,2.76l0,0c0.13,1.65-1.1,3.09-2.75,3.23v-0.01
		c-0.09,0.01-0.17,0.01-0.25,0.01l0,0C186.34,301.86,185.03,300.67,184.9,299.1z"/>
	
		<radialGradient id="SVGID_00000155121643093086232680000008793692971867107767_" cx="342.9307" cy="296.796" r="2.9995" gradientUnits="userSpaceOnUse">
		<stop  offset="0" style="stop-color:#ED7746"/>
		<stop  offset="1" style="stop-color:#E50012"/>
	</radialGradient>
	<path style="fill:url(#SVGID_00000155121643093086232680000008793692971867107767_);" d="M340.16,297.95v0.01
		c-0.64-1.53,0.08-3.29,1.6-3.93l0,0c1.53-0.64,3.29,0.07,3.93,1.6l0,0c0.65,1.53-0.07,3.29-1.6,3.93l0,0
		c-0.38,0.16-0.77,0.23-1.16,0.23l0,0C341.76,299.79,340.64,299.1,340.16,297.95z"/>
	
		<radialGradient id="SVGID_00000062884679914599194140000014992102824669311902_" cx="196.9056" cy="295.5236" r="2.9995" gradientUnits="userSpaceOnUse">
		<stop  offset="0" style="stop-color:#ED7746"/>
		<stop  offset="1" style="stop-color:#E50012"/>
	</radialGradient>
	<path style="fill:url(#SVGID_00000062884679914599194140000014992102824669311902_);" d="M195.09,297.91
		c-1.32-1.01-1.58-2.89-0.57-4.21l0,0c1-1.32,2.88-1.57,4.2-0.56l0,0c1.32,1,1.57,2.88,0.57,4.2l0,0c-0.59,0.77-1.49,1.18-2.39,1.18
		l0,0C196.27,298.52,195.63,298.32,195.09,297.91z"/>
	
		<radialGradient id="SVGID_00000152264511803883588910000001641806967018496160_" cx="336.6127" cy="289.282" r="3.0025" gradientUnits="userSpaceOnUse">
		<stop  offset="0" style="stop-color:#ED7746"/>
		<stop  offset="1" style="stop-color:#E50012"/>
	</radialGradient>
	<path style="fill:url(#SVGID_00000152264511803883588910000001641806967018496160_);" d="M335.8,292.17
		c-1.6-0.45-2.53-2.11-2.08-3.7l0,0c0.45-1.6,2.11-2.53,3.7-2.08l0,0l0,0l0,0c1.6,0.45,2.53,2.11,2.08,3.7l0,0
		c-0.38,1.32-1.58,2.19-2.89,2.19l0,0C336.34,292.28,336.07,292.24,335.8,292.17z"/>
	
		<radialGradient id="SVGID_00000040577364167350011970000012000268992214132376_" cx="326.6476" cy="288.7425" r="3.0004" gradientUnits="userSpaceOnUse">
		<stop  offset="0" style="stop-color:#ED7746"/>
		<stop  offset="1" style="stop-color:#E50012"/>
	</radialGradient>
	<path style="fill:url(#SVGID_00000040577364167350011970000012000268992214132376_);" d="M326.26,291.72
		c-1.64-0.21-2.8-1.71-2.59-3.36l0,0c0.2-1.64,1.71-2.8,3.35-2.6l0,0c1.64,0.21,2.81,1.71,2.6,3.36l0,0
		c-0.19,1.51-1.49,2.62-2.97,2.62l0,0C326.52,291.74,326.39,291.73,326.26,291.72z"/>
	
		<radialGradient id="SVGID_00000037686366960304857500000009056770391357938878_" cx="199.0027" cy="286.0034" r="3.0001" gradientUnits="userSpaceOnUse">
		<stop  offset="0" style="stop-color:#ED7746"/>
		<stop  offset="1" style="stop-color:#E50012"/>
	</radialGradient>
	<path style="fill:url(#SVGID_00000037686366960304857500000009056770391357938878_);" d="M196.02,286.35
		c-0.19-1.65,0.99-3.13,2.63-3.33l0,0c1.65-0.19,3.14,0.99,3.33,2.63l0,0c0.19,1.65-0.98,3.14-2.63,3.33l0,0
		C199.23,289,199.11,289,199,289l0,0C197.5,289,196.2,287.88,196.02,286.35z"/>
	
		<radialGradient id="SVGID_00000062185913280576755740000016612847002478185359_" cx="318.7575" cy="283.5818" r="3.0022" gradientUnits="userSpaceOnUse">
		<stop  offset="0" style="stop-color:#ED7746"/>
		<stop  offset="1" style="stop-color:#E50012"/>
	</radialGradient>
	<path style="fill:url(#SVGID_00000062185913280576755740000016612847002478185359_);" d="M316.05,284.88
		c-0.72-1.5-0.09-3.29,1.41-4.01l0,0c1.49-0.71,3.28-0.09,4,1.41l0,0c0.72,1.49,0.09,3.28-1.41,4l0,0c-0.42,0.2-0.86,0.3-1.29,0.3
		l0,0C317.64,286.58,316.57,285.95,316.05,284.88z"/>
	
		<radialGradient id="SVGID_00000155841377483951393300000009969428585816497027_" cx="197.2129" cy="276.1848" r="2.9984" gradientUnits="userSpaceOnUse">
		<stop  offset="0" style="stop-color:#ED7746"/>
		<stop  offset="1" style="stop-color:#E50012"/>
	</radialGradient>
	<path style="fill:url(#SVGID_00000155841377483951393300000009969428585816497027_);" d="M194.22,276.39
		c-0.12-1.65,1.13-3.09,2.78-3.2l0,0c1.65-0.12,3.09,1.13,3.2,2.78l0,0c0.12,1.65-1.12,3.09-2.78,3.2l0,0
		c-0.07,0.01-0.14,0.01-0.21,0.01l0,0C195.65,279.18,194.33,277.97,194.22,276.39z"/>
	
		<radialGradient id="SVGID_00000047752320124480691400000008900310705149315200_" cx="316.9059" cy="274.182" r="3.0005" gradientUnits="userSpaceOnUse">
		<stop  offset="0" style="stop-color:#ED7746"/>
		<stop  offset="1" style="stop-color:#E50012"/>
	</radialGradient>
	<path style="fill:url(#SVGID_00000047752320124480691400000008900310705149315200_);" d="M314.5,275.97
		c-0.99-1.33-0.72-3.21,0.61-4.2l0,0c1.33-0.99,3.21-0.71,4.2,0.61l0,0l0,0l0,0c0.99,1.33,0.71,3.21-0.62,4.2l0,0
		c-0.53,0.4-1.16,0.6-1.79,0.6l0,0C315.99,277.18,315.09,276.76,314.5,275.97z"/>
	
		<radialGradient id="SVGID_00000081605778178534102630000004629303783412303241_" cx="290.2089" cy="271.9071" r="2.998" gradientUnits="userSpaceOnUse">
		<stop  offset="0" style="stop-color:#ED7746"/>
		<stop  offset="1" style="stop-color:#E50012"/>
	</radialGradient>
	<path style="fill:url(#SVGID_00000081605778178534102630000004629303783412303241_);" d="M287.55,273.3
		c-0.77-1.47-0.2-3.29,1.27-4.05l0,0c1.47-0.77,3.28-0.2,4.04,1.26l0,0c0.77,1.47,0.21,3.28-1.26,4.05l0,0
		c-0.45,0.23-0.92,0.34-1.39,0.34l0,0C289.13,274.9,288.09,274.32,287.55,273.3z"/>
	
		<radialGradient id="SVGID_00000178926510335059074820000011008736163648697512_" cx="309.0023" cy="268.2611" r="3.0011" gradientUnits="userSpaceOnUse">
		<stop  offset="0" style="stop-color:#ED7746"/>
		<stop  offset="1" style="stop-color:#E50012"/>
	</radialGradient>
	<path style="fill:url(#SVGID_00000178926510335059074820000011008736163648697512_);" d="M307.96,271.07
		c-1.56-0.58-2.35-2.3-1.77-3.86l0,0c0.57-1.55,2.3-2.34,3.85-1.77l0,0l0,0l0,0c1.55,0.58,2.35,2.31,1.77,3.86l0,0
		c-0.45,1.21-1.59,1.96-2.81,1.96l0,0C308.65,271.26,308.3,271.2,307.96,271.07z"/>
	
		<radialGradient id="SVGID_00000134209206315333017140000007649738121466838443_" cx="299.153" cy="267.9434" r="3.0008" gradientUnits="userSpaceOnUse">
		<stop  offset="0" style="stop-color:#ED7746"/>
		<stop  offset="1" style="stop-color:#E50012"/>
	</radialGradient>
	<path style="fill:url(#SVGID_00000134209206315333017140000007649738121466838443_);" d="M296.23,268.64
		c-0.38-1.61,0.61-3.23,2.23-3.62l0,0l0,0l0,0c1.61-0.38,3.23,0.62,3.61,2.23l0,0c0.38,1.61-0.61,3.23-2.22,3.61l0,0
		c-0.23,0.06-0.47,0.08-0.7,0.08l0,0C297.79,270.94,296.56,270.02,296.23,268.64z"/>
	
		<radialGradient id="SVGID_00000057846057025891891950000015278274535722439852_" cx="198.078" cy="266.2667" r="2.9979" gradientUnits="userSpaceOnUse">
		<stop  offset="0" style="stop-color:#ED7746"/>
		<stop  offset="1" style="stop-color:#E50012"/>
	</radialGradient>
	<path style="fill:url(#SVGID_00000057846057025891891950000015278274535722439852_);" d="M197.26,269.15
		c-1.59-0.45-2.52-2.11-2.07-3.7l0,0l0,0l0,0c0.45-1.6,2.11-2.52,3.7-2.07l0,0c1.6,0.44,2.52,2.1,2.07,3.7l0,0
		c-0.37,1.32-1.57,2.18-2.88,2.18l0,0C197.81,269.26,197.53,269.23,197.26,269.15z"/>
	
		<radialGradient id="SVGID_00000038385392176618136730000004347487640797852090_" cx="285.5759" cy="263.0529" r="3.0005" gradientUnits="userSpaceOnUse">
		<stop  offset="0" style="stop-color:#ED7746"/>
		<stop  offset="1" style="stop-color:#E50012"/>
	</radialGradient>
	<path style="fill:url(#SVGID_00000038385392176618136730000004347487640797852090_);" d="M282.93,264.48L282.93,264.48
		c-0.78-1.46-0.24-3.28,1.21-4.07l0,0c1.46-0.79,3.28-0.24,4.07,1.21l0,0c0.79,1.46,0.25,3.28-1.21,4.07l0,0
		c-0.45,0.25-0.94,0.36-1.42,0.36l0,0C284.51,266.05,283.48,265.48,282.93,264.48z"/>
	
		<radialGradient id="SVGID_00000135686093086141494180000004479555423701786267_" cx="238.238" cy="261.0052" r="2.9999" gradientUnits="userSpaceOnUse">
		<stop  offset="0" style="stop-color:#ED7746"/>
		<stop  offset="1" style="stop-color:#E50012"/>
	</radialGradient>
	<path style="fill:url(#SVGID_00000135686093086141494180000004479555423701786267_);" d="M235.75,262.68L235.75,262.68
		c-0.93-1.37-0.57-3.23,0.81-4.16l0,0c1.37-0.93,3.23-0.57,4.16,0.8l0,0l0,0l0,0c0.93,1.37,0.57,3.24-0.8,4.16l0,0
		c-0.52,0.35-1.1,0.52-1.68,0.52l0,0C237.28,264,236.33,263.54,235.75,262.68z"/>
	
		<radialGradient id="SVGID_00000173857973720918712060000000302460037706898819_" cx="244.7858" cy="259.9638" r="3.0016" gradientUnits="userSpaceOnUse">
		<stop  offset="0" style="stop-color:#ED7746"/>
		<stop  offset="1" style="stop-color:#E50012"/>
	</radialGradient>
	<path style="fill:url(#SVGID_00000173857973720918712060000000302460037706898819_);" d="M243.79,262.79
		c-1.56-0.54-2.39-2.26-1.84-3.82l0,0l0,0l0,0c0.55-1.56,2.26-2.39,3.83-1.84l0,0c1.56,0.55,2.38,2.26,1.84,3.82l0,0
		c-0.44,1.24-1.6,2.01-2.84,2.01l0,0C244.46,262.96,244.12,262.91,243.79,262.79z"/>
	
		<radialGradient id="SVGID_00000124867616660927540030000014687133181488315833_" cx="203.43" cy="258.0451" r="2.9991" gradientUnits="userSpaceOnUse">
		<stop  offset="0" style="stop-color:#ED7746"/>
		<stop  offset="1" style="stop-color:#E50012"/>
	</radialGradient>
	<path style="fill:url(#SVGID_00000124867616660927540030000014687133181488315833_);" d="M201,259.81
		c-0.97-1.34-0.68-3.22,0.66-4.19l0,0c1.34-0.98,3.22-0.68,4.19,0.66l0,0c0.98,1.34,0.68,3.22-0.66,4.19l0,0
		c-0.53,0.39-1.15,0.57-1.76,0.57l0,0C202.51,261.04,201.59,260.61,201,259.81z"/>
	
		<radialGradient id="SVGID_00000159452370232728513890000008312561669780201911_" cx="280.578" cy="254.3906" r="3.0021" gradientUnits="userSpaceOnUse">
		<stop  offset="0" style="stop-color:#ED7746"/>
		<stop  offset="1" style="stop-color:#E50012"/>
	</radialGradient>
	<path style="fill:url(#SVGID_00000159452370232728513890000008312561669780201911_);" d="M278,255.93L278,255.93
		c-0.85-1.42-0.39-3.27,1.04-4.12l0,0c1.42-0.85,3.26-0.39,4.11,1.04l0,0c0.85,1.42,0.39,3.26-1.03,4.11l0,0
		c-0.48,0.29-1.02,0.43-1.54,0.43l0,0C279.56,257.39,278.57,256.87,278,255.93z"/>
	
		<radialGradient id="SVGID_00000109015352499842712540000008364477820168978816_" cx="212.6228" cy="254.2153" r="2.9978" gradientUnits="userSpaceOnUse">
		<stop  offset="0" style="stop-color:#ED7746"/>
		<stop  offset="1" style="stop-color:#E50012"/>
	</radialGradient>
	<path style="fill:url(#SVGID_00000109015352499842712540000008364477820168978816_);" d="M209.82,255.27
		c-0.59-1.54,0.19-3.28,1.74-3.86l0,0c1.55-0.59,3.28,0.19,3.86,1.74l0,0c0.59,1.55-0.19,3.28-1.74,3.87l0,0
		c-0.35,0.13-0.71,0.19-1.06,0.19l0,0C211.41,257.21,210.27,256.47,209.82,255.27z"/>
	
		<radialGradient id="SVGID_00000094582525960024254360000007588561275244149173_" cx="231.5278" cy="253.6416" r="3.0004" gradientUnits="userSpaceOnUse">
		<stop  offset="0" style="stop-color:#ED7746"/>
		<stop  offset="1" style="stop-color:#E50012"/>
	</radialGradient>
	<path style="fill:url(#SVGID_00000094582525960024254360000007588561275244149173_);" d="M229.75,256.05L229.75,256.05
		c-1.34-0.98-1.62-2.86-0.64-4.19l0,0c0.98-1.34,2.86-1.62,4.19-0.64l0,0l0,0l0,0c1.34,0.98,1.62,2.86,0.64,4.19l0,0
		c-0.59,0.8-1.5,1.23-2.42,1.23l0,0C230.91,256.64,230.28,256.45,229.75,256.05z"/>
	
		<radialGradient id="SVGID_00000150099225435503571780000015391182584640991397_" cx="222.1129" cy="251.1427" r="3.0013" gradientUnits="userSpaceOnUse">
		<stop  offset="0" style="stop-color:#ED7746"/>
		<stop  offset="1" style="stop-color:#E50012"/>
	</radialGradient>
	<path style="fill:url(#SVGID_00000150099225435503571780000015391182584640991397_);" d="M219.14,251.57
		c-0.24-1.65,0.91-3.17,2.54-3.4l0,0c1.65-0.24,3.17,0.9,3.4,2.54l0,0c0.24,1.64-0.9,3.16-2.54,3.4l0,0
		c-0.15,0.02-0.29,0.03-0.43,0.03l0,0C220.64,254.14,219.36,253.06,219.14,251.57z"/>
	
		<radialGradient id="SVGID_00000160167173301444422810000002263800439230868610_" cx="247.4734" cy="250.3535" r="2.9997" gradientUnits="userSpaceOnUse">
		<stop  offset="0" style="stop-color:#ED7746"/>
		<stop  offset="1" style="stop-color:#E50012"/>
	</radialGradient>
	<path style="fill:url(#SVGID_00000160167173301444422810000002263800439230868610_);" d="M246.27,253.1
		c-1.51-0.66-2.21-2.43-1.55-3.95l0,0c0.66-1.52,2.43-2.21,3.95-1.55l0,0c1.52,0.66,2.21,2.43,1.55,3.95l0,0
		c-0.49,1.13-1.59,1.8-2.75,1.8l0,0C247.07,253.35,246.66,253.27,246.27,253.1z"/>
	
		<radialGradient id="SVGID_00000126292937355387052380000008291146469748256175_" cx="274.1877" cy="246.8228" r="3.0003" gradientUnits="userSpaceOnUse">
		<stop  offset="0" style="stop-color:#ED7746"/>
		<stop  offset="1" style="stop-color:#E50012"/>
	</radialGradient>
	<path style="fill:url(#SVGID_00000126292937355387052380000008291146469748256175_);" d="M272.47,249.28
		c-1.36-0.95-1.69-2.82-0.75-4.17l0,0c0.95-1.37,2.82-1.7,4.18-0.75l0,0c1.36,0.94,1.69,2.81,0.75,4.17l0,0
		c-0.59,0.84-1.52,1.29-2.47,1.29l0,0C273.59,249.82,272.99,249.64,272.47,249.28z"/>
	
		<radialGradient id="SVGID_00000155857464206292917130000000633015136220562096_" cx="254.823" cy="244.2237" r="3.0002" gradientUnits="userSpaceOnUse">
		<stop  offset="0" style="stop-color:#ED7746"/>
		<stop  offset="1" style="stop-color:#E50012"/>
	</radialGradient>
	<path style="fill:url(#SVGID_00000155857464206292917130000000633015136220562096_);" d="M251.9,244.9
		c-0.38-1.61,0.62-3.23,2.24-3.6l0,0l0,0l0,0c1.61-0.38,3.22,0.63,3.6,2.24l0,0c0.38,1.61-0.62,3.22-2.24,3.6l0,0
		c-0.23,0.06-0.46,0.08-0.68,0.08l0,0C253.46,247.22,252.22,246.29,251.9,244.9z"/>
	
		<radialGradient id="SVGID_00000016058386625862729910000008649479023284578491_" cx="264.7726" cy="243.9125" r="3.001" gradientUnits="userSpaceOnUse">
		<stop  offset="0" style="stop-color:#ED7746"/>
		<stop  offset="1" style="stop-color:#E50012"/>
	</radialGradient>
	<path style="fill:url(#SVGID_00000016058386625862729910000008649479023284578491_);" d="M264.51,246.89
		c-1.65-0.14-2.87-1.6-2.73-3.25l0,0c0.15-1.65,1.6-2.87,3.25-2.72l0,0c1.65,0.14,2.87,1.6,2.73,3.25l0,0
		c-0.14,1.56-1.45,2.74-2.99,2.74l0,0C264.69,246.91,264.6,246.9,264.51,246.89z"/>
	
		<radialGradient id="SVGID_00000093875879441820241490000005432256440622936708_" cx="248.662" cy="336.0625" r="3.2703" gradientUnits="userSpaceOnUse">
		<stop  offset="0" style="stop-color:#ED7746"/>
		<stop  offset="1" style="stop-color:#E50012"/>
	</radialGradient>
	<path style="fill:url(#SVGID_00000093875879441820241490000005432256440622936708_);" d="M248.64,339.56c-0.08,0-0.16,0-0.24-0.01
		c-1.65-0.13-2.88-1.57-2.75-3.22l0,0c0-0.03,0.02-0.33,0.04-0.88c0.06-1.66,1.46-2.95,3.11-2.89c1.66,0.06,2.95,1.45,2.89,3.11
		c-0.03,0.74-0.06,1.12-0.06,1.12C251.5,338.37,250.19,339.56,248.64,339.56z"/>
	
		<radialGradient id="SVGID_00000057123835305710221180000004417845383317456798_" cx="248.4789" cy="326.0694" r="3.2743" gradientUnits="userSpaceOnUse">
		<stop  offset="0" style="stop-color:#ED7746"/>
		<stop  offset="1" style="stop-color:#E50012"/>
	</radialGradient>
	<path style="fill:url(#SVGID_00000057123835305710221180000004417845383317456798_);" d="M248.51,329.57
		c-1.57,0-2.89-1.22-2.99-2.82l-0.06-0.98c-0.11-1.65,1.14-3.08,2.79-3.19c1.64-0.12,3.08,1.14,3.2,2.79l0.07,1.02
		c0.1,1.65-1.16,3.08-2.81,3.18C248.63,329.57,248.57,329.57,248.51,329.57z"/>
	
		<radialGradient id="SVGID_00000027592794293816314150000003408923179262739860_" cx="247.5012" cy="316.1199" r="3.2871" gradientUnits="userSpaceOnUse">
		<stop  offset="0" style="stop-color:#ED7746"/>
		<stop  offset="1" style="stop-color:#E50012"/>
	</radialGradient>
	<path style="fill:url(#SVGID_00000027592794293816314150000003408923179262739860_);" d="M247.56,319.62
		c-1.49,0-2.78-1.11-2.97-2.63l-0.12-0.97c-0.22-1.64,0.94-3.15,2.58-3.37c1.64-0.22,3.15,0.94,3.37,2.58l0.13,1.01
		c0.21,1.64-0.96,3.14-2.6,3.35C247.81,319.61,247.69,319.62,247.56,319.62z"/>
	
		<radialGradient id="SVGID_00000072260611743851570560000000809467296787863217_" cx="245.9642" cy="306.2393" r="3.2973" gradientUnits="userSpaceOnUse">
		<stop  offset="0" style="stop-color:#ED7746"/>
		<stop  offset="1" style="stop-color:#E50012"/>
	</radialGradient>
	<path style="fill:url(#SVGID_00000072260611743851570560000000809467296787863217_);" d="M246.05,309.73
		c-1.43,0-2.69-1.02-2.95-2.47l-0.18-0.97c-0.3-1.63,0.78-3.19,2.41-3.49c1.63-0.3,3.19,0.78,3.49,2.41l0.18,1
		c0.29,1.63-0.79,3.19-2.43,3.48C246.4,309.72,246.22,309.73,246.05,309.73z"/>
	
		<radialGradient id="SVGID_00000111881291440586571400000002138669471557376685_" cx="243.9597" cy="296.4433" r="3.305" gradientUnits="userSpaceOnUse">
		<stop  offset="0" style="stop-color:#ED7746"/>
		<stop  offset="1" style="stop-color:#E50012"/>
	</radialGradient>
	<path style="fill:url(#SVGID_00000111881291440586571400000002138669471557376685_);" d="M244.07,299.93
		c-1.37,0-2.61-0.95-2.92-2.34l-0.22-0.96c-0.37-1.61,0.64-3.22,2.25-3.6c1.62-0.37,3.23,0.64,3.6,2.25l0.23,0.99
		c0.36,1.62-0.65,3.22-2.27,3.59C244.51,299.91,244.29,299.93,244.07,299.93z"/>
	
		<radialGradient id="SVGID_00000070088396709214022840000002217641223986822829_" cx="272.9381" cy="336.3115" r="3.1408" gradientUnits="userSpaceOnUse">
		<stop  offset="0" style="stop-color:#ED7746"/>
		<stop  offset="1" style="stop-color:#E50012"/>
	</radialGradient>
	<path style="fill:url(#SVGID_00000070088396709214022840000002217641223986822829_);" d="M272.92,339.56c-0.1,0-0.2,0-0.3-0.01
		c-1.65-0.16-2.85-1.63-2.69-3.28l0.05-0.51c0.17-1.65,1.65-2.84,3.29-2.68c1.65,0.17,2.85,1.64,2.68,3.29l-0.05,0.5
		C275.74,338.41,274.44,339.56,272.92,339.56z"/>
	
		<radialGradient id="SVGID_00000031183536848673523920000002390801261377255089_" cx="274.12" cy="326.855" r="3.1443" gradientUnits="userSpaceOnUse">
		<stop  offset="0" style="stop-color:#ED7746"/>
		<stop  offset="1" style="stop-color:#E50012"/>
	</radialGradient>
	<path style="fill:url(#SVGID_00000031183536848673523920000002390801261377255089_);" d="M274.09,330.1c-0.15,0-0.3-0.01-0.45-0.03
		c-1.64-0.24-2.77-1.77-2.53-3.41l0.07-0.49c0.24-1.64,1.77-2.77,3.4-2.53c1.64,0.24,2.77,1.76,2.53,3.4l-0.07,0.5
		C276.83,329.03,275.55,330.1,274.09,330.1z"/>
	
		<radialGradient id="SVGID_00000047740534809931810150000016115312386255232384_" cx="275.7897" cy="317.4852" r="3.151" gradientUnits="userSpaceOnUse">
		<stop  offset="0" style="stop-color:#ED7746"/>
		<stop  offset="1" style="stop-color:#E50012"/>
	</radialGradient>
	<path style="fill:url(#SVGID_00000047740534809931810150000016115312386255232384_);" d="M275.74,320.73
		c-0.21,0-0.42-0.02-0.63-0.07c-1.62-0.35-2.65-1.94-2.3-3.56l0.11-0.51c0.36-1.62,1.97-2.63,3.58-2.28
		c1.62,0.36,2.64,1.96,2.28,3.58l-0.1,0.46C278.37,319.77,277.12,320.73,275.74,320.73z"/>
	
		<radialGradient id="SVGID_00000141423904177797254470000008747788905377390253_" cx="278.9347" cy="308.5432" r="3.162" gradientUnits="userSpaceOnUse">
		<stop  offset="0" style="stop-color:#ED7746"/>
		<stop  offset="1" style="stop-color:#E50012"/>
	</radialGradient>
	<path style="fill:url(#SVGID_00000141423904177797254470000008747788905377390253_);" d="M278.78,311.72
		c-0.61,0-1.23-0.18-1.75-0.57c-1.33-0.98-1.65-2.83-0.67-4.16l0.27-0.36c0.96-1.35,2.83-1.67,4.18-0.71
		c1.35,0.96,1.67,2.83,0.71,4.18c-0.09,0.13-0.18,0.25-0.28,0.38C280.65,311.29,279.72,311.72,278.78,311.72z"/>
	
		<radialGradient id="SVGID_00000099659168143973969180000007795804886016658335_" cx="281.5755" cy="299.5717" r="3.1346" gradientUnits="userSpaceOnUse">
		<stop  offset="0" style="stop-color:#ED7746"/>
		<stop  offset="1" style="stop-color:#E50012"/>
	</radialGradient>
	<path style="fill:url(#SVGID_00000099659168143973969180000007795804886016658335_);" d="M281.56,302.82c-0.06,0-0.13,0-0.19-0.01
		c-1.65-0.11-2.91-1.53-2.8-3.19l0.03-0.45c0.08-1.65,1.46-2.94,3.14-2.85c1.65,0.08,2.93,1.48,2.85,3.14l-0.03,0.55
		C284.45,301.6,283.13,302.82,281.56,302.82z"/>
</g>
</svg>
