<?xml version="1.0" encoding="utf-8"?>
<!-- Generator: Adobe Illustrator 27.9.3, SVG Export Plug-In . SVG Version: 9.03 Build 53313)  -->
<svg version="1.1" id="レイヤー_1" xmlns="http://www.w3.org/2000/svg" xmlns:xlink="http://www.w3.org/1999/xlink" x="0px"
	 y="0px" viewBox="0 0 513.09 675.82" style="enable-background:new 0 0 513.09 675.82;" xml:space="preserve">
<style type="text/css">
	.st0{fill:none;}
	.st1{fill:#FFFFFF;stroke:#231815;stroke-linecap:round;stroke-linejoin:round;stroke-miterlimit:10;}
	.st2{fill:#FFF362;stroke:#0076C2;stroke-width:2;stroke-miterlimit:10;}
	.st3{fill:#F000C1;stroke:#0076C2;stroke-width:2;stroke-miterlimit:10;}
	.st4{fill:#FFFFFF;stroke:#0076C2;stroke-miterlimit:10;}
	.st5{fill:#F09DC1;stroke:#0076C2;stroke-miterlimit:10;}
	.st6{fill:#00D4F9;stroke:#0076C2;stroke-miterlimit:10;}
	.st7{fill:#A7D081;stroke:#0076C2;stroke-miterlimit:10;}
	.st8{fill:#130C0F;}
	.st9{fill:#FDFFFD;}
	.st10{fill:#231815;}
	.st11{fill:#FFFFFF;}
	.st12{fill:#FFFF00;}
</style>
<rect y="0" class="st0" width="513.09" height="675.82"/>
<g>
	<path class="st1" d="M255.4,573.08"/>
	<path class="st1" d="M264.36,573.08"/>
	<path class="st2" d="M199.66,658.8h-58.99c-4.4,0-8-3.6-8-8V533.25c0-4.4,3.6-8,8-8h58.99c4.4,0,8,3.6,8,8V650.8
		C207.66,655.2,204.06,658.8,199.66,658.8z"/>
	<path class="st3" d="M288.55,658.8h-58.99c-4.4,0-8-3.6-8-8V533.25c0-4.4,3.6-8,8-8h58.99c4.4,0,8,3.6,8,8V650.8
		C296.55,655.2,292.95,658.8,288.55,658.8z"/>
	<path class="st2" d="M377.44,658.8h-58.99c-4.4,0-8-3.6-8-8V533.25c0-4.4,3.6-8,8-8h58.99c4.4,0,8,3.6,8,8V650.8
		C385.44,655.2,381.84,658.8,377.44,658.8z"/>
	<path class="st4" d="M199.66,658.8h-58.99c-4.4,0-8-3.6-8-8v-0.15c0-4.4,3.6-8,8-8h58.99c4.4,0,8,3.6,8,8v0.15
		C207.66,655.2,204.06,658.8,199.66,658.8z"/>
	<path class="st4" d="M288.55,658.8h-58.99c-4.4,0-8-3.6-8-8v-0.15c0-4.4,3.6-8,8-8h58.99c4.4,0,8,3.6,8,8v0.15
		C296.55,655.2,292.95,658.8,288.55,658.8z"/>
	<path class="st4" d="M377.44,658.8h-58.99c-4.4,0-8-3.6-8-8v-0.15c0-4.4,3.6-8,8-8h58.99c4.4,0,8,3.6,8,8v0.15
		C385.44,655.2,381.84,658.8,377.44,658.8z"/>
	<path class="st5" d="M196.8,632.97h-53.27c-2.2,0-4-1.8-4-4v-43.14c0-2.2,1.8-4,4-4h53.27c2.2,0,4,1.8,4,4v43.14
		C200.8,631.17,199,632.97,196.8,632.97z"/>
	<path class="st6" d="M285.69,632.97h-53.27c-2.2,0-4-1.8-4-4v-43.14c0-2.2,1.8-4,4-4h53.27c2.2,0,4,1.8,4,4v43.14
		C289.69,631.17,287.89,632.97,285.69,632.97z"/>
	<path class="st7" d="M374.58,632.97h-53.27c-2.2,0-4-1.8-4-4v-43.14c0-2.2,1.8-4,4-4h53.27c2.2,0,4,1.8,4,4v43.14
		C378.58,631.17,376.78,632.97,374.58,632.97z"/>
	<circle class="st7" cx="347.47" cy="554.57" r="22.13"/>
	<path class="st8" d="M337,546.24c-0.12-1.39-0.29-2.66-0.32-3.93c-0.1-4.64,4.63-7.73,8.81-5.73c0.78,0.37,1.32,0.35,2.07-0.01
		c2.51-1.19,5.08-0.74,7.1,1.22c0.49,0.48,0.92,0.63,1.62,0.57c3.67-0.29,6.42,2.39,6.24,6.1c-0.04,0.84,0.15,1.19,0.93,1.56
		c3.21,1.51,4.05,5.9,1.8,9.06c-0.49,0.68-1.05,1.32-1.62,1.94c-1.5,1.61-2.72,3.38-3.44,5.47c-0.1,0.29-0.19,0.6-0.35,0.86
		c-1.25,1.99-2.45,3.94-2.92,6.36c-0.35,1.79-2.02,2.78-3.77,3.22c-3.41,0.85-6.86,0.87-10.27,0c-2.62-0.66-4.2-2.66-4.41-5.35
		c-0.03-0.44-0.06-0.83-0.34-1.24c-2.47-3.46-4.94-6.9-8.07-9.84c-2.43-2.28-2.38-6.12-0.13-8.4
		C331.83,546.16,334.2,545.57,337,546.24z M350.87,552.52c-0.44-0.83-0.24-1.28-0.12-1.74c0.7-2.65,1.41-5.3,2.08-7.96
		c0.4-1.61-0.45-3.01-1.98-3.37c-1.48-0.35-2.88,0.57-3.23,2.18c-0.22,0.99-0.39,2-0.5,3.01c-0.23,2.26-0.4,4.53-0.6,6.86
		c-0.66-0.39-0.45-0.94-0.47-1.39c-0.11-2.53-0.17-5.06-0.28-7.59c-0.08-1.86-1.32-3.13-2.96-3.1c-1.72,0.04-2.76,1.28-2.65,3.25
		c0.16,2.93,1,5.76,1.48,8.64c0.15,0.88,0.72,2.04-0.25,2.56c-1.09,0.59-1.67-0.64-2.32-1.3c-0.84-0.85-1.54-1.84-2.52-2.55
		c-1.3-0.93-3.07-0.7-4.2,0.54c-0.93,1.02-0.83,2.5,0.28,3.72c0.42,0.46,0.86,0.89,1.32,1.32c2.17,2.05,4.13,4.26,5.58,6.91
		c0.6,1.1,1.45,2.03,2.54,2.68c0.56,0.33,0.61,0.66,0.25,1.14c-1.04,1.4,0.11,2.95,1.45,3.27c2.81,0.65,5.64,0.71,8.43-0.03
		c1.58-0.42,2.07-1.36,1.61-2.9c-0.18-0.61-0.13-1.01,0.36-1.49c1.04-1.02,2.09-2.08,2.59-3.5c1.06-3.03,2.9-5.56,5.08-7.86
		c0.49-0.52,0.89-1.08,1.06-1.81c0.26-1.12,0.23-2.13-0.87-2.8c-0.96-0.59-2.26-0.34-3.11,0.63c-1.08,1.24-2.09,2.53-3.15,3.79
		c-0.23,0.27-0.34,0.74-0.95,0.62c0.08-0.73,0.46-1.33,0.75-1.96c1.07-2.33,2.46-4.51,3.3-6.94c0.59-1.69,0.04-2.96-1.31-3.4
		c-1.44-0.47-2.94,0.28-3.51,1.76c-0.37,0.95-0.71,1.91-1.05,2.87C352.31,548.44,351.65,550.33,350.87,552.52z"/>
	<path class="st9" d="M350.87,552.52c0.77-2.19,1.44-4.08,2.11-5.97c0.34-0.96,0.69-1.92,1.05-2.87c0.57-1.48,2.08-2.23,3.51-1.76
		c1.35,0.44,1.89,1.71,1.31,3.4c-0.84,2.43-2.23,4.62-3.3,6.94c-0.29,0.63-0.66,1.23-0.75,1.96c0.61,0.12,0.73-0.34,0.95-0.62
		c1.06-1.26,2.07-2.55,3.15-3.79c0.84-0.97,2.15-1.21,3.11-0.63c1.1,0.67,1.13,1.68,0.87,2.8c-0.17,0.73-0.57,1.29-1.06,1.81
		c-2.18,2.31-4.01,4.83-5.08,7.86c-0.5,1.42-1.55,2.48-2.59,3.5c-0.48,0.48-0.54,0.88-0.36,1.49c0.46,1.54-0.03,2.48-1.61,2.9
		c-2.8,0.74-5.62,0.68-8.43,0.03c-1.34-0.31-2.49-1.87-1.45-3.27c0.36-0.48,0.31-0.81-0.25-1.14c-1.09-0.64-1.94-1.58-2.54-2.68
		c-1.44-2.65-3.41-4.86-5.58-6.91c-0.45-0.43-0.9-0.86-1.32-1.32c-1.11-1.22-1.21-2.7-0.28-3.72c1.13-1.24,2.9-1.47,4.2-0.54
		c0.99,0.71,1.68,1.7,2.52,2.55c0.65,0.66,1.23,1.89,2.32,1.3c0.97-0.52,0.39-1.68,0.25-2.56c-0.49-2.88-1.32-5.7-1.48-8.64
		c-0.11-1.97,0.93-3.21,2.65-3.25c1.64-0.04,2.88,1.24,2.96,3.1c0.11,2.53,0.16,5.06,0.28,7.59c0.02,0.44-0.19,1,0.47,1.39
		c0.2-2.33,0.37-4.6,0.6-6.86c0.1-1.01,0.28-2.02,0.5-3.01c0.36-1.61,1.75-2.53,3.23-2.18c1.53,0.36,2.38,1.76,1.98,3.37
		c-0.67,2.66-1.38,5.31-2.08,7.96C350.63,551.24,350.43,551.69,350.87,552.52z M346.02,552.7c-0.27,0-0.53,0-0.8,0
		c-0.69,0.01-1.49,0.01-1.5,0.91c-0.01,0.97,0.84,0.82,1.5,0.81c2.94-0.06,5.71,0.65,8.31,2.01c0.59,0.31,1.19,0.63,1.58-0.15
		c0.39-0.77-0.24-1.11-0.81-1.4C351.7,553.53,348.95,552.77,346.02,552.7z M347.32,561.94c-0.06-1.67-2.78-4.75-4.48-5.1
		c-0.48-0.1-0.8,0.1-0.98,0.47c-0.26,0.54,0.02,0.93,0.49,1.21c1.52,0.89,2.87,1.91,3.27,3.78c0.1,0.45,0.47,0.77,1,0.63
		C347.12,562.8,347.34,562.44,347.32,561.94z M348.53,567.23c0-0.03,0-0.07,0-0.1c0.84,0,1.68,0,2.52,0c0.64,0,1.19-0.16,1.14-0.94
		c-0.05-0.72-0.61-0.74-1.18-0.74c-1.9,0-3.8,0.14-5.69-0.21c-0.56-0.1-1.1-0.01-1.19,0.71c-0.08,0.69,0.36,0.95,0.96,1
		C346.24,567.06,347.38,567.14,348.53,567.23z"/>
	<path class="st8" d="M346.02,552.7c2.93,0.07,5.68,0.83,8.28,2.17c0.57,0.29,1.2,0.63,0.81,1.4c-0.39,0.78-0.99,0.46-1.58,0.15
		c-2.6-1.35-5.36-2.06-8.31-2.01c-0.66,0.01-1.51,0.16-1.5-0.81c0.01-0.89,0.81-0.9,1.5-0.91
		C345.49,552.7,345.76,552.7,346.02,552.7z"/>
	<path class="st8" d="M347.32,561.94c0.01,0.5-0.21,0.86-0.69,0.99c-0.53,0.15-0.91-0.18-1-0.63c-0.4-1.88-1.75-2.9-3.27-3.78
		c-0.48-0.28-0.75-0.67-0.49-1.21c0.18-0.37,0.5-0.57,0.98-0.47C344.54,557.19,347.26,560.27,347.32,561.94z"/>
	<path class="st8" d="M348.53,567.23c-1.14-0.09-2.29-0.17-3.43-0.27c-0.59-0.05-1.04-0.31-0.96-1c0.08-0.72,0.62-0.81,1.19-0.71
		c1.89,0.35,3.79,0.21,5.69,0.21c0.57,0,1.13,0.01,1.18,0.74c0.05,0.78-0.49,0.94-1.14,0.94c-0.84,0-1.68,0-2.52,0
		C348.53,567.16,348.53,567.2,348.53,567.23z"/>
	<g>
		<path class="st10" d="M185.29,618.72c1.37,1.37,1.6,2.53,1.6,3.37c0,2.3-2.3,4.74-4.48,4.74c-0.93,0-2.3-0.31-3.54-1.51
			l-1.73-1.64c-2.04,0.71-3.59,1.24-6.96,1.24c-5.54,0-9.53-2.66-11.39-4.52l-2.48-2.48c-3.94-3.94-4.65-9.39-4.65-13.03
			c0-10.95,6.6-17.37,16.53-17.37c5.5,0,9.48,2.61,11.34,4.48l2.48,2.48c3.81,3.81,4.65,8.95,4.65,12.85
			c0,3.59-0.71,7.18-2.44,10.32L185.29,618.72z M170.4,599.67c-5.58,0-5.58,6.07-5.58,7.89c0,0.62,0,3.1,0.89,4.83
			c0.18,0.09,0.4,0.13,0.62,0.22c-0.18-0.58-0.22-0.8-0.22-1.06c0-2.39,2.17-4.87,4.79-4.87c0.67,0,1.29,0.18,2.44,0.84
			c0.09-0.93,0.18-1.95,0.18-2.97c0-0.84-0.04-2.7-0.89-4.48C171.87,599.75,171.11,599.67,170.4,599.67z"/>
	</g>
	<g>
		<path class="st10" d="M252.49,592.09c0.44-2.48,2.66-4.56,6.11-4.56c1.64,0,3.15,0.8,3.85,1.51l2.48,2.48
			c0.89,0.89,1.46,2.26,1.64,3.23l0.49-3.32c0.13-1.02,1.02-3.9,5.14-3.9c1.51,0,3.06,0.71,3.9,1.55l2.48,2.48
			c0.89,0.89,1.33,2.08,1.33,3.24c0,0.62-0.09,1.06-0.18,1.59l-4.39,23.22c-0.84,4.52-4.79,5.32-6.47,5.32
			c-2.13,0-3.81-1.33-4.3-1.82l-2.48-2.48c-0.75-0.75-1.42-1.91-1.59-2.97l-0.75-4.25l-1.24,6.74c-0.49,2.7-3.01,4.79-6.2,4.79
			c-1.6,0-3.37-0.89-4.43-1.95l-2.48-2.48c-1.06-1.06-1.51-2.08-1.73-3.37l-4.39-23.22c-0.13-0.67-0.18-1.11-0.18-1.55
			c0-2.84,2.35-4.83,5.54-4.83c1.24,0,2.66,0.44,3.5,1.29l2.48,2.48c1.11,1.11,1.29,2.39,1.42,3.23L252.49,592.09z"/>
	</g>
	<g>
		<path class="st10" d="M358.77,603.88c0.89,0.89,1.2,2.13,1.2,3.46c0,4.56-3.63,4.7-4.79,4.74c1.11,0.18,2.17,0.35,3.06,1.24
			l2.48,2.48c1.06,1.06,1.33,2.44,1.33,3.54c0,2.26-1.06,4.79-4.88,4.79H342.5c-2.44,0-4.03-0.53-5.23-1.73l-2.48-2.48
			c-0.71-0.71-1.77-1.99-1.77-5.27v-19.32c0-5.23,2.88-7,7-7h13.83c1.24,0,2.61,0.31,3.54,1.24l2.48,2.48
			c0.98,0.98,1.29,2.3,1.29,3.54c0,2.04-0.93,4.79-4.83,4.79h-1.55c0.44,0.18,0.84,0.35,1.51,1.02L358.77,603.88z"/>
	</g>
	<g>
		<path class="st11" d="M181.44,617.39l-2.08-1.95c3.06-3.81,3.06-9.39,3.06-10.55c0-11.3-7.27-15.6-14.49-15.6
			c-4.87,0-14.49,2.22-14.49,15.95c0,10.37,6.56,15.42,14.49,15.42c3.81,0,6.16-1.15,7.05-1.6l2.61,2.44
			c0.31,0.31,1.15,1.06,2.26,1.06c1.33,0,2.79-1.68,2.79-2.97C182.63,618.68,181.92,617.83,181.44,617.39z M174.21,610.66
			l-1.24-1.15c-0.62-0.58-1.37-1.06-2.22-1.06c-1.42,0-2.88,1.68-2.88,3.01c0,0.89,0.8,1.73,1.24,2.17l0.75,0.71
			c-0.4,0.09-1.02,0.22-1.95,0.22c-7.36,0-7.36-8.02-7.36-9.57s0-9.57,7.36-9.57c7.31,0,7.36,8.02,7.36,9.57
			C175.28,606.98,175.06,608.97,174.21,610.66z"/>
	</g>
	<path class="st12" d="M266.09,609.72c-0.04,0.27-0.13,0.53-0.35,0.53s-0.31-0.31-0.35-0.53l-3.06-17.28
		c-0.4-2.35-2.26-3.15-4.08-3.15c-2.53,0-3.81,1.86-4.03,3.1l-3.06,17.33c-0.04,0.22-0.13,0.53-0.35,0.53
		c-0.27,0-0.31-0.31-0.35-0.53l-2.75-18.04c-0.13-0.93-0.93-2.39-3.01-2.39c-2.13,0-3.81,1.11-3.81,3.01c0,0.53,0.09,0.93,0.13,1.24
		l4.39,23.26c0.44,2.3,2.53,3.86,4.56,3.86c2.13,0,3.99-1.33,4.34-3.32l3.68-20.52c0.04-0.13,0.13-0.27,0.31-0.27
		c0.13,0,0.22,0.13,0.27,0.27l3.68,20.52c0.22,1.11,1.55,3.32,4.39,3.32c1.59,0,3.99-1.06,4.52-3.86l4.39-23.26
		c0.09-0.35,0.13-0.89,0.13-1.29c0-1.86-1.82-2.97-3.59-2.97c-1.64,0-2.97,0.62-3.24,2.39L266.09,609.72z"/>
	<path class="st11" d="M341.75,601.93v-4.79c0-0.62,0.4-1.02,1.02-1.02h11.08c1.99,0,3.06-0.89,3.06-3.06
		c0-2.97-2.26-2.97-3.06-2.97h-13.83c-3.46,0-5.23,1.29-5.23,5.23v19.32c0,3.77,1.55,5.23,5.23,5.23h14.67c1.64,0,3.1-0.53,3.1-3.01
		c0-2.08-1.06-3.01-3.1-3.01h-11.92c-0.62,0-1.02-0.35-1.02-1.02v-5.01h10.95c2.66,0,3.01-1.55,3.01-2.97
		c0-1.99-0.97-2.92-3.01-2.92H341.75z"/>
	<g>
		<path class="st10" d="M154.93,644.99c0.65,0.45,1.04,1.2,1.04,1.5c0,0.06,0,0.48-0.76,0.6l0.96,0.71
			c0.37,0.29,0.39,0.66,0.39,0.87c0,1.23-0.96,3.65-3,5.38c-3.13,2.7-8.25,3.12-8.42,3.12c-0.39,0-0.69-0.11-0.94-0.3l-1.88-1.44
			c-0.35-0.27-0.45-0.61-0.45-0.92c0-0.75,0.39-0.78,2.06-1.08c3.92-0.72,5.64-1.95,6.86-3.91h-2.63c-1.04,1-2.7,2.34-3.82,2.34
			c-0.14,0-0.57,0-1-0.33l-1.86-1.42c-0.27-0.21-0.51-0.48-0.51-0.83c0-0.43,0.14-0.51,1.33-1.21c1.39-0.83,2.33-1.96,3.15-3.15
			c0.25-0.34,0.53-0.72,1.39-0.72c0.55,0,1.12,0.15,1.39,0.38l1.84,1.42h2.76c0.18,0,0.25,0,0.37,0.02
			c-0.1-0.15-0.47-0.81-0.55-0.93c-0.08-0.1-0.33-0.52-0.33-0.61c0-0.38,0.47-0.54,0.82-0.54c0.2,0,0.31,0.04,0.43,0.13
			L154.93,644.99z M146.27,648.08c-0.8,0.78-2.51,2.17-3.53,2.33l1.04,0.79c0.14,0.1,0.31,0.18,0.55,0.18
			c0.84,0,2.51-1.35,3.53-2.34h3.17c0.12-0.25,0.27-0.64,0.27-0.78c0-0.08-0.04-0.18-0.25-0.18L146.27,648.08L146.27,648.08z
			 M144.53,656.47c0.2,0.15,0.33,0.22,0.61,0.22c0.06,0,4.98-0.39,7.95-2.95c1.92-1.65,2.84-3.96,2.84-5.07
			c0-0.25-0.04-0.39-0.22-0.52l-1.04-0.81c-0.06,1.17-1.08,4.29-4.41,6.3c-2.39,1.44-5.96,2.04-6.7,2.08L144.53,656.47z M149.19,646
			l-0.76-0.6c-0.1,0.2-0.2,0.34-0.35,0.6H149.19z M154.33,645.08c0.2,0.38,0.22,0.56,0.22,0.63c0,0.29-0.33,0.41-0.45,0.45
			l0.43,0.33c0.16,0.12,0.23,0.2,0.47,0.2c0.1,0,0.43-0.03,0.43-0.29c0-0.22-0.41-0.83-0.65-0.99L154.33,645.08z M155.89,645.53
			c-0.06-0.04-1-1.47-1-1.67c0-0.38,0.47-0.54,0.8-0.54c0.22,0,0.35,0.06,0.45,0.13l1.35,0.93c0.65,0.45,1.02,1.2,1.02,1.5
			c0,0.38-0.45,0.6-0.94,0.6c-0.39,0-0.55-0.1-0.82-0.31L155.89,645.53z M156.89,644.48c0.2,0.38,0.22,0.55,0.22,0.63
			c0,0.29-0.33,0.39-0.45,0.43l0.41,0.35c0.16,0.12,0.25,0.19,0.49,0.19c0.1,0,0.43-0.03,0.43-0.28c0-0.23-0.41-0.83-0.65-0.99
			L156.89,644.48z"/>
		<path class="st10" d="M195.04,648.83c0.86,0,1.06,0.15,1.41,0.42l1.67,1.26c0.16,0.11,0.43,0.36,0.43,0.92
			c0,1.17-1.08,1.19-1.63,1.19H185.2c-0.65,0-0.98-0.08-1.25-0.29l-1.84-1.42c-0.35-0.29-0.41-0.66-0.41-0.88
			c0-1.17,1.08-1.19,1.63-1.19h11.71V648.83z M183.34,651.17l1,0.77c0.18,0.13,0.29,0.19,0.86,0.19h11.72c0.65,0,1-0.04,1-0.73
			c0-0.33-0.14-0.45-0.31-0.58l-0.94-0.72c-0.08,0.87-0.65,1.08-1.63,1.08h-11.7V651.17z"/>
	</g>
	<g>
		<path class="st10" d="M327.78,646.43c0.29,0.22,0.31,0.46,0.31,0.71c0,0.55-0.51,4.78-2.57,7.92c-0.96,1.47-1.47,1.74-2.19,1.74
			c-0.47,0-0.94-0.25-1.18-0.43l-1.88-1.44c-0.37-0.29-0.47-0.51-0.47-0.79c0-0.32,0.12-0.51,0.43-0.87
			c2.23-2.56,2.65-5.16,3.06-7.62c0.06-0.38,0.2-0.98,1.27-0.98c0.41,0,1.02,0.09,1.33,0.33L327.78,646.43z M326.22,645.91
			c-0.27,2.62-1.19,5.61-2.57,7.71c-1.04,1.58-1.51,1.65-1.94,1.72l0.9,0.67c0.16,0.12,0.45,0.3,0.74,0.3
			c0.33,0,0.67-0.06,1.61-1.47c2.04-3.09,2.53-7.38,2.53-7.74c0-0.13-0.02-0.24-0.14-0.33L326.22,645.91z M336.38,645.23
			c0.43,0.33,0.55,0.74,0.55,1.04c0,0.81-0.86,1.46-1.88,1.46c-0.78,0-1.29-0.38-1.8-0.77c0.08,0.36,0.33,1.92,0.41,2.24
			c0.71,3.04,2.02,4.57,2.76,5.4c0.31,0.33,0.45,0.54,0.45,0.88c0,0.66-0.69,1.32-1.78,1.32c-0.39,0-0.75-0.13-1.06-0.36l-1.82-1.38
			c-2.06-1.54-3.76-7.11-3.76-9.36c0-0.74,0.65-1.04,1.67-1.04c0.31,0,0.65,0.08,0.9,0.25l0.76,0.57c-0.02-0.08-0.04-0.17-0.04-0.3
			c0-0.79,0.84-1.46,1.9-1.46c0.39,0,0.9,0.09,1.37,0.45L336.38,645.23z M331.43,645.91c0.39,2.37,0.82,4.81,3,7.35
			c0.31,0.36,0.43,0.55,0.43,0.88c0,0.63-0.84,1.1-1.39,1.19l0.94,0.73c0.31,0.24,0.55,0.25,0.71,0.25c0.67,0,1.14-0.4,1.14-0.84
			c0-0.19-0.06-0.33-0.35-0.63c-2.35-2.47-2.88-5.59-3.12-6.88c-0.08-0.45-0.2-1.17-0.31-1.26L331.43,645.91z M332.86,645.19
			c0,0.33,0.35,0.6,0.78,0.6c0.41,0,0.76-0.25,0.76-0.6c0-0.33-0.35-0.58-0.76-0.58C333.21,644.6,332.86,644.86,332.86,645.19z
			 M335.56,645.16c-0.08,0.95-0.88,1.47-1.96,1.5l0.41,0.32c0.37,0.28,0.61,0.33,0.96,0.33c0.98,0,1.41-0.57,1.41-1.05
			c0-0.46-0.31-0.71-0.41-0.78L335.56,645.16z"/>
		<path class="st10" d="M374.35,648.83c0.86,0,1.06,0.15,1.41,0.42l1.67,1.26c0.16,0.11,0.43,0.36,0.43,0.92
			c0,1.17-1.08,1.19-1.63,1.19h-11.72c-0.65,0-0.98-0.08-1.25-0.29l-1.84-1.42c-0.35-0.29-0.41-0.66-0.41-0.88
			c0-1.17,1.08-1.19,1.63-1.19h11.71V648.83z M362.65,651.17l1,0.77c0.18,0.13,0.29,0.19,0.86,0.19h11.72c0.65,0,1-0.04,1-0.73
			c0-0.33-0.14-0.45-0.31-0.58l-0.94-0.72c-0.08,0.87-0.65,1.08-1.63,1.08h-11.7V651.17z"/>
	</g>
	<g>
		<path class="st10" d="M231.6,655.39c-0.25-0.18-0.51-0.57-0.51-1.02c0-0.66,0.45-0.75,1.84-1.02c0.57-0.1,2.17-0.4,3.1-1.32h-2.64
			c-0.37,0-0.73-0.04-0.98-0.24l-1.88-1.44c-0.33-0.25-0.37-0.64-0.37-0.81c0-1.05,1-1.05,1.35-1.05h1.78l-1.74-1.35
			c-0.29-0.24-0.37-0.56-0.37-0.83c0-0.9,0.57-0.93,2.08-0.96c1.57-0.04,4.55-0.2,6.76-0.54c0.35-0.06,1.8-0.29,2.04-0.29
			c0.27,0,0.61,0.01,0.92,0.25l1.88,1.44c0.23,0.18,0.43,0.49,0.43,0.88c0,0.84-0.43,0.96-3.33,1.26l-0.43,0.04v0.08h2.17
			c0.39,0,0.74,0.04,0.98,0.22l1.88,1.44c0.35,0.27,0.37,0.66,0.37,0.83c0,1.05-1.02,1.05-1.35,1.05h-4.11
			c-0.16,1.06-0.43,2.94-3.29,4.15c-1.61,0.69-3.33,0.88-3.62,0.88c-0.37,0-0.78-0.04-1.06-0.25L231.6,655.39z M231.72,650.59
			l1.04,0.79c0.18,0.13,0.35,0.17,0.63,0.17h2.98c0.16-0.36,0.22-0.62,0.25-0.96L231.72,650.59L231.72,650.59z M236.68,648.49v-1.25
			c-1.67,0.12-2.33,0.15-3.9,0.17l1.41,1.08H236.68z M239.58,650.59c-0.2,1.56-0.88,3.15-3.29,4.16c-1.14,0.46-2.51,0.81-3.47,0.88
			l1.12,0.85c0.14,0.11,0.43,0.11,0.49,0.11c0.55,0,3.06-0.33,4.7-1.51c1.31-0.95,1.63-2.16,1.74-3.53h4.7c0.25,0,0.73,0,0.73-0.51
			c0-0.15-0.02-0.42-0.18-0.54l-1.08-0.83c-0.12,0.66-0.53,0.92-1.35,0.92L239.58,650.59L239.58,650.59z M240.89,648.49v-0.5
			l0.98-0.09c0.37-0.03,1.33-0.15,2.1-0.27c0.47-0.07,0.69-0.19,0.69-0.52c0-0.24-0.12-0.45-0.25-0.55l-1-0.77
			c-0.08,0.75-0.37,0.84-3.76,1.19v1.51L240.89,648.49L240.89,648.49z"/>
		<path class="st10" d="M253.24,648.59c-0.22-0.17-0.47-0.34-0.47-0.82c0-0.99,1.08-0.99,1.31-0.99h7.56c0.9,0,1.27,0.17,1.59,0.41
			l1.8,1.38c0.49,0.38,0.53,0.81,0.53,1.21v5.44c0,1.29-0.9,1.56-2.04,1.56h-7.66c-0.37,0-0.73-0.08-1-0.27l-1.88-1.42
			c-0.31-0.22-0.35-0.55-0.35-0.75c0-0.25,0.1-1,1.35-1h1.41l-2.08-1.58c-0.37-0.27-0.35-0.67-0.35-0.75c0-0.33,0.1-0.97,1.27-0.97
			h0.9L253.24,648.59z M263.68,653.78c0,1.29-0.9,1.56-2.04,1.56h-7.43l1,0.76c0.18,0.14,0.27,0.2,0.65,0.2h7.66
			c1.14,0,1.41-0.31,1.41-1.08v-5.44c0-0.25,0-0.62-0.33-0.87l-0.92-0.71V653.78z M260.94,650.03v-0.97c0-0.18-0.14-0.3-0.39-0.3
			h-6.21l1.67,1.28h4.93V650.03z M260.55,653.33c0.24,0,0.39-0.11,0.39-0.3v-1.05h-6.43l1.76,1.35H260.55z"/>
		<path class="st10" d="M282.01,645.95l2.19-0.1c0.63-0.03,0.92,0.09,1.17,0.28l1.82,1.38c0.33,0.24,0.43,0.57,0.43,0.88
			c0,0.12,0,0.93-1.37,1l-3.8,0.19l0.02,0.32l2.67-0.12c0.35-0.01,0.78-0.01,1.17,0.29l1.86,1.42c0.27,0.21,0.39,0.58,0.39,0.86
			c0,0.12,0,0.94-1.39,1l-4.39,0.21l0.2,2.44c0.04,0.53,0.06,1.25-1.59,1.25c-0.78,0-1.02-0.21-1.31-0.42l-1.72-1.3
			c-0.18-0.13-0.29-0.32-0.33-0.83l-0.08-0.92l-2.8,0.12c-0.59,0.03-0.9-0.08-1.16-0.27l-1.88-1.44c-0.39-0.3-0.39-0.75-0.39-0.83
			c0-0.43,0.24-0.99,1.37-1.04l4.57-0.21l-0.04-0.3l-2.06,0.11c-0.43,0.01-0.82-0.02-1.16-0.27l-1.88-1.44
			c-0.29-0.23-0.39-0.54-0.39-0.79c0-0.87,0.84-1.04,1.37-1.07l3.82-0.18l-0.06-0.83c-0.04-0.6,0.08-1.21,1.57-1.21
			c0.31,0,0.84,0.03,1.14,0.25L282.01,645.95z M277.84,652.27l-4.49,0.21l1,0.77c0.2,0.15,0.29,0.21,0.76,0.19l2.8-0.12
			L277.84,652.27z M277.5,648.31l-3.74,0.18l0.96,0.73c0.27,0.21,0.33,0.27,0.8,0.24l2.06-0.1L277.5,648.31z M280.91,652.13
			l0.2,2.45c0.04,0.55,0.04,1.2-1.49,1.25l0.84,0.63c0.25,0.19,0.43,0.33,1.04,0.33c0.92,0,0.9-0.35,0.86-0.74l-0.24-2.92l5.02-0.24
			c0.24-0.01,0.8-0.03,0.8-0.54c0-0.15-0.06-0.39-0.22-0.51l-1.06-0.81c-0.14,0.84-1.08,0.88-1.37,0.9L280.91,652.13z M280.4,646.04
			l0.96-0.06l-1.04-0.75L280.4,646.04z M280.58,648.16l0.16,1.83l1.12-0.04l-0.06-0.79l4.43-0.23c0.25-0.01,0.78-0.03,0.78-0.54
			c0-0.33-0.16-0.45-0.29-0.55l-0.98-0.74c-0.14,0.8-0.98,0.86-1.35,0.87L280.58,648.16z"/>
	</g>
	<circle class="st6" cx="258.76" cy="550.59" r="28.29"/>
	<g>
		<path class="st8" d="M259.5,574.87c-2.35,0.05-4.67-0.15-6.95-0.76c-2.99-0.8-4.86-2.78-5.19-5.84c-0.1-0.93-0.41-1.63-0.97-2.31
			c-3.78-4.6-4.32-9.72-2.37-15.2c0.34-0.96,0.38-1.84,0.11-2.81c-0.98-3.58-2.1-7.13-2.8-10.76c-0.64-3.33,0.4-6.29,3.39-8.21
			c3.12-2,6.44-2.23,9.66-0.35c1.24,0.72,1.91,0.95,3.17-0.08c2.98-2.42,7.02-2.35,10.39-0.16c3.12,2.03,4.36,5.24,3.44,9.17
			c-0.45,1.93-1.04,3.82-1.64,5.71c-0.2,0.63-0.3,1.08,0.47,1.29c5.73,1.53,7.39,7.58,6.26,13.06c-0.75,3.63-2.15,6.99-4.85,9.67
			c-0.36,0.35-0.5,0.71-0.52,1.2c-0.11,2.38-1.52,3.87-3.42,5.07c-1.88,1.18-4.01,1.02-6.05,1.29
			C260.94,574.95,260.21,574.87,259.5,574.87z M252.89,565.33c-0.3,0.43-0.55,0.74-0.76,1.07c-0.98,1.54-0.67,2.82,1.08,3.37
			c3.97,1.24,8.03,1.22,12.04,0.16c1.6-0.42,1.99-1.58,1.25-3.1c-0.31-0.64-0.24-0.86,0.37-1.27c4.12-2.74,5.53-6.91,5.63-11.56
			c0.07-3.15-1.19-4.63-4.17-5.6c-1.47-0.48-2.99-0.79-4.55-1.19c1.24-3.54,2.6-6.99,3.46-10.6c0.48-2.01-0.04-3.53-1.55-4.58
			c-3.02-2.11-6.52-0.81-7.25,2.8c-0.73,3.62-1.27,7.27-1.89,10.91c2.21,0.04,3.03,0.38,4.03,1.63c1.43,1.79,1.77,5.75-0.79,7.73
			c-1.29,1-1.11,2.29-0.71,3.6c0.32,1.06,1.25,1.04,2.13,1.06c1.01,0.02,0.87-0.76,0.98-1.39c0.41-2.26,1.18-4.41,2.23-6.45
			c0.34-0.66,0.74-1.35,1.62-0.93c0.96,0.45,0.65,1.19,0.28,1.92c-0.97,1.91-1.67,3.91-2.08,6.02c-0.16,0.83,0.16,1.13,0.84,1.26
			c0.67,0.13,1.27,0.03,1.83-0.48c1.02-0.93,1.63-2.06,1.97-3.37c0.15-0.59,0.55-0.82,1.14-0.76c0.64,0.06,0.87,0.5,0.9,1.04
			c0.18,2.65-3.35,6.34-5.81,5.65c-2.11-0.59-4.2-0.06-6.29-0.73c0.05,0.35,0.05,0.56,0.11,0.75c0.28,0.88,0.5,1.86-0.65,2.14
			c-1.14,0.28-1.16-0.74-1.37-1.55c-0.47-1.87-1.31-3.53-3.13-4.47c-0.62-0.32-1.42-0.55-1.34-1.45c0.07-0.92,0.93-0.92,1.58-1.16
			c1.67-0.62,3.35-1.23,4.62-2.56c1.09-1.13,1.23-3.28,0.31-4.5c-1.04-1.38-2.24-0.78-3.41-0.25c-1.71,0.77-3.35,1.77-5.12,2.33
			c-2.06,0.64-2.75,2.01-3.09,3.95C246.54,559.18,248.88,563.87,252.89,565.33z M256.1,545.89c-0.4-0.62-0.57-1.33-0.68-2.09
			c-0.46-3.06-0.97-6.11-1.49-9.16c-0.25-1.45-1.17-2.46-2.54-2.76c-4.19-0.92-6.76,1.87-5.74,5.48c1.01,3.61,1.99,7.22,2.91,10.85
			c0.26,1.02,0.66,0.93,1.43,0.55C251.98,547.78,254.01,546.86,256.1,545.89z"/>
		<path class="st12" d="M252.89,565.33c-4.01-1.47-6.35-6.15-5.57-10.57c0.34-1.94,1.03-3.3,3.09-3.95
			c1.78-0.55,3.41-1.55,5.12-2.33c1.17-0.53,2.38-1.13,3.41,0.25c0.92,1.23,0.78,3.37-0.31,4.5c-1.27,1.33-2.95,1.94-4.62,2.56
			c-0.65,0.24-1.51,0.24-1.58,1.16c-0.07,0.9,0.72,1.13,1.34,1.45c1.82,0.95,2.67,2.6,3.13,4.47c0.2,0.81,0.22,1.83,1.37,1.55
			s0.93-1.26,0.65-2.14c-0.06-0.19-0.06-0.39-0.11-0.75c2.1,0.67,4.19,0.14,6.29,0.73c2.46,0.69,5.99-3,5.81-5.65
			c-0.04-0.54-0.27-0.98-0.9-1.04c-0.59-0.06-0.99,0.17-1.14,0.76c-0.33,1.31-0.95,2.44-1.97,3.37c-0.56,0.51-1.15,0.61-1.83,0.48
			s-1-0.43-0.84-1.26c0.41-2.11,1.11-4.11,2.08-6.02c0.37-0.73,0.68-1.47-0.28-1.92c-0.88-0.42-1.28,0.27-1.62,0.93
			c-1.05,2.04-1.82,4.18-2.23,6.45c-0.11,0.63,0.03,1.41-0.98,1.39c-0.88-0.02-1.81-0.01-2.13-1.06c-0.39-1.3-0.57-2.6,0.71-3.6
			c2.56-1.98,2.22-5.94,0.79-7.73c-1-1.25-1.82-1.59-4.03-1.63c0.62-3.64,1.16-7.29,1.89-10.91c0.73-3.61,4.23-4.91,7.25-2.8
			c1.51,1.05,2.02,2.57,1.55,4.58c-0.86,3.61-2.22,7.06-3.46,10.6c1.56,0.4,3.08,0.71,4.55,1.19c2.97,0.98,4.23,2.46,4.17,5.6
			c-0.1,4.65-1.51,8.82-5.63,11.56c-0.61,0.41-0.69,0.63-0.37,1.27c0.74,1.52,0.35,2.68-1.25,3.1c-4.01,1.06-8.07,1.07-12.04-0.16
			c-1.75-0.54-2.06-1.83-1.08-3.37C252.34,566.07,252.59,565.76,252.89,565.33z M259.77,567.55c0.97,0.03,1.92-0.06,2.88-0.23
			c0.7-0.12,1.19-0.38,1.1-1.15c-0.1-0.83-0.67-1.05-1.43-0.94c-2.18,0.3-4.35,0.34-6.48-0.34c-0.68-0.22-1.26-0.07-1.5,0.61
			c-0.28,0.8,0.2,1.23,0.93,1.45C256.74,567.39,258.24,567.6,259.77,567.55z"/>
		<path class="st12" d="M256.1,545.89c-2.09,0.98-4.12,1.89-6.11,2.88c-0.76,0.38-1.17,0.46-1.43-0.55
			c-0.92-3.63-1.9-7.25-2.91-10.85c-1.01-3.61,1.55-6.4,5.74-5.48c1.37,0.3,2.29,1.31,2.54,2.76c0.52,3.05,1.03,6.1,1.49,9.16
			C255.53,544.55,255.7,545.26,256.1,545.89z"/>
		<path class="st8" d="M259.77,567.56c-1.54,0.05-3.04-0.17-4.5-0.61c-0.72-0.22-1.21-0.65-0.93-1.45c0.24-0.69,0.83-0.83,1.5-0.61
			c2.13,0.68,4.3,0.65,6.48,0.34c0.76-0.11,1.33,0.11,1.43,0.94c0.09,0.77-0.4,1.03-1.1,1.15
			C261.7,567.49,260.74,567.58,259.77,567.56z"/>
	</g>
	<circle class="st5" cx="169.69" cy="554.57" r="22.13"/>
	<g>
		<path class="st8" d="M173.33,538.14c1.66-0.02,3.3,0.05,4.88,0.66c3.15,1.22,4.76,3.62,5.22,6.86c0.15,1.06,0.4,1.79,1.54,2.3
			c3.03,1.37,3.78,4.23,4.06,7.19c0.44,4.73-1.41,7.24-6.79,10.07c-0.39,0.21-0.83,0.33-1.25,0.46c-1.41,0.43-2.63,0.87-3.25,2.54
			c-0.57,1.53-2.07,2.48-3.67,2.91c-5.14,1.38-10.24,1.54-15.13-0.95c-2.98-1.52-5.01-4.35-3.99-7.61c0.15-0.47-0.09-0.85-0.26-1.27
			c-1.19-2.86-1.98-5.84-2.32-8.9c-0.52-4.69,1.77-8.63,6.37-10.73C163.35,539.56,168.2,538.2,173.33,538.14z M174.56,563.72
			c0.5-0.1,0.89-0.2,1.28-0.26c3.15-0.47,6.01-1.56,8.4-3.75c0.73-0.67,1.17-1.47,1.29-2.42c0.2-1.67-0.03-3.28-0.73-4.83
			c-0.31-0.69-0.82-1.16-1.47-1.48c-2.64-1.31-7.53,0.42-8.68,3.13c-0.53,1.24-0.58,2.59,0.26,3.71c0.78,1.03,2.01,1.02,3.19,0.92
			c0.49-0.04,0.97-0.15,1.46-0.19c0.47-0.04,0.77,0.22,0.88,0.66c0.11,0.46-0.17,0.76-0.55,0.95c-2.6,1.28-5.99-0.05-7.12-2.76
			c-0.09-0.22-0.02-0.51-0.39-0.61c-1.36-0.38-2.31,0.04-2.87,1.38c-0.18,0.44-0.23,0.94-0.34,1.42c-0.11,0.44-0.38,0.7-0.85,0.69
			s-0.92-0.31-0.82-0.7c0.36-1.38-0.68-1.21-1.42-1.46c-0.84-0.28-1.61-0.47-2.49,0c-0.81,0.43-1.69,0.13-2.42-0.33
			c-1.83-1.16-2.71-2.91-2.81-5.04c-0.03-0.52,0.07-1.14,0.82-1.16c0.79-0.02,0.9,0.51,0.92,1.17c0.04,1.37,0.69,2.46,1.7,3.36
			c0.4,0.36,0.89,0.46,1.38,0.31c0.61-0.18,0.38-0.74,0.38-1.14c-0.01-2.11-0.38-4.16-0.99-6.18c-0.17-0.56-0.35-1.23,0.4-1.48
			c0.8-0.27,1.06,0.33,1.27,0.99c0.65,2.1,1.04,4.25,1.02,6.45c-0.01,0.87,0.45,1.19,1.15,1.36c1.21,0.31,2.08-0.31,2.32-1.73
			c0.43-2.48,0.04-4.89-0.8-7.23c-0.23-0.64-0.64-1.35,0.25-1.7c0.87-0.34,1.13,0.41,1.39,1.05c0.88,2.24,1.09,4.58,1.03,6.96
			c-0.01,0.55-0.25,1.23,0.67,1.31c0.75,0.06,1.4,0.08,1.59-0.92c0.11-0.59,0.36-1.25,0.76-1.68c0.86-0.91,0.8-1.94,0.66-3
			c-0.19-1.37-0.44-2.73-1.08-3.98c-0.29-0.56-0.5-1.13,0.18-1.51c0.8-0.45,1.12,0.23,1.4,0.78c0.72,1.41,1.05,2.93,1.19,4.49
			c0.06,0.63,0.17,0.89,0.89,0.57c0.85-0.38,1.76-0.62,2.66-0.87c0.39-0.11,0.6-0.23,0.68-0.66c0.66-3.37-1.62-6.4-5.06-6.67
			c-5.07-0.39-9.83,0.98-14.39,2.94c-4.22,1.81-5.48,4.36-4.63,8.89c0.54,2.87,0.97,5.84,3.02,8.16c0.45,0.51-0.05,0.69-0.25,0.97
			c-0.98,1.35-0.91,2.42,0.36,3.51c0.57,0.49,1.19,0.98,1.87,1.26c3.91,1.62,7.93,1.58,11.91,0.37
			C175.11,567.13,175.53,565.84,174.56,563.72z"/>
		<path class="st9" d="M174.56,563.72c0.97,2.11,0.54,3.41-1.57,4.05c-3.98,1.21-8,1.25-11.91-0.37c-0.68-0.28-1.31-0.77-1.87-1.26
			c-1.26-1.09-1.34-2.16-0.36-3.51c0.21-0.28,0.71-0.46,0.25-0.97c-2.05-2.33-2.48-5.29-3.02-8.16c-0.85-4.53,0.41-7.08,4.63-8.89
			c4.57-1.96,9.32-3.32,14.39-2.94c3.44,0.26,5.72,3.3,5.06,6.67c-0.09,0.44-0.29,0.56-0.68,0.66c-0.9,0.24-1.81,0.49-2.66,0.87
			c-0.72,0.32-0.83,0.06-0.89-0.57c-0.14-1.56-0.47-3.08-1.19-4.49c-0.28-0.55-0.6-1.22-1.4-0.78c-0.68,0.38-0.47,0.95-0.18,1.51
			c0.65,1.25,0.9,2.61,1.08,3.98c0.14,1.06,0.2,2.1-0.66,3c-0.4,0.43-0.65,1.09-0.76,1.68c-0.19,1-0.85,0.99-1.59,0.92
			c-0.92-0.08-0.69-0.76-0.67-1.31c0.05-2.38-0.15-4.72-1.03-6.96c-0.25-0.64-0.52-1.4-1.39-1.05c-0.89,0.35-0.48,1.06-0.25,1.7
			c0.84,2.34,1.23,4.75,0.8,7.23c-0.25,1.42-1.11,2.03-2.32,1.73c-0.69-0.17-1.16-0.49-1.15-1.36c0.03-2.2-0.36-4.35-1.02-6.45
			c-0.2-0.66-0.47-1.26-1.27-0.99c-0.75,0.25-0.57,0.92-0.4,1.48c0.61,2.02,0.98,4.07,0.99,6.18c0,0.4,0.24,0.96-0.38,1.14
			c-0.49,0.14-0.98,0.05-1.38-0.31c-1-0.9-1.66-1.99-1.7-3.36c-0.02-0.66-0.13-1.19-0.92-1.17c-0.75,0.02-0.84,0.64-0.82,1.16
			c0.1,2.13,0.99,3.87,2.81,5.04c0.73,0.46,1.61,0.76,2.42,0.33c0.88-0.47,1.65-0.28,2.49,0c0.75,0.24,1.78,0.07,1.42,1.46
			c-0.1,0.39,0.35,0.69,0.82,0.7s0.74-0.25,0.85-0.69c0.12-0.47,0.16-0.97,0.34-1.42c0.56-1.34,1.51-1.76,2.87-1.38
			c0.37,0.1,0.3,0.39,0.39,0.61c1.12,2.71,4.52,4.04,7.12,2.76c0.39-0.19,0.66-0.49,0.55-0.95c-0.1-0.44-0.41-0.7-0.88-0.66
			c-0.49,0.04-0.97,0.15-1.46,0.19c-1.18,0.1-2.41,0.11-3.19-0.92c-0.85-1.12-0.79-2.46-0.26-3.71c1.15-2.7,6.04-4.44,8.68-3.13
			c0.65,0.33,1.16,0.79,1.47,1.48c0.7,1.55,0.93,3.16,0.73,4.83c-0.12,0.95-0.56,1.75-1.29,2.42c-2.39,2.19-5.25,3.28-8.4,3.75
			C175.45,563.53,175.06,563.62,174.56,563.72z M167.94,565.31c0.66-0.08,1.51-0.16,2.34-0.31c0.63-0.11,1.32-0.3,1.14-1.16
			c-0.19-0.88-0.87-0.66-1.51-0.55c-2.15,0.36-4.27,0.37-6.26-0.72c-0.54-0.3-1.13-0.54-1.52,0.13c-0.46,0.77,0.18,1.14,0.73,1.44
			C164.38,564.95,166.04,565.24,167.94,565.31z"/>
		<path class="st8" d="M167.94,565.31c-1.9-0.07-3.56-0.36-5.08-1.18c-0.55-0.3-1.19-0.67-0.73-1.44c0.39-0.66,0.98-0.42,1.52-0.13
			c1.99,1.08,4.11,1.08,6.26,0.72c0.64-0.11,1.32-0.33,1.51,0.55c0.19,0.86-0.5,1.05-1.14,1.16
			C169.44,565.15,168.6,565.23,167.94,565.31z"/>
	</g>
</g>
</svg>
