<?xml version="1.0" encoding="utf-8"?>
<!-- Generator: Adobe Illustrator 27.9.3, SVG Export Plug-In . SVG Version: 9.03 Build 53313)  -->
<svg version="1.1" id="レイヤー_1" xmlns="http://www.w3.org/2000/svg" xmlns:xlink="http://www.w3.org/1999/xlink" x="0px"
	 y="0px" viewBox="0 0 513.09 675.82" style="enable-background:new 0 0 513.09 675.82;" xml:space="preserve">
<style type="text/css">
	.st0{fill:none;}
	.st1{fill:#00C8FF;stroke:#0076C2;stroke-width:2;stroke-miterlimit:10;}
	.st2{fill:#FFFFFF;stroke:#231815;stroke-linecap:round;stroke-linejoin:round;stroke-miterlimit:10;}
	.st3{fill:#FFF362;stroke:#0076C2;stroke-width:2;stroke-miterlimit:10;}
	.st4{fill:#FFFFFF;stroke:#0076C2;stroke-miterlimit:10;}
	.st5{fill:#F09DC1;stroke:#0076C2;stroke-miterlimit:10;}
	.st6{fill:#C6E7F9;stroke:#0076C2;stroke-miterlimit:10;}
	.st7{fill:#00A200;stroke:#0076C2;stroke-miterlimit:10;}
	.st8{fill:#130C0F;}
	.st9{fill:#FDFFFD;}
	.st10{fill:#FFFF00;}
	.st11{fill:#231815;}
	.st12{fill:#FFFFFF;}
</style>
<rect class="st0" width="513.09" height="675.82"/>
<g>
	<path class="st1" d="M377.44,658.8h-58.99c-4.4,0-8-3.6-8-8V533.25c0-4.4,3.6-8,8-8h58.99c4.4,0,8,3.6,8,8V650.8
		C385.44,655.2,381.84,658.8,377.44,658.8z"/>
	<path class="st2" d="M255.4,573.08"/>
	<path class="st2" d="M264.36,573.08"/>
	<path class="st3" d="M199.66,658.8h-58.99c-4.4,0-8-3.6-8-8V533.25c0-4.4,3.6-8,8-8h58.99c4.4,0,8,3.6,8,8V650.8
		C207.66,655.2,204.06,658.8,199.66,658.8z"/>
	<path class="st3" d="M288.55,658.8h-58.99c-4.4,0-8-3.6-8-8V533.25c0-4.4,3.6-8,8-8h58.99c4.4,0,8,3.6,8,8V650.8
		C296.55,655.2,292.95,658.8,288.55,658.8z"/>
	<path class="st4" d="M199.66,658.8h-58.99c-4.4,0-8-3.6-8-8v-0.15c0-4.4,3.6-8,8-8h58.99c4.4,0,8,3.6,8,8v0.15
		C207.66,655.2,204.06,658.8,199.66,658.8z"/>
	<path class="st4" d="M288.55,658.8h-58.99c-4.4,0-8-3.6-8-8v-0.15c0-4.4,3.6-8,8-8h58.99c4.4,0,8,3.6,8,8v0.15
		C296.55,655.2,292.95,658.8,288.55,658.8z"/>
	<path class="st4" d="M377.44,658.8h-58.99c-4.4,0-8-3.6-8-8v-0.15c0-4.4,3.6-8,8-8h58.99c4.4,0,8,3.6,8,8v0.15
		C385.44,655.2,381.84,658.8,377.44,658.8z"/>
	<path class="st5" d="M196.8,632.97h-53.27c-2.2,0-4-1.8-4-4v-43.14c0-2.2,1.8-4,4-4h53.27c2.2,0,4,1.8,4,4v43.14
		C200.8,631.17,199,632.97,196.8,632.97z"/>
	<path class="st6" d="M285.69,632.97h-53.27c-2.2,0-4-1.8-4-4v-43.14c0-2.2,1.8-4,4-4h53.27c2.2,0,4,1.8,4,4v43.14
		C289.69,631.17,287.89,632.97,285.69,632.97z"/>
	<circle class="st6" cx="258.58" cy="554.57" r="22.13"/>
	<path class="st7" d="M374.58,632.97h-53.27c-2.2,0-4-1.8-4-4v-43.14c0-2.2,1.8-4,4-4h53.27c2.2,0,4,1.8,4,4v43.14
		C378.58,631.17,376.78,632.97,374.58,632.97z"/>
	<circle class="st7" cx="347.47" cy="550.21" r="27.96"/>
	<g>
		<path class="st8" d="M259.16,573.56c-1.84,0.04-3.65-0.12-5.43-0.6c-2.34-0.62-3.8-2.17-4.06-4.57c-0.08-0.72-0.32-1.28-0.76-1.81
			c-2.95-3.6-3.38-7.6-1.85-11.89c0.27-0.75,0.3-1.44,0.09-2.2c-0.76-2.8-1.64-5.57-2.19-8.41c-0.5-2.61,0.31-4.92,2.65-6.42
			c2.44-1.57,5.04-1.74,7.56-0.27c0.97,0.57,1.49,0.74,2.48-0.06c2.33-1.89,5.49-1.83,8.12-0.12c2.44,1.59,3.41,4.1,2.69,7.17
			c-0.35,1.51-0.81,2.99-1.28,4.46c-0.16,0.49-0.23,0.85,0.36,1.01c4.48,1.2,5.78,5.93,4.9,10.22c-0.58,2.84-1.68,5.47-3.79,7.56
			c-0.28,0.28-0.39,0.56-0.41,0.94c-0.09,1.86-1.19,3.03-2.68,3.96c-1.47,0.92-3.13,0.8-4.73,1.01
			C260.28,573.62,259.72,573.56,259.16,573.56z M253.99,566.1c-0.24,0.33-0.43,0.58-0.59,0.84c-0.77,1.21-0.52,2.21,0.85,2.63
			c3.11,0.97,6.28,0.96,9.42,0.13c1.25-0.33,1.56-1.24,0.98-2.42c-0.25-0.5-0.19-0.68,0.29-1c3.22-2.14,4.33-5.4,4.4-9.04
			c0.05-2.46-0.93-3.62-3.26-4.38c-1.15-0.38-2.34-0.62-3.56-0.93c0.97-2.77,2.03-5.46,2.7-8.29c0.37-1.57-0.03-2.76-1.21-3.58
			c-2.36-1.65-5.1-0.63-5.67,2.19c-0.57,2.83-0.99,5.69-1.48,8.53c1.73,0.03,2.37,0.3,3.15,1.28c1.12,1.4,1.38,4.49-0.62,6.05
			c-1.01,0.78-0.87,1.79-0.56,2.81c0.25,0.83,0.98,0.82,1.66,0.83c0.79,0.02,0.68-0.59,0.77-1.09c0.32-1.77,0.92-3.45,1.74-5.04
			c0.26-0.51,0.58-1.06,1.27-0.73c0.75,0.35,0.51,0.93,0.22,1.5c-0.76,1.49-1.31,3.06-1.63,4.71c-0.13,0.65,0.12,0.88,0.66,0.99
			c0.53,0.1,0.99,0.02,1.43-0.38c0.8-0.73,1.28-1.61,1.54-2.63c0.12-0.46,0.43-0.64,0.89-0.59c0.5,0.05,0.68,0.39,0.71,0.82
			c0.14,2.07-2.62,4.96-4.54,4.42c-1.65-0.46-3.28-0.05-4.92-0.57c0.04,0.28,0.04,0.44,0.08,0.59c0.22,0.68,0.39,1.45-0.51,1.67
			c-0.89,0.22-0.91-0.58-1.07-1.21c-0.37-1.47-1.02-2.76-2.45-3.5c-0.49-0.25-1.11-0.43-1.05-1.13c0.06-0.72,0.73-0.72,1.24-0.91
			c1.3-0.48,2.62-0.96,3.61-2c0.85-0.89,0.96-2.56,0.24-3.52c-0.81-1.08-1.75-0.61-2.67-0.2c-1.34,0.6-2.62,1.39-4.01,1.82
			c-1.61,0.5-2.15,1.57-2.42,3.09C249.03,561.29,250.86,564.95,253.99,566.1z M256.5,550.89c-0.32-0.49-0.44-1.04-0.53-1.63
			c-0.36-2.39-0.76-4.78-1.17-7.17c-0.19-1.13-0.91-1.92-1.98-2.16c-3.28-0.72-5.28,1.46-4.49,4.28c0.79,2.82,1.56,5.65,2.28,8.49
			c0.2,0.79,0.52,0.73,1.11,0.43C253.28,552.37,254.87,551.65,256.5,550.89z"/>
		<path class="st9" d="M253.99,566.1c-3.13-1.15-4.96-4.81-4.35-8.26c0.27-1.51,0.8-2.58,2.42-3.09c1.39-0.43,2.67-1.22,4.01-1.82
			c0.91-0.41,1.86-0.88,2.67,0.2c0.72,0.96,0.61,2.64-0.24,3.52c-1,1.04-2.31,1.52-3.61,2c-0.51,0.19-1.18,0.19-1.24,0.91
			c-0.06,0.7,0.56,0.88,1.05,1.13c1.43,0.74,2.08,2.03,2.45,3.5c0.16,0.63,0.17,1.43,1.07,1.21c0.9-0.22,0.73-0.99,0.51-1.67
			c-0.05-0.15-0.05-0.31-0.08-0.59c1.64,0.53,3.27,0.11,4.92,0.57c1.92,0.54,4.68-2.34,4.54-4.42c-0.03-0.43-0.21-0.77-0.71-0.82
			c-0.46-0.04-0.77,0.13-0.89,0.59c-0.26,1.03-0.74,1.91-1.54,2.63c-0.44,0.4-0.9,0.48-1.43,0.38c-0.53-0.1-0.78-0.33-0.66-0.99
			c0.32-1.65,0.87-3.22,1.63-4.71c0.29-0.57,0.53-1.15-0.22-1.5c-0.69-0.33-1,0.21-1.27,0.73c-0.82,1.6-1.43,3.27-1.74,5.04
			c-0.09,0.49,0.02,1.1-0.77,1.09c-0.69-0.01-1.42-0.01-1.66-0.83c-0.31-1.02-0.45-2.03,0.56-2.81c2-1.55,1.74-4.65,0.62-6.05
			c-0.78-0.98-1.43-1.25-3.15-1.28c0.49-2.85,0.91-5.7,1.48-8.53c0.57-2.82,3.31-3.84,5.67-2.19c1.18,0.82,1.58,2.01,1.21,3.58
			c-0.67,2.82-1.73,5.52-2.7,8.29c1.22,0.31,2.41,0.55,3.56,0.93c2.33,0.76,3.31,1.92,3.26,4.38c-0.08,3.64-1.18,6.9-4.4,9.04
			c-0.48,0.32-0.54,0.49-0.29,1c0.58,1.19,0.27,2.09-0.98,2.42c-3.13,0.83-6.31,0.84-9.42-0.13c-1.37-0.43-1.61-1.43-0.85-2.63
			C253.56,566.68,253.75,566.43,253.99,566.1z M259.37,567.84c0.76,0.02,1.5-0.05,2.25-0.18c0.55-0.09,0.93-0.29,0.86-0.9
			c-0.08-0.65-0.52-0.82-1.12-0.74c-1.71,0.24-3.4,0.26-5.07-0.27c-0.53-0.17-0.99-0.06-1.18,0.48c-0.22,0.63,0.16,0.96,0.73,1.13
			C257,567.71,258.17,567.88,259.37,567.84z"/>
		<path class="st9" d="M256.5,550.89c-1.63,0.76-3.22,1.48-4.78,2.25c-0.6,0.29-0.91,0.36-1.11-0.43c-0.72-2.84-1.49-5.67-2.28-8.49
			c-0.79-2.83,1.21-5.01,4.49-4.28c1.07,0.24,1.79,1.03,1.98,2.16c0.41,2.39,0.81,4.77,1.17,7.17
			C256.06,549.85,256.19,550.4,256.5,550.89z"/>
		<path class="st8" d="M259.37,567.84c-1.2,0.04-2.37-0.13-3.52-0.48c-0.57-0.17-0.95-0.51-0.73-1.13c0.19-0.54,0.65-0.65,1.18-0.48
			c1.66,0.53,3.36,0.51,5.07,0.27c0.6-0.08,1.04,0.09,1.12,0.74c0.07,0.6-0.31,0.81-0.86,0.9
			C260.88,567.79,260.13,567.86,259.37,567.84z"/>
	</g>
	<path class="st8" d="M334.24,539.68c-0.15-1.75-0.37-3.36-0.4-4.97c-0.13-5.87,5.85-9.77,11.14-7.24c0.98,0.47,1.67,0.44,2.62-0.01
		c3.18-1.51,6.42-0.93,8.97,1.55c0.62,0.6,1.17,0.79,2.05,0.72c4.64-0.37,8.12,3.02,7.89,7.71c-0.05,1.06,0.19,1.51,1.17,1.97
		c4.05,1.91,5.12,7.45,2.27,11.45c-0.62,0.86-1.33,1.67-2.05,2.45c-1.89,2.03-3.44,4.27-4.35,6.92c-0.13,0.37-0.24,0.76-0.45,1.08
		c-1.58,2.52-3.1,4.98-3.69,8.04c-0.44,2.26-2.55,3.52-4.76,4.07c-4.31,1.07-8.67,1.1-12.98,0c-3.31-0.84-5.31-3.36-5.57-6.76
		c-0.04-0.55-0.07-1.05-0.44-1.56c-3.12-4.38-6.24-8.72-10.2-12.44c-3.07-2.88-3.01-7.73-0.17-10.62
		C327.7,539.58,330.7,538.83,334.24,539.68z M351.77,547.62c-0.56-1.04-0.31-1.62-0.15-2.2c0.89-3.35,1.79-6.7,2.63-10.07
		c0.51-2.03-0.57-3.8-2.5-4.25c-1.87-0.44-3.64,0.72-4.09,2.76c-0.28,1.25-0.5,2.53-0.63,3.81c-0.29,2.86-0.51,5.72-0.76,8.67
		c-0.84-0.49-0.57-1.19-0.6-1.76c-0.14-3.2-0.22-6.4-0.35-9.59c-0.1-2.35-1.67-3.96-3.74-3.91c-2.18,0.05-3.49,1.62-3.35,4.1
		c0.2,3.71,1.26,7.27,1.87,10.91c0.19,1.11,0.91,2.57-0.31,3.24c-1.38,0.75-2.11-0.81-2.94-1.64c-1.06-1.07-1.94-2.33-3.19-3.22
		c-1.64-1.18-3.88-0.89-5.31,0.68c-1.18,1.3-1.05,3.15,0.35,4.7c0.53,0.58,1.09,1.13,1.66,1.67c2.74,2.6,5.22,5.39,7.05,8.73
		c0.76,1.39,1.83,2.57,3.21,3.38c0.71,0.42,0.78,0.83,0.32,1.44c-1.31,1.77,0.13,3.73,1.83,4.13c3.55,0.82,7.12,0.9,10.66-0.03
		c2-0.53,2.62-1.72,2.04-3.66c-0.23-0.77-0.16-1.28,0.45-1.88c1.32-1.29,2.64-2.63,3.27-4.43c1.34-3.83,3.66-7.02,6.42-9.94
		c0.62-0.66,1.13-1.37,1.35-2.29c0.33-1.42,0.29-2.69-1.1-3.54c-1.21-0.74-2.86-0.44-3.93,0.79c-1.36,1.57-2.65,3.2-3.98,4.79
		c-0.29,0.34-0.43,0.93-1.2,0.78c0.11-0.93,0.58-1.69,0.94-2.48c1.36-2.94,3.11-5.7,4.18-8.78c0.74-2.14,0.05-3.75-1.65-4.3
		c-1.81-0.59-3.72,0.35-4.44,2.22c-0.46,1.2-0.9,2.41-1.33,3.62C353.59,542.46,352.75,544.85,351.77,547.62z"/>
	<path class="st10" d="M351.77,547.62c0.98-2.76,1.82-5.16,2.67-7.55c0.43-1.21,0.87-2.42,1.33-3.62c0.72-1.87,2.63-2.81,4.44-2.22
		c1.71,0.56,2.39,2.16,1.65,4.3c-1.06,3.07-2.82,5.83-4.18,8.78c-0.37,0.8-0.84,1.56-0.94,2.48c0.77,0.16,0.92-0.44,1.2-0.78
		c1.34-1.59,2.62-3.22,3.98-4.79c1.07-1.23,2.72-1.53,3.93-0.79c1.39,0.85,1.43,2.12,1.1,3.54c-0.22,0.92-0.73,1.63-1.35,2.29
		c-2.75,2.92-5.07,6.11-6.42,9.94c-0.63,1.8-1.95,3.13-3.27,4.43c-0.61,0.6-0.68,1.11-0.45,1.88c0.58,1.94-0.04,3.14-2.04,3.66
		c-3.53,0.93-7.11,0.85-10.66,0.03c-1.69-0.39-3.14-2.36-1.83-4.13c0.46-0.61,0.39-1.03-0.32-1.44c-1.38-0.81-2.45-2-3.21-3.38
		c-1.83-3.34-4.31-6.14-7.05-8.73c-0.57-0.54-1.14-1.09-1.66-1.67c-1.4-1.55-1.53-3.41-0.35-4.7c1.43-1.57,3.67-1.85,5.31-0.68
		c1.25,0.89,2.12,2.15,3.19,3.22c0.82,0.83,1.56,2.39,2.94,1.64c1.22-0.66,0.5-2.13,0.31-3.24c-0.61-3.64-1.67-7.21-1.87-10.91
		c-0.14-2.49,1.18-4.05,3.35-4.1c2.07-0.05,3.64,1.57,3.74,3.91c0.13,3.2,0.21,6.4,0.35,9.59c0.02,0.56-0.24,1.26,0.6,1.76
		c0.25-2.95,0.47-5.81,0.76-8.67c0.13-1.28,0.35-2.55,0.63-3.81c0.45-2.04,2.22-3.2,4.09-2.76c1.93,0.45,3.01,2.22,2.5,4.25
		c-0.85,3.36-1.75,6.71-2.63,10.07C351.46,546,351.21,546.57,351.77,547.62z M345.64,547.84c-0.34,0-0.67,0-1.01,0
		c-0.87,0.01-1.89,0.02-1.89,1.15c-0.01,1.23,1.06,1.04,1.89,1.03c3.72-0.07,7.21,0.82,10.5,2.54c0.74,0.39,1.5,0.79,2-0.19
		c0.49-0.98-0.3-1.4-1.02-1.77C352.82,548.89,349.34,547.93,345.64,547.84z M347.28,559.53c-0.08-2.11-3.51-6-5.66-6.44
		c-0.6-0.12-1.01,0.13-1.24,0.6c-0.32,0.68,0.02,1.17,0.63,1.53c1.92,1.12,3.63,2.41,4.13,4.78c0.12,0.56,0.6,0.97,1.27,0.79
		C347.02,560.62,347.3,560.16,347.28,559.53z M348.81,566.21c0-0.04,0-0.08,0-0.12c1.06,0,2.12,0,3.19,0c0.81,0,1.51-0.2,1.44-1.19
		c-0.06-0.91-0.77-0.93-1.49-0.93c-2.4,0-4.81,0.18-7.2-0.26c-0.71-0.13-1.39-0.02-1.5,0.89c-0.1,0.88,0.46,1.2,1.21,1.26
		C345.91,565.99,347.36,566.09,348.81,566.21z"/>
	<path class="st8" d="M345.64,547.84c3.7,0.09,7.18,1.05,10.46,2.75c0.72,0.37,1.52,0.8,1.02,1.77c-0.5,0.98-1.26,0.58-2,0.19
		c-3.29-1.71-6.78-2.61-10.5-2.54c-0.83,0.02-1.9,0.2-1.89-1.03c0.01-1.13,1.03-1.14,1.89-1.15
		C344.97,547.84,345.3,547.84,345.64,547.84z"/>
	<path class="st8" d="M347.28,559.53c0.02,0.63-0.26,1.09-0.87,1.26c-0.67,0.18-1.15-0.23-1.27-0.79c-0.51-2.37-2.21-3.66-4.13-4.78
		c-0.6-0.35-0.95-0.84-0.63-1.53c0.23-0.47,0.64-0.72,1.24-0.6C343.77,553.53,347.21,557.42,347.28,559.53z"/>
	<path class="st8" d="M348.81,566.21c-1.45-0.11-2.89-0.22-4.34-0.35c-0.75-0.07-1.32-0.39-1.21-1.26c0.11-0.91,0.79-1.02,1.5-0.89
		c2.39,0.44,4.8,0.26,7.2,0.26c0.72,0,1.42,0.01,1.49,0.93c0.07,0.99-0.62,1.19-1.44,1.19c-1.06,0-2.12,0-3.19,0
		C348.81,566.12,348.81,566.17,348.81,566.21z"/>
	<g>
		<path class="st11" d="M185.29,618.72c1.37,1.37,1.6,2.53,1.6,3.37c0,2.3-2.3,4.74-4.48,4.74c-0.93,0-2.3-0.31-3.54-1.51
			l-1.73-1.64c-2.04,0.71-3.59,1.24-6.96,1.24c-5.54,0-9.53-2.66-11.39-4.52l-2.48-2.48c-3.94-3.94-4.65-9.39-4.65-13.03
			c0-10.95,6.6-17.37,16.53-17.37c5.5,0,9.48,2.61,11.34,4.48l2.48,2.48c3.81,3.81,4.65,8.95,4.65,12.85
			c0,3.59-0.71,7.18-2.44,10.32L185.29,618.72z M170.4,599.67c-5.58,0-5.58,6.07-5.58,7.89c0,0.62,0,3.1,0.89,4.83
			c0.18,0.09,0.4,0.13,0.62,0.22c-0.18-0.58-0.22-0.8-0.22-1.06c0-2.39,2.17-4.87,4.79-4.87c0.67,0,1.29,0.18,2.44,0.84
			c0.09-0.93,0.18-1.95,0.18-2.97c0-0.84-0.04-2.7-0.89-4.48C171.87,599.75,171.11,599.67,170.4,599.67z"/>
	</g>
	<g>
		<path class="st11" d="M252.49,592.09c0.44-2.48,2.66-4.56,6.11-4.56c1.64,0,3.15,0.8,3.85,1.51l2.48,2.48
			c0.89,0.89,1.46,2.26,1.64,3.23l0.49-3.32c0.13-1.02,1.02-3.9,5.14-3.9c1.51,0,3.06,0.71,3.9,1.55l2.48,2.48
			c0.89,0.89,1.33,2.08,1.33,3.24c0,0.62-0.09,1.06-0.18,1.59l-4.39,23.22c-0.84,4.52-4.79,5.32-6.47,5.32
			c-2.13,0-3.81-1.33-4.3-1.82l-2.48-2.48c-0.75-0.75-1.42-1.91-1.59-2.97l-0.75-4.25l-1.24,6.74c-0.49,2.7-3.01,4.79-6.2,4.79
			c-1.6,0-3.37-0.89-4.43-1.95l-2.48-2.48c-1.06-1.06-1.51-2.08-1.73-3.37l-4.39-23.22c-0.13-0.67-0.18-1.11-0.18-1.55
			c0-2.84,2.35-4.83,5.54-4.83c1.24,0,2.66,0.44,3.5,1.29l2.48,2.48c1.11,1.11,1.29,2.39,1.42,3.23L252.49,592.09z"/>
	</g>
	<g>
		<path class="st11" d="M358.77,603.88c0.89,0.89,1.2,2.13,1.2,3.46c0,4.56-3.63,4.7-4.79,4.74c1.11,0.18,2.17,0.35,3.06,1.24
			l2.48,2.48c1.06,1.06,1.33,2.44,1.33,3.54c0,2.26-1.06,4.79-4.88,4.79H342.5c-2.44,0-4.03-0.53-5.23-1.73l-2.48-2.48
			c-0.71-0.71-1.77-1.99-1.77-5.27v-19.32c0-5.23,2.88-7,7-7h13.83c1.24,0,2.61,0.31,3.54,1.24l2.48,2.48
			c0.98,0.98,1.29,2.3,1.29,3.54c0,2.04-0.93,4.79-4.83,4.79h-1.55c0.44,0.18,0.84,0.35,1.51,1.02L358.77,603.88z"/>
	</g>
	<g>
		<path class="st12" d="M181.44,617.39l-2.08-1.95c3.06-3.81,3.06-9.39,3.06-10.55c0-11.3-7.27-15.6-14.49-15.6
			c-4.87,0-14.49,2.22-14.49,15.95c0,10.37,6.56,15.42,14.49,15.42c3.81,0,6.16-1.15,7.05-1.6l2.61,2.44
			c0.31,0.31,1.15,1.06,2.26,1.06c1.33,0,2.79-1.68,2.79-2.97C182.63,618.68,181.92,617.83,181.44,617.39z M174.21,610.66
			l-1.24-1.15c-0.62-0.58-1.37-1.06-2.22-1.06c-1.42,0-2.88,1.68-2.88,3.01c0,0.89,0.8,1.73,1.24,2.17l0.75,0.71
			c-0.4,0.09-1.02,0.22-1.95,0.22c-7.36,0-7.36-8.02-7.36-9.57s0-9.57,7.36-9.57c7.31,0,7.36,8.02,7.36,9.57
			C175.28,606.98,175.06,608.97,174.21,610.66z"/>
	</g>
	<path class="st12" d="M266.09,609.72c-0.04,0.27-0.13,0.53-0.35,0.53s-0.31-0.31-0.35-0.53l-3.06-17.28
		c-0.4-2.35-2.26-3.15-4.08-3.15c-2.53,0-3.81,1.86-4.03,3.1l-3.06,17.33c-0.04,0.22-0.13,0.53-0.35,0.53
		c-0.27,0-0.31-0.31-0.35-0.53l-2.75-18.04c-0.13-0.93-0.93-2.39-3.01-2.39c-2.13,0-3.81,1.11-3.81,3.01c0,0.53,0.09,0.93,0.13,1.24
		l4.39,23.26c0.44,2.3,2.53,3.86,4.56,3.86c2.13,0,3.99-1.33,4.34-3.32l3.68-20.52c0.04-0.13,0.13-0.27,0.31-0.27
		c0.13,0,0.22,0.13,0.27,0.27l3.68,20.52c0.22,1.11,1.55,3.32,4.39,3.32c1.59,0,3.99-1.06,4.52-3.86l4.39-23.26
		c0.09-0.35,0.13-0.89,0.13-1.29c0-1.86-1.82-2.97-3.59-2.97c-1.64,0-2.97,0.62-3.24,2.39L266.09,609.72z"/>
	<path class="st10" d="M341.75,601.93v-4.79c0-0.62,0.4-1.02,1.02-1.02h11.08c1.99,0,3.06-0.89,3.06-3.06
		c0-2.97-2.26-2.97-3.06-2.97h-13.83c-3.46,0-5.23,1.29-5.23,5.23v19.32c0,3.77,1.55,5.23,5.23,5.23h14.67c1.64,0,3.1-0.53,3.1-3.01
		c0-2.08-1.06-3.01-3.1-3.01h-11.92c-0.62,0-1.02-0.35-1.02-1.02v-5.01h10.95c2.66,0,3.01-1.55,3.01-2.97
		c0-1.99-0.97-2.92-3.01-2.92H341.75z"/>
	<g>
		<path class="st11" d="M154.93,644.99c0.65,0.45,1.04,1.2,1.04,1.5c0,0.06,0,0.48-0.76,0.6l0.96,0.71
			c0.37,0.29,0.39,0.66,0.39,0.87c0,1.23-0.96,3.65-3,5.38c-3.13,2.7-8.25,3.12-8.42,3.12c-0.39,0-0.69-0.11-0.94-0.3l-1.88-1.44
			c-0.35-0.27-0.45-0.61-0.45-0.92c0-0.75,0.39-0.78,2.06-1.08c3.92-0.72,5.64-1.95,6.86-3.91h-2.63c-1.04,1-2.7,2.34-3.82,2.34
			c-0.14,0-0.57,0-1-0.33l-1.86-1.42c-0.27-0.21-0.51-0.48-0.51-0.83c0-0.43,0.14-0.51,1.33-1.21c1.39-0.83,2.33-1.96,3.15-3.15
			c0.25-0.34,0.53-0.72,1.39-0.72c0.55,0,1.12,0.15,1.39,0.38l1.84,1.42h2.76c0.18,0,0.25,0,0.37,0.02
			c-0.1-0.15-0.47-0.81-0.55-0.93c-0.08-0.1-0.33-0.52-0.33-0.61c0-0.38,0.47-0.54,0.82-0.54c0.2,0,0.31,0.04,0.43,0.13
			L154.93,644.99z M146.27,648.08c-0.8,0.78-2.51,2.17-3.53,2.33l1.04,0.79c0.14,0.1,0.31,0.18,0.55,0.18
			c0.84,0,2.51-1.35,3.53-2.34h3.17c0.12-0.25,0.27-0.64,0.27-0.78c0-0.08-0.04-0.18-0.25-0.18H146.27z M144.53,656.47
			c0.2,0.15,0.33,0.22,0.61,0.22c0.06,0,4.98-0.39,7.95-2.95c1.92-1.65,2.84-3.96,2.84-5.07c0-0.25-0.04-0.39-0.22-0.52l-1.04-0.81
			c-0.06,1.17-1.08,4.29-4.41,6.3c-2.39,1.44-5.96,2.04-6.7,2.08L144.53,656.47z M149.19,646l-0.76-0.6c-0.1,0.2-0.2,0.34-0.35,0.6
			H149.19z M154.33,645.08c0.2,0.38,0.22,0.56,0.22,0.63c0,0.29-0.33,0.41-0.45,0.45l0.43,0.33c0.16,0.12,0.23,0.2,0.47,0.2
			c0.1,0,0.43-0.03,0.43-0.29c0-0.22-0.41-0.83-0.65-0.99L154.33,645.08z M155.89,645.53c-0.06-0.04-1-1.47-1-1.67
			c0-0.38,0.47-0.54,0.8-0.54c0.22,0,0.35,0.06,0.45,0.13l1.35,0.93c0.65,0.45,1.02,1.2,1.02,1.5c0,0.38-0.45,0.6-0.94,0.6
			c-0.39,0-0.55-0.1-0.82-0.31L155.89,645.53z M156.89,644.48c0.2,0.38,0.22,0.55,0.22,0.63c0,0.29-0.33,0.39-0.45,0.43l0.41,0.35
			c0.16,0.12,0.25,0.19,0.49,0.19c0.1,0,0.43-0.03,0.43-0.28c0-0.23-0.41-0.83-0.65-0.99L156.89,644.48z"/>
		<path class="st11" d="M195.04,648.83c0.86,0,1.06,0.15,1.41,0.42l1.67,1.26c0.16,0.11,0.43,0.36,0.43,0.92
			c0,1.17-1.08,1.19-1.63,1.19H185.2c-0.65,0-0.98-0.08-1.25-0.29l-1.84-1.42c-0.35-0.29-0.41-0.66-0.41-0.88
			c0-1.17,1.08-1.19,1.63-1.19H195.04z M183.34,651.17l1,0.77c0.18,0.13,0.29,0.19,0.86,0.19h11.72c0.65,0,1-0.04,1-0.73
			c0-0.33-0.14-0.45-0.31-0.58l-0.94-0.72c-0.08,0.87-0.65,1.08-1.63,1.08H183.34z"/>
	</g>
	<g>
		<path class="st11" d="M327.78,646.43c0.29,0.22,0.31,0.46,0.31,0.71c0,0.55-0.51,4.78-2.57,7.92c-0.96,1.47-1.47,1.74-2.19,1.74
			c-0.47,0-0.94-0.25-1.18-0.43l-1.88-1.44c-0.37-0.29-0.47-0.51-0.47-0.79c0-0.32,0.12-0.51,0.43-0.87
			c2.23-2.56,2.65-5.16,3.06-7.62c0.06-0.38,0.2-0.98,1.27-0.98c0.41,0,1.02,0.09,1.33,0.33L327.78,646.43z M326.22,645.91
			c-0.27,2.62-1.19,5.61-2.57,7.71c-1.04,1.58-1.51,1.65-1.94,1.72l0.9,0.67c0.16,0.12,0.45,0.3,0.74,0.3
			c0.33,0,0.67-0.06,1.61-1.47c2.04-3.09,2.53-7.38,2.53-7.74c0-0.13-0.02-0.24-0.14-0.33L326.22,645.91z M336.38,645.23
			c0.43,0.33,0.55,0.74,0.55,1.04c0,0.81-0.86,1.46-1.88,1.46c-0.78,0-1.29-0.38-1.8-0.77c0.08,0.36,0.33,1.92,0.41,2.24
			c0.71,3.04,2.02,4.57,2.76,5.4c0.31,0.33,0.45,0.54,0.45,0.88c0,0.66-0.69,1.32-1.78,1.32c-0.39,0-0.75-0.13-1.06-0.36l-1.82-1.38
			c-2.06-1.54-3.76-7.11-3.76-9.36c0-0.74,0.65-1.04,1.67-1.04c0.31,0,0.65,0.08,0.9,0.25l0.76,0.57c-0.02-0.08-0.04-0.17-0.04-0.3
			c0-0.79,0.84-1.46,1.9-1.46c0.39,0,0.9,0.09,1.37,0.45L336.38,645.23z M331.43,645.91c0.39,2.37,0.82,4.81,3,7.35
			c0.31,0.36,0.43,0.55,0.43,0.88c0,0.63-0.84,1.1-1.39,1.19l0.94,0.73c0.31,0.24,0.55,0.25,0.71,0.25c0.67,0,1.14-0.4,1.14-0.84
			c0-0.19-0.06-0.33-0.35-0.63c-2.35-2.47-2.88-5.59-3.12-6.88c-0.08-0.45-0.2-1.17-0.31-1.26L331.43,645.91z M332.86,645.19
			c0,0.33,0.35,0.6,0.78,0.6c0.41,0,0.76-0.25,0.76-0.6c0-0.33-0.35-0.58-0.76-0.58C333.21,644.6,332.86,644.86,332.86,645.19z
			 M335.56,645.16c-0.08,0.95-0.88,1.47-1.96,1.5l0.41,0.32c0.37,0.28,0.61,0.33,0.96,0.33c0.98,0,1.41-0.57,1.41-1.05
			c0-0.46-0.31-0.71-0.41-0.78L335.56,645.16z"/>
		<path class="st11" d="M374.35,648.83c0.86,0,1.06,0.15,1.41,0.42l1.67,1.26c0.16,0.11,0.43,0.36,0.43,0.92
			c0,1.17-1.08,1.19-1.63,1.19h-11.72c-0.65,0-0.98-0.08-1.25-0.29l-1.84-1.42c-0.35-0.29-0.41-0.66-0.41-0.88
			c0-1.17,1.08-1.19,1.63-1.19H374.35z M362.65,651.17l1,0.77c0.18,0.13,0.29,0.19,0.86,0.19h11.72c0.65,0,1-0.04,1-0.73
			c0-0.33-0.14-0.45-0.31-0.58l-0.94-0.72c-0.08,0.87-0.65,1.08-1.63,1.08H362.65z"/>
	</g>
	<g>
		<path class="st11" d="M231.6,655.39c-0.25-0.18-0.51-0.57-0.51-1.02c0-0.66,0.45-0.75,1.84-1.02c0.57-0.1,2.17-0.4,3.1-1.32h-2.64
			c-0.37,0-0.73-0.04-0.98-0.24l-1.88-1.44c-0.33-0.25-0.37-0.64-0.37-0.81c0-1.05,1-1.05,1.35-1.05h1.78l-1.74-1.35
			c-0.29-0.24-0.37-0.56-0.37-0.83c0-0.9,0.57-0.93,2.08-0.96c1.57-0.04,4.55-0.2,6.76-0.54c0.35-0.06,1.8-0.29,2.04-0.29
			c0.27,0,0.61,0.01,0.92,0.25l1.88,1.44c0.23,0.18,0.43,0.49,0.43,0.88c0,0.84-0.43,0.96-3.33,1.26l-0.43,0.04v0.08h2.17
			c0.39,0,0.74,0.04,0.98,0.22l1.88,1.44c0.35,0.27,0.37,0.66,0.37,0.83c0,1.05-1.02,1.05-1.35,1.05h-4.11
			c-0.16,1.06-0.43,2.94-3.29,4.15c-1.61,0.69-3.33,0.88-3.62,0.88c-0.37,0-0.78-0.04-1.06-0.25L231.6,655.39z M231.72,650.59
			l1.04,0.79c0.18,0.13,0.35,0.17,0.63,0.17h2.98c0.16-0.36,0.22-0.62,0.25-0.96H231.72z M236.68,648.49v-1.25
			c-1.67,0.12-2.33,0.15-3.9,0.17l1.41,1.08H236.68z M239.58,650.59c-0.2,1.56-0.88,3.15-3.29,4.16c-1.14,0.46-2.51,0.81-3.47,0.88
			l1.12,0.85c0.14,0.11,0.43,0.11,0.49,0.11c0.55,0,3.06-0.33,4.7-1.51c1.31-0.95,1.63-2.16,1.74-3.53h4.7c0.25,0,0.73,0,0.73-0.51
			c0-0.15-0.02-0.42-0.18-0.54l-1.08-0.83c-0.12,0.66-0.53,0.92-1.35,0.92H239.58z M240.89,648.49v-0.5l0.98-0.09
			c0.37-0.03,1.33-0.15,2.1-0.27c0.47-0.07,0.69-0.19,0.69-0.52c0-0.24-0.12-0.45-0.25-0.55l-1-0.77c-0.08,0.75-0.37,0.84-3.76,1.19
			v1.51H240.89z"/>
		<path class="st11" d="M253.24,648.59c-0.22-0.17-0.47-0.34-0.47-0.82c0-0.99,1.08-0.99,1.31-0.99h7.56c0.9,0,1.27,0.17,1.59,0.41
			l1.8,1.38c0.49,0.38,0.53,0.81,0.53,1.21v5.44c0,1.29-0.9,1.56-2.04,1.56h-7.66c-0.37,0-0.73-0.08-1-0.27l-1.88-1.42
			c-0.31-0.22-0.35-0.55-0.35-0.75c0-0.25,0.1-1,1.35-1h1.41l-2.08-1.58c-0.37-0.27-0.35-0.67-0.35-0.75c0-0.33,0.1-0.97,1.27-0.97
			h0.9L253.24,648.59z M263.68,653.78c0,1.29-0.9,1.56-2.04,1.56h-7.43l1,0.76c0.18,0.14,0.27,0.2,0.65,0.2h7.66
			c1.14,0,1.41-0.31,1.41-1.08v-5.44c0-0.25,0-0.62-0.33-0.87l-0.92-0.71V653.78z M260.94,650.03v-0.97c0-0.18-0.14-0.3-0.39-0.3
			h-6.21l1.67,1.28H260.94z M260.55,653.33c0.24,0,0.39-0.11,0.39-0.3v-1.05h-6.43l1.76,1.35H260.55z"/>
		<path class="st11" d="M282.01,645.95l2.19-0.1c0.63-0.03,0.92,0.09,1.17,0.28l1.82,1.38c0.33,0.24,0.43,0.57,0.43,0.88
			c0,0.12,0,0.93-1.37,1l-3.8,0.19l0.02,0.32l2.67-0.12c0.35-0.01,0.78-0.01,1.17,0.29l1.86,1.42c0.27,0.21,0.39,0.58,0.39,0.86
			c0,0.12,0,0.94-1.39,1l-4.39,0.21l0.2,2.44c0.04,0.53,0.06,1.25-1.59,1.25c-0.78,0-1.02-0.21-1.31-0.42l-1.72-1.3
			c-0.18-0.13-0.29-0.32-0.33-0.83l-0.08-0.92l-2.8,0.12c-0.59,0.03-0.9-0.08-1.16-0.27l-1.88-1.44c-0.39-0.3-0.39-0.75-0.39-0.83
			c0-0.43,0.24-0.99,1.37-1.04l4.57-0.21l-0.04-0.3l-2.06,0.11c-0.43,0.01-0.82-0.02-1.16-0.27l-1.88-1.44
			c-0.29-0.23-0.39-0.54-0.39-0.79c0-0.87,0.84-1.04,1.37-1.07l3.82-0.18l-0.06-0.83c-0.04-0.6,0.08-1.21,1.57-1.21
			c0.31,0,0.84,0.03,1.14,0.25L282.01,645.95z M277.84,652.27l-4.49,0.21l1,0.77c0.2,0.15,0.29,0.21,0.76,0.19l2.8-0.12
			L277.84,652.27z M277.5,648.31l-3.74,0.18l0.96,0.73c0.27,0.21,0.33,0.27,0.8,0.24l2.06-0.1L277.5,648.31z M280.91,652.13
			l0.2,2.45c0.04,0.55,0.04,1.2-1.49,1.25l0.84,0.63c0.25,0.19,0.43,0.33,1.04,0.33c0.92,0,0.9-0.35,0.86-0.74l-0.24-2.92l5.02-0.24
			c0.24-0.01,0.8-0.03,0.8-0.54c0-0.15-0.06-0.39-0.22-0.51l-1.06-0.81c-0.14,0.84-1.08,0.88-1.37,0.9L280.91,652.13z M280.4,646.04
			l0.96-0.06l-1.04-0.75L280.4,646.04z M280.58,648.16l0.16,1.83l1.12-0.04l-0.06-0.79l4.43-0.23c0.25-0.01,0.78-0.03,0.78-0.54
			c0-0.33-0.16-0.45-0.29-0.55l-0.98-0.74c-0.14,0.8-0.98,0.86-1.35,0.87L280.58,648.16z"/>
	</g>
	<circle class="st5" cx="169.69" cy="554.57" r="22.13"/>
	<g>
		<path class="st8" d="M173.33,538.14c1.66-0.02,3.3,0.05,4.88,0.66c3.15,1.22,4.76,3.62,5.22,6.86c0.15,1.06,0.4,1.79,1.54,2.3
			c3.03,1.37,3.78,4.23,4.06,7.19c0.44,4.73-1.41,7.24-6.79,10.07c-0.39,0.21-0.83,0.33-1.25,0.46c-1.41,0.43-2.63,0.87-3.25,2.54
			c-0.57,1.53-2.07,2.48-3.67,2.91c-5.14,1.38-10.24,1.54-15.13-0.95c-2.98-1.52-5.01-4.35-3.99-7.61c0.15-0.47-0.09-0.85-0.26-1.27
			c-1.19-2.86-1.98-5.84-2.32-8.9c-0.52-4.69,1.77-8.63,6.37-10.73C163.35,539.56,168.2,538.2,173.33,538.14z M174.56,563.72
			c0.5-0.1,0.89-0.2,1.28-0.26c3.15-0.47,6.01-1.56,8.4-3.75c0.73-0.67,1.17-1.47,1.29-2.42c0.2-1.67-0.03-3.28-0.73-4.83
			c-0.31-0.69-0.82-1.16-1.47-1.48c-2.64-1.31-7.53,0.42-8.68,3.13c-0.53,1.24-0.58,2.59,0.26,3.71c0.78,1.03,2.01,1.02,3.19,0.92
			c0.49-0.04,0.97-0.15,1.46-0.19c0.47-0.04,0.77,0.22,0.88,0.66c0.11,0.46-0.17,0.76-0.55,0.95c-2.6,1.28-5.99-0.05-7.12-2.76
			c-0.09-0.22-0.02-0.51-0.39-0.61c-1.36-0.38-2.31,0.04-2.87,1.38c-0.18,0.44-0.23,0.94-0.34,1.42c-0.11,0.44-0.38,0.7-0.85,0.69
			s-0.92-0.31-0.82-0.7c0.36-1.38-0.68-1.21-1.42-1.46c-0.84-0.28-1.61-0.47-2.49,0c-0.81,0.43-1.69,0.13-2.42-0.33
			c-1.83-1.16-2.71-2.91-2.81-5.04c-0.03-0.52,0.07-1.14,0.82-1.16c0.79-0.02,0.9,0.51,0.92,1.17c0.04,1.37,0.69,2.46,1.7,3.36
			c0.4,0.36,0.89,0.46,1.38,0.31c0.61-0.18,0.38-0.74,0.38-1.14c-0.01-2.11-0.38-4.16-0.99-6.18c-0.17-0.56-0.35-1.23,0.4-1.48
			c0.8-0.27,1.06,0.33,1.27,0.99c0.65,2.1,1.04,4.25,1.02,6.45c-0.01,0.87,0.45,1.19,1.15,1.36c1.21,0.31,2.08-0.31,2.32-1.73
			c0.43-2.48,0.04-4.89-0.8-7.23c-0.23-0.64-0.64-1.35,0.25-1.7c0.87-0.34,1.13,0.41,1.39,1.05c0.88,2.24,1.09,4.58,1.03,6.96
			c-0.01,0.55-0.25,1.23,0.67,1.31c0.75,0.06,1.4,0.08,1.59-0.92c0.11-0.59,0.36-1.25,0.76-1.68c0.86-0.91,0.8-1.94,0.66-3
			c-0.19-1.37-0.44-2.73-1.08-3.98c-0.29-0.56-0.5-1.13,0.18-1.51c0.8-0.45,1.12,0.23,1.4,0.78c0.72,1.41,1.05,2.93,1.19,4.49
			c0.06,0.63,0.17,0.89,0.89,0.57c0.85-0.38,1.76-0.62,2.66-0.87c0.39-0.11,0.6-0.23,0.68-0.66c0.66-3.37-1.62-6.4-5.06-6.67
			c-5.07-0.39-9.83,0.98-14.39,2.94c-4.22,1.81-5.48,4.36-4.63,8.89c0.54,2.87,0.97,5.84,3.02,8.16c0.45,0.51-0.05,0.69-0.25,0.97
			c-0.98,1.35-0.91,2.42,0.36,3.51c0.57,0.49,1.19,0.98,1.87,1.26c3.91,1.62,7.93,1.58,11.91,0.37
			C175.11,567.13,175.53,565.84,174.56,563.72z"/>
		<path class="st9" d="M174.56,563.72c0.97,2.11,0.54,3.41-1.57,4.05c-3.98,1.21-8,1.25-11.91-0.37c-0.68-0.28-1.31-0.77-1.87-1.26
			c-1.26-1.09-1.34-2.16-0.36-3.51c0.21-0.28,0.71-0.46,0.25-0.97c-2.05-2.33-2.48-5.29-3.02-8.16c-0.85-4.53,0.41-7.08,4.63-8.89
			c4.57-1.96,9.32-3.32,14.39-2.94c3.44,0.26,5.72,3.3,5.06,6.67c-0.09,0.44-0.29,0.56-0.68,0.66c-0.9,0.24-1.81,0.49-2.66,0.87
			c-0.72,0.32-0.83,0.06-0.89-0.57c-0.14-1.56-0.47-3.08-1.19-4.49c-0.28-0.55-0.6-1.22-1.4-0.78c-0.68,0.38-0.47,0.95-0.18,1.51
			c0.65,1.25,0.9,2.61,1.08,3.98c0.14,1.06,0.2,2.1-0.66,3c-0.4,0.43-0.65,1.09-0.76,1.68c-0.19,1-0.85,0.99-1.59,0.92
			c-0.92-0.08-0.69-0.76-0.67-1.31c0.05-2.38-0.15-4.72-1.03-6.96c-0.25-0.64-0.52-1.4-1.39-1.05c-0.89,0.35-0.48,1.06-0.25,1.7
			c0.84,2.34,1.23,4.75,0.8,7.23c-0.25,1.42-1.11,2.03-2.32,1.73c-0.69-0.17-1.16-0.49-1.15-1.36c0.03-2.2-0.36-4.35-1.02-6.45
			c-0.2-0.66-0.47-1.26-1.27-0.99c-0.75,0.25-0.57,0.92-0.4,1.48c0.61,2.02,0.98,4.07,0.99,6.18c0,0.4,0.24,0.96-0.38,1.14
			c-0.49,0.14-0.98,0.05-1.38-0.31c-1-0.9-1.66-1.99-1.7-3.36c-0.02-0.66-0.13-1.19-0.92-1.17c-0.75,0.02-0.84,0.64-0.82,1.16
			c0.1,2.13,0.99,3.87,2.81,5.04c0.73,0.46,1.61,0.76,2.42,0.33c0.88-0.47,1.65-0.28,2.49,0c0.75,0.24,1.78,0.07,1.42,1.46
			c-0.1,0.39,0.35,0.69,0.82,0.7s0.74-0.25,0.85-0.69c0.12-0.47,0.16-0.97,0.34-1.42c0.56-1.34,1.51-1.76,2.87-1.38
			c0.37,0.1,0.3,0.39,0.39,0.61c1.12,2.71,4.52,4.04,7.12,2.76c0.39-0.19,0.66-0.49,0.55-0.95c-0.1-0.44-0.41-0.7-0.88-0.66
			c-0.49,0.04-0.97,0.15-1.46,0.19c-1.18,0.1-2.41,0.11-3.19-0.92c-0.85-1.12-0.79-2.46-0.26-3.71c1.15-2.7,6.04-4.44,8.68-3.13
			c0.65,0.33,1.16,0.79,1.47,1.48c0.7,1.55,0.93,3.16,0.73,4.83c-0.12,0.95-0.56,1.75-1.29,2.42c-2.39,2.19-5.25,3.28-8.4,3.75
			C175.45,563.53,175.06,563.62,174.56,563.72z M167.94,565.31c0.66-0.08,1.51-0.16,2.34-0.31c0.63-0.11,1.32-0.3,1.14-1.16
			c-0.19-0.88-0.87-0.66-1.51-0.55c-2.15,0.36-4.27,0.37-6.26-0.72c-0.54-0.3-1.13-0.54-1.52,0.13c-0.46,0.77,0.18,1.14,0.73,1.44
			C164.38,564.95,166.04,565.24,167.94,565.31z"/>
		<path class="st8" d="M167.94,565.31c-1.9-0.07-3.56-0.36-5.08-1.18c-0.55-0.3-1.19-0.67-0.73-1.44c0.39-0.66,0.98-0.42,1.52-0.13
			c1.99,1.08,4.11,1.08,6.26,0.72c0.64-0.11,1.32-0.33,1.51,0.55c0.19,0.86-0.5,1.05-1.14,1.16
			C169.44,565.15,168.6,565.23,167.94,565.31z"/>
	</g>
</g>
</svg>
